solid STL generated by MeshLab
  facet normal  0.000000e+00  0.000000e+00 -1.000000e+00
    outer loop
      vertex   4.826000e+00  0.000000e+00  0.000000e+00
      vertex   0.000000e+00  0.000000e+00  0.000000e+00
      vertex  -2.413000e+00  4.179439e+00  0.000000e+00
    endloop
  endfacet
  facet normal  5.000000e-01  8.660254e-01  0.000000e+00
    outer loop
      vertex   4.826000e+00  0.000000e+00  0.000000e+00
      vertex  -2.413000e+00  4.179439e+00  0.000000e+00
      vertex  -2.413000e+00  4.179439e+00  9.398000e+01
    endloop
  endfacet
  facet normal  5.000000e-01  8.660254e-01 -0.000000e+00
    outer loop
      vertex   4.826000e+00  0.000000e+00  0.000000e+00
      vertex  -2.413000e+00  4.179439e+00  9.398000e+01
      vertex   4.826000e+00  0.000000e+00  9.398000e+01
    endloop
  endfacet
  facet normal  5.000000e-01 -8.660254e-01  0.000000e+00
    outer loop
      vertex  -2.413000e+00 -4.179439e+00  0.000000e+00
      vertex   4.826000e+00  0.000000e+00  0.000000e+00
      vertex   4.826000e+00  0.000000e+00  9.398000e+01
    endloop
  endfacet
  facet normal  5.000000e-01 -8.660254e-01  0.000000e+00
    outer loop
      vertex  -2.413000e+00 -4.179439e+00  0.000000e+00
      vertex   4.826000e+00  0.000000e+00  9.398000e+01
      vertex  -2.413000e+00 -4.179439e+00  9.398000e+01
    endloop
  endfacet
  facet normal -1.000000e+00  0.000000e+00  0.000000e+00
    outer loop
      vertex  -2.413000e+00  4.179439e+00  0.000000e+00
      vertex  -2.413000e+00 -4.179439e+00  0.000000e+00
      vertex  -2.413000e+00 -4.179439e+00  9.398000e+01
    endloop
  endfacet
  facet normal  0.000000e+00  0.000000e+00  1.000000e+00
    outer loop
      vertex  -2.413000e+00 -4.179439e+00  9.398000e+01
      vertex   4.826000e+00  0.000000e+00  9.398000e+01
      vertex   0.000000e+00  0.000000e+00  9.398000e+01
    endloop
  endfacet
  facet normal  0.000000e+00  0.000000e+00  1.000000e+00
    outer loop
      vertex  -2.413000e+00  4.179439e+00  9.398000e+01
      vertex  -2.413000e+00 -4.179439e+00  9.398000e+01
      vertex   0.000000e+00  0.000000e+00  9.398000e+01
    endloop
  endfacet
  facet normal  0.000000e+00  0.000000e+00  1.000000e+00
    outer loop
      vertex   4.826000e+00  0.000000e+00  9.398000e+01
      vertex  -2.413000e+00  4.179439e+00  9.398000e+01
      vertex   0.000000e+00  0.000000e+00  9.398000e+01
    endloop
  endfacet
  facet normal -1.000000e+00  0.000000e+00  0.000000e+00
    outer loop
      vertex  -2.413000e+00  4.179439e+00  0.000000e+00
      vertex  -2.413000e+00 -4.179439e+00  9.398000e+01
      vertex  -2.413000e+00  4.179439e+00  9.398000e+01
    endloop
  endfacet
  facet normal  0.000000e+00  0.000000e+00 -1.000000e+00
    outer loop
      vertex  -2.413000e+00  4.179439e+00  0.000000e+00
      vertex   0.000000e+00  0.000000e+00  0.000000e+00
      vertex  -2.413000e+00 -4.179439e+00  0.000000e+00
    endloop
  endfacet
  facet normal  0.000000e+00  0.000000e+00 -1.000000e+00
    outer loop
      vertex  -2.413000e+00 -4.179439e+00  0.000000e+00
      vertex   0.000000e+00  0.000000e+00  0.000000e+00
      vertex   4.826000e+00  0.000000e+00  0.000000e+00
    endloop
  endfacet
  facet normal  1.000000e+00  0.000000e+00 -0.000000e+00
    outer loop
      vertex   1.334212e+01 -1.163366e+00  2.628900e+01
      vertex   1.334212e+01  3.016071e+00  3.352800e+01
      vertex   1.334212e+01 -1.163367e+00  3.111500e+01
    endloop
  endfacet
  facet normal  1.000000e+00  0.000000e+00  0.000000e+00
    outer loop
      vertex   1.334212e+01 -5.342806e+00  3.352800e+01
      vertex   1.334212e+01 -1.163366e+00  2.628900e+01
      vertex   1.334212e+01 -1.163367e+00  3.111500e+01
    endloop
  endfacet
  facet normal -2.059925e-07 -8.660253e-01 -5.000002e-01
    outer loop
      vertex  -6.596883e+00 -3.253084e+00  2.990850e+01
      vertex   1.334212e+01 -1.163366e+00  2.628900e+01
      vertex   1.334212e+01 -5.342806e+00  3.352800e+01
    endloop
  endfacet
  facet normal -2.002704e-07 -8.660253e-01 -5.000003e-01
    outer loop
      vertex  -6.596883e+00 -3.253084e+00  2.990850e+01
      vertex   1.334212e+01 -5.342806e+00  3.352800e+01
      vertex  -6.596883e+00 -5.342804e+00  3.352800e+01
    endloop
  endfacet
  facet normal -1.000000e+00  1.140912e-07  6.587062e-08
    outer loop
      vertex  -6.596883e+00 -5.342804e+00  3.352800e+01
      vertex  -6.596882e+00 -1.163365e+00  3.352800e+01
      vertex  -6.596883e+00 -3.253084e+00  2.990850e+01
    endloop
  endfacet
  facet normal -1.000000e+00  1.140912e-07  6.587060e-08
    outer loop
      vertex  -6.596883e+00 -3.253084e+00  2.990850e+01
      vertex  -6.596882e+00 -1.163365e+00  3.352800e+01
      vertex  -6.596882e+00  3.016074e+00  3.352800e+01
    endloop
  endfacet
  facet normal -1.000000e+00  1.140912e-07  6.587062e-08
    outer loop
      vertex  -6.596882e+00  9.263550e-01  2.990850e+01
      vertex  -6.596883e+00 -3.253084e+00  2.990850e+01
      vertex  -6.596882e+00  3.016074e+00  3.352800e+01
    endloop
  endfacet
  facet normal  1.144403e-08  8.660254e-01 -5.000000e-01
    outer loop
      vertex  -6.596882e+00  9.263550e-01  2.990850e+01
      vertex  -6.596882e+00  3.016074e+00  3.352800e+01
      vertex   1.334212e+01  3.016071e+00  3.352800e+01
    endloop
  endfacet
  facet normal -1.000000e+00  1.140912e-07  6.587062e-08
    outer loop
      vertex  -6.596883e+00 -3.253084e+00  2.990850e+01
      vertex  -6.596882e+00  9.263550e-01  2.990850e+01
      vertex  -6.596883e+00 -1.163364e+00  2.628901e+01
    endloop
  endfacet
  facet normal  5.722014e-09  8.660254e-01 -5.000000e-01
    outer loop
      vertex  -6.596882e+00  9.263550e-01  2.990850e+01
      vertex   1.334212e+01 -1.163366e+00  2.628900e+01
      vertex  -6.596883e+00 -1.163364e+00  2.628901e+01
    endloop
  endfacet
  facet normal  1.913184e-07 -2.182774e-14  1.000000e+00
    outer loop
      vertex  -6.596882e+00 -1.163365e+00  3.352800e+01
      vertex   1.334212e+01  3.016071e+00  3.352800e+01
      vertex  -6.596882e+00  3.016074e+00  3.352800e+01
    endloop
  endfacet
  facet normal  1.913184e-07  0.000000e+00  1.000000e+00
    outer loop
      vertex  -6.596882e+00 -1.163365e+00  3.352800e+01
      vertex   1.334212e+01 -5.342806e+00  3.352800e+01
      vertex   1.334212e+01  3.016071e+00  3.352800e+01
    endloop
  endfacet
  facet normal  1.913184e-07 -2.182774e-14  1.000000e+00
    outer loop
      vertex  -6.596882e+00 -1.163365e+00  3.352800e+01
      vertex  -6.596883e+00 -5.342804e+00  3.352800e+01
      vertex   1.334212e+01 -5.342806e+00  3.352800e+01
    endloop
  endfacet
  facet normal -2.002704e-07 -8.660253e-01 -5.000002e-01
    outer loop
      vertex  -6.596883e+00 -3.253084e+00  2.990850e+01
      vertex  -6.596883e+00 -1.163364e+00  2.628901e+01
      vertex   1.334212e+01 -1.163366e+00  2.628900e+01
    endloop
  endfacet
  facet normal  1.000000e+00  0.000000e+00  0.000000e+00
    outer loop
      vertex   1.334212e+01  3.016071e+00  3.352800e+01
      vertex   1.334212e+01 -5.342806e+00  3.352800e+01
      vertex   1.334212e+01 -1.163367e+00  3.111500e+01
    endloop
  endfacet
  facet normal  8.583021e-09  8.660254e-01 -5.000000e-01
    outer loop
      vertex  -6.596882e+00  9.263550e-01  2.990850e+01
      vertex   1.334212e+01  3.016071e+00  3.352800e+01
      vertex   1.334212e+01 -1.163366e+00  2.628900e+01
    endloop
  endfacet
endsolid vcg
