solid STL generated by MeshLab
  facet normal  0.000000e+00  0.000000e+00 -1.000000e+00
    outer loop
      vertex   4.826000e+00  0.000000e+00  0.000000e+00
      vertex   0.000000e+00  0.000000e+00  0.000000e+00
      vertex  -2.413000e+00  4.179439e+00  0.000000e+00
    endloop
  endfacet
  facet normal  0.000000e+00  0.000000e+00 -1.000000e+00
    outer loop
      vertex  -2.413000e+00  4.179439e+00  0.000000e+00
      vertex   0.000000e+00  0.000000e+00  0.000000e+00
      vertex  -2.413000e+00 -4.179439e+00  0.000000e+00
    endloop
  endfacet
  facet normal  0.000000e+00  0.000000e+00 -1.000000e+00
    outer loop
      vertex  -2.413000e+00 -4.179439e+00  0.000000e+00
      vertex   0.000000e+00  0.000000e+00  0.000000e+00
      vertex   4.826000e+00  0.000000e+00  0.000000e+00
    endloop
  endfacet
  facet normal  5.000000e-01  8.660254e-01 -0.000000e+00
    outer loop
      vertex   4.826000e+00  0.000000e+00  0.000000e+00
      vertex  -2.413000e+00  4.179439e+00  9.398000e+01
      vertex   4.826000e+00  0.000000e+00  9.398000e+01
    endloop
  endfacet
  facet normal  5.000000e-01  8.660254e-01  0.000000e+00
    outer loop
      vertex   4.826000e+00  0.000000e+00  0.000000e+00
      vertex  -2.413000e+00  4.179439e+00  0.000000e+00
      vertex  -2.413000e+00  4.179439e+00  9.398000e+01
    endloop
  endfacet
  facet normal -1.000000e+00  0.000000e+00  0.000000e+00
    outer loop
      vertex  -2.413000e+00  4.179439e+00  0.000000e+00
      vertex  -2.413000e+00 -4.179439e+00  9.398000e+01
      vertex  -2.413000e+00  4.179439e+00  9.398000e+01
    endloop
  endfacet
  facet normal -1.000000e+00  0.000000e+00  0.000000e+00
    outer loop
      vertex  -2.413000e+00  4.179439e+00  0.000000e+00
      vertex  -2.413000e+00 -4.179439e+00  0.000000e+00
      vertex  -2.413000e+00 -4.179439e+00  9.398000e+01
    endloop
  endfacet
  facet normal  5.000000e-01 -8.660254e-01  0.000000e+00
    outer loop
      vertex  -2.413000e+00 -4.179439e+00  0.000000e+00
      vertex   4.826000e+00  0.000000e+00  9.398000e+01
      vertex  -2.413000e+00 -4.179439e+00  9.398000e+01
    endloop
  endfacet
  facet normal  5.000000e-01 -8.660254e-01  0.000000e+00
    outer loop
      vertex  -2.413000e+00 -4.179439e+00  0.000000e+00
      vertex   4.826000e+00  0.000000e+00  0.000000e+00
      vertex   4.826000e+00  0.000000e+00  9.398000e+01
    endloop
  endfacet
  facet normal  0.000000e+00  0.000000e+00  1.000000e+00
    outer loop
      vertex   4.826000e+00  0.000000e+00  9.398000e+01
      vertex  -2.413000e+00  4.179439e+00  9.398000e+01
      vertex   0.000000e+00  0.000000e+00  9.398000e+01
    endloop
  endfacet
  facet normal  0.000000e+00  0.000000e+00  1.000000e+00
    outer loop
      vertex  -2.413000e+00  4.179439e+00  9.398000e+01
      vertex  -2.413000e+00 -4.179439e+00  9.398000e+01
      vertex   0.000000e+00  0.000000e+00  9.398000e+01
    endloop
  endfacet
  facet normal  0.000000e+00  0.000000e+00  1.000000e+00
    outer loop
      vertex  -2.413000e+00 -4.179439e+00  9.398000e+01
      vertex   4.826000e+00  0.000000e+00  9.398000e+01
      vertex   0.000000e+00  0.000000e+00  9.398000e+01
    endloop
  endfacet
endsolid vcg
