<?xml version="1.0" encoding="UTF-8" standalone="no"?>
<svg
   xmlns:dc="http://purl.org/dc/elements/1.1/"
   xmlns:cc="http://creativecommons.org/ns#"
   xmlns:rdf="http://www.w3.org/1999/02/22-rdf-syntax-ns#"
   xmlns:svg="http://www.w3.org/2000/svg"
   xmlns="http://www.w3.org/2000/svg"
   xmlns:sodipodi="http://sodipodi.sourceforge.net/DTD/sodipodi-0.dtd"
   xmlns:inkscape="http://www.inkscape.org/namespaces/inkscape"
   width="7818.24005390106"
   height="7818.24005390106"
   version="1.1"
   id="svg4"
   sodipodi:docname="The6CubeUni.svg"
   inkscape:version="1.0.1 (3bc2e813f5, 2020-09-07)">
  <metadata
     id="metadata10">
    <rdf:RDF>
      <cc:Work
         rdf:about="">
        <dc:format>image/svg+xml</dc:format>
        <dc:type
           rdf:resource="http://purl.org/dc/dcmitype/StillImage" />
      </cc:Work>
    </rdf:RDF>
  </metadata>
  <defs
     id="defs8" />
  <sodipodi:namedview
     pagecolor="#ffffff"
     bordercolor="#000000"
     borderopacity="0.25"
     objecttolerance="10"
     gridtolerance="10"
     guidetolerance="10"
     inkscape:pageopacity="0"
     inkscape:pageshadow="2"
     inkscape:window-width="1920"
     inkscape:window-height="1057"
     id="namedview6"
     showgrid="false"
     inkscape:zoom="0.11383636"
     inkscape:cx="3909.1201"
     inkscape:cy="3909.1201"
     inkscape:window-x="-8"
     inkscape:window-y="-8"
     inkscape:window-maximized="1"
     inkscape:current-layer="svg4" />
  <polyline
     points=" 4933.12002695053 87.5 2885.12002695053 87.5000000000005 1861.12002695053 1861.12002695053 2885.12002695053 3634.74005390106 4658.74005390106 4658.74005390106 3634.74005390106 2885.12002695053 1861.12002695053 1861.12002695053 1861.12002695053 3909.12002695053 2885.12002695053 5682.74005390106 4658.74005390106 6706.74005390106 3634.74005390106 4933.12002695053 1861.12002695053 3909.12002695053 2885.12002695053 2135.5 3909.12002695053 3909.12002695053 5682.74005390106 4933.12002695053 4658.74005390106 3159.5 2885.12002695053 2135.5 2885.12002695053 87.5000000000005 3909.12002695053 1861.12002695053 2885.12002695053 3634.74005390106 2885.12002695053 5682.74005390106 3909.12002695053 3909.12002695053 3909.12002695053 1861.12002695053 5682.74005390106 2885.12002695053 4658.74005390106 4658.74005390106 4658.74005390106 6706.74005390106 5682.74005390106 4933.12002695053 5682.74005390106 2885.12002695053 4658.74005390106 1111.5 3634.74005390106 2885.12002695053 3634.74005390106 4933.12002695053 4658.74005390106 3159.5 4658.74005390106 1111.5 2885.12002695053 87.5000000000005 1111.5 1111.5 87.4999999999995 2885.12002695053 1111.5 4658.74005390106 2885.12002695053 5682.74005390106 1861.12002695053 3909.12002695053 87.4999999999995 2885.12002695053 87.4999999999995 4933.12002695053 1111.5 6706.74005390106 2885.12002695053 7730.74005390106 1861.12002695053 5957.12002695053 87.4999999999995 4933.12002695053 1111.5 3159.5 2135.5 4933.12002695053 3909.12002695053 5957.12002695053 2885.12002695053 4183.5 1111.5 3159.5 1111.5 1111.5 2135.5 2885.12002695053 1111.5 4658.74005390106 1111.5 6706.74005390106 2135.5 4933.12002695053 2135.5 2885.12002695053 3909.12002695053 3909.12002695053 2885.12002695053 5682.74005390106 2885.12002695053 7730.74005390106 3909.12002695053 5957.12002695053 3909.12002695053 3909.12002695053 2885.12002695053 2135.5 1861.12002695053 3909.12002695053 1861.12002695053 5957.12002695053 2885.12002695053 4183.5 2885.12002695053 2135.5 1111.5 1111.5 3159.5 1111.5 2135.5 2885.12002695053 3159.5 4658.74005390106 4933.12002695053 5682.74005390106 3909.12002695053 3909.12002695053 2135.5 2885.12002695053 2135.5 4933.12002695053 3159.5 6706.74005390106 4933.12002695053 7730.74005390106 3909.12002695053 5957.12002695053 2135.5 4933.12002695053 3159.5 3159.5 4183.5 4933.12002695053 5957.12002695053 5957.12002695053 4933.12002695053 4183.5 3159.5 3159.5 3159.5 1111.5 4183.5 2885.12002695053 3159.5 4658.74005390106 3159.5 6706.74005390106 4183.5 4933.12002695053 4183.5 2885.12002695053 5957.12002695053 3909.12002695053 4933.12002695053 5682.74005390106 4933.12002695053 7730.74005390106 5957.12002695053 5957.12002695053 5957.12002695053 3909.12002695053 4933.12002695053 2135.5 3909.12002695053 3909.12002695053 3909.12002695053 5957.12002695053 4933.12002695053 4183.5 4933.12002695053 2135.5 3159.5 1111.5 4933.12002695053 87.4999999999995 3909.12002695053 1861.12002695053 1861.12002695053 1861.12002695053 87.4999999999986 2885.12002695053 2135.5 2885.12002695053 3909.12002695053 1861.12002695053 4933.12002695053 3634.74005390106 6706.74005390106 4658.74005390106 5682.74005390106 2885.12002695053 3909.12002695053 1861.12002695053 3909.12002695053 3909.12002695053 4933.12002695053 5682.74005390106 6706.74005390106 6706.74005390106 5682.74005390106 4933.12002695053 3909.12002695053 3909.12002695053 1861.12002695053 3909.12002695053 87.4999999999986 4933.12002695053 2135.5 4933.12002695053 3909.12002695053 3909.12002695053 4933.12002695053 2135.5 2885.12002695053 2135.5 1111.5 3159.5 3159.5 3159.5 4933.12002695053 2135.5 5957.12002695053 3909.12002695053 7730.74005390106 4933.12002695053 6706.74005390106 3159.5 4933.12002695053 2135.5 4933.12002695053 87.5 5957.12002695053 1861.12002695053 3909.12002695053 1861.12002695053 2135.5 2885.12002695053 4183.5 2885.12002695053 5957.12002695053 1861.12002695053 4933.12002695053 3634.74005390106 2885.12002695053 3634.74005390106 1111.5 4658.74005390106 3159.5 4658.74005390106 4933.12002695053 3634.74005390106 4933.12002695053 5682.74005390106 2885.12002695053 5682.74005390106 1111.5 6706.74005390106 3159.5 6706.74005390106 4933.12002695053 5682.74005390106 5957.12002695053 3909.12002695053 3909.12002695053 3909.12002695053 2135.5 4933.12002695053 4183.5 4933.12002695053 5957.12002695053 3909.12002695053 5957.12002695053 1861.12002695053 7730.74005390106 2885.12002695053 5682.74005390106 2885.12002695053 3909.12002695053 3909.12002695053 5957.12002695053 3909.12002695053 7730.74005390106 2885.12002695053 6706.74005390106 4658.74005390106 4658.74005390106 4658.74005390106 2885.12002695053 5682.74005390106 4933.12002695053 5682.74005390106 6706.74005390106 4658.74005390106 6706.74005390106 6706.74005390106 4658.74005390106 6706.74005390106 2885.12002695053 7730.74005390106 4933.12002695053 7730.74005390106 6706.74005390106 6706.74005390106 7730.74005390106 4933.12002695053 5682.74005390106 4933.12002695053 3909.12002695053 5957.12002695053 5957.12002695053 5957.12002695053 7730.74005390106 4933.12002695053 7730.74005390106 2885.12002695053 6706.74005390106 1111.5 4658.74005390106 1111.5 2885.12002695053 2135.5 4933.12002695053 2135.5 6706.74005390106 1111.5 5682.74005390106 2885.12002695053 3634.74005390106 2885.12002695053 1861.12002695053 3909.12002695053 3909.12002695053 3909.12002695053 5682.74005390106 2885.12002695053 5682.74005390106 4933.12002695053 3634.74005390106 4933.12002695053 1861.12002695053 5957.12002695053 3909.12002695053 5957.12002695053 5682.74005390106 4933.12002695053 6706.74005390106 3159.5 4658.74005390106 3159.5 2885.12002695053 4183.5 4933.12002695053 4183.5 6706.74005390106 3159.5 6706.74005390106 1111.5 4933.12002695053 87.5000000000005 "
     stroke="green"
     fill="transparent"
     stroke-width=".002"
     id="polyline2"
     style="fill-rule:evenodd;stroke:#0000ff;stroke-opacity:0.51405621;stroke-width:128;stroke-miterlimit:4;stroke-dasharray:none;fill:#00ff00;fill-opacity:0.49799201;stroke-linecap:round;stroke-linejoin:round" />
</svg>
