<?xml version="1.0" standalone="no"?>
<svg width="4161.14181699479" height="4161.14181699479" version="1.1" xmlns="http://www.w3.org/2000/svg">
<polyline points="
2524.07090849739 137.470448845699
1724.91152266795 522.325325442973
1527.5354542487 1387.08638354825
2080.57090849739 2080.57090849739
2879.73029432684 2465.42578509467
2326.69484007814 1771.94126014552
1527.5354542487 1387.08638354825
1724.91152266795 2251.84744165353
2277.94697691664 2945.33196660267
3077.10636274609 3330.18684319994
2524.07090849739 2636.7023182508
1724.91152266795 2251.84744165353
1922.2875910872 1387.08638354825
2475.3230453359 2080.57090849739
3274.48243116534 2465.42578509467
2721.44697691664 1771.94126014552
1922.2875910872 1387.08638354825
1724.91152266795 522.325325442973
2277.94697691664 1215.80985039212
2080.57090849739 2080.57090849739
2277.94697691664 2945.33196660267
2475.3230453359 2080.57090849739
2277.94697691664 1215.80985039212
3077.10636274609 1600.66472698939
2879.73029432684 2465.42578509467
3077.10636274609 3330.18684319994
3274.48243116534 2465.42578509467
3077.10636274609 1600.66472698939
2524.07090849739 907.180202040247
2326.69484007814 1771.94126014553
2524.07090849739 2636.7023182508
2721.44697691664 1771.94126014553
2524.07090849739 907.180202040247
1724.91152266795 522.325325442973
1171.87606841925 1215.80985039212
974.5 2080.57090849739
1527.5354542487 2774.05543344654
2326.69484007814 3158.91031004381
1773.65938582945 2465.42578509467
974.5 2080.57090849739
1171.87606841925 2945.33196660267
1724.91152266795 3638.81649155181
2524.07090849739 4023.67136814909
1971.0354542487 3330.18684319995
1171.87606841925 2945.33196660267
1369.2521368385 2080.57090849739
1922.2875910872 2774.05543344654
2721.44697691664 3158.91031004381
2168.41152266795 2465.42578509467
1369.2521368385 2080.57090849739
1171.87606841925 1215.80985039212
1724.91152266795 1909.29437534126
1527.5354542487 2774.05543344654
1724.91152266795 3638.81649155181
1922.2875910872 2774.05543344654
1724.91152266795 1909.29437534126
2524.07090849739 2294.14925193853
2326.69484007814 3158.91031004381
2524.07090849739 4023.67136814909
2721.44697691664 3158.91031004381
2524.07090849739 2294.14925193853
1971.0354542487 1600.66472698939
1773.65938582945 2465.42578509467
1971.0354542487 3330.18684319994
2168.41152266795 2465.42578509467
1971.0354542487 1600.66472698939
1171.87606841925 1215.80985039212
1971.0354542487 830.954973794841
1773.65938582945 1695.71603190012
2326.69484007814 2389.20055684926
3125.85422590759 2774.05543344654
2572.81877165889 2080.57090849739
1773.65938582945 1695.71603190012
1971.0354542487 2560.4770900054
2524.07090849739 3253.96161495454
3323.23029432684 3638.81649155181
2770.19484007814 2945.33196660267
1971.0354542487 2560.4770900054
2168.41152266795 1695.71603190012
2721.44697691664 2389.20055684926
3520.60636274609 2774.05543344654
2967.57090849739 2080.57090849739
2168.41152266795 1695.71603190012
1971.0354542487 830.954973794842
2524.07090849739 1524.43949874398
2326.69484007814 2389.20055684926
2524.07090849739 3253.96161495454
2721.44697691664 2389.20055684926
2524.07090849739 1524.43949874398
3323.23029432684 1909.29437534126
3125.85422590759 2774.05543344654
3323.23029432684 3638.81649155181
3520.60636274609 2774.05543344654
3323.23029432684 1909.29437534126
2770.19484007814 1215.80985039212
2572.81877165889 2080.57090849739
2770.19484007814 2945.33196660267
2967.57090849739 2080.57090849739
2770.19484007814 1215.80985039212
1971.0354542487 830.954973794842
2524.07090849739 137.470448845699
2326.69484007814 1002.23150695098
1527.5354542487 1387.08638354825
974.5 2080.57090849739
1773.65938582945 1695.71603190012
2326.69484007814 1002.23150695098
2879.73029432684 1695.71603190012
3678.88968015629 2080.57090849739
3125.85422590759 1387.08638354825
2326.69484007814 1002.23150695098
2524.07090849739 1866.99256505625
3077.10636274609 2560.4770900054
3876.26574857554 2945.33196660267
3323.23029432684 2251.84744165353
2524.07090849739 1866.99256505625
1724.91152266795 2251.84744165353
1171.87606841925 2945.33196660267
1971.0354542487 2560.4770900054
2524.07090849739 1866.99256505625
2721.44697691664 1002.23150695098
1922.2875910872 1387.08638354825
1369.2521368385 2080.57090849739
2168.41152266795 1695.71603190012
2721.44697691664 1002.23150695098
3274.48243116534 1695.71603190012
4073.64181699479 2080.57090849739
3520.60636274609 1387.08638354825
2721.44697691664 1002.23150695098
2524.07090849739 137.470448845699
3077.10636274609 830.954973794841
2277.94697691665 1215.80985039212
1724.91152266795 1909.29437534126
2524.07090849739 1524.43949874398
3077.10636274609 830.954973794841
2879.73029432684 1695.71603190012
2080.57090849739 2080.57090849739
1527.5354542487 2774.05543344654
2326.69484007814 2389.20055684926
2879.73029432684 1695.71603190012
3077.10636274609 2560.4770900054
2277.94697691665 2945.33196660267
1724.91152266795 3638.81649155181
2524.07090849739 3253.96161495454
3077.10636274609 2560.4770900054
3274.48243116534 1695.71603190012
2475.3230453359 2080.57090849739
1922.2875910872 2774.05543344654
2721.44697691664 2389.20055684926
3274.48243116534 1695.71603190012
3077.10636274609 830.954973794841
3876.26574857554 1215.80985039212
3077.10636274609 1600.66472698939
2524.07090849739 2294.14925193853
3323.23029432684 1909.29437534126
3876.26574857554 1215.80985039212
3678.88968015629 2080.57090849739
2879.73029432684 2465.42578509467
2326.69484007814 3158.91031004381
3125.85422590759 2774.05543344654
3678.88968015629 2080.57090849739
3876.26574857554 2945.33196660267
3077.10636274609 3330.18684319994
2524.07090849739 4023.67136814909
3323.23029432684 3638.81649155181
3876.26574857554 2945.33196660267
4073.64181699479 2080.57090849739
3274.48243116534 2465.42578509467
2721.44697691665 3158.91031004381
3520.60636274609 2774.05543344654
4073.64181699479 2080.57090849739
3876.26574857554 1215.80985039212
3323.23029432684 522.325325442973
2524.07090849739 907.180202040247
1971.0354542487 1600.66472698939
2770.19484007814 1215.80985039212
3323.23029432684 522.325325442973
3125.85422590759 1387.08638354825
2326.69484007814 1771.94126014552
1773.65938582945 2465.42578509467
2572.81877165889 2080.57090849739
3125.85422590759 1387.08638354825
3323.23029432684 2251.84744165353
2524.07090849739 2636.7023182508
1971.0354542487 3330.18684319994
2770.19484007814 2945.33196660267
3323.23029432684 2251.84744165353
3520.60636274609 1387.08638354825
2721.44697691665 1771.94126014552
2168.41152266795 2465.42578509467
2967.57090849739 2080.57090849739
3520.60636274609 1387.08638354825
3323.23029432684 522.325325442973
2524.07090849739 137.470448845699
"
stroke="green" fill="transparent" stroke-width=".002"/>
</svg>
