<?xml version="1.0" standalone="no"?>
<svg width="12485.8125698764" height="12485.8125698764" version="1.1" xmlns="http://www.w3.org/2000/svg">
<polyline points="
7892.24242807282 87.5
4593.57014180353 87.5
2944.23399866889 2944.23399866889
4593.57014180353 5800.96799733779
7450.30414047243 7450.30414047243
5800.96799733779 4593.57014180353
2944.23399866889 2944.23399866889
2944.23399866889 6242.90628493818
4593.57014180353 9099.64028360707
7450.30414047243 10748.9764267417
5800.96799733779 7892.24242807282
2944.23399866889 6242.90628493818
4593.57014180353 3386.17228626928
6242.90628493818 6242.90628493818
9099.64028360707 7892.24242807282
7450.30414047243 5035.50842940392
4593.57014180353 3386.17228626928
4593.57014180353 87.5
6242.90628493818 2944.23399866889
4593.57014180353 5800.96799733779
4593.57014180354 9099.64028360707
6242.90628493818 6242.90628493818
6242.90628493818 2944.23399866889
9099.64028360707 4593.57014180353
7450.30414047243 7450.30414047243
7450.30414047243 10748.9764267417
9099.64028360707 7892.24242807282
9099.64028360707 4593.57014180353
7450.30414047243 1736.83614313464
5800.96799733779 4593.57014180353
5800.96799733779 7892.24242807282
7450.30414047243 5035.50842940392
7450.30414047243 1736.83614313464
4593.57014180353 87.5
1736.83614313464 1736.83614313464
87.5 4593.57014180353
1736.83614313464 7450.30414047243
4593.57014180354 9099.64028360707
2944.23399866889 6242.90628493818
87.5 4593.57014180353
87.5 7892.24242807282
1736.83614313464 10748.9764267417
4593.57014180354 12398.3125698764
2944.23399866889 9541.57857120746
87.5 7892.24242807282
1736.83614313464 5035.50842940392
3386.17228626928 7892.24242807282
6242.90628493818 9541.57857120746
4593.57014180353 6684.84457253856
1736.83614313464 5035.50842940392
1736.83614313464 1736.83614313464
3386.17228626928 4593.57014180353
1736.83614313464 7450.30414047243
1736.83614313464 10748.9764267417
3386.17228626928 7892.24242807282
3386.17228626928 4593.57014180353
6242.90628493818 6242.90628493818
4593.57014180354 9099.64028360707
4593.57014180354 12398.3125698764
6242.90628493818 9541.57857120746
6242.90628493818 6242.90628493818
4593.57014180353 3386.17228626928
2944.23399866889 6242.90628493818
2944.23399866889 9541.57857120746
4593.57014180353 6684.84457253856
4593.57014180353 3386.17228626928
1736.83614313464 1736.83614313464
5035.50842940392 1736.83614313464
3386.17228626928 4593.57014180353
5035.50842940392 7450.30414047243
7892.24242807282 9099.64028360707
6242.90628493818 6242.90628493818
3386.17228626928 4593.57014180353
3386.17228626928 7892.24242807282
5035.50842940392 10748.9764267417
7892.24242807282 12398.3125698764
6242.90628493818 9541.57857120746
3386.17228626928 7892.24242807282
5035.50842940392 5035.50842940392
6684.84457253856 7892.24242807282
9541.57857120746 9541.57857120746
7892.24242807282 6684.84457253856
5035.50842940392 5035.50842940392
5035.50842940392 1736.83614313464
6684.84457253856 4593.57014180353
5035.50842940392 7450.30414047243
5035.50842940392 10748.9764267417
6684.84457253856 7892.24242807282
6684.84457253856 4593.57014180353
9541.57857120746 6242.90628493818
7892.24242807282 9099.64028360707
7892.24242807282 12398.3125698764
9541.57857120746 9541.57857120746
9541.57857120746 6242.90628493818
7892.24242807282 3386.17228626928
6242.90628493818 6242.90628493818
6242.90628493818 9541.57857120746
7892.24242807282 6684.84457253856
7892.24242807282 3386.17228626928
5035.50842940392 1736.83614313464
7892.24242807282 87.5
6242.90628493818 2944.23399866889
2944.23399866889 2944.23399866889
87.4999999999991 4593.57014180354
3386.17228626928 4593.57014180353
6242.90628493818 2944.23399866889
7892.24242807282 5800.96799733779
10748.9764267417 7450.30414047243
9099.64028360707 4593.57014180353
6242.90628493817 2944.23399866889
6242.90628493817 6242.90628493818
7892.24242807282 9099.64028360707
10748.9764267417 10748.9764267417
9099.64028360707 7892.24242807282
6242.90628493817 6242.90628493818
2944.23399866889 6242.90628493818
87.4999999999982 7892.24242807282
3386.17228626928 7892.24242807282
6242.90628493817 6242.90628493818
7892.24242807281 3386.17228626928
4593.57014180353 3386.17228626928
1736.83614313464 5035.50842940392
5035.50842940392 5035.50842940392
7892.24242807281 3386.17228626928
9541.57857120746 6242.90628493818
12398.3125698763 7892.24242807282
10748.9764267417 5035.50842940392
7892.24242807281 3386.17228626928
7892.24242807281 87.5
9541.57857120746 2944.23399866889
6242.90628493817 2944.23399866889
3386.17228626928 4593.57014180353
6684.84457253856 4593.57014180353
9541.57857120746 2944.23399866889
7892.24242807281 5800.96799733779
4593.57014180353 5800.96799733779
1736.83614313464 7450.30414047243
5035.50842940392 7450.30414047243
7892.24242807281 5800.96799733779
7892.24242807281 9099.64028360707
4593.57014180353 9099.64028360707
1736.83614313464 10748.9764267417
5035.50842940392 10748.9764267417
7892.24242807281 9099.64028360707
9541.57857120745 6242.90628493818
6242.90628493817 6242.90628493818
3386.17228626928 7892.24242807282
6684.84457253856 7892.24242807282
9541.57857120745 6242.90628493818
9541.57857120745 2944.23399866889
12398.3125698763 4593.57014180354
9099.64028360706 4593.57014180354
6242.90628493817 6242.90628493818
9541.57857120745 6242.90628493818
12398.3125698763 4593.57014180354
10748.9764267417 7450.30414047243
7450.30414047242 7450.30414047243
4593.57014180353 9099.64028360707
7892.24242807281 9099.64028360707
10748.9764267417 7450.30414047243
10748.9764267417 10748.9764267417
7450.30414047242 10748.9764267417
4593.57014180353 12398.3125698764
7892.24242807281 12398.3125698764
10748.9764267417 10748.9764267417
12398.3125698763 7892.24242807282
9099.64028360706 7892.24242807282
6242.90628493817 9541.57857120746
9541.57857120745 9541.57857120746
12398.3125698763 7892.24242807282
12398.3125698763 4593.57014180354
10748.9764267417 1736.83614313464
7450.30414047242 1736.83614313464
4593.57014180353 3386.17228626928
7892.24242807281 3386.17228626928
10748.9764267417 1736.83614313464
9099.64028360706 4593.57014180354
5800.96799733778 4593.57014180354
2944.23399866889 6242.90628493818
6242.90628493817 6242.90628493818
9099.64028360706 4593.57014180354
9099.64028360706 7892.24242807282
5800.96799733778 7892.24242807282
2944.23399866889 9541.57857120746
6242.90628493817 9541.57857120746
9099.64028360706 7892.24242807282
10748.9764267417 5035.50842940392
7450.30414047242 5035.50842940393
4593.57014180353 6684.84457253857
7892.24242807281 6684.84457253857
10748.9764267417 5035.50842940392
10748.9764267417 1736.83614313464
7892.24242807281 87.5000000000009
"
stroke="green"
id="polyline2"
style="fill:#ff0000;fill-opacity:1;fill-rule:evenodd"
/>
</svg>
