%MOMM*%
%FSLAX36Y36*%
%ADD10C,3.14159265358979*%
D10*
G01*
%LPD*%
%LS1.25663706143592*%
X816284040Y98115960D02*
X98115960Y98115960D01*
X98115960Y816284040D01*
X816284040Y816284040D01*
X816284040Y98115960D01*
%LPC*%
%LS1.15191730631626*%
X816284040Y98115960D02*
X98115960Y98115960D01*
X98115960Y816284040D01*
X816284040Y816284040D01*
X816284040Y98115960D01*
%LPD*%
%LS1.0471975511966*%
X816284040Y98115960D02*
X98115960Y98115960D01*
X98115960Y816284040D01*
X816284040Y816284040D01*
X816284040Y98115960D01*
%LPC*%
%LS0.942477796076938*%
X816284040Y98115960D02*
X98115960Y98115960D01*
X98115960Y816284040D01*
X816284040Y816284040D01*
X816284040Y98115960D01*
%LPD*%
%LS0.837758040957278*%
X816284040Y98115960D02*
X98115960Y98115960D01*
X98115960Y816284040D01*
X816284040Y816284040D01*
X816284040Y98115960D01*
%LPC*%
%LS0.733038285837618*%
X816284040Y98115960D02*
X98115960Y98115960D01*
X98115960Y816284040D01*
X816284040Y816284040D01*
X816284040Y98115960D01*
%LPD*%
%LS0.628318530717959*%
X816284040Y98115960D02*
X98115960Y98115960D01*
X98115960Y816284040D01*
X816284040Y816284040D01*
X816284040Y98115960D01*
%LPC*%
%LS0.523598775598299*%
X816284040Y98115960D02*
X98115960Y98115960D01*
X98115960Y816284040D01*
X816284040Y816284040D01*
X816284040Y98115960D01*
%LPD*%
%LS0.418879020478639*%
X816284040Y98115960D02*
X98115960Y98115960D01*
X98115960Y816284040D01*
X816284040Y816284040D01*
X816284040Y98115960D01*
%LPC*%
%LS0.314159265358979*%
X816284040Y98115960D02*
X98115960Y98115960D01*
X98115960Y816284040D01*
X816284040Y816284040D01*
X816284040Y98115960D01*
%LPD*%
%LS0.20943951023932*%
X816284040Y98115960D02*
X98115960Y98115960D01*
X98115960Y816284040D01*
X816284040Y816284040D01*
X816284040Y98115960D01*
%LPC*%
%LS0.10471975511966*%
X816284040Y98115960D02*
X98115960Y98115960D01*
X98115960Y816284040D01*
X816284040Y816284040D01*
X816284040Y98115960D01*
M02*
