%MOMM*%
%FSLAX26Y26*%
%LPD*%
%ADD10C,0.0625*%
D10*
X546731740Y5888079D02*
G01*
X367268260Y5888079D01*
X240368416Y132787923D01*
X240368416Y312251403D01*
X367268260Y439151247D01*
X533070896Y507828948D01*
X406171052Y380929104D01*
X240368416Y312251403D01*
X309046117Y478054040D01*
X435945960Y604953883D01*
X601748597Y673631584D01*
X474848753Y546731740D01*
X309046117Y478054040D01*
X309046117Y298590559D01*
X435945960Y425490403D01*
X601748597Y494168104D01*
X474848753Y367268260D01*
X309046117Y298590559D01*
X240368416Y132787923D01*
X367268260Y259687767D01*
X367268260Y439151247D01*
X435945960Y604953883D01*
X435945960Y425490403D01*
X367268260Y259687767D01*
X533070896Y328365467D01*
X533070896Y507828948D01*
X601748597Y673631584D01*
X601748597Y494168104D01*
X533070896Y328365467D01*
X406171052Y201465624D01*
X406171052Y380929104D01*
X474848753Y546731740D01*
X474848753Y367268260D01*
X406171052Y201465624D01*
X240368416Y132787923D01*
X171690715Y298590559D01*
X171690715Y478054040D01*
X298590559Y604953883D01*
X464393196Y673631584D01*
X337493352Y546731740D01*
X171690715Y478054040D01*
X240368416Y643856676D01*
X367268260Y770756520D01*
X533070896Y839434220D01*
X406171052Y712534376D01*
X240368416Y643856676D01*
X240368416Y464393196D01*
X367268260Y591293039D01*
X533070896Y659970740D01*
X406171052Y533070896D01*
X240368416Y464393196D01*
X171690715Y298590559D01*
X298590559Y425490403D01*
X298590559Y604953883D01*
X367268260Y770756520D01*
X367268260Y591293039D01*
X298590559Y425490403D01*
X464393196Y494168104D01*
X464393196Y673631584D01*
X533070896Y839434220D01*
X533070896Y659970740D01*
X464393196Y494168104D01*
X337493352Y367268260D01*
X337493352Y546731740D01*
X406171052Y712534376D01*
X406171052Y533070896D01*
X337493352Y367268260D01*
X171690715Y298590559D01*
X298590559Y171690715D01*
X298590559Y351154196D01*
X425490403Y478054040D01*
X591293039Y546731740D01*
X464393196Y419831896D01*
X298590559Y351154196D01*
X367268260Y516956832D01*
X494168104Y643856676D01*
X659970740Y712534376D01*
X533070896Y585634533D01*
X367268260Y516956832D01*
X367268260Y337493352D01*
X494168104Y464393196D01*
X659970740Y533070896D01*
X533070896Y406171052D01*
X367268260Y337493352D01*
X298590559Y171690715D01*
X425490403Y298590559D01*
X425490403Y478054040D01*
X494168104Y643856676D01*
X494168104Y464393196D01*
X425490403Y298590559D01*
X591293039Y367268260D01*
X591293039Y546731740D01*
X659970740Y712534376D01*
X659970740Y533070896D01*
X591293039Y367268260D01*
X464393196Y240368416D01*
X464393196Y419831896D01*
X533070896Y585634533D01*
X533070896Y406171052D01*
X464393196Y240368416D01*
X298590559Y171690715D01*
X367268260Y5888079D01*
X367268260Y185351559D01*
X240368416Y312251403D01*
X171690715Y478054040D01*
X298590559Y351154196D01*
X367268260Y185351559D01*
X494168104Y312251403D01*
X659970740Y380929104D01*
X533070896Y254029260D01*
X367268260Y185351559D01*
X435945960Y351154196D01*
X562845804Y478054040D01*
X728648441Y546731740D01*
X601748597Y419831896D01*
X435945960Y351154196D01*
X309046117Y478054040D01*
X240368416Y643856676D01*
X367268260Y516956832D01*
X435945960Y351154196D01*
X435945960Y171690715D01*
X309046117Y298590559D01*
X240368416Y464393196D01*
X367268260Y337493352D01*
X435945960Y171690715D01*
X562845804Y298590559D01*
X728648441Y367268260D01*
X601748597Y240368416D01*
X435945960Y171690715D01*
X367268260Y5888079D01*
X494168104Y132787923D01*
X367268260Y259687767D01*
X298590559Y425490403D01*
X425490403Y298590559D01*
X494168104Y132787923D01*
X494168104Y312251403D01*
X367268260Y439151247D01*
X298590559Y604953883D01*
X425490403Y478054040D01*
X494168104Y312251403D01*
X562845804Y478054040D01*
X435945960Y604953883D01*
X367268260Y770756520D01*
X494168104Y643856676D01*
X562845804Y478054040D01*
X562845804Y298590559D01*
X435945960Y425490403D01*
X367268260Y591293039D01*
X494168104Y464393196D01*
X562845804Y298590559D01*
X494168104Y132787923D01*
X659970740Y201465624D01*
X533070896Y328365467D01*
X464393196Y494168104D01*
X591293039Y367268260D01*
X659970740Y201465624D01*
X659970740Y380929104D01*
X533070896Y507828948D01*
X464393196Y673631584D01*
X591293039Y546731740D01*
X659970740Y380929104D01*
X728648441Y546731740D01*
X601748597Y673631584D01*
X533070896Y839434220D01*
X659970740Y712534376D01*
X728648441Y546731740D01*
X728648441Y367268260D01*
X601748597Y494168104D01*
X533070896Y659970740D01*
X659970740Y533070896D01*
X728648441Y367268260D01*
X659970740Y201465624D01*
X533070896Y74565780D01*
X406171052Y201465624D01*
X337493352Y367268260D01*
X464393196Y240368416D01*
X533070896Y74565780D01*
X533070896Y254029260D01*
X406171052Y380929104D01*
X337493352Y546731740D01*
X464393196Y419831896D01*
X533070896Y254029260D01*
X601748597Y419831896D01*
X474848753Y546731740D01*
X406171052Y712534376D01*
X533070896Y585634533D01*
X601748597Y419831896D01*
X601748597Y240368416D01*
X474848753Y367268260D01*
X406171052Y533070896D01*
X533070896Y406171052D01*
X601748597Y240368416D01*
X533070896Y74565780D01*
X367268260Y5888079D01*
X201465624Y74565780D01*
X74565780Y201465624D01*
X74565780Y380929104D01*
X201465624Y507828948D01*
X367268260Y576506648D01*
X240368416Y449606804D01*
X74565780Y380929104D01*
X143243480Y546731740D01*
X270143324Y673631584D01*
X435945960Y742309285D01*
X309046117Y615409441D01*
X143243480Y546731740D01*
X143243480Y367268260D01*
X270143324Y494168104D01*
X435945960Y562845804D01*
X309046117Y435945960D01*
X143243480Y367268260D01*
X74565780Y201465624D01*
X201465624Y328365467D01*
X201465624Y507828948D01*
X270143324Y673631584D01*
X270143324Y494168104D01*
X201465624Y328365467D01*
X367268260Y397043168D01*
X367268260Y576506648D01*
X435945960Y742309285D01*
X435945960Y562845804D01*
X367268260Y397043168D01*
X240368416Y270143324D01*
X240368416Y449606804D01*
X309046117Y615409441D01*
X309046117Y435945960D01*
X240368416Y270143324D01*
X74565780Y201465624D01*
X5888079Y367268260D01*
X5888079Y546731740D01*
X132787923Y673631584D01*
X298590559Y742309285D01*
X171690715Y615409441D01*
X5888079Y546731740D01*
X74565780Y712534376D01*
X201465624Y839434220D01*
X367268260Y908111921D01*
X240368416Y781212077D01*
X74565780Y712534376D01*
X74565780Y533070896D01*
X201465624Y659970740D01*
X367268260Y728648441D01*
X240368416Y601748597D01*
X74565780Y533070896D01*
X5888079Y367268260D01*
X132787923Y494168104D01*
X132787923Y673631584D01*
X201465624Y839434220D01*
X201465624Y659970740D01*
X132787923Y494168104D01*
X298590559Y562845804D01*
X298590559Y742309285D01*
X367268260Y908111921D01*
X367268260Y728648441D01*
X298590559Y562845804D01*
X171690715Y435945960D01*
X171690715Y615409441D01*
X240368416Y781212077D01*
X240368416Y601748597D01*
X171690715Y435945960D01*
X5888079Y367268260D01*
X132787923Y240368416D01*
X132787923Y419831896D01*
X259687767Y546731740D01*
X425490403Y615409441D01*
X298590559Y488509597D01*
X132787923Y419831896D01*
X201465624Y585634533D01*
X328365467Y712534376D01*
X494168104Y781212077D01*
X367268260Y654312233D01*
X201465624Y585634533D01*
X201465624Y406171052D01*
X328365467Y533070896D01*
X494168104Y601748597D01*
X367268260Y474848753D01*
X201465624Y406171052D01*
X132787923Y240368416D01*
X259687767Y367268260D01*
X259687767Y546731740D01*
X328365467Y712534376D01*
X328365467Y533070896D01*
X259687767Y367268260D01*
X425490403Y435945960D01*
X425490403Y615409441D01*
X494168104Y781212077D01*
X494168104Y601748597D01*
X425490403Y435945960D01*
X298590559Y309046117D01*
X298590559Y488509597D01*
X367268260Y654312233D01*
X367268260Y474848753D01*
X298590559Y309046117D01*
X132787923Y240368416D01*
X201465624Y74565780D01*
X201465624Y254029260D01*
X74565780Y380929104D01*
X5888079Y546731740D01*
X132787923Y419831896D01*
X201465624Y254029260D01*
X328365467Y380929104D01*
X494168104Y449606804D01*
X367268260Y322706961D01*
X201465624Y254029260D01*
X270143324Y419831896D01*
X397043168Y546731740D01*
X562845804Y615409441D01*
X435945960Y488509597D01*
X270143324Y419831896D01*
X143243480Y546731740D01*
X74565780Y712534376D01*
X201465624Y585634533D01*
X270143324Y419831896D01*
X270143324Y240368416D01*
X143243480Y367268260D01*
X74565780Y533070896D01*
X201465624Y406171052D01*
X270143324Y240368416D01*
X397043168Y367268260D01*
X562845804Y435945960D01*
X435945960Y309046117D01*
X270143324Y240368416D01*
X201465624Y74565780D01*
X328365467Y201465624D01*
X201465624Y328365467D01*
X132787923Y494168104D01*
X259687767Y367268260D01*
X328365467Y201465624D01*
X328365467Y380929104D01*
X201465624Y507828948D01*
X132787923Y673631584D01*
X259687767Y546731740D01*
X328365467Y380929104D01*
X397043168Y546731740D01*
X270143324Y673631584D01*
X201465624Y839434220D01*
X328365467Y712534376D01*
X397043168Y546731740D01*
X397043168Y367268260D01*
X270143324Y494168104D01*
X201465624Y659970740D01*
X328365467Y533070896D01*
X397043168Y367268260D01*
X328365467Y201465624D01*
X494168104Y270143324D01*
X367268260Y397043168D01*
X298590559Y562845804D01*
X425490403Y435945960D01*
X494168104Y270143324D01*
X494168104Y449606804D01*
X367268260Y576506648D01*
X298590559Y742309285D01*
X425490403Y615409441D01*
X494168104Y449606804D01*
X562845804Y615409441D01*
X435945960Y742309285D01*
X367268260Y908111921D01*
X494168104Y781212077D01*
X562845804Y615409441D01*
X562845804Y435945960D01*
X435945960Y562845804D01*
X367268260Y728648441D01*
X494168104Y601748597D01*
X562845804Y435945960D01*
X494168104Y270143324D01*
X367268260Y143243480D01*
X240368416Y270143324D01*
X171690715Y435945960D01*
X298590559Y309046117D01*
X367268260Y143243480D01*
X367268260Y322706961D01*
X240368416Y449606804D01*
X171690715Y615409441D01*
X298590559Y488509597D01*
X367268260Y322706961D01*
X435945960Y488509597D01*
X309046117Y615409441D01*
X240368416Y781212077D01*
X367268260Y654312233D01*
X435945960Y488509597D01*
X435945960Y309046117D01*
X309046117Y435945960D01*
X240368416Y601748597D01*
X367268260Y474848753D01*
X435945960Y309046117D01*
X367268260Y143243480D01*
X201465624Y74565780D01*
X380929104Y74565780D01*
X254029260Y201465624D01*
X254029260Y380929104D01*
X380929104Y507828948D01*
X546731740Y576506648D01*
X419831896Y449606804D01*
X254029260Y380929104D01*
X322706961Y546731740D01*
X449606804Y673631584D01*
X615409441Y742309285D01*
X488509597Y615409441D01*
X322706961Y546731740D01*
X322706961Y367268260D01*
X449606804Y494168104D01*
X615409441Y562845804D01*
X488509597Y435945960D01*
X322706961Y367268260D01*
X254029260Y201465624D01*
X380929104Y328365467D01*
X380929104Y507828948D01*
X449606804Y673631584D01*
X449606804Y494168104D01*
X380929104Y328365467D01*
X546731740Y397043168D01*
X546731740Y576506648D01*
X615409441Y742309285D01*
X615409441Y562845804D01*
X546731740Y397043168D01*
X419831896Y270143324D01*
X419831896Y449606804D01*
X488509597Y615409441D01*
X488509597Y435945960D01*
X419831896Y270143324D01*
X254029260Y201465624D01*
X185351559Y367268260D01*
X185351559Y546731740D01*
X312251403Y673631584D01*
X478054040Y742309285D01*
X351154196Y615409441D01*
X185351559Y546731740D01*
X254029260Y712534376D01*
X380929104Y839434220D01*
X546731740Y908111921D01*
X419831896Y781212077D01*
X254029260Y712534376D01*
X254029260Y533070896D01*
X380929104Y659970740D01*
X546731740Y728648441D01*
X419831896Y601748597D01*
X254029260Y533070896D01*
X185351559Y367268260D01*
X312251403Y494168104D01*
X312251403Y673631584D01*
X380929104Y839434220D01*
X380929104Y659970740D01*
X312251403Y494168104D01*
X478054040Y562845804D01*
X478054040Y742309285D01*
X546731740Y908111921D01*
X546731740Y728648441D01*
X478054040Y562845804D01*
X351154196Y435945960D01*
X351154196Y615409441D01*
X419831896Y781212077D01*
X419831896Y601748597D01*
X351154196Y435945960D01*
X185351559Y367268260D01*
X312251403Y240368416D01*
X312251403Y419831896D01*
X439151247Y546731740D01*
X604953883Y615409441D01*
X478054040Y488509597D01*
X312251403Y419831896D01*
X380929104Y585634533D01*
X507828948Y712534376D01*
X673631584Y781212077D01*
X546731740Y654312233D01*
X380929104Y585634533D01*
X380929104Y406171052D01*
X507828948Y533070896D01*
X673631584Y601748597D01*
X546731740Y474848753D01*
X380929104Y406171052D01*
X312251403Y240368416D01*
X439151247Y367268260D01*
X439151247Y546731740D01*
X507828948Y712534376D01*
X507828948Y533070896D01*
X439151247Y367268260D01*
X604953883Y435945960D01*
X604953883Y615409441D01*
X673631584Y781212077D01*
X673631584Y601748597D01*
X604953883Y435945960D01*
X478054040Y309046117D01*
X478054040Y488509597D01*
X546731740Y654312233D01*
X546731740Y474848753D01*
X478054040Y309046117D01*
X312251403Y240368416D01*
X380929104Y74565780D01*
X380929104Y254029260D01*
X254029260Y380929104D01*
X185351559Y546731740D01*
X312251403Y419831896D01*
X380929104Y254029260D01*
X507828948Y380929104D01*
X673631584Y449606804D01*
X546731740Y322706961D01*
X380929104Y254029260D01*
X449606804Y419831896D01*
X576506648Y546731740D01*
X742309285Y615409441D01*
X615409441Y488509597D01*
X449606804Y419831896D01*
X322706961Y546731740D01*
X254029260Y712534376D01*
X380929104Y585634533D01*
X449606804Y419831896D01*
X449606804Y240368416D01*
X322706961Y367268260D01*
X254029260Y533070896D01*
X380929104Y406171052D01*
X449606804Y240368416D01*
X576506648Y367268260D01*
X742309285Y435945960D01*
X615409441Y309046117D01*
X449606804Y240368416D01*
X380929104Y74565780D01*
X507828948Y201465624D01*
X380929104Y328365467D01*
X312251403Y494168104D01*
X439151247Y367268260D01*
X507828948Y201465624D01*
X507828948Y380929104D01*
X380929104Y507828948D01*
X312251403Y673631584D01*
X439151247Y546731740D01*
X507828948Y380929104D01*
X576506648Y546731740D01*
X449606804Y673631584D01*
X380929104Y839434220D01*
X507828948Y712534376D01*
X576506648Y546731740D01*
X576506648Y367268260D01*
X449606804Y494168104D01*
X380929104Y659970740D01*
X507828948Y533070896D01*
X576506648Y367268260D01*
X507828948Y201465624D01*
X673631584Y270143324D01*
X546731740Y397043168D01*
X478054040Y562845804D01*
X604953883Y435945960D01*
X673631584Y270143324D01*
X673631584Y449606804D01*
X546731740Y576506648D01*
X478054040Y742309285D01*
X604953883Y615409441D01*
X673631584Y449606804D01*
X742309285Y615409441D01*
X615409441Y742309285D01*
X546731740Y908111921D01*
X673631584Y781212077D01*
X742309285Y615409441D01*
X742309285Y435945960D01*
X615409441Y562845804D01*
X546731740Y728648441D01*
X673631584Y601748597D01*
X742309285Y435945960D01*
X673631584Y270143324D01*
X546731740Y143243480D01*
X419831896Y270143324D01*
X351154196Y435945960D01*
X478054040Y309046117D01*
X546731740Y143243480D01*
X546731740Y322706961D01*
X419831896Y449606804D01*
X351154196Y615409441D01*
X478054040Y488509597D01*
X546731740Y322706961D01*
X615409441Y488509597D01*
X488509597Y615409441D01*
X419831896Y781212077D01*
X546731740Y654312233D01*
X615409441Y488509597D01*
X615409441Y309046117D01*
X488509597Y435945960D01*
X419831896Y601748597D01*
X546731740Y474848753D01*
X615409441Y309046117D01*
X546731740Y143243480D01*
X380929104Y74565780D01*
X546731740Y5888079D01*
X419831896Y132787923D01*
X240368416Y132787923D01*
X74565780Y201465624D01*
X254029260Y201465624D01*
X419831896Y132787923D01*
X419831896Y312251403D01*
X546731740Y439151247D01*
X712534376Y507828948D01*
X585634533Y380929104D01*
X419831896Y312251403D01*
X488509597Y478054040D01*
X615409441Y604953883D01*
X781212077Y673631584D01*
X654312233Y546731740D01*
X488509597Y478054040D01*
X488509597Y298590559D01*
X615409441Y425490403D01*
X781212077Y494168104D01*
X654312233Y367268260D01*
X488509597Y298590559D01*
X419831896Y132787923D01*
X546731740Y259687767D01*
X546731740Y439151247D01*
X615409441Y604953883D01*
X615409441Y425490403D01*
X546731740Y259687767D01*
X712534376Y328365467D01*
X712534376Y507828948D01*
X781212077Y673631584D01*
X781212077Y494168104D01*
X712534376Y328365467D01*
X585634533Y201465624D01*
X585634533Y380929104D01*
X654312233Y546731740D01*
X654312233Y367268260D01*
X585634533Y201465624D01*
X419831896Y132787923D01*
X351154196Y298590559D01*
X351154196Y478054040D01*
X478054040Y604953883D01*
X643856676Y673631584D01*
X516956832Y546731740D01*
X351154196Y478054040D01*
X419831896Y643856676D01*
X546731740Y770756520D01*
X712534376Y839434220D01*
X585634533Y712534376D01*
X419831896Y643856676D01*
X419831896Y464393196D01*
X546731740Y591293039D01*
X712534376Y659970740D01*
X585634533Y533070896D01*
X419831896Y464393196D01*
X351154196Y298590559D01*
X478054040Y425490403D01*
X478054040Y604953883D01*
X546731740Y770756520D01*
X546731740Y591293039D01*
X478054040Y425490403D01*
X643856676Y494168104D01*
X643856676Y673631584D01*
X712534376Y839434220D01*
X712534376Y659970740D01*
X643856676Y494168104D01*
X516956832Y367268260D01*
X516956832Y546731740D01*
X585634533Y712534376D01*
X585634533Y533070896D01*
X516956832Y367268260D01*
X351154196Y298590559D01*
X171690715Y298590559D01*
X5888079Y367268260D01*
X185351559Y367268260D01*
X351154196Y298590559D01*
X478054040Y171690715D01*
X298590559Y171690715D01*
X132787923Y240368416D01*
X312251403Y240368416D01*
X478054040Y171690715D01*
X478054040Y351154196D01*
X604953883Y478054040D01*
X770756520Y546731740D01*
X643856676Y419831896D01*
X478054040Y351154196D01*
X546731740Y516956832D01*
X673631584Y643856676D01*
X839434220Y712534376D01*
X712534376Y585634533D01*
X546731740Y516956832D01*
X546731740Y337493352D01*
X673631584Y464393196D01*
X839434220Y533070896D01*
X712534376Y406171052D01*
X546731740Y337493352D01*
X478054040Y171690715D01*
X604953883Y298590559D01*
X604953883Y478054040D01*
X673631584Y643856676D01*
X673631584Y464393196D01*
X604953883Y298590559D01*
X770756520Y367268260D01*
X770756520Y546731740D01*
X839434220Y712534376D01*
X839434220Y533070896D01*
X770756520Y367268260D01*
X643856676Y240368416D01*
X643856676Y419831896D01*
X712534376Y585634533D01*
X712534376Y406171052D01*
X643856676Y240368416D01*
X478054040Y171690715D01*
X546731740Y5888079D01*
X546731740Y185351559D01*
X367268260Y185351559D01*
X201465624Y254029260D01*
X380929104Y254029260D01*
X546731740Y185351559D01*
X419831896Y312251403D01*
X240368416Y312251403D01*
X74565780Y380929104D01*
X254029260Y380929104D01*
X419831896Y312251403D01*
X351154196Y478054040D01*
X171690715Y478054040D01*
X5888079Y546731740D01*
X185351559Y546731740D01*
X351154196Y478054040D01*
X478054040Y351154196D01*
X298590559Y351154196D01*
X132787923Y419831896D01*
X312251403Y419831896D01*
X478054040Y351154196D01*
X546731740Y185351559D01*
X673631584Y312251403D01*
X839434220Y380929104D01*
X712534376Y254029260D01*
X546731740Y185351559D01*
X615409441Y351154196D01*
X742309285Y478054040D01*
X908111921Y546731740D01*
X781212077Y419831896D01*
X615409441Y351154196D01*
X435945960Y351154196D01*
X270143324Y419831896D01*
X449606804Y419831896D01*
X615409441Y351154196D01*
X488509597Y478054040D01*
X309046117Y478054040D01*
X143243480Y546731740D01*
X322706961Y546731740D01*
X488509597Y478054040D01*
X419831896Y643856676D01*
X240368416Y643856676D01*
X74565780Y712534376D01*
X254029260Y712534376D01*
X419831896Y643856676D01*
X546731740Y516956832D01*
X367268260Y516956832D01*
X201465624Y585634533D01*
X380929104Y585634533D01*
X546731740Y516956832D01*
X615409441Y351154196D01*
X615409441Y171690715D01*
X435945960Y171690715D01*
X270143324Y240368416D01*
X449606804Y240368416D01*
X615409441Y171690715D01*
X488509597Y298590559D01*
X309046117Y298590559D01*
X143243480Y367268260D01*
X322706961Y367268260D01*
X488509597Y298590559D01*
X419831896Y464393196D01*
X240368416Y464393196D01*
X74565780Y533070896D01*
X254029260Y533070896D01*
X419831896Y464393196D01*
X546731740Y337493352D01*
X367268260Y337493352D01*
X201465624Y406171052D01*
X380929104Y406171052D01*
X546731740Y337493352D01*
X615409441Y171690715D01*
X742309285Y298590559D01*
X908111921Y367268260D01*
X781212077Y240368416D01*
X615409441Y171690715D01*
X546731740Y5888079D01*
X673631584Y132787923D01*
X494168104Y132787923D01*
X328365467Y201465624D01*
X507828948Y201465624D01*
X673631584Y132787923D01*
X546731740Y259687767D01*
X367268260Y259687767D01*
X201465624Y328365467D01*
X380929104Y328365467D01*
X546731740Y259687767D01*
X478054040Y425490403D01*
X298590559Y425490403D01*
X132787923Y494168104D01*
X312251403Y494168104D01*
X478054040Y425490403D01*
X604953883Y298590559D01*
X425490403Y298590559D01*
X259687767Y367268260D01*
X439151247Y367268260D01*
X604953883Y298590559D01*
X673631584Y132787923D01*
X673631584Y312251403D01*
X494168104Y312251403D01*
X328365467Y380929104D01*
X507828948Y380929104D01*
X673631584Y312251403D01*
X546731740Y439151247D01*
X367268260Y439151247D01*
X201465624Y507828948D01*
X380929104Y507828948D01*
X546731740Y439151247D01*
X478054040Y604953883D01*
X298590559Y604953883D01*
X132787923Y673631584D01*
X312251403Y673631584D01*
X478054040Y604953883D01*
X604953883Y478054040D01*
X425490403Y478054040D01*
X259687767Y546731740D01*
X439151247Y546731740D01*
X604953883Y478054040D01*
X673631584Y312251403D01*
X742309285Y478054040D01*
X562845804Y478054040D01*
X397043168Y546731740D01*
X576506648Y546731740D01*
X742309285Y478054040D01*
X615409441Y604953883D01*
X435945960Y604953883D01*
X270143324Y673631584D01*
X449606804Y673631584D01*
X615409441Y604953883D01*
X546731740Y770756520D01*
X367268260Y770756520D01*
X201465624Y839434220D01*
X380929104Y839434220D01*
X546731740Y770756520D01*
X673631584Y643856676D01*
X494168104Y643856676D01*
X328365467Y712534376D01*
X507828948Y712534376D01*
X673631584Y643856676D01*
X742309285Y478054040D01*
X742309285Y298590559D01*
X562845804Y298590559D01*
X397043168Y367268260D01*
X576506648Y367268260D01*
X742309285Y298590559D01*
X615409441Y425490403D01*
X435945960Y425490403D01*
X270143324Y494168104D01*
X449606804Y494168104D01*
X615409441Y425490403D01*
X546731740Y591293039D01*
X367268260Y591293039D01*
X201465624Y659970740D01*
X380929104Y659970740D01*
X546731740Y591293039D01*
X673631584Y464393196D01*
X494168104Y464393196D01*
X328365467Y533070896D01*
X507828948Y533070896D01*
X673631584Y464393196D01*
X742309285Y298590559D01*
X673631584Y132787923D01*
X839434220Y201465624D01*
X659970740Y201465624D01*
X494168104Y270143324D01*
X673631584Y270143324D01*
X839434220Y201465624D01*
X712534376Y328365467D01*
X533070896Y328365467D01*
X367268260Y397043168D01*
X546731740Y397043168D01*
X712534376Y328365467D01*
X643856676Y494168104D01*
X464393196Y494168104D01*
X298590559Y562845804D01*
X478054040Y562845804D01*
X643856676Y494168104D01*
X770756520Y367268260D01*
X591293039Y367268260D01*
X425490403Y435945960D01*
X604953883Y435945960D01*
X770756520Y367268260D01*
X839434220Y201465624D01*
X839434220Y380929104D01*
X659970740Y380929104D01*
X494168104Y449606804D01*
X673631584Y449606804D01*
X839434220Y380929104D01*
X712534376Y507828948D01*
X533070896Y507828948D01*
X367268260Y576506648D01*
X546731740Y576506648D01*
X712534376Y507828948D01*
X643856676Y673631584D01*
X464393196Y673631584D01*
X298590559Y742309285D01*
X478054040Y742309285D01*
X643856676Y673631584D01*
X770756520Y546731740D01*
X591293039Y546731740D01*
X425490403Y615409441D01*
X604953883Y615409441D01*
X770756520Y546731740D01*
X839434220Y380929104D01*
X908111921Y546731740D01*
X728648441Y546731740D01*
X562845804Y615409441D01*
X742309285Y615409441D01*
X908111921Y546731740D01*
X781212077Y673631584D01*
X601748597Y673631584D01*
X435945960Y742309285D01*
X615409441Y742309285D01*
X781212077Y673631584D01*
X712534376Y839434220D01*
X533070896Y839434220D01*
X367268260Y908111921D01*
X546731740Y908111921D01*
X712534376Y839434220D01*
X839434220Y712534376D01*
X659970740Y712534376D01*
X494168104Y781212077D01*
X673631584Y781212077D01*
X839434220Y712534376D01*
X908111921Y546731740D01*
X908111921Y367268260D01*
X728648441Y367268260D01*
X562845804Y435945960D01*
X742309285Y435945960D01*
X908111921Y367268260D01*
X781212077Y494168104D01*
X601748597Y494168104D01*
X435945960Y562845804D01*
X615409441Y562845804D01*
X781212077Y494168104D01*
X712534376Y659970740D01*
X533070896Y659970740D01*
X367268260Y728648441D01*
X546731740Y728648441D01*
X712534376Y659970740D01*
X839434220Y533070896D01*
X659970740Y533070896D01*
X494168104Y601748597D01*
X673631584Y601748597D01*
X839434220Y533070896D01*
X908111921Y367268260D01*
X839434220Y201465624D01*
X712534376Y74565780D01*
X533070896Y74565780D01*
X367268260Y143243480D01*
X546731740Y143243480D01*
X712534376Y74565780D01*
X585634533Y201465624D01*
X406171052Y201465624D01*
X240368416Y270143324D01*
X419831896Y270143324D01*
X585634533Y201465624D01*
X516956832Y367268260D01*
X337493352Y367268260D01*
X171690715Y435945960D01*
X351154196Y435945960D01*
X516956832Y367268260D01*
X643856676Y240368416D01*
X464393196Y240368416D01*
X298590559Y309046117D01*
X478054040Y309046117D01*
X643856676Y240368416D01*
X712534376Y74565780D01*
X712534376Y254029260D01*
X533070896Y254029260D01*
X367268260Y322706961D01*
X546731740Y322706961D01*
X712534376Y254029260D01*
X585634533Y380929104D01*
X406171052Y380929104D01*
X240368416Y449606804D01*
X419831896Y449606804D01*
X585634533Y380929104D01*
X516956832Y546731740D01*
X337493352Y546731740D01*
X171690715Y615409441D01*
X351154196Y615409441D01*
X516956832Y546731740D01*
X643856676Y419831896D01*
X464393196Y419831896D01*
X298590559Y488509597D01*
X478054040Y488509597D01*
X643856676Y419831896D01*
X712534376Y254029260D01*
X781212077Y419831896D01*
X601748597Y419831896D01*
X435945960Y488509597D01*
X615409441Y488509597D01*
X781212077Y419831896D01*
X654312233Y546731740D01*
X474848753Y546731740D01*
X309046117Y615409441D01*
X488509597Y615409441D01*
X654312233Y546731740D01*
X585634533Y712534376D01*
X406171052Y712534376D01*
X240368416Y781212077D01*
X419831896Y781212077D01*
X585634533Y712534376D01*
X712534376Y585634533D01*
X533070896Y585634533D01*
X367268260Y654312233D01*
X546731740Y654312233D01*
X712534376Y585634533D01*
X781212077Y419831896D01*
X781212077Y240368416D01*
X601748597Y240368416D01*
X435945960Y309046117D01*
X615409441Y309046117D01*
X781212077Y240368416D01*
X654312233Y367268260D01*
X474848753Y367268260D01*
X309046117Y435945960D01*
X488509597Y435945960D01*
X654312233Y367268260D01*
X585634533Y533070896D01*
X406171052Y533070896D01*
X240368416Y601748597D01*
X419831896Y601748597D01*
X585634533Y533070896D01*
X712534376Y406171052D01*
X533070896Y406171052D01*
X367268260Y474848753D01*
X546731740Y474848753D01*
X712534376Y406171052D01*
X781212077Y240368416D01*
X712534376Y74565780D01*
X546731740Y5888079D01*
M02*
