%MOMM*%
%FSLAX36Y36*%
%ADD10C,100*%
D10*
G01*
%LPC*%
%LS1.04347926086957*%
X576894680Y10493372D02*
X337505320Y10493372D01*
X217810640Y217810640D01*
X337505320Y425127907D01*
X544822587Y544822587D01*
X425127907Y337505320D01*
X217810640Y217810640D01*
X217810640Y457200000D01*
X337505320Y664517267D01*
X544822587Y784211947D01*
X425127907Y576894680D01*
X217810640Y457200000D01*
X337505320Y249882733D01*
X457200000Y457200000D01*
X664517267Y576894680D01*
X544822587Y369577413D01*
X337505320Y249882733D01*
X337505320Y10493372D01*
X457200000Y217810640D01*
X337505320Y425127907D01*
X337505320Y664517267D01*
X457200000Y457200000D01*
X457200000Y217810640D01*
X664517267Y337505320D01*
X544822587Y544822587D01*
X544822587Y784211947D01*
X664517267Y576894680D01*
X664517267Y337505320D01*
X544822587Y130188053D01*
X425127907Y337505320D01*
X425127907Y576894680D01*
X544822587Y369577413D01*
X544822587Y130188053D01*
X337505320Y10493372D01*
X130188053Y130188053D01*
X10493372Y337505320D01*
X130188053Y544822587D01*
X337505320Y664517267D01*
X217810640Y457200000D01*
X10493372Y337505320D01*
X10493372Y576894680D01*
X130188053Y784211947D01*
X337505320Y903906628D01*
X217810640Y696589360D01*
X10493372Y576894680D01*
X130188053Y369577413D01*
X249882733Y576894680D01*
X457200000Y696589360D01*
X337505320Y489272093D01*
X130188053Y369577413D01*
X130188053Y130188053D01*
X249882733Y337505320D01*
X130188053Y544822587D01*
X130188053Y784211947D01*
X249882733Y576894680D01*
X249882733Y337505320D01*
X457200000Y457200000D01*
X337505320Y664517267D01*
X337505320Y903906628D01*
X457200000Y696589360D01*
X457200000Y457200000D01*
X337505320Y249882733D01*
X217810640Y457200000D01*
X217810640Y696589360D01*
X337505320Y489272093D01*
X337505320Y249882733D01*
X130188053Y130188053D01*
X369577413Y130188053D01*
X249882733Y337505320D01*
X369577413Y544822587D01*
X576894680Y664517267D01*
X457200000Y457200000D01*
X249882733Y337505320D01*
X249882733Y576894680D01*
X369577413Y784211947D01*
X576894680Y903906628D01*
X457200000Y696589360D01*
X249882733Y576894680D01*
X369577413Y369577413D01*
X489272093Y576894680D01*
X696589360Y696589360D01*
X576894680Y489272093D01*
X369577413Y369577413D01*
X369577413Y130188053D01*
X489272093Y337505320D01*
X369577413Y544822587D01*
X369577413Y784211947D01*
X489272093Y576894680D01*
X489272093Y337505320D01*
X696589360Y457200000D01*
X576894680Y664517267D01*
X576894680Y903906628D01*
X696589360Y696589360D01*
X696589360Y457200000D01*
X576894680Y249882733D01*
X457200000Y457200000D01*
X457200000Y696589360D01*
X576894680Y489272093D01*
X576894680Y249882733D01*
X369577413Y130188053D01*
X576894680Y10493372D01*
X457200000Y217810640D01*
X217810640Y217810640D01*
X10493372Y337505320D01*
X249882733Y337505320D01*
X457200000Y217810640D01*
X576894680Y425127907D01*
X784211947Y544822587D01*
X664517267Y337505320D01*
X457200000Y217810640D01*
X457200000Y457200000D01*
X576894680Y664517267D01*
X784211947Y784211947D01*
X664517267Y576894680D01*
X457200000Y457200000D01*
X217810640Y457200000D01*
X10493372Y576894680D01*
X249882733Y576894680D01*
X457200000Y457200000D01*
X576894680Y249882733D01*
X337505320Y249882733D01*
X130188053Y369577413D01*
X369577413Y369577413D01*
X576894680Y249882733D01*
X696589360Y457200000D01*
X903906628Y576894680D01*
X784211947Y369577413D01*
X576894680Y249882733D01*
X576894680Y10493372D01*
X696589360Y217810640D01*
X457200000Y217810640D01*
X249882733Y337505320D01*
X489272093Y337505320D01*
X696589360Y217810640D01*
X576894680Y425127907D01*
X337505320Y425127907D01*
X130188053Y544822587D01*
X369577413Y544822587D01*
X576894680Y425127907D01*
X576894680Y664517267D01*
X337505320Y664517267D01*
X130188053Y784211947D01*
X369577413Y784211947D01*
X576894680Y664517267D01*
X696589360Y457200000D01*
X457200000Y457200000D01*
X249882733Y576894680D01*
X489272093Y576894680D01*
X696589360Y457200000D01*
X696589360Y217810640D01*
X903906628Y337505320D01*
X664517267Y337505320D01*
X457200000Y457200000D01*
X696589360Y457200000D01*
X903906628Y337505320D01*
X784211947Y544822587D01*
X544822587Y544822587D01*
X337505320Y664517267D01*
X576894680Y664517267D01*
X784211947Y544822587D01*
X784211947Y784211947D01*
X544822587Y784211947D01*
X337505320Y903906628D01*
X576894680Y903906628D01*
X784211947Y784211947D01*
X903906628Y576894680D01*
X664517267Y576894680D01*
X457200000Y696589360D01*
X696589360Y696589360D01*
X903906628Y576894680D01*
X903906628Y337505320D01*
X784211947Y130188053D01*
X544822587Y130188053D01*
X337505320Y249882733D01*
X576894680Y249882733D01*
X784211947Y130188053D01*
X664517267Y337505320D01*
X425127907Y337505320D01*
X217810640Y457200000D01*
X457200000Y457200000D01*
X664517267Y337505320D01*
X664517267Y576894680D01*
X425127907Y576894680D01*
X217810640Y696589360D01*
X457200000Y696589360D01*
X664517267Y576894680D01*
X784211947Y369577413D01*
X544822587Y369577413D01*
X337505320Y489272093D01*
X576894680Y489272093D01*
X784211947Y369577413D01*
X784211947Y130188053D01*
X576894680Y10493372D01*
%LPD*%
%LS1.000001*%
X576894680Y10493372D02*
X337505320Y10493372D01*
X217810640Y217810640D01*
X337505320Y425127907D01*
X544822587Y544822587D01*
X425127907Y337505320D01*
X217810640Y217810640D01*
X217810640Y457200000D01*
X337505320Y664517267D01*
X544822587Y784211947D01*
X425127907Y576894680D01*
X217810640Y457200000D01*
X337505320Y249882733D01*
X457200000Y457200000D01*
X664517267Y576894680D01*
X544822587Y369577413D01*
X337505320Y249882733D01*
X337505320Y10493372D01*
X457200000Y217810640D01*
X337505320Y425127907D01*
X337505320Y664517267D01*
X457200000Y457200000D01*
X457200000Y217810640D01*
X664517267Y337505320D01*
X544822587Y544822587D01*
X544822587Y784211947D01*
X664517267Y576894680D01*
X664517267Y337505320D01*
X544822587Y130188053D01*
X425127907Y337505320D01*
X425127907Y576894680D01*
X544822587Y369577413D01*
X544822587Y130188053D01*
X337505320Y10493372D01*
X130188053Y130188053D01*
X10493372Y337505320D01*
X130188053Y544822587D01*
X337505320Y664517267D01*
X217810640Y457200000D01*
X10493372Y337505320D01*
X10493372Y576894680D01*
X130188053Y784211947D01*
X337505320Y903906628D01*
X217810640Y696589360D01*
X10493372Y576894680D01*
X130188053Y369577413D01*
X249882733Y576894680D01*
X457200000Y696589360D01*
X337505320Y489272093D01*
X130188053Y369577413D01*
X130188053Y130188053D01*
X249882733Y337505320D01*
X130188053Y544822587D01*
X130188053Y784211947D01*
X249882733Y576894680D01*
X249882733Y337505320D01*
X457200000Y457200000D01*
X337505320Y664517267D01*
X337505320Y903906628D01*
X457200000Y696589360D01*
X457200000Y457200000D01*
X337505320Y249882733D01*
X217810640Y457200000D01*
X217810640Y696589360D01*
X337505320Y489272093D01*
X337505320Y249882733D01*
X130188053Y130188053D01*
X369577413Y130188053D01*
X249882733Y337505320D01*
X369577413Y544822587D01*
X576894680Y664517267D01*
X457200000Y457200000D01*
X249882733Y337505320D01*
X249882733Y576894680D01*
X369577413Y784211947D01*
X576894680Y903906628D01*
X457200000Y696589360D01*
X249882733Y576894680D01*
X369577413Y369577413D01*
X489272093Y576894680D01*
X696589360Y696589360D01*
X576894680Y489272093D01*
X369577413Y369577413D01*
X369577413Y130188053D01*
X489272093Y337505320D01*
X369577413Y544822587D01*
X369577413Y784211947D01*
X489272093Y576894680D01*
X489272093Y337505320D01*
X696589360Y457200000D01*
X576894680Y664517267D01*
X576894680Y903906628D01*
X696589360Y696589360D01*
X696589360Y457200000D01*
X576894680Y249882733D01*
X457200000Y457200000D01*
X457200000Y696589360D01*
X576894680Y489272093D01*
X576894680Y249882733D01*
X369577413Y130188053D01*
X576894680Y10493372D01*
X457200000Y217810640D01*
X217810640Y217810640D01*
X10493372Y337505320D01*
X249882733Y337505320D01*
X457200000Y217810640D01*
X576894680Y425127907D01*
X784211947Y544822587D01*
X664517267Y337505320D01*
X457200000Y217810640D01*
X457200000Y457200000D01*
X576894680Y664517267D01*
X784211947Y784211947D01*
X664517267Y576894680D01*
X457200000Y457200000D01*
X217810640Y457200000D01*
X10493372Y576894680D01*
X249882733Y576894680D01*
X457200000Y457200000D01*
X576894680Y249882733D01*
X337505320Y249882733D01*
X130188053Y369577413D01*
X369577413Y369577413D01*
X576894680Y249882733D01*
X696589360Y457200000D01*
X903906628Y576894680D01*
X784211947Y369577413D01*
X576894680Y249882733D01*
X576894680Y10493372D01*
X696589360Y217810640D01*
X457200000Y217810640D01*
X249882733Y337505320D01*
X489272093Y337505320D01*
X696589360Y217810640D01*
X576894680Y425127907D01*
X337505320Y425127907D01*
X130188053Y544822587D01*
X369577413Y544822587D01*
X576894680Y425127907D01*
X576894680Y664517267D01*
X337505320Y664517267D01*
X130188053Y784211947D01*
X369577413Y784211947D01*
X576894680Y664517267D01*
X696589360Y457200000D01*
X457200000Y457200000D01*
X249882733Y576894680D01*
X489272093Y576894680D01*
X696589360Y457200000D01*
X696589360Y217810640D01*
X903906628Y337505320D01*
X664517267Y337505320D01*
X457200000Y457200000D01*
X696589360Y457200000D01*
X903906628Y337505320D01*
X784211947Y544822587D01*
X544822587Y544822587D01*
X337505320Y664517267D01*
X576894680Y664517267D01*
X784211947Y544822587D01*
X784211947Y784211947D01*
X544822587Y784211947D01*
X337505320Y903906628D01*
X576894680Y903906628D01*
X784211947Y784211947D01*
X903906628Y576894680D01*
X664517267Y576894680D01*
X457200000Y696589360D01*
X696589360Y696589360D01*
X903906628Y576894680D01*
X903906628Y337505320D01*
X784211947Y130188053D01*
X544822587Y130188053D01*
X337505320Y249882733D01*
X576894680Y249882733D01*
X784211947Y130188053D01*
X664517267Y337505320D01*
X425127907Y337505320D01*
X217810640Y457200000D01*
X457200000Y457200000D01*
X664517267Y337505320D01*
X664517267Y576894680D01*
X425127907Y576894680D01*
X217810640Y696589360D01*
X457200000Y696589360D01*
X664517267Y576894680D01*
X784211947Y369577413D01*
X544822587Y369577413D01*
X337505320Y489272093D01*
X576894680Y489272093D01*
X784211947Y369577413D01*
X784211947Y130188053D01*
X576894680Y10493372D01*
%LPC*%
%LS0.956522739130435*%
X576894680Y10493372D02*
X337505320Y10493372D01*
X217810640Y217810640D01*
X337505320Y425127907D01*
X544822587Y544822587D01*
X425127907Y337505320D01*
X217810640Y217810640D01*
X217810640Y457200000D01*
X337505320Y664517267D01*
X544822587Y784211947D01*
X425127907Y576894680D01*
X217810640Y457200000D01*
X337505320Y249882733D01*
X457200000Y457200000D01*
X664517267Y576894680D01*
X544822587Y369577413D01*
X337505320Y249882733D01*
X337505320Y10493372D01*
X457200000Y217810640D01*
X337505320Y425127907D01*
X337505320Y664517267D01*
X457200000Y457200000D01*
X457200000Y217810640D01*
X664517267Y337505320D01*
X544822587Y544822587D01*
X544822587Y784211947D01*
X664517267Y576894680D01*
X664517267Y337505320D01*
X544822587Y130188053D01*
X425127907Y337505320D01*
X425127907Y576894680D01*
X544822587Y369577413D01*
X544822587Y130188053D01*
X337505320Y10493372D01*
X130188053Y130188053D01*
X10493372Y337505320D01*
X130188053Y544822587D01*
X337505320Y664517267D01*
X217810640Y457200000D01*
X10493372Y337505320D01*
X10493372Y576894680D01*
X130188053Y784211947D01*
X337505320Y903906628D01*
X217810640Y696589360D01*
X10493372Y576894680D01*
X130188053Y369577413D01*
X249882733Y576894680D01*
X457200000Y696589360D01*
X337505320Y489272093D01*
X130188053Y369577413D01*
X130188053Y130188053D01*
X249882733Y337505320D01*
X130188053Y544822587D01*
X130188053Y784211947D01*
X249882733Y576894680D01*
X249882733Y337505320D01*
X457200000Y457200000D01*
X337505320Y664517267D01*
X337505320Y903906628D01*
X457200000Y696589360D01*
X457200000Y457200000D01*
X337505320Y249882733D01*
X217810640Y457200000D01*
X217810640Y696589360D01*
X337505320Y489272093D01*
X337505320Y249882733D01*
X130188053Y130188053D01*
X369577413Y130188053D01*
X249882733Y337505320D01*
X369577413Y544822587D01*
X576894680Y664517267D01*
X457200000Y457200000D01*
X249882733Y337505320D01*
X249882733Y576894680D01*
X369577413Y784211947D01*
X576894680Y903906628D01*
X457200000Y696589360D01*
X249882733Y576894680D01*
X369577413Y369577413D01*
X489272093Y576894680D01*
X696589360Y696589360D01*
X576894680Y489272093D01*
X369577413Y369577413D01*
X369577413Y130188053D01*
X489272093Y337505320D01*
X369577413Y544822587D01*
X369577413Y784211947D01*
X489272093Y576894680D01*
X489272093Y337505320D01*
X696589360Y457200000D01*
X576894680Y664517267D01*
X576894680Y903906628D01*
X696589360Y696589360D01*
X696589360Y457200000D01*
X576894680Y249882733D01*
X457200000Y457200000D01*
X457200000Y696589360D01*
X576894680Y489272093D01*
X576894680Y249882733D01*
X369577413Y130188053D01*
X576894680Y10493372D01*
X457200000Y217810640D01*
X217810640Y217810640D01*
X10493372Y337505320D01*
X249882733Y337505320D01*
X457200000Y217810640D01*
X576894680Y425127907D01*
X784211947Y544822587D01*
X664517267Y337505320D01*
X457200000Y217810640D01*
X457200000Y457200000D01*
X576894680Y664517267D01*
X784211947Y784211947D01*
X664517267Y576894680D01*
X457200000Y457200000D01*
X217810640Y457200000D01*
X10493372Y576894680D01*
X249882733Y576894680D01*
X457200000Y457200000D01*
X576894680Y249882733D01*
X337505320Y249882733D01*
X130188053Y369577413D01*
X369577413Y369577413D01*
X576894680Y249882733D01*
X696589360Y457200000D01*
X903906628Y576894680D01*
X784211947Y369577413D01*
X576894680Y249882733D01*
X576894680Y10493372D01*
X696589360Y217810640D01*
X457200000Y217810640D01*
X249882733Y337505320D01*
X489272093Y337505320D01*
X696589360Y217810640D01*
X576894680Y425127907D01*
X337505320Y425127907D01*
X130188053Y544822587D01*
X369577413Y544822587D01*
X576894680Y425127907D01*
X576894680Y664517267D01*
X337505320Y664517267D01*
X130188053Y784211947D01*
X369577413Y784211947D01*
X576894680Y664517267D01*
X696589360Y457200000D01*
X457200000Y457200000D01*
X249882733Y576894680D01*
X489272093Y576894680D01*
X696589360Y457200000D01*
X696589360Y217810640D01*
X903906628Y337505320D01*
X664517267Y337505320D01*
X457200000Y457200000D01*
X696589360Y457200000D01*
X903906628Y337505320D01*
X784211947Y544822587D01*
X544822587Y544822587D01*
X337505320Y664517267D01*
X576894680Y664517267D01*
X784211947Y544822587D01*
X784211947Y784211947D01*
X544822587Y784211947D01*
X337505320Y903906628D01*
X576894680Y903906628D01*
X784211947Y784211947D01*
X903906628Y576894680D01*
X664517267Y576894680D01*
X457200000Y696589360D01*
X696589360Y696589360D01*
X903906628Y576894680D01*
X903906628Y337505320D01*
X784211947Y130188053D01*
X544822587Y130188053D01*
X337505320Y249882733D01*
X576894680Y249882733D01*
X784211947Y130188053D01*
X664517267Y337505320D01*
X425127907Y337505320D01*
X217810640Y457200000D01*
X457200000Y457200000D01*
X664517267Y337505320D01*
X664517267Y576894680D01*
X425127907Y576894680D01*
X217810640Y696589360D01*
X457200000Y696589360D01*
X664517267Y576894680D01*
X784211947Y369577413D01*
X544822587Y369577413D01*
X337505320Y489272093D01*
X576894680Y489272093D01*
X784211947Y369577413D01*
X784211947Y130188053D01*
X576894680Y10493372D01*
%LPD*%
%LS0.91304447826087*%
X576894680Y10493372D02*
X337505320Y10493372D01*
X217810640Y217810640D01*
X337505320Y425127907D01*
X544822587Y544822587D01*
X425127907Y337505320D01*
X217810640Y217810640D01*
X217810640Y457200000D01*
X337505320Y664517267D01*
X544822587Y784211947D01*
X425127907Y576894680D01*
X217810640Y457200000D01*
X337505320Y249882733D01*
X457200000Y457200000D01*
X664517267Y576894680D01*
X544822587Y369577413D01*
X337505320Y249882733D01*
X337505320Y10493372D01*
X457200000Y217810640D01*
X337505320Y425127907D01*
X337505320Y664517267D01*
X457200000Y457200000D01*
X457200000Y217810640D01*
X664517267Y337505320D01*
X544822587Y544822587D01*
X544822587Y784211947D01*
X664517267Y576894680D01*
X664517267Y337505320D01*
X544822587Y130188053D01*
X425127907Y337505320D01*
X425127907Y576894680D01*
X544822587Y369577413D01*
X544822587Y130188053D01*
X337505320Y10493372D01*
X130188053Y130188053D01*
X10493372Y337505320D01*
X130188053Y544822587D01*
X337505320Y664517267D01*
X217810640Y457200000D01*
X10493372Y337505320D01*
X10493372Y576894680D01*
X130188053Y784211947D01*
X337505320Y903906628D01*
X217810640Y696589360D01*
X10493372Y576894680D01*
X130188053Y369577413D01*
X249882733Y576894680D01*
X457200000Y696589360D01*
X337505320Y489272093D01*
X130188053Y369577413D01*
X130188053Y130188053D01*
X249882733Y337505320D01*
X130188053Y544822587D01*
X130188053Y784211947D01*
X249882733Y576894680D01*
X249882733Y337505320D01*
X457200000Y457200000D01*
X337505320Y664517267D01*
X337505320Y903906628D01*
X457200000Y696589360D01*
X457200000Y457200000D01*
X337505320Y249882733D01*
X217810640Y457200000D01*
X217810640Y696589360D01*
X337505320Y489272093D01*
X337505320Y249882733D01*
X130188053Y130188053D01*
X369577413Y130188053D01*
X249882733Y337505320D01*
X369577413Y544822587D01*
X576894680Y664517267D01*
X457200000Y457200000D01*
X249882733Y337505320D01*
X249882733Y576894680D01*
X369577413Y784211947D01*
X576894680Y903906628D01*
X457200000Y696589360D01*
X249882733Y576894680D01*
X369577413Y369577413D01*
X489272093Y576894680D01*
X696589360Y696589360D01*
X576894680Y489272093D01*
X369577413Y369577413D01*
X369577413Y130188053D01*
X489272093Y337505320D01*
X369577413Y544822587D01*
X369577413Y784211947D01*
X489272093Y576894680D01*
X489272093Y337505320D01*
X696589360Y457200000D01*
X576894680Y664517267D01*
X576894680Y903906628D01*
X696589360Y696589360D01*
X696589360Y457200000D01*
X576894680Y249882733D01*
X457200000Y457200000D01*
X457200000Y696589360D01*
X576894680Y489272093D01*
X576894680Y249882733D01*
X369577413Y130188053D01*
X576894680Y10493372D01*
X457200000Y217810640D01*
X217810640Y217810640D01*
X10493372Y337505320D01*
X249882733Y337505320D01*
X457200000Y217810640D01*
X576894680Y425127907D01*
X784211947Y544822587D01*
X664517267Y337505320D01*
X457200000Y217810640D01*
X457200000Y457200000D01*
X576894680Y664517267D01*
X784211947Y784211947D01*
X664517267Y576894680D01*
X457200000Y457200000D01*
X217810640Y457200000D01*
X10493372Y576894680D01*
X249882733Y576894680D01*
X457200000Y457200000D01*
X576894680Y249882733D01*
X337505320Y249882733D01*
X130188053Y369577413D01*
X369577413Y369577413D01*
X576894680Y249882733D01*
X696589360Y457200000D01*
X903906628Y576894680D01*
X784211947Y369577413D01*
X576894680Y249882733D01*
X576894680Y10493372D01*
X696589360Y217810640D01*
X457200000Y217810640D01*
X249882733Y337505320D01*
X489272093Y337505320D01*
X696589360Y217810640D01*
X576894680Y425127907D01*
X337505320Y425127907D01*
X130188053Y544822587D01*
X369577413Y544822587D01*
X576894680Y425127907D01*
X576894680Y664517267D01*
X337505320Y664517267D01*
X130188053Y784211947D01*
X369577413Y784211947D01*
X576894680Y664517267D01*
X696589360Y457200000D01*
X457200000Y457200000D01*
X249882733Y576894680D01*
X489272093Y576894680D01*
X696589360Y457200000D01*
X696589360Y217810640D01*
X903906628Y337505320D01*
X664517267Y337505320D01*
X457200000Y457200000D01*
X696589360Y457200000D01*
X903906628Y337505320D01*
X784211947Y544822587D01*
X544822587Y544822587D01*
X337505320Y664517267D01*
X576894680Y664517267D01*
X784211947Y544822587D01*
X784211947Y784211947D01*
X544822587Y784211947D01*
X337505320Y903906628D01*
X576894680Y903906628D01*
X784211947Y784211947D01*
X903906628Y576894680D01*
X664517267Y576894680D01*
X457200000Y696589360D01*
X696589360Y696589360D01*
X903906628Y576894680D01*
X903906628Y337505320D01*
X784211947Y130188053D01*
X544822587Y130188053D01*
X337505320Y249882733D01*
X576894680Y249882733D01*
X784211947Y130188053D01*
X664517267Y337505320D01*
X425127907Y337505320D01*
X217810640Y457200000D01*
X457200000Y457200000D01*
X664517267Y337505320D01*
X664517267Y576894680D01*
X425127907Y576894680D01*
X217810640Y696589360D01*
X457200000Y696589360D01*
X664517267Y576894680D01*
X784211947Y369577413D01*
X544822587Y369577413D01*
X337505320Y489272093D01*
X576894680Y489272093D01*
X784211947Y369577413D01*
X784211947Y130188053D01*
X576894680Y10493372D01*
%LPC*%
%LS0.869566217391304*%
X576894680Y10493372D02*
X337505320Y10493372D01*
X217810640Y217810640D01*
X337505320Y425127907D01*
X544822587Y544822587D01*
X425127907Y337505320D01*
X217810640Y217810640D01*
X217810640Y457200000D01*
X337505320Y664517267D01*
X544822587Y784211947D01*
X425127907Y576894680D01*
X217810640Y457200000D01*
X337505320Y249882733D01*
X457200000Y457200000D01*
X664517267Y576894680D01*
X544822587Y369577413D01*
X337505320Y249882733D01*
X337505320Y10493372D01*
X457200000Y217810640D01*
X337505320Y425127907D01*
X337505320Y664517267D01*
X457200000Y457200000D01*
X457200000Y217810640D01*
X664517267Y337505320D01*
X544822587Y544822587D01*
X544822587Y784211947D01*
X664517267Y576894680D01*
X664517267Y337505320D01*
X544822587Y130188053D01*
X425127907Y337505320D01*
X425127907Y576894680D01*
X544822587Y369577413D01*
X544822587Y130188053D01*
X337505320Y10493372D01*
X130188053Y130188053D01*
X10493372Y337505320D01*
X130188053Y544822587D01*
X337505320Y664517267D01*
X217810640Y457200000D01*
X10493372Y337505320D01*
X10493372Y576894680D01*
X130188053Y784211947D01*
X337505320Y903906628D01*
X217810640Y696589360D01*
X10493372Y576894680D01*
X130188053Y369577413D01*
X249882733Y576894680D01*
X457200000Y696589360D01*
X337505320Y489272093D01*
X130188053Y369577413D01*
X130188053Y130188053D01*
X249882733Y337505320D01*
X130188053Y544822587D01*
X130188053Y784211947D01*
X249882733Y576894680D01*
X249882733Y337505320D01*
X457200000Y457200000D01*
X337505320Y664517267D01*
X337505320Y903906628D01*
X457200000Y696589360D01*
X457200000Y457200000D01*
X337505320Y249882733D01*
X217810640Y457200000D01*
X217810640Y696589360D01*
X337505320Y489272093D01*
X337505320Y249882733D01*
X130188053Y130188053D01*
X369577413Y130188053D01*
X249882733Y337505320D01*
X369577413Y544822587D01*
X576894680Y664517267D01*
X457200000Y457200000D01*
X249882733Y337505320D01*
X249882733Y576894680D01*
X369577413Y784211947D01*
X576894680Y903906628D01*
X457200000Y696589360D01*
X249882733Y576894680D01*
X369577413Y369577413D01*
X489272093Y576894680D01*
X696589360Y696589360D01*
X576894680Y489272093D01*
X369577413Y369577413D01*
X369577413Y130188053D01*
X489272093Y337505320D01*
X369577413Y544822587D01*
X369577413Y784211947D01*
X489272093Y576894680D01*
X489272093Y337505320D01*
X696589360Y457200000D01*
X576894680Y664517267D01*
X576894680Y903906628D01*
X696589360Y696589360D01*
X696589360Y457200000D01*
X576894680Y249882733D01*
X457200000Y457200000D01*
X457200000Y696589360D01*
X576894680Y489272093D01*
X576894680Y249882733D01*
X369577413Y130188053D01*
X576894680Y10493372D01*
X457200000Y217810640D01*
X217810640Y217810640D01*
X10493372Y337505320D01*
X249882733Y337505320D01*
X457200000Y217810640D01*
X576894680Y425127907D01*
X784211947Y544822587D01*
X664517267Y337505320D01*
X457200000Y217810640D01*
X457200000Y457200000D01*
X576894680Y664517267D01*
X784211947Y784211947D01*
X664517267Y576894680D01*
X457200000Y457200000D01*
X217810640Y457200000D01*
X10493372Y576894680D01*
X249882733Y576894680D01*
X457200000Y457200000D01*
X576894680Y249882733D01*
X337505320Y249882733D01*
X130188053Y369577413D01*
X369577413Y369577413D01*
X576894680Y249882733D01*
X696589360Y457200000D01*
X903906628Y576894680D01*
X784211947Y369577413D01*
X576894680Y249882733D01*
X576894680Y10493372D01*
X696589360Y217810640D01*
X457200000Y217810640D01*
X249882733Y337505320D01*
X489272093Y337505320D01*
X696589360Y217810640D01*
X576894680Y425127907D01*
X337505320Y425127907D01*
X130188053Y544822587D01*
X369577413Y544822587D01*
X576894680Y425127907D01*
X576894680Y664517267D01*
X337505320Y664517267D01*
X130188053Y784211947D01*
X369577413Y784211947D01*
X576894680Y664517267D01*
X696589360Y457200000D01*
X457200000Y457200000D01*
X249882733Y576894680D01*
X489272093Y576894680D01*
X696589360Y457200000D01*
X696589360Y217810640D01*
X903906628Y337505320D01*
X664517267Y337505320D01*
X457200000Y457200000D01*
X696589360Y457200000D01*
X903906628Y337505320D01*
X784211947Y544822587D01*
X544822587Y544822587D01*
X337505320Y664517267D01*
X576894680Y664517267D01*
X784211947Y544822587D01*
X784211947Y784211947D01*
X544822587Y784211947D01*
X337505320Y903906628D01*
X576894680Y903906628D01*
X784211947Y784211947D01*
X903906628Y576894680D01*
X664517267Y576894680D01*
X457200000Y696589360D01*
X696589360Y696589360D01*
X903906628Y576894680D01*
X903906628Y337505320D01*
X784211947Y130188053D01*
X544822587Y130188053D01*
X337505320Y249882733D01*
X576894680Y249882733D01*
X784211947Y130188053D01*
X664517267Y337505320D01*
X425127907Y337505320D01*
X217810640Y457200000D01*
X457200000Y457200000D01*
X664517267Y337505320D01*
X664517267Y576894680D01*
X425127907Y576894680D01*
X217810640Y696589360D01*
X457200000Y696589360D01*
X664517267Y576894680D01*
X784211947Y369577413D01*
X544822587Y369577413D01*
X337505320Y489272093D01*
X576894680Y489272093D01*
X784211947Y369577413D01*
X784211947Y130188053D01*
X576894680Y10493372D01*
%LPD*%
%LS0.826087956521739*%
X576894680Y10493372D02*
X337505320Y10493372D01*
X217810640Y217810640D01*
X337505320Y425127907D01*
X544822587Y544822587D01*
X425127907Y337505320D01*
X217810640Y217810640D01*
X217810640Y457200000D01*
X337505320Y664517267D01*
X544822587Y784211947D01*
X425127907Y576894680D01*
X217810640Y457200000D01*
X337505320Y249882733D01*
X457200000Y457200000D01*
X664517267Y576894680D01*
X544822587Y369577413D01*
X337505320Y249882733D01*
X337505320Y10493372D01*
X457200000Y217810640D01*
X337505320Y425127907D01*
X337505320Y664517267D01*
X457200000Y457200000D01*
X457200000Y217810640D01*
X664517267Y337505320D01*
X544822587Y544822587D01*
X544822587Y784211947D01*
X664517267Y576894680D01*
X664517267Y337505320D01*
X544822587Y130188053D01*
X425127907Y337505320D01*
X425127907Y576894680D01*
X544822587Y369577413D01*
X544822587Y130188053D01*
X337505320Y10493372D01*
X130188053Y130188053D01*
X10493372Y337505320D01*
X130188053Y544822587D01*
X337505320Y664517267D01*
X217810640Y457200000D01*
X10493372Y337505320D01*
X10493372Y576894680D01*
X130188053Y784211947D01*
X337505320Y903906628D01*
X217810640Y696589360D01*
X10493372Y576894680D01*
X130188053Y369577413D01*
X249882733Y576894680D01*
X457200000Y696589360D01*
X337505320Y489272093D01*
X130188053Y369577413D01*
X130188053Y130188053D01*
X249882733Y337505320D01*
X130188053Y544822587D01*
X130188053Y784211947D01*
X249882733Y576894680D01*
X249882733Y337505320D01*
X457200000Y457200000D01*
X337505320Y664517267D01*
X337505320Y903906628D01*
X457200000Y696589360D01*
X457200000Y457200000D01*
X337505320Y249882733D01*
X217810640Y457200000D01*
X217810640Y696589360D01*
X337505320Y489272093D01*
X337505320Y249882733D01*
X130188053Y130188053D01*
X369577413Y130188053D01*
X249882733Y337505320D01*
X369577413Y544822587D01*
X576894680Y664517267D01*
X457200000Y457200000D01*
X249882733Y337505320D01*
X249882733Y576894680D01*
X369577413Y784211947D01*
X576894680Y903906628D01*
X457200000Y696589360D01*
X249882733Y576894680D01*
X369577413Y369577413D01*
X489272093Y576894680D01*
X696589360Y696589360D01*
X576894680Y489272093D01*
X369577413Y369577413D01*
X369577413Y130188053D01*
X489272093Y337505320D01*
X369577413Y544822587D01*
X369577413Y784211947D01*
X489272093Y576894680D01*
X489272093Y337505320D01*
X696589360Y457200000D01*
X576894680Y664517267D01*
X576894680Y903906628D01*
X696589360Y696589360D01*
X696589360Y457200000D01*
X576894680Y249882733D01*
X457200000Y457200000D01*
X457200000Y696589360D01*
X576894680Y489272093D01*
X576894680Y249882733D01*
X369577413Y130188053D01*
X576894680Y10493372D01*
X457200000Y217810640D01*
X217810640Y217810640D01*
X10493372Y337505320D01*
X249882733Y337505320D01*
X457200000Y217810640D01*
X576894680Y425127907D01*
X784211947Y544822587D01*
X664517267Y337505320D01*
X457200000Y217810640D01*
X457200000Y457200000D01*
X576894680Y664517267D01*
X784211947Y784211947D01*
X664517267Y576894680D01*
X457200000Y457200000D01*
X217810640Y457200000D01*
X10493372Y576894680D01*
X249882733Y576894680D01*
X457200000Y457200000D01*
X576894680Y249882733D01*
X337505320Y249882733D01*
X130188053Y369577413D01*
X369577413Y369577413D01*
X576894680Y249882733D01*
X696589360Y457200000D01*
X903906628Y576894680D01*
X784211947Y369577413D01*
X576894680Y249882733D01*
X576894680Y10493372D01*
X696589360Y217810640D01*
X457200000Y217810640D01*
X249882733Y337505320D01*
X489272093Y337505320D01*
X696589360Y217810640D01*
X576894680Y425127907D01*
X337505320Y425127907D01*
X130188053Y544822587D01*
X369577413Y544822587D01*
X576894680Y425127907D01*
X576894680Y664517267D01*
X337505320Y664517267D01*
X130188053Y784211947D01*
X369577413Y784211947D01*
X576894680Y664517267D01*
X696589360Y457200000D01*
X457200000Y457200000D01*
X249882733Y576894680D01*
X489272093Y576894680D01*
X696589360Y457200000D01*
X696589360Y217810640D01*
X903906628Y337505320D01*
X664517267Y337505320D01*
X457200000Y457200000D01*
X696589360Y457200000D01*
X903906628Y337505320D01*
X784211947Y544822587D01*
X544822587Y544822587D01*
X337505320Y664517267D01*
X576894680Y664517267D01*
X784211947Y544822587D01*
X784211947Y784211947D01*
X544822587Y784211947D01*
X337505320Y903906628D01*
X576894680Y903906628D01*
X784211947Y784211947D01*
X903906628Y576894680D01*
X664517267Y576894680D01*
X457200000Y696589360D01*
X696589360Y696589360D01*
X903906628Y576894680D01*
X903906628Y337505320D01*
X784211947Y130188053D01*
X544822587Y130188053D01*
X337505320Y249882733D01*
X576894680Y249882733D01*
X784211947Y130188053D01*
X664517267Y337505320D01*
X425127907Y337505320D01*
X217810640Y457200000D01*
X457200000Y457200000D01*
X664517267Y337505320D01*
X664517267Y576894680D01*
X425127907Y576894680D01*
X217810640Y696589360D01*
X457200000Y696589360D01*
X664517267Y576894680D01*
X784211947Y369577413D01*
X544822587Y369577413D01*
X337505320Y489272093D01*
X576894680Y489272093D01*
X784211947Y369577413D01*
X784211947Y130188053D01*
X576894680Y10493372D01*
%LPC*%
%LS0.782609695652174*%
X576894680Y10493372D02*
X337505320Y10493372D01*
X217810640Y217810640D01*
X337505320Y425127907D01*
X544822587Y544822587D01*
X425127907Y337505320D01*
X217810640Y217810640D01*
X217810640Y457200000D01*
X337505320Y664517267D01*
X544822587Y784211947D01*
X425127907Y576894680D01*
X217810640Y457200000D01*
X337505320Y249882733D01*
X457200000Y457200000D01*
X664517267Y576894680D01*
X544822587Y369577413D01*
X337505320Y249882733D01*
X337505320Y10493372D01*
X457200000Y217810640D01*
X337505320Y425127907D01*
X337505320Y664517267D01*
X457200000Y457200000D01*
X457200000Y217810640D01*
X664517267Y337505320D01*
X544822587Y544822587D01*
X544822587Y784211947D01*
X664517267Y576894680D01*
X664517267Y337505320D01*
X544822587Y130188053D01*
X425127907Y337505320D01*
X425127907Y576894680D01*
X544822587Y369577413D01*
X544822587Y130188053D01*
X337505320Y10493372D01*
X130188053Y130188053D01*
X10493372Y337505320D01*
X130188053Y544822587D01*
X337505320Y664517267D01*
X217810640Y457200000D01*
X10493372Y337505320D01*
X10493372Y576894680D01*
X130188053Y784211947D01*
X337505320Y903906628D01*
X217810640Y696589360D01*
X10493372Y576894680D01*
X130188053Y369577413D01*
X249882733Y576894680D01*
X457200000Y696589360D01*
X337505320Y489272093D01*
X130188053Y369577413D01*
X130188053Y130188053D01*
X249882733Y337505320D01*
X130188053Y544822587D01*
X130188053Y784211947D01*
X249882733Y576894680D01*
X249882733Y337505320D01*
X457200000Y457200000D01*
X337505320Y664517267D01*
X337505320Y903906628D01*
X457200000Y696589360D01*
X457200000Y457200000D01*
X337505320Y249882733D01*
X217810640Y457200000D01*
X217810640Y696589360D01*
X337505320Y489272093D01*
X337505320Y249882733D01*
X130188053Y130188053D01*
X369577413Y130188053D01*
X249882733Y337505320D01*
X369577413Y544822587D01*
X576894680Y664517267D01*
X457200000Y457200000D01*
X249882733Y337505320D01*
X249882733Y576894680D01*
X369577413Y784211947D01*
X576894680Y903906628D01*
X457200000Y696589360D01*
X249882733Y576894680D01*
X369577413Y369577413D01*
X489272093Y576894680D01*
X696589360Y696589360D01*
X576894680Y489272093D01*
X369577413Y369577413D01*
X369577413Y130188053D01*
X489272093Y337505320D01*
X369577413Y544822587D01*
X369577413Y784211947D01*
X489272093Y576894680D01*
X489272093Y337505320D01*
X696589360Y457200000D01*
X576894680Y664517267D01*
X576894680Y903906628D01*
X696589360Y696589360D01*
X696589360Y457200000D01*
X576894680Y249882733D01*
X457200000Y457200000D01*
X457200000Y696589360D01*
X576894680Y489272093D01*
X576894680Y249882733D01*
X369577413Y130188053D01*
X576894680Y10493372D01*
X457200000Y217810640D01*
X217810640Y217810640D01*
X10493372Y337505320D01*
X249882733Y337505320D01*
X457200000Y217810640D01*
X576894680Y425127907D01*
X784211947Y544822587D01*
X664517267Y337505320D01*
X457200000Y217810640D01*
X457200000Y457200000D01*
X576894680Y664517267D01*
X784211947Y784211947D01*
X664517267Y576894680D01*
X457200000Y457200000D01*
X217810640Y457200000D01*
X10493372Y576894680D01*
X249882733Y576894680D01*
X457200000Y457200000D01*
X576894680Y249882733D01*
X337505320Y249882733D01*
X130188053Y369577413D01*
X369577413Y369577413D01*
X576894680Y249882733D01*
X696589360Y457200000D01*
X903906628Y576894680D01*
X784211947Y369577413D01*
X576894680Y249882733D01*
X576894680Y10493372D01*
X696589360Y217810640D01*
X457200000Y217810640D01*
X249882733Y337505320D01*
X489272093Y337505320D01*
X696589360Y217810640D01*
X576894680Y425127907D01*
X337505320Y425127907D01*
X130188053Y544822587D01*
X369577413Y544822587D01*
X576894680Y425127907D01*
X576894680Y664517267D01*
X337505320Y664517267D01*
X130188053Y784211947D01*
X369577413Y784211947D01*
X576894680Y664517267D01*
X696589360Y457200000D01*
X457200000Y457200000D01*
X249882733Y576894680D01*
X489272093Y576894680D01*
X696589360Y457200000D01*
X696589360Y217810640D01*
X903906628Y337505320D01*
X664517267Y337505320D01*
X457200000Y457200000D01*
X696589360Y457200000D01*
X903906628Y337505320D01*
X784211947Y544822587D01*
X544822587Y544822587D01*
X337505320Y664517267D01*
X576894680Y664517267D01*
X784211947Y544822587D01*
X784211947Y784211947D01*
X544822587Y784211947D01*
X337505320Y903906628D01*
X576894680Y903906628D01*
X784211947Y784211947D01*
X903906628Y576894680D01*
X664517267Y576894680D01*
X457200000Y696589360D01*
X696589360Y696589360D01*
X903906628Y576894680D01*
X903906628Y337505320D01*
X784211947Y130188053D01*
X544822587Y130188053D01*
X337505320Y249882733D01*
X576894680Y249882733D01*
X784211947Y130188053D01*
X664517267Y337505320D01*
X425127907Y337505320D01*
X217810640Y457200000D01*
X457200000Y457200000D01*
X664517267Y337505320D01*
X664517267Y576894680D01*
X425127907Y576894680D01*
X217810640Y696589360D01*
X457200000Y696589360D01*
X664517267Y576894680D01*
X784211947Y369577413D01*
X544822587Y369577413D01*
X337505320Y489272093D01*
X576894680Y489272093D01*
X784211947Y369577413D01*
X784211947Y130188053D01*
X576894680Y10493372D01*
%LPD*%
%LS0.739131434782609*%
X576894680Y10493372D02*
X337505320Y10493372D01*
X217810640Y217810640D01*
X337505320Y425127907D01*
X544822587Y544822587D01*
X425127907Y337505320D01*
X217810640Y217810640D01*
X217810640Y457200000D01*
X337505320Y664517267D01*
X544822587Y784211947D01*
X425127907Y576894680D01*
X217810640Y457200000D01*
X337505320Y249882733D01*
X457200000Y457200000D01*
X664517267Y576894680D01*
X544822587Y369577413D01*
X337505320Y249882733D01*
X337505320Y10493372D01*
X457200000Y217810640D01*
X337505320Y425127907D01*
X337505320Y664517267D01*
X457200000Y457200000D01*
X457200000Y217810640D01*
X664517267Y337505320D01*
X544822587Y544822587D01*
X544822587Y784211947D01*
X664517267Y576894680D01*
X664517267Y337505320D01*
X544822587Y130188053D01*
X425127907Y337505320D01*
X425127907Y576894680D01*
X544822587Y369577413D01*
X544822587Y130188053D01*
X337505320Y10493372D01*
X130188053Y130188053D01*
X10493372Y337505320D01*
X130188053Y544822587D01*
X337505320Y664517267D01*
X217810640Y457200000D01*
X10493372Y337505320D01*
X10493372Y576894680D01*
X130188053Y784211947D01*
X337505320Y903906628D01*
X217810640Y696589360D01*
X10493372Y576894680D01*
X130188053Y369577413D01*
X249882733Y576894680D01*
X457200000Y696589360D01*
X337505320Y489272093D01*
X130188053Y369577413D01*
X130188053Y130188053D01*
X249882733Y337505320D01*
X130188053Y544822587D01*
X130188053Y784211947D01*
X249882733Y576894680D01*
X249882733Y337505320D01*
X457200000Y457200000D01*
X337505320Y664517267D01*
X337505320Y903906628D01*
X457200000Y696589360D01*
X457200000Y457200000D01*
X337505320Y249882733D01*
X217810640Y457200000D01*
X217810640Y696589360D01*
X337505320Y489272093D01*
X337505320Y249882733D01*
X130188053Y130188053D01*
X369577413Y130188053D01*
X249882733Y337505320D01*
X369577413Y544822587D01*
X576894680Y664517267D01*
X457200000Y457200000D01*
X249882733Y337505320D01*
X249882733Y576894680D01*
X369577413Y784211947D01*
X576894680Y903906628D01*
X457200000Y696589360D01*
X249882733Y576894680D01*
X369577413Y369577413D01*
X489272093Y576894680D01*
X696589360Y696589360D01*
X576894680Y489272093D01*
X369577413Y369577413D01*
X369577413Y130188053D01*
X489272093Y337505320D01*
X369577413Y544822587D01*
X369577413Y784211947D01*
X489272093Y576894680D01*
X489272093Y337505320D01*
X696589360Y457200000D01*
X576894680Y664517267D01*
X576894680Y903906628D01*
X696589360Y696589360D01*
X696589360Y457200000D01*
X576894680Y249882733D01*
X457200000Y457200000D01*
X457200000Y696589360D01*
X576894680Y489272093D01*
X576894680Y249882733D01*
X369577413Y130188053D01*
X576894680Y10493372D01*
X457200000Y217810640D01*
X217810640Y217810640D01*
X10493372Y337505320D01*
X249882733Y337505320D01*
X457200000Y217810640D01*
X576894680Y425127907D01*
X784211947Y544822587D01*
X664517267Y337505320D01*
X457200000Y217810640D01*
X457200000Y457200000D01*
X576894680Y664517267D01*
X784211947Y784211947D01*
X664517267Y576894680D01*
X457200000Y457200000D01*
X217810640Y457200000D01*
X10493372Y576894680D01*
X249882733Y576894680D01*
X457200000Y457200000D01*
X576894680Y249882733D01*
X337505320Y249882733D01*
X130188053Y369577413D01*
X369577413Y369577413D01*
X576894680Y249882733D01*
X696589360Y457200000D01*
X903906628Y576894680D01*
X784211947Y369577413D01*
X576894680Y249882733D01*
X576894680Y10493372D01*
X696589360Y217810640D01*
X457200000Y217810640D01*
X249882733Y337505320D01*
X489272093Y337505320D01*
X696589360Y217810640D01*
X576894680Y425127907D01*
X337505320Y425127907D01*
X130188053Y544822587D01*
X369577413Y544822587D01*
X576894680Y425127907D01*
X576894680Y664517267D01*
X337505320Y664517267D01*
X130188053Y784211947D01*
X369577413Y784211947D01*
X576894680Y664517267D01*
X696589360Y457200000D01*
X457200000Y457200000D01*
X249882733Y576894680D01*
X489272093Y576894680D01*
X696589360Y457200000D01*
X696589360Y217810640D01*
X903906628Y337505320D01*
X664517267Y337505320D01*
X457200000Y457200000D01*
X696589360Y457200000D01*
X903906628Y337505320D01*
X784211947Y544822587D01*
X544822587Y544822587D01*
X337505320Y664517267D01*
X576894680Y664517267D01*
X784211947Y544822587D01*
X784211947Y784211947D01*
X544822587Y784211947D01*
X337505320Y903906628D01*
X576894680Y903906628D01*
X784211947Y784211947D01*
X903906628Y576894680D01*
X664517267Y576894680D01*
X457200000Y696589360D01*
X696589360Y696589360D01*
X903906628Y576894680D01*
X903906628Y337505320D01*
X784211947Y130188053D01*
X544822587Y130188053D01*
X337505320Y249882733D01*
X576894680Y249882733D01*
X784211947Y130188053D01*
X664517267Y337505320D01*
X425127907Y337505320D01*
X217810640Y457200000D01*
X457200000Y457200000D01*
X664517267Y337505320D01*
X664517267Y576894680D01*
X425127907Y576894680D01*
X217810640Y696589360D01*
X457200000Y696589360D01*
X664517267Y576894680D01*
X784211947Y369577413D01*
X544822587Y369577413D01*
X337505320Y489272093D01*
X576894680Y489272093D01*
X784211947Y369577413D01*
X784211947Y130188053D01*
X576894680Y10493372D01*
%LPC*%
%LS0.695653173913043*%
X576894680Y10493372D02*
X337505320Y10493372D01*
X217810640Y217810640D01*
X337505320Y425127907D01*
X544822587Y544822587D01*
X425127907Y337505320D01*
X217810640Y217810640D01*
X217810640Y457200000D01*
X337505320Y664517267D01*
X544822587Y784211947D01*
X425127907Y576894680D01*
X217810640Y457200000D01*
X337505320Y249882733D01*
X457200000Y457200000D01*
X664517267Y576894680D01*
X544822587Y369577413D01*
X337505320Y249882733D01*
X337505320Y10493372D01*
X457200000Y217810640D01*
X337505320Y425127907D01*
X337505320Y664517267D01*
X457200000Y457200000D01*
X457200000Y217810640D01*
X664517267Y337505320D01*
X544822587Y544822587D01*
X544822587Y784211947D01*
X664517267Y576894680D01*
X664517267Y337505320D01*
X544822587Y130188053D01*
X425127907Y337505320D01*
X425127907Y576894680D01*
X544822587Y369577413D01*
X544822587Y130188053D01*
X337505320Y10493372D01*
X130188053Y130188053D01*
X10493372Y337505320D01*
X130188053Y544822587D01*
X337505320Y664517267D01*
X217810640Y457200000D01*
X10493372Y337505320D01*
X10493372Y576894680D01*
X130188053Y784211947D01*
X337505320Y903906628D01*
X217810640Y696589360D01*
X10493372Y576894680D01*
X130188053Y369577413D01*
X249882733Y576894680D01*
X457200000Y696589360D01*
X337505320Y489272093D01*
X130188053Y369577413D01*
X130188053Y130188053D01*
X249882733Y337505320D01*
X130188053Y544822587D01*
X130188053Y784211947D01*
X249882733Y576894680D01*
X249882733Y337505320D01*
X457200000Y457200000D01*
X337505320Y664517267D01*
X337505320Y903906628D01*
X457200000Y696589360D01*
X457200000Y457200000D01*
X337505320Y249882733D01*
X217810640Y457200000D01*
X217810640Y696589360D01*
X337505320Y489272093D01*
X337505320Y249882733D01*
X130188053Y130188053D01*
X369577413Y130188053D01*
X249882733Y337505320D01*
X369577413Y544822587D01*
X576894680Y664517267D01*
X457200000Y457200000D01*
X249882733Y337505320D01*
X249882733Y576894680D01*
X369577413Y784211947D01*
X576894680Y903906628D01*
X457200000Y696589360D01*
X249882733Y576894680D01*
X369577413Y369577413D01*
X489272093Y576894680D01*
X696589360Y696589360D01*
X576894680Y489272093D01*
X369577413Y369577413D01*
X369577413Y130188053D01*
X489272093Y337505320D01*
X369577413Y544822587D01*
X369577413Y784211947D01*
X489272093Y576894680D01*
X489272093Y337505320D01*
X696589360Y457200000D01*
X576894680Y664517267D01*
X576894680Y903906628D01*
X696589360Y696589360D01*
X696589360Y457200000D01*
X576894680Y249882733D01*
X457200000Y457200000D01*
X457200000Y696589360D01*
X576894680Y489272093D01*
X576894680Y249882733D01*
X369577413Y130188053D01*
X576894680Y10493372D01*
X457200000Y217810640D01*
X217810640Y217810640D01*
X10493372Y337505320D01*
X249882733Y337505320D01*
X457200000Y217810640D01*
X576894680Y425127907D01*
X784211947Y544822587D01*
X664517267Y337505320D01*
X457200000Y217810640D01*
X457200000Y457200000D01*
X576894680Y664517267D01*
X784211947Y784211947D01*
X664517267Y576894680D01*
X457200000Y457200000D01*
X217810640Y457200000D01*
X10493372Y576894680D01*
X249882733Y576894680D01*
X457200000Y457200000D01*
X576894680Y249882733D01*
X337505320Y249882733D01*
X130188053Y369577413D01*
X369577413Y369577413D01*
X576894680Y249882733D01*
X696589360Y457200000D01*
X903906628Y576894680D01*
X784211947Y369577413D01*
X576894680Y249882733D01*
X576894680Y10493372D01*
X696589360Y217810640D01*
X457200000Y217810640D01*
X249882733Y337505320D01*
X489272093Y337505320D01*
X696589360Y217810640D01*
X576894680Y425127907D01*
X337505320Y425127907D01*
X130188053Y544822587D01*
X369577413Y544822587D01*
X576894680Y425127907D01*
X576894680Y664517267D01*
X337505320Y664517267D01*
X130188053Y784211947D01*
X369577413Y784211947D01*
X576894680Y664517267D01*
X696589360Y457200000D01*
X457200000Y457200000D01*
X249882733Y576894680D01*
X489272093Y576894680D01*
X696589360Y457200000D01*
X696589360Y217810640D01*
X903906628Y337505320D01*
X664517267Y337505320D01*
X457200000Y457200000D01*
X696589360Y457200000D01*
X903906628Y337505320D01*
X784211947Y544822587D01*
X544822587Y544822587D01*
X337505320Y664517267D01*
X576894680Y664517267D01*
X784211947Y544822587D01*
X784211947Y784211947D01*
X544822587Y784211947D01*
X337505320Y903906628D01*
X576894680Y903906628D01*
X784211947Y784211947D01*
X903906628Y576894680D01*
X664517267Y576894680D01*
X457200000Y696589360D01*
X696589360Y696589360D01*
X903906628Y576894680D01*
X903906628Y337505320D01*
X784211947Y130188053D01*
X544822587Y130188053D01*
X337505320Y249882733D01*
X576894680Y249882733D01*
X784211947Y130188053D01*
X664517267Y337505320D01*
X425127907Y337505320D01*
X217810640Y457200000D01*
X457200000Y457200000D01*
X664517267Y337505320D01*
X664517267Y576894680D01*
X425127907Y576894680D01*
X217810640Y696589360D01*
X457200000Y696589360D01*
X664517267Y576894680D01*
X784211947Y369577413D01*
X544822587Y369577413D01*
X337505320Y489272093D01*
X576894680Y489272093D01*
X784211947Y369577413D01*
X784211947Y130188053D01*
X576894680Y10493372D01*
%LPD*%
%LS0.652174913043478*%
X576894680Y10493372D02*
X337505320Y10493372D01*
X217810640Y217810640D01*
X337505320Y425127907D01*
X544822587Y544822587D01*
X425127907Y337505320D01*
X217810640Y217810640D01*
X217810640Y457200000D01*
X337505320Y664517267D01*
X544822587Y784211947D01*
X425127907Y576894680D01*
X217810640Y457200000D01*
X337505320Y249882733D01*
X457200000Y457200000D01*
X664517267Y576894680D01*
X544822587Y369577413D01*
X337505320Y249882733D01*
X337505320Y10493372D01*
X457200000Y217810640D01*
X337505320Y425127907D01*
X337505320Y664517267D01*
X457200000Y457200000D01*
X457200000Y217810640D01*
X664517267Y337505320D01*
X544822587Y544822587D01*
X544822587Y784211947D01*
X664517267Y576894680D01*
X664517267Y337505320D01*
X544822587Y130188053D01*
X425127907Y337505320D01*
X425127907Y576894680D01*
X544822587Y369577413D01*
X544822587Y130188053D01*
X337505320Y10493372D01*
X130188053Y130188053D01*
X10493372Y337505320D01*
X130188053Y544822587D01*
X337505320Y664517267D01*
X217810640Y457200000D01*
X10493372Y337505320D01*
X10493372Y576894680D01*
X130188053Y784211947D01*
X337505320Y903906628D01*
X217810640Y696589360D01*
X10493372Y576894680D01*
X130188053Y369577413D01*
X249882733Y576894680D01*
X457200000Y696589360D01*
X337505320Y489272093D01*
X130188053Y369577413D01*
X130188053Y130188053D01*
X249882733Y337505320D01*
X130188053Y544822587D01*
X130188053Y784211947D01*
X249882733Y576894680D01*
X249882733Y337505320D01*
X457200000Y457200000D01*
X337505320Y664517267D01*
X337505320Y903906628D01*
X457200000Y696589360D01*
X457200000Y457200000D01*
X337505320Y249882733D01*
X217810640Y457200000D01*
X217810640Y696589360D01*
X337505320Y489272093D01*
X337505320Y249882733D01*
X130188053Y130188053D01*
X369577413Y130188053D01*
X249882733Y337505320D01*
X369577413Y544822587D01*
X576894680Y664517267D01*
X457200000Y457200000D01*
X249882733Y337505320D01*
X249882733Y576894680D01*
X369577413Y784211947D01*
X576894680Y903906628D01*
X457200000Y696589360D01*
X249882733Y576894680D01*
X369577413Y369577413D01*
X489272093Y576894680D01*
X696589360Y696589360D01*
X576894680Y489272093D01*
X369577413Y369577413D01*
X369577413Y130188053D01*
X489272093Y337505320D01*
X369577413Y544822587D01*
X369577413Y784211947D01*
X489272093Y576894680D01*
X489272093Y337505320D01*
X696589360Y457200000D01*
X576894680Y664517267D01*
X576894680Y903906628D01*
X696589360Y696589360D01*
X696589360Y457200000D01*
X576894680Y249882733D01*
X457200000Y457200000D01*
X457200000Y696589360D01*
X576894680Y489272093D01*
X576894680Y249882733D01*
X369577413Y130188053D01*
X576894680Y10493372D01*
X457200000Y217810640D01*
X217810640Y217810640D01*
X10493372Y337505320D01*
X249882733Y337505320D01*
X457200000Y217810640D01*
X576894680Y425127907D01*
X784211947Y544822587D01*
X664517267Y337505320D01*
X457200000Y217810640D01*
X457200000Y457200000D01*
X576894680Y664517267D01*
X784211947Y784211947D01*
X664517267Y576894680D01*
X457200000Y457200000D01*
X217810640Y457200000D01*
X10493372Y576894680D01*
X249882733Y576894680D01*
X457200000Y457200000D01*
X576894680Y249882733D01*
X337505320Y249882733D01*
X130188053Y369577413D01*
X369577413Y369577413D01*
X576894680Y249882733D01*
X696589360Y457200000D01*
X903906628Y576894680D01*
X784211947Y369577413D01*
X576894680Y249882733D01*
X576894680Y10493372D01*
X696589360Y217810640D01*
X457200000Y217810640D01*
X249882733Y337505320D01*
X489272093Y337505320D01*
X696589360Y217810640D01*
X576894680Y425127907D01*
X337505320Y425127907D01*
X130188053Y544822587D01*
X369577413Y544822587D01*
X576894680Y425127907D01*
X576894680Y664517267D01*
X337505320Y664517267D01*
X130188053Y784211947D01*
X369577413Y784211947D01*
X576894680Y664517267D01*
X696589360Y457200000D01*
X457200000Y457200000D01*
X249882733Y576894680D01*
X489272093Y576894680D01*
X696589360Y457200000D01*
X696589360Y217810640D01*
X903906628Y337505320D01*
X664517267Y337505320D01*
X457200000Y457200000D01*
X696589360Y457200000D01*
X903906628Y337505320D01*
X784211947Y544822587D01*
X544822587Y544822587D01*
X337505320Y664517267D01*
X576894680Y664517267D01*
X784211947Y544822587D01*
X784211947Y784211947D01*
X544822587Y784211947D01*
X337505320Y903906628D01*
X576894680Y903906628D01*
X784211947Y784211947D01*
X903906628Y576894680D01*
X664517267Y576894680D01*
X457200000Y696589360D01*
X696589360Y696589360D01*
X903906628Y576894680D01*
X903906628Y337505320D01*
X784211947Y130188053D01*
X544822587Y130188053D01*
X337505320Y249882733D01*
X576894680Y249882733D01*
X784211947Y130188053D01*
X664517267Y337505320D01*
X425127907Y337505320D01*
X217810640Y457200000D01*
X457200000Y457200000D01*
X664517267Y337505320D01*
X664517267Y576894680D01*
X425127907Y576894680D01*
X217810640Y696589360D01*
X457200000Y696589360D01*
X664517267Y576894680D01*
X784211947Y369577413D01*
X544822587Y369577413D01*
X337505320Y489272093D01*
X576894680Y489272093D01*
X784211947Y369577413D01*
X784211947Y130188053D01*
X576894680Y10493372D01*
%LPC*%
%LS0.608696652173913*%
X576894680Y10493372D02*
X337505320Y10493372D01*
X217810640Y217810640D01*
X337505320Y425127907D01*
X544822587Y544822587D01*
X425127907Y337505320D01*
X217810640Y217810640D01*
X217810640Y457200000D01*
X337505320Y664517267D01*
X544822587Y784211947D01*
X425127907Y576894680D01*
X217810640Y457200000D01*
X337505320Y249882733D01*
X457200000Y457200000D01*
X664517267Y576894680D01*
X544822587Y369577413D01*
X337505320Y249882733D01*
X337505320Y10493372D01*
X457200000Y217810640D01*
X337505320Y425127907D01*
X337505320Y664517267D01*
X457200000Y457200000D01*
X457200000Y217810640D01*
X664517267Y337505320D01*
X544822587Y544822587D01*
X544822587Y784211947D01*
X664517267Y576894680D01*
X664517267Y337505320D01*
X544822587Y130188053D01*
X425127907Y337505320D01*
X425127907Y576894680D01*
X544822587Y369577413D01*
X544822587Y130188053D01*
X337505320Y10493372D01*
X130188053Y130188053D01*
X10493372Y337505320D01*
X130188053Y544822587D01*
X337505320Y664517267D01*
X217810640Y457200000D01*
X10493372Y337505320D01*
X10493372Y576894680D01*
X130188053Y784211947D01*
X337505320Y903906628D01*
X217810640Y696589360D01*
X10493372Y576894680D01*
X130188053Y369577413D01*
X249882733Y576894680D01*
X457200000Y696589360D01*
X337505320Y489272093D01*
X130188053Y369577413D01*
X130188053Y130188053D01*
X249882733Y337505320D01*
X130188053Y544822587D01*
X130188053Y784211947D01*
X249882733Y576894680D01*
X249882733Y337505320D01*
X457200000Y457200000D01*
X337505320Y664517267D01*
X337505320Y903906628D01*
X457200000Y696589360D01*
X457200000Y457200000D01*
X337505320Y249882733D01*
X217810640Y457200000D01*
X217810640Y696589360D01*
X337505320Y489272093D01*
X337505320Y249882733D01*
X130188053Y130188053D01*
X369577413Y130188053D01*
X249882733Y337505320D01*
X369577413Y544822587D01*
X576894680Y664517267D01*
X457200000Y457200000D01*
X249882733Y337505320D01*
X249882733Y576894680D01*
X369577413Y784211947D01*
X576894680Y903906628D01*
X457200000Y696589360D01*
X249882733Y576894680D01*
X369577413Y369577413D01*
X489272093Y576894680D01*
X696589360Y696589360D01*
X576894680Y489272093D01*
X369577413Y369577413D01*
X369577413Y130188053D01*
X489272093Y337505320D01*
X369577413Y544822587D01*
X369577413Y784211947D01*
X489272093Y576894680D01*
X489272093Y337505320D01*
X696589360Y457200000D01*
X576894680Y664517267D01*
X576894680Y903906628D01*
X696589360Y696589360D01*
X696589360Y457200000D01*
X576894680Y249882733D01*
X457200000Y457200000D01*
X457200000Y696589360D01*
X576894680Y489272093D01*
X576894680Y249882733D01*
X369577413Y130188053D01*
X576894680Y10493372D01*
X457200000Y217810640D01*
X217810640Y217810640D01*
X10493372Y337505320D01*
X249882733Y337505320D01*
X457200000Y217810640D01*
X576894680Y425127907D01*
X784211947Y544822587D01*
X664517267Y337505320D01*
X457200000Y217810640D01*
X457200000Y457200000D01*
X576894680Y664517267D01*
X784211947Y784211947D01*
X664517267Y576894680D01*
X457200000Y457200000D01*
X217810640Y457200000D01*
X10493372Y576894680D01*
X249882733Y576894680D01*
X457200000Y457200000D01*
X576894680Y249882733D01*
X337505320Y249882733D01*
X130188053Y369577413D01*
X369577413Y369577413D01*
X576894680Y249882733D01*
X696589360Y457200000D01*
X903906628Y576894680D01*
X784211947Y369577413D01*
X576894680Y249882733D01*
X576894680Y10493372D01*
X696589360Y217810640D01*
X457200000Y217810640D01*
X249882733Y337505320D01*
X489272093Y337505320D01*
X696589360Y217810640D01*
X576894680Y425127907D01*
X337505320Y425127907D01*
X130188053Y544822587D01*
X369577413Y544822587D01*
X576894680Y425127907D01*
X576894680Y664517267D01*
X337505320Y664517267D01*
X130188053Y784211947D01*
X369577413Y784211947D01*
X576894680Y664517267D01*
X696589360Y457200000D01*
X457200000Y457200000D01*
X249882733Y576894680D01*
X489272093Y576894680D01*
X696589360Y457200000D01*
X696589360Y217810640D01*
X903906628Y337505320D01*
X664517267Y337505320D01*
X457200000Y457200000D01*
X696589360Y457200000D01*
X903906628Y337505320D01*
X784211947Y544822587D01*
X544822587Y544822587D01*
X337505320Y664517267D01*
X576894680Y664517267D01*
X784211947Y544822587D01*
X784211947Y784211947D01*
X544822587Y784211947D01*
X337505320Y903906628D01*
X576894680Y903906628D01*
X784211947Y784211947D01*
X903906628Y576894680D01*
X664517267Y576894680D01*
X457200000Y696589360D01*
X696589360Y696589360D01*
X903906628Y576894680D01*
X903906628Y337505320D01*
X784211947Y130188053D01*
X544822587Y130188053D01*
X337505320Y249882733D01*
X576894680Y249882733D01*
X784211947Y130188053D01*
X664517267Y337505320D01*
X425127907Y337505320D01*
X217810640Y457200000D01*
X457200000Y457200000D01*
X664517267Y337505320D01*
X664517267Y576894680D01*
X425127907Y576894680D01*
X217810640Y696589360D01*
X457200000Y696589360D01*
X664517267Y576894680D01*
X784211947Y369577413D01*
X544822587Y369577413D01*
X337505320Y489272093D01*
X576894680Y489272093D01*
X784211947Y369577413D01*
X784211947Y130188053D01*
X576894680Y10493372D01*
%LPD*%
%LS0.565218391304348*%
X576894680Y10493372D02*
X337505320Y10493372D01*
X217810640Y217810640D01*
X337505320Y425127907D01*
X544822587Y544822587D01*
X425127907Y337505320D01*
X217810640Y217810640D01*
X217810640Y457200000D01*
X337505320Y664517267D01*
X544822587Y784211947D01*
X425127907Y576894680D01*
X217810640Y457200000D01*
X337505320Y249882733D01*
X457200000Y457200000D01*
X664517267Y576894680D01*
X544822587Y369577413D01*
X337505320Y249882733D01*
X337505320Y10493372D01*
X457200000Y217810640D01*
X337505320Y425127907D01*
X337505320Y664517267D01*
X457200000Y457200000D01*
X457200000Y217810640D01*
X664517267Y337505320D01*
X544822587Y544822587D01*
X544822587Y784211947D01*
X664517267Y576894680D01*
X664517267Y337505320D01*
X544822587Y130188053D01*
X425127907Y337505320D01*
X425127907Y576894680D01*
X544822587Y369577413D01*
X544822587Y130188053D01*
X337505320Y10493372D01*
X130188053Y130188053D01*
X10493372Y337505320D01*
X130188053Y544822587D01*
X337505320Y664517267D01*
X217810640Y457200000D01*
X10493372Y337505320D01*
X10493372Y576894680D01*
X130188053Y784211947D01*
X337505320Y903906628D01*
X217810640Y696589360D01*
X10493372Y576894680D01*
X130188053Y369577413D01*
X249882733Y576894680D01*
X457200000Y696589360D01*
X337505320Y489272093D01*
X130188053Y369577413D01*
X130188053Y130188053D01*
X249882733Y337505320D01*
X130188053Y544822587D01*
X130188053Y784211947D01*
X249882733Y576894680D01*
X249882733Y337505320D01*
X457200000Y457200000D01*
X337505320Y664517267D01*
X337505320Y903906628D01*
X457200000Y696589360D01*
X457200000Y457200000D01*
X337505320Y249882733D01*
X217810640Y457200000D01*
X217810640Y696589360D01*
X337505320Y489272093D01*
X337505320Y249882733D01*
X130188053Y130188053D01*
X369577413Y130188053D01*
X249882733Y337505320D01*
X369577413Y544822587D01*
X576894680Y664517267D01*
X457200000Y457200000D01*
X249882733Y337505320D01*
X249882733Y576894680D01*
X369577413Y784211947D01*
X576894680Y903906628D01*
X457200000Y696589360D01*
X249882733Y576894680D01*
X369577413Y369577413D01*
X489272093Y576894680D01*
X696589360Y696589360D01*
X576894680Y489272093D01*
X369577413Y369577413D01*
X369577413Y130188053D01*
X489272093Y337505320D01*
X369577413Y544822587D01*
X369577413Y784211947D01*
X489272093Y576894680D01*
X489272093Y337505320D01*
X696589360Y457200000D01*
X576894680Y664517267D01*
X576894680Y903906628D01*
X696589360Y696589360D01*
X696589360Y457200000D01*
X576894680Y249882733D01*
X457200000Y457200000D01*
X457200000Y696589360D01*
X576894680Y489272093D01*
X576894680Y249882733D01*
X369577413Y130188053D01*
X576894680Y10493372D01*
X457200000Y217810640D01*
X217810640Y217810640D01*
X10493372Y337505320D01*
X249882733Y337505320D01*
X457200000Y217810640D01*
X576894680Y425127907D01*
X784211947Y544822587D01*
X664517267Y337505320D01*
X457200000Y217810640D01*
X457200000Y457200000D01*
X576894680Y664517267D01*
X784211947Y784211947D01*
X664517267Y576894680D01*
X457200000Y457200000D01*
X217810640Y457200000D01*
X10493372Y576894680D01*
X249882733Y576894680D01*
X457200000Y457200000D01*
X576894680Y249882733D01*
X337505320Y249882733D01*
X130188053Y369577413D01*
X369577413Y369577413D01*
X576894680Y249882733D01*
X696589360Y457200000D01*
X903906628Y576894680D01*
X784211947Y369577413D01*
X576894680Y249882733D01*
X576894680Y10493372D01*
X696589360Y217810640D01*
X457200000Y217810640D01*
X249882733Y337505320D01*
X489272093Y337505320D01*
X696589360Y217810640D01*
X576894680Y425127907D01*
X337505320Y425127907D01*
X130188053Y544822587D01*
X369577413Y544822587D01*
X576894680Y425127907D01*
X576894680Y664517267D01*
X337505320Y664517267D01*
X130188053Y784211947D01*
X369577413Y784211947D01*
X576894680Y664517267D01*
X696589360Y457200000D01*
X457200000Y457200000D01*
X249882733Y576894680D01*
X489272093Y576894680D01*
X696589360Y457200000D01*
X696589360Y217810640D01*
X903906628Y337505320D01*
X664517267Y337505320D01*
X457200000Y457200000D01*
X696589360Y457200000D01*
X903906628Y337505320D01*
X784211947Y544822587D01*
X544822587Y544822587D01*
X337505320Y664517267D01*
X576894680Y664517267D01*
X784211947Y544822587D01*
X784211947Y784211947D01*
X544822587Y784211947D01*
X337505320Y903906628D01*
X576894680Y903906628D01*
X784211947Y784211947D01*
X903906628Y576894680D01*
X664517267Y576894680D01*
X457200000Y696589360D01*
X696589360Y696589360D01*
X903906628Y576894680D01*
X903906628Y337505320D01*
X784211947Y130188053D01*
X544822587Y130188053D01*
X337505320Y249882733D01*
X576894680Y249882733D01*
X784211947Y130188053D01*
X664517267Y337505320D01*
X425127907Y337505320D01*
X217810640Y457200000D01*
X457200000Y457200000D01*
X664517267Y337505320D01*
X664517267Y576894680D01*
X425127907Y576894680D01*
X217810640Y696589360D01*
X457200000Y696589360D01*
X664517267Y576894680D01*
X784211947Y369577413D01*
X544822587Y369577413D01*
X337505320Y489272093D01*
X576894680Y489272093D01*
X784211947Y369577413D01*
X784211947Y130188053D01*
X576894680Y10493372D01*
%LPC*%
%LS0.521740130434783*%
X576894680Y10493372D02*
X337505320Y10493372D01*
X217810640Y217810640D01*
X337505320Y425127907D01*
X544822587Y544822587D01*
X425127907Y337505320D01*
X217810640Y217810640D01*
X217810640Y457200000D01*
X337505320Y664517267D01*
X544822587Y784211947D01*
X425127907Y576894680D01*
X217810640Y457200000D01*
X337505320Y249882733D01*
X457200000Y457200000D01*
X664517267Y576894680D01*
X544822587Y369577413D01*
X337505320Y249882733D01*
X337505320Y10493372D01*
X457200000Y217810640D01*
X337505320Y425127907D01*
X337505320Y664517267D01*
X457200000Y457200000D01*
X457200000Y217810640D01*
X664517267Y337505320D01*
X544822587Y544822587D01*
X544822587Y784211947D01*
X664517267Y576894680D01*
X664517267Y337505320D01*
X544822587Y130188053D01*
X425127907Y337505320D01*
X425127907Y576894680D01*
X544822587Y369577413D01*
X544822587Y130188053D01*
X337505320Y10493372D01*
X130188053Y130188053D01*
X10493372Y337505320D01*
X130188053Y544822587D01*
X337505320Y664517267D01*
X217810640Y457200000D01*
X10493372Y337505320D01*
X10493372Y576894680D01*
X130188053Y784211947D01*
X337505320Y903906628D01*
X217810640Y696589360D01*
X10493372Y576894680D01*
X130188053Y369577413D01*
X249882733Y576894680D01*
X457200000Y696589360D01*
X337505320Y489272093D01*
X130188053Y369577413D01*
X130188053Y130188053D01*
X249882733Y337505320D01*
X130188053Y544822587D01*
X130188053Y784211947D01*
X249882733Y576894680D01*
X249882733Y337505320D01*
X457200000Y457200000D01*
X337505320Y664517267D01*
X337505320Y903906628D01*
X457200000Y696589360D01*
X457200000Y457200000D01*
X337505320Y249882733D01*
X217810640Y457200000D01*
X217810640Y696589360D01*
X337505320Y489272093D01*
X337505320Y249882733D01*
X130188053Y130188053D01*
X369577413Y130188053D01*
X249882733Y337505320D01*
X369577413Y544822587D01*
X576894680Y664517267D01*
X457200000Y457200000D01*
X249882733Y337505320D01*
X249882733Y576894680D01*
X369577413Y784211947D01*
X576894680Y903906628D01*
X457200000Y696589360D01*
X249882733Y576894680D01*
X369577413Y369577413D01*
X489272093Y576894680D01*
X696589360Y696589360D01*
X576894680Y489272093D01*
X369577413Y369577413D01*
X369577413Y130188053D01*
X489272093Y337505320D01*
X369577413Y544822587D01*
X369577413Y784211947D01*
X489272093Y576894680D01*
X489272093Y337505320D01*
X696589360Y457200000D01*
X576894680Y664517267D01*
X576894680Y903906628D01*
X696589360Y696589360D01*
X696589360Y457200000D01*
X576894680Y249882733D01*
X457200000Y457200000D01*
X457200000Y696589360D01*
X576894680Y489272093D01*
X576894680Y249882733D01*
X369577413Y130188053D01*
X576894680Y10493372D01*
X457200000Y217810640D01*
X217810640Y217810640D01*
X10493372Y337505320D01*
X249882733Y337505320D01*
X457200000Y217810640D01*
X576894680Y425127907D01*
X784211947Y544822587D01*
X664517267Y337505320D01*
X457200000Y217810640D01*
X457200000Y457200000D01*
X576894680Y664517267D01*
X784211947Y784211947D01*
X664517267Y576894680D01*
X457200000Y457200000D01*
X217810640Y457200000D01*
X10493372Y576894680D01*
X249882733Y576894680D01*
X457200000Y457200000D01*
X576894680Y249882733D01*
X337505320Y249882733D01*
X130188053Y369577413D01*
X369577413Y369577413D01*
X576894680Y249882733D01*
X696589360Y457200000D01*
X903906628Y576894680D01*
X784211947Y369577413D01*
X576894680Y249882733D01*
X576894680Y10493372D01*
X696589360Y217810640D01*
X457200000Y217810640D01*
X249882733Y337505320D01*
X489272093Y337505320D01*
X696589360Y217810640D01*
X576894680Y425127907D01*
X337505320Y425127907D01*
X130188053Y544822587D01*
X369577413Y544822587D01*
X576894680Y425127907D01*
X576894680Y664517267D01*
X337505320Y664517267D01*
X130188053Y784211947D01*
X369577413Y784211947D01*
X576894680Y664517267D01*
X696589360Y457200000D01*
X457200000Y457200000D01*
X249882733Y576894680D01*
X489272093Y576894680D01*
X696589360Y457200000D01*
X696589360Y217810640D01*
X903906628Y337505320D01*
X664517267Y337505320D01*
X457200000Y457200000D01*
X696589360Y457200000D01*
X903906628Y337505320D01*
X784211947Y544822587D01*
X544822587Y544822587D01*
X337505320Y664517267D01*
X576894680Y664517267D01*
X784211947Y544822587D01*
X784211947Y784211947D01*
X544822587Y784211947D01*
X337505320Y903906628D01*
X576894680Y903906628D01*
X784211947Y784211947D01*
X903906628Y576894680D01*
X664517267Y576894680D01*
X457200000Y696589360D01*
X696589360Y696589360D01*
X903906628Y576894680D01*
X903906628Y337505320D01*
X784211947Y130188053D01*
X544822587Y130188053D01*
X337505320Y249882733D01*
X576894680Y249882733D01*
X784211947Y130188053D01*
X664517267Y337505320D01*
X425127907Y337505320D01*
X217810640Y457200000D01*
X457200000Y457200000D01*
X664517267Y337505320D01*
X664517267Y576894680D01*
X425127907Y576894680D01*
X217810640Y696589360D01*
X457200000Y696589360D01*
X664517267Y576894680D01*
X784211947Y369577413D01*
X544822587Y369577413D01*
X337505320Y489272093D01*
X576894680Y489272093D01*
X784211947Y369577413D01*
X784211947Y130188053D01*
X576894680Y10493372D01*
%LPD*%
%LS0.478261869565217*%
X576894680Y10493372D02*
X337505320Y10493372D01*
X217810640Y217810640D01*
X337505320Y425127907D01*
X544822587Y544822587D01*
X425127907Y337505320D01*
X217810640Y217810640D01*
X217810640Y457200000D01*
X337505320Y664517267D01*
X544822587Y784211947D01*
X425127907Y576894680D01*
X217810640Y457200000D01*
X337505320Y249882733D01*
X457200000Y457200000D01*
X664517267Y576894680D01*
X544822587Y369577413D01*
X337505320Y249882733D01*
X337505320Y10493372D01*
X457200000Y217810640D01*
X337505320Y425127907D01*
X337505320Y664517267D01*
X457200000Y457200000D01*
X457200000Y217810640D01*
X664517267Y337505320D01*
X544822587Y544822587D01*
X544822587Y784211947D01*
X664517267Y576894680D01*
X664517267Y337505320D01*
X544822587Y130188053D01*
X425127907Y337505320D01*
X425127907Y576894680D01*
X544822587Y369577413D01*
X544822587Y130188053D01*
X337505320Y10493372D01*
X130188053Y130188053D01*
X10493372Y337505320D01*
X130188053Y544822587D01*
X337505320Y664517267D01*
X217810640Y457200000D01*
X10493372Y337505320D01*
X10493372Y576894680D01*
X130188053Y784211947D01*
X337505320Y903906628D01*
X217810640Y696589360D01*
X10493372Y576894680D01*
X130188053Y369577413D01*
X249882733Y576894680D01*
X457200000Y696589360D01*
X337505320Y489272093D01*
X130188053Y369577413D01*
X130188053Y130188053D01*
X249882733Y337505320D01*
X130188053Y544822587D01*
X130188053Y784211947D01*
X249882733Y576894680D01*
X249882733Y337505320D01*
X457200000Y457200000D01*
X337505320Y664517267D01*
X337505320Y903906628D01*
X457200000Y696589360D01*
X457200000Y457200000D01*
X337505320Y249882733D01*
X217810640Y457200000D01*
X217810640Y696589360D01*
X337505320Y489272093D01*
X337505320Y249882733D01*
X130188053Y130188053D01*
X369577413Y130188053D01*
X249882733Y337505320D01*
X369577413Y544822587D01*
X576894680Y664517267D01*
X457200000Y457200000D01*
X249882733Y337505320D01*
X249882733Y576894680D01*
X369577413Y784211947D01*
X576894680Y903906628D01*
X457200000Y696589360D01*
X249882733Y576894680D01*
X369577413Y369577413D01*
X489272093Y576894680D01*
X696589360Y696589360D01*
X576894680Y489272093D01*
X369577413Y369577413D01*
X369577413Y130188053D01*
X489272093Y337505320D01*
X369577413Y544822587D01*
X369577413Y784211947D01*
X489272093Y576894680D01*
X489272093Y337505320D01*
X696589360Y457200000D01*
X576894680Y664517267D01*
X576894680Y903906628D01*
X696589360Y696589360D01*
X696589360Y457200000D01*
X576894680Y249882733D01*
X457200000Y457200000D01*
X457200000Y696589360D01*
X576894680Y489272093D01*
X576894680Y249882733D01*
X369577413Y130188053D01*
X576894680Y10493372D01*
X457200000Y217810640D01*
X217810640Y217810640D01*
X10493372Y337505320D01*
X249882733Y337505320D01*
X457200000Y217810640D01*
X576894680Y425127907D01*
X784211947Y544822587D01*
X664517267Y337505320D01*
X457200000Y217810640D01*
X457200000Y457200000D01*
X576894680Y664517267D01*
X784211947Y784211947D01*
X664517267Y576894680D01*
X457200000Y457200000D01*
X217810640Y457200000D01*
X10493372Y576894680D01*
X249882733Y576894680D01*
X457200000Y457200000D01*
X576894680Y249882733D01*
X337505320Y249882733D01*
X130188053Y369577413D01*
X369577413Y369577413D01*
X576894680Y249882733D01*
X696589360Y457200000D01*
X903906628Y576894680D01*
X784211947Y369577413D01*
X576894680Y249882733D01*
X576894680Y10493372D01*
X696589360Y217810640D01*
X457200000Y217810640D01*
X249882733Y337505320D01*
X489272093Y337505320D01*
X696589360Y217810640D01*
X576894680Y425127907D01*
X337505320Y425127907D01*
X130188053Y544822587D01*
X369577413Y544822587D01*
X576894680Y425127907D01*
X576894680Y664517267D01*
X337505320Y664517267D01*
X130188053Y784211947D01*
X369577413Y784211947D01*
X576894680Y664517267D01*
X696589360Y457200000D01*
X457200000Y457200000D01*
X249882733Y576894680D01*
X489272093Y576894680D01*
X696589360Y457200000D01*
X696589360Y217810640D01*
X903906628Y337505320D01*
X664517267Y337505320D01*
X457200000Y457200000D01*
X696589360Y457200000D01*
X903906628Y337505320D01*
X784211947Y544822587D01*
X544822587Y544822587D01*
X337505320Y664517267D01*
X576894680Y664517267D01*
X784211947Y544822587D01*
X784211947Y784211947D01*
X544822587Y784211947D01*
X337505320Y903906628D01*
X576894680Y903906628D01*
X784211947Y784211947D01*
X903906628Y576894680D01*
X664517267Y576894680D01*
X457200000Y696589360D01*
X696589360Y696589360D01*
X903906628Y576894680D01*
X903906628Y337505320D01*
X784211947Y130188053D01*
X544822587Y130188053D01*
X337505320Y249882733D01*
X576894680Y249882733D01*
X784211947Y130188053D01*
X664517267Y337505320D01*
X425127907Y337505320D01*
X217810640Y457200000D01*
X457200000Y457200000D01*
X664517267Y337505320D01*
X664517267Y576894680D01*
X425127907Y576894680D01*
X217810640Y696589360D01*
X457200000Y696589360D01*
X664517267Y576894680D01*
X784211947Y369577413D01*
X544822587Y369577413D01*
X337505320Y489272093D01*
X576894680Y489272093D01*
X784211947Y369577413D01*
X784211947Y130188053D01*
X576894680Y10493372D01*
%LPC*%
%LS0.434783608695652*%
X576894680Y10493372D02*
X337505320Y10493372D01*
X217810640Y217810640D01*
X337505320Y425127907D01*
X544822587Y544822587D01*
X425127907Y337505320D01*
X217810640Y217810640D01*
X217810640Y457200000D01*
X337505320Y664517267D01*
X544822587Y784211947D01*
X425127907Y576894680D01*
X217810640Y457200000D01*
X337505320Y249882733D01*
X457200000Y457200000D01*
X664517267Y576894680D01*
X544822587Y369577413D01*
X337505320Y249882733D01*
X337505320Y10493372D01*
X457200000Y217810640D01*
X337505320Y425127907D01*
X337505320Y664517267D01*
X457200000Y457200000D01*
X457200000Y217810640D01*
X664517267Y337505320D01*
X544822587Y544822587D01*
X544822587Y784211947D01*
X664517267Y576894680D01*
X664517267Y337505320D01*
X544822587Y130188053D01*
X425127907Y337505320D01*
X425127907Y576894680D01*
X544822587Y369577413D01*
X544822587Y130188053D01*
X337505320Y10493372D01*
X130188053Y130188053D01*
X10493372Y337505320D01*
X130188053Y544822587D01*
X337505320Y664517267D01*
X217810640Y457200000D01*
X10493372Y337505320D01*
X10493372Y576894680D01*
X130188053Y784211947D01*
X337505320Y903906628D01*
X217810640Y696589360D01*
X10493372Y576894680D01*
X130188053Y369577413D01*
X249882733Y576894680D01*
X457200000Y696589360D01*
X337505320Y489272093D01*
X130188053Y369577413D01*
X130188053Y130188053D01*
X249882733Y337505320D01*
X130188053Y544822587D01*
X130188053Y784211947D01*
X249882733Y576894680D01*
X249882733Y337505320D01*
X457200000Y457200000D01*
X337505320Y664517267D01*
X337505320Y903906628D01*
X457200000Y696589360D01*
X457200000Y457200000D01*
X337505320Y249882733D01*
X217810640Y457200000D01*
X217810640Y696589360D01*
X337505320Y489272093D01*
X337505320Y249882733D01*
X130188053Y130188053D01*
X369577413Y130188053D01*
X249882733Y337505320D01*
X369577413Y544822587D01*
X576894680Y664517267D01*
X457200000Y457200000D01*
X249882733Y337505320D01*
X249882733Y576894680D01*
X369577413Y784211947D01*
X576894680Y903906628D01*
X457200000Y696589360D01*
X249882733Y576894680D01*
X369577413Y369577413D01*
X489272093Y576894680D01*
X696589360Y696589360D01*
X576894680Y489272093D01*
X369577413Y369577413D01*
X369577413Y130188053D01*
X489272093Y337505320D01*
X369577413Y544822587D01*
X369577413Y784211947D01*
X489272093Y576894680D01*
X489272093Y337505320D01*
X696589360Y457200000D01*
X576894680Y664517267D01*
X576894680Y903906628D01*
X696589360Y696589360D01*
X696589360Y457200000D01*
X576894680Y249882733D01*
X457200000Y457200000D01*
X457200000Y696589360D01*
X576894680Y489272093D01*
X576894680Y249882733D01*
X369577413Y130188053D01*
X576894680Y10493372D01*
X457200000Y217810640D01*
X217810640Y217810640D01*
X10493372Y337505320D01*
X249882733Y337505320D01*
X457200000Y217810640D01*
X576894680Y425127907D01*
X784211947Y544822587D01*
X664517267Y337505320D01*
X457200000Y217810640D01*
X457200000Y457200000D01*
X576894680Y664517267D01*
X784211947Y784211947D01*
X664517267Y576894680D01*
X457200000Y457200000D01*
X217810640Y457200000D01*
X10493372Y576894680D01*
X249882733Y576894680D01*
X457200000Y457200000D01*
X576894680Y249882733D01*
X337505320Y249882733D01*
X130188053Y369577413D01*
X369577413Y369577413D01*
X576894680Y249882733D01*
X696589360Y457200000D01*
X903906628Y576894680D01*
X784211947Y369577413D01*
X576894680Y249882733D01*
X576894680Y10493372D01*
X696589360Y217810640D01*
X457200000Y217810640D01*
X249882733Y337505320D01*
X489272093Y337505320D01*
X696589360Y217810640D01*
X576894680Y425127907D01*
X337505320Y425127907D01*
X130188053Y544822587D01*
X369577413Y544822587D01*
X576894680Y425127907D01*
X576894680Y664517267D01*
X337505320Y664517267D01*
X130188053Y784211947D01*
X369577413Y784211947D01*
X576894680Y664517267D01*
X696589360Y457200000D01*
X457200000Y457200000D01*
X249882733Y576894680D01*
X489272093Y576894680D01*
X696589360Y457200000D01*
X696589360Y217810640D01*
X903906628Y337505320D01*
X664517267Y337505320D01*
X457200000Y457200000D01*
X696589360Y457200000D01*
X903906628Y337505320D01*
X784211947Y544822587D01*
X544822587Y544822587D01*
X337505320Y664517267D01*
X576894680Y664517267D01*
X784211947Y544822587D01*
X784211947Y784211947D01*
X544822587Y784211947D01*
X337505320Y903906628D01*
X576894680Y903906628D01*
X784211947Y784211947D01*
X903906628Y576894680D01*
X664517267Y576894680D01*
X457200000Y696589360D01*
X696589360Y696589360D01*
X903906628Y576894680D01*
X903906628Y337505320D01*
X784211947Y130188053D01*
X544822587Y130188053D01*
X337505320Y249882733D01*
X576894680Y249882733D01*
X784211947Y130188053D01*
X664517267Y337505320D01*
X425127907Y337505320D01*
X217810640Y457200000D01*
X457200000Y457200000D01*
X664517267Y337505320D01*
X664517267Y576894680D01*
X425127907Y576894680D01*
X217810640Y696589360D01*
X457200000Y696589360D01*
X664517267Y576894680D01*
X784211947Y369577413D01*
X544822587Y369577413D01*
X337505320Y489272093D01*
X576894680Y489272093D01*
X784211947Y369577413D01*
X784211947Y130188053D01*
X576894680Y10493372D01*
%LPD*%
%LS0.391305347826087*%
X576894680Y10493372D02*
X337505320Y10493372D01*
X217810640Y217810640D01*
X337505320Y425127907D01*
X544822587Y544822587D01*
X425127907Y337505320D01*
X217810640Y217810640D01*
X217810640Y457200000D01*
X337505320Y664517267D01*
X544822587Y784211947D01*
X425127907Y576894680D01*
X217810640Y457200000D01*
X337505320Y249882733D01*
X457200000Y457200000D01*
X664517267Y576894680D01*
X544822587Y369577413D01*
X337505320Y249882733D01*
X337505320Y10493372D01*
X457200000Y217810640D01*
X337505320Y425127907D01*
X337505320Y664517267D01*
X457200000Y457200000D01*
X457200000Y217810640D01*
X664517267Y337505320D01*
X544822587Y544822587D01*
X544822587Y784211947D01*
X664517267Y576894680D01*
X664517267Y337505320D01*
X544822587Y130188053D01*
X425127907Y337505320D01*
X425127907Y576894680D01*
X544822587Y369577413D01*
X544822587Y130188053D01*
X337505320Y10493372D01*
X130188053Y130188053D01*
X10493372Y337505320D01*
X130188053Y544822587D01*
X337505320Y664517267D01*
X217810640Y457200000D01*
X10493372Y337505320D01*
X10493372Y576894680D01*
X130188053Y784211947D01*
X337505320Y903906628D01*
X217810640Y696589360D01*
X10493372Y576894680D01*
X130188053Y369577413D01*
X249882733Y576894680D01*
X457200000Y696589360D01*
X337505320Y489272093D01*
X130188053Y369577413D01*
X130188053Y130188053D01*
X249882733Y337505320D01*
X130188053Y544822587D01*
X130188053Y784211947D01*
X249882733Y576894680D01*
X249882733Y337505320D01*
X457200000Y457200000D01*
X337505320Y664517267D01*
X337505320Y903906628D01*
X457200000Y696589360D01*
X457200000Y457200000D01*
X337505320Y249882733D01*
X217810640Y457200000D01*
X217810640Y696589360D01*
X337505320Y489272093D01*
X337505320Y249882733D01*
X130188053Y130188053D01*
X369577413Y130188053D01*
X249882733Y337505320D01*
X369577413Y544822587D01*
X576894680Y664517267D01*
X457200000Y457200000D01*
X249882733Y337505320D01*
X249882733Y576894680D01*
X369577413Y784211947D01*
X576894680Y903906628D01*
X457200000Y696589360D01*
X249882733Y576894680D01*
X369577413Y369577413D01*
X489272093Y576894680D01*
X696589360Y696589360D01*
X576894680Y489272093D01*
X369577413Y369577413D01*
X369577413Y130188053D01*
X489272093Y337505320D01*
X369577413Y544822587D01*
X369577413Y784211947D01*
X489272093Y576894680D01*
X489272093Y337505320D01*
X696589360Y457200000D01*
X576894680Y664517267D01*
X576894680Y903906628D01*
X696589360Y696589360D01*
X696589360Y457200000D01*
X576894680Y249882733D01*
X457200000Y457200000D01*
X457200000Y696589360D01*
X576894680Y489272093D01*
X576894680Y249882733D01*
X369577413Y130188053D01*
X576894680Y10493372D01*
X457200000Y217810640D01*
X217810640Y217810640D01*
X10493372Y337505320D01*
X249882733Y337505320D01*
X457200000Y217810640D01*
X576894680Y425127907D01*
X784211947Y544822587D01*
X664517267Y337505320D01*
X457200000Y217810640D01*
X457200000Y457200000D01*
X576894680Y664517267D01*
X784211947Y784211947D01*
X664517267Y576894680D01*
X457200000Y457200000D01*
X217810640Y457200000D01*
X10493372Y576894680D01*
X249882733Y576894680D01*
X457200000Y457200000D01*
X576894680Y249882733D01*
X337505320Y249882733D01*
X130188053Y369577413D01*
X369577413Y369577413D01*
X576894680Y249882733D01*
X696589360Y457200000D01*
X903906628Y576894680D01*
X784211947Y369577413D01*
X576894680Y249882733D01*
X576894680Y10493372D01*
X696589360Y217810640D01*
X457200000Y217810640D01*
X249882733Y337505320D01*
X489272093Y337505320D01*
X696589360Y217810640D01*
X576894680Y425127907D01*
X337505320Y425127907D01*
X130188053Y544822587D01*
X369577413Y544822587D01*
X576894680Y425127907D01*
X576894680Y664517267D01*
X337505320Y664517267D01*
X130188053Y784211947D01*
X369577413Y784211947D01*
X576894680Y664517267D01*
X696589360Y457200000D01*
X457200000Y457200000D01*
X249882733Y576894680D01*
X489272093Y576894680D01*
X696589360Y457200000D01*
X696589360Y217810640D01*
X903906628Y337505320D01*
X664517267Y337505320D01*
X457200000Y457200000D01*
X696589360Y457200000D01*
X903906628Y337505320D01*
X784211947Y544822587D01*
X544822587Y544822587D01*
X337505320Y664517267D01*
X576894680Y664517267D01*
X784211947Y544822587D01*
X784211947Y784211947D01*
X544822587Y784211947D01*
X337505320Y903906628D01*
X576894680Y903906628D01*
X784211947Y784211947D01*
X903906628Y576894680D01*
X664517267Y576894680D01*
X457200000Y696589360D01*
X696589360Y696589360D01*
X903906628Y576894680D01*
X903906628Y337505320D01*
X784211947Y130188053D01*
X544822587Y130188053D01*
X337505320Y249882733D01*
X576894680Y249882733D01*
X784211947Y130188053D01*
X664517267Y337505320D01*
X425127907Y337505320D01*
X217810640Y457200000D01*
X457200000Y457200000D01*
X664517267Y337505320D01*
X664517267Y576894680D01*
X425127907Y576894680D01*
X217810640Y696589360D01*
X457200000Y696589360D01*
X664517267Y576894680D01*
X784211947Y369577413D01*
X544822587Y369577413D01*
X337505320Y489272093D01*
X576894680Y489272093D01*
X784211947Y369577413D01*
X784211947Y130188053D01*
X576894680Y10493372D01*
%LPC*%
%LS0.347827086956522*%
X576894680Y10493372D02*
X337505320Y10493372D01*
X217810640Y217810640D01*
X337505320Y425127907D01*
X544822587Y544822587D01*
X425127907Y337505320D01*
X217810640Y217810640D01*
X217810640Y457200000D01*
X337505320Y664517267D01*
X544822587Y784211947D01*
X425127907Y576894680D01*
X217810640Y457200000D01*
X337505320Y249882733D01*
X457200000Y457200000D01*
X664517267Y576894680D01*
X544822587Y369577413D01*
X337505320Y249882733D01*
X337505320Y10493372D01*
X457200000Y217810640D01*
X337505320Y425127907D01*
X337505320Y664517267D01*
X457200000Y457200000D01*
X457200000Y217810640D01*
X664517267Y337505320D01*
X544822587Y544822587D01*
X544822587Y784211947D01*
X664517267Y576894680D01*
X664517267Y337505320D01*
X544822587Y130188053D01*
X425127907Y337505320D01*
X425127907Y576894680D01*
X544822587Y369577413D01*
X544822587Y130188053D01*
X337505320Y10493372D01*
X130188053Y130188053D01*
X10493372Y337505320D01*
X130188053Y544822587D01*
X337505320Y664517267D01*
X217810640Y457200000D01*
X10493372Y337505320D01*
X10493372Y576894680D01*
X130188053Y784211947D01*
X337505320Y903906628D01*
X217810640Y696589360D01*
X10493372Y576894680D01*
X130188053Y369577413D01*
X249882733Y576894680D01*
X457200000Y696589360D01*
X337505320Y489272093D01*
X130188053Y369577413D01*
X130188053Y130188053D01*
X249882733Y337505320D01*
X130188053Y544822587D01*
X130188053Y784211947D01*
X249882733Y576894680D01*
X249882733Y337505320D01*
X457200000Y457200000D01*
X337505320Y664517267D01*
X337505320Y903906628D01*
X457200000Y696589360D01*
X457200000Y457200000D01*
X337505320Y249882733D01*
X217810640Y457200000D01*
X217810640Y696589360D01*
X337505320Y489272093D01*
X337505320Y249882733D01*
X130188053Y130188053D01*
X369577413Y130188053D01*
X249882733Y337505320D01*
X369577413Y544822587D01*
X576894680Y664517267D01*
X457200000Y457200000D01*
X249882733Y337505320D01*
X249882733Y576894680D01*
X369577413Y784211947D01*
X576894680Y903906628D01*
X457200000Y696589360D01*
X249882733Y576894680D01*
X369577413Y369577413D01*
X489272093Y576894680D01*
X696589360Y696589360D01*
X576894680Y489272093D01*
X369577413Y369577413D01*
X369577413Y130188053D01*
X489272093Y337505320D01*
X369577413Y544822587D01*
X369577413Y784211947D01*
X489272093Y576894680D01*
X489272093Y337505320D01*
X696589360Y457200000D01*
X576894680Y664517267D01*
X576894680Y903906628D01*
X696589360Y696589360D01*
X696589360Y457200000D01*
X576894680Y249882733D01*
X457200000Y457200000D01*
X457200000Y696589360D01*
X576894680Y489272093D01*
X576894680Y249882733D01*
X369577413Y130188053D01*
X576894680Y10493372D01*
X457200000Y217810640D01*
X217810640Y217810640D01*
X10493372Y337505320D01*
X249882733Y337505320D01*
X457200000Y217810640D01*
X576894680Y425127907D01*
X784211947Y544822587D01*
X664517267Y337505320D01*
X457200000Y217810640D01*
X457200000Y457200000D01*
X576894680Y664517267D01*
X784211947Y784211947D01*
X664517267Y576894680D01*
X457200000Y457200000D01*
X217810640Y457200000D01*
X10493372Y576894680D01*
X249882733Y576894680D01*
X457200000Y457200000D01*
X576894680Y249882733D01*
X337505320Y249882733D01*
X130188053Y369577413D01*
X369577413Y369577413D01*
X576894680Y249882733D01*
X696589360Y457200000D01*
X903906628Y576894680D01*
X784211947Y369577413D01*
X576894680Y249882733D01*
X576894680Y10493372D01*
X696589360Y217810640D01*
X457200000Y217810640D01*
X249882733Y337505320D01*
X489272093Y337505320D01*
X696589360Y217810640D01*
X576894680Y425127907D01*
X337505320Y425127907D01*
X130188053Y544822587D01*
X369577413Y544822587D01*
X576894680Y425127907D01*
X576894680Y664517267D01*
X337505320Y664517267D01*
X130188053Y784211947D01*
X369577413Y784211947D01*
X576894680Y664517267D01*
X696589360Y457200000D01*
X457200000Y457200000D01*
X249882733Y576894680D01*
X489272093Y576894680D01*
X696589360Y457200000D01*
X696589360Y217810640D01*
X903906628Y337505320D01*
X664517267Y337505320D01*
X457200000Y457200000D01*
X696589360Y457200000D01*
X903906628Y337505320D01*
X784211947Y544822587D01*
X544822587Y544822587D01*
X337505320Y664517267D01*
X576894680Y664517267D01*
X784211947Y544822587D01*
X784211947Y784211947D01*
X544822587Y784211947D01*
X337505320Y903906628D01*
X576894680Y903906628D01*
X784211947Y784211947D01*
X903906628Y576894680D01*
X664517267Y576894680D01*
X457200000Y696589360D01*
X696589360Y696589360D01*
X903906628Y576894680D01*
X903906628Y337505320D01*
X784211947Y130188053D01*
X544822587Y130188053D01*
X337505320Y249882733D01*
X576894680Y249882733D01*
X784211947Y130188053D01*
X664517267Y337505320D01*
X425127907Y337505320D01*
X217810640Y457200000D01*
X457200000Y457200000D01*
X664517267Y337505320D01*
X664517267Y576894680D01*
X425127907Y576894680D01*
X217810640Y696589360D01*
X457200000Y696589360D01*
X664517267Y576894680D01*
X784211947Y369577413D01*
X544822587Y369577413D01*
X337505320Y489272093D01*
X576894680Y489272093D01*
X784211947Y369577413D01*
X784211947Y130188053D01*
X576894680Y10493372D01*
%LPD*%
%LS0.304348826086957*%
X576894680Y10493372D02*
X337505320Y10493372D01*
X217810640Y217810640D01*
X337505320Y425127907D01*
X544822587Y544822587D01*
X425127907Y337505320D01*
X217810640Y217810640D01*
X217810640Y457200000D01*
X337505320Y664517267D01*
X544822587Y784211947D01*
X425127907Y576894680D01*
X217810640Y457200000D01*
X337505320Y249882733D01*
X457200000Y457200000D01*
X664517267Y576894680D01*
X544822587Y369577413D01*
X337505320Y249882733D01*
X337505320Y10493372D01*
X457200000Y217810640D01*
X337505320Y425127907D01*
X337505320Y664517267D01*
X457200000Y457200000D01*
X457200000Y217810640D01*
X664517267Y337505320D01*
X544822587Y544822587D01*
X544822587Y784211947D01*
X664517267Y576894680D01*
X664517267Y337505320D01*
X544822587Y130188053D01*
X425127907Y337505320D01*
X425127907Y576894680D01*
X544822587Y369577413D01*
X544822587Y130188053D01*
X337505320Y10493372D01*
X130188053Y130188053D01*
X10493372Y337505320D01*
X130188053Y544822587D01*
X337505320Y664517267D01*
X217810640Y457200000D01*
X10493372Y337505320D01*
X10493372Y576894680D01*
X130188053Y784211947D01*
X337505320Y903906628D01*
X217810640Y696589360D01*
X10493372Y576894680D01*
X130188053Y369577413D01*
X249882733Y576894680D01*
X457200000Y696589360D01*
X337505320Y489272093D01*
X130188053Y369577413D01*
X130188053Y130188053D01*
X249882733Y337505320D01*
X130188053Y544822587D01*
X130188053Y784211947D01*
X249882733Y576894680D01*
X249882733Y337505320D01*
X457200000Y457200000D01*
X337505320Y664517267D01*
X337505320Y903906628D01*
X457200000Y696589360D01*
X457200000Y457200000D01*
X337505320Y249882733D01*
X217810640Y457200000D01*
X217810640Y696589360D01*
X337505320Y489272093D01*
X337505320Y249882733D01*
X130188053Y130188053D01*
X369577413Y130188053D01*
X249882733Y337505320D01*
X369577413Y544822587D01*
X576894680Y664517267D01*
X457200000Y457200000D01*
X249882733Y337505320D01*
X249882733Y576894680D01*
X369577413Y784211947D01*
X576894680Y903906628D01*
X457200000Y696589360D01*
X249882733Y576894680D01*
X369577413Y369577413D01*
X489272093Y576894680D01*
X696589360Y696589360D01*
X576894680Y489272093D01*
X369577413Y369577413D01*
X369577413Y130188053D01*
X489272093Y337505320D01*
X369577413Y544822587D01*
X369577413Y784211947D01*
X489272093Y576894680D01*
X489272093Y337505320D01*
X696589360Y457200000D01*
X576894680Y664517267D01*
X576894680Y903906628D01*
X696589360Y696589360D01*
X696589360Y457200000D01*
X576894680Y249882733D01*
X457200000Y457200000D01*
X457200000Y696589360D01*
X576894680Y489272093D01*
X576894680Y249882733D01*
X369577413Y130188053D01*
X576894680Y10493372D01*
X457200000Y217810640D01*
X217810640Y217810640D01*
X10493372Y337505320D01*
X249882733Y337505320D01*
X457200000Y217810640D01*
X576894680Y425127907D01*
X784211947Y544822587D01*
X664517267Y337505320D01*
X457200000Y217810640D01*
X457200000Y457200000D01*
X576894680Y664517267D01*
X784211947Y784211947D01*
X664517267Y576894680D01*
X457200000Y457200000D01*
X217810640Y457200000D01*
X10493372Y576894680D01*
X249882733Y576894680D01*
X457200000Y457200000D01*
X576894680Y249882733D01*
X337505320Y249882733D01*
X130188053Y369577413D01*
X369577413Y369577413D01*
X576894680Y249882733D01*
X696589360Y457200000D01*
X903906628Y576894680D01*
X784211947Y369577413D01*
X576894680Y249882733D01*
X576894680Y10493372D01*
X696589360Y217810640D01*
X457200000Y217810640D01*
X249882733Y337505320D01*
X489272093Y337505320D01*
X696589360Y217810640D01*
X576894680Y425127907D01*
X337505320Y425127907D01*
X130188053Y544822587D01*
X369577413Y544822587D01*
X576894680Y425127907D01*
X576894680Y664517267D01*
X337505320Y664517267D01*
X130188053Y784211947D01*
X369577413Y784211947D01*
X576894680Y664517267D01*
X696589360Y457200000D01*
X457200000Y457200000D01*
X249882733Y576894680D01*
X489272093Y576894680D01*
X696589360Y457200000D01*
X696589360Y217810640D01*
X903906628Y337505320D01*
X664517267Y337505320D01*
X457200000Y457200000D01*
X696589360Y457200000D01*
X903906628Y337505320D01*
X784211947Y544822587D01*
X544822587Y544822587D01*
X337505320Y664517267D01*
X576894680Y664517267D01*
X784211947Y544822587D01*
X784211947Y784211947D01*
X544822587Y784211947D01*
X337505320Y903906628D01*
X576894680Y903906628D01*
X784211947Y784211947D01*
X903906628Y576894680D01*
X664517267Y576894680D01*
X457200000Y696589360D01*
X696589360Y696589360D01*
X903906628Y576894680D01*
X903906628Y337505320D01*
X784211947Y130188053D01*
X544822587Y130188053D01*
X337505320Y249882733D01*
X576894680Y249882733D01*
X784211947Y130188053D01*
X664517267Y337505320D01*
X425127907Y337505320D01*
X217810640Y457200000D01*
X457200000Y457200000D01*
X664517267Y337505320D01*
X664517267Y576894680D01*
X425127907Y576894680D01*
X217810640Y696589360D01*
X457200000Y696589360D01*
X664517267Y576894680D01*
X784211947Y369577413D01*
X544822587Y369577413D01*
X337505320Y489272093D01*
X576894680Y489272093D01*
X784211947Y369577413D01*
X784211947Y130188053D01*
X576894680Y10493372D01*
%LPC*%
%LS0.260870565217391*%
X576894680Y10493372D02*
X337505320Y10493372D01*
X217810640Y217810640D01*
X337505320Y425127907D01*
X544822587Y544822587D01*
X425127907Y337505320D01*
X217810640Y217810640D01*
X217810640Y457200000D01*
X337505320Y664517267D01*
X544822587Y784211947D01*
X425127907Y576894680D01*
X217810640Y457200000D01*
X337505320Y249882733D01*
X457200000Y457200000D01*
X664517267Y576894680D01*
X544822587Y369577413D01*
X337505320Y249882733D01*
X337505320Y10493372D01*
X457200000Y217810640D01*
X337505320Y425127907D01*
X337505320Y664517267D01*
X457200000Y457200000D01*
X457200000Y217810640D01*
X664517267Y337505320D01*
X544822587Y544822587D01*
X544822587Y784211947D01*
X664517267Y576894680D01*
X664517267Y337505320D01*
X544822587Y130188053D01*
X425127907Y337505320D01*
X425127907Y576894680D01*
X544822587Y369577413D01*
X544822587Y130188053D01*
X337505320Y10493372D01*
X130188053Y130188053D01*
X10493372Y337505320D01*
X130188053Y544822587D01*
X337505320Y664517267D01*
X217810640Y457200000D01*
X10493372Y337505320D01*
X10493372Y576894680D01*
X130188053Y784211947D01*
X337505320Y903906628D01*
X217810640Y696589360D01*
X10493372Y576894680D01*
X130188053Y369577413D01*
X249882733Y576894680D01*
X457200000Y696589360D01*
X337505320Y489272093D01*
X130188053Y369577413D01*
X130188053Y130188053D01*
X249882733Y337505320D01*
X130188053Y544822587D01*
X130188053Y784211947D01*
X249882733Y576894680D01*
X249882733Y337505320D01*
X457200000Y457200000D01*
X337505320Y664517267D01*
X337505320Y903906628D01*
X457200000Y696589360D01*
X457200000Y457200000D01*
X337505320Y249882733D01*
X217810640Y457200000D01*
X217810640Y696589360D01*
X337505320Y489272093D01*
X337505320Y249882733D01*
X130188053Y130188053D01*
X369577413Y130188053D01*
X249882733Y337505320D01*
X369577413Y544822587D01*
X576894680Y664517267D01*
X457200000Y457200000D01*
X249882733Y337505320D01*
X249882733Y576894680D01*
X369577413Y784211947D01*
X576894680Y903906628D01*
X457200000Y696589360D01*
X249882733Y576894680D01*
X369577413Y369577413D01*
X489272093Y576894680D01*
X696589360Y696589360D01*
X576894680Y489272093D01*
X369577413Y369577413D01*
X369577413Y130188053D01*
X489272093Y337505320D01*
X369577413Y544822587D01*
X369577413Y784211947D01*
X489272093Y576894680D01*
X489272093Y337505320D01*
X696589360Y457200000D01*
X576894680Y664517267D01*
X576894680Y903906628D01*
X696589360Y696589360D01*
X696589360Y457200000D01*
X576894680Y249882733D01*
X457200000Y457200000D01*
X457200000Y696589360D01*
X576894680Y489272093D01*
X576894680Y249882733D01*
X369577413Y130188053D01*
X576894680Y10493372D01*
X457200000Y217810640D01*
X217810640Y217810640D01*
X10493372Y337505320D01*
X249882733Y337505320D01*
X457200000Y217810640D01*
X576894680Y425127907D01*
X784211947Y544822587D01*
X664517267Y337505320D01*
X457200000Y217810640D01*
X457200000Y457200000D01*
X576894680Y664517267D01*
X784211947Y784211947D01*
X664517267Y576894680D01*
X457200000Y457200000D01*
X217810640Y457200000D01*
X10493372Y576894680D01*
X249882733Y576894680D01*
X457200000Y457200000D01*
X576894680Y249882733D01*
X337505320Y249882733D01*
X130188053Y369577413D01*
X369577413Y369577413D01*
X576894680Y249882733D01*
X696589360Y457200000D01*
X903906628Y576894680D01*
X784211947Y369577413D01*
X576894680Y249882733D01*
X576894680Y10493372D01*
X696589360Y217810640D01*
X457200000Y217810640D01*
X249882733Y337505320D01*
X489272093Y337505320D01*
X696589360Y217810640D01*
X576894680Y425127907D01*
X337505320Y425127907D01*
X130188053Y544822587D01*
X369577413Y544822587D01*
X576894680Y425127907D01*
X576894680Y664517267D01*
X337505320Y664517267D01*
X130188053Y784211947D01*
X369577413Y784211947D01*
X576894680Y664517267D01*
X696589360Y457200000D01*
X457200000Y457200000D01*
X249882733Y576894680D01*
X489272093Y576894680D01*
X696589360Y457200000D01*
X696589360Y217810640D01*
X903906628Y337505320D01*
X664517267Y337505320D01*
X457200000Y457200000D01*
X696589360Y457200000D01*
X903906628Y337505320D01*
X784211947Y544822587D01*
X544822587Y544822587D01*
X337505320Y664517267D01*
X576894680Y664517267D01*
X784211947Y544822587D01*
X784211947Y784211947D01*
X544822587Y784211947D01*
X337505320Y903906628D01*
X576894680Y903906628D01*
X784211947Y784211947D01*
X903906628Y576894680D01*
X664517267Y576894680D01*
X457200000Y696589360D01*
X696589360Y696589360D01*
X903906628Y576894680D01*
X903906628Y337505320D01*
X784211947Y130188053D01*
X544822587Y130188053D01*
X337505320Y249882733D01*
X576894680Y249882733D01*
X784211947Y130188053D01*
X664517267Y337505320D01*
X425127907Y337505320D01*
X217810640Y457200000D01*
X457200000Y457200000D01*
X664517267Y337505320D01*
X664517267Y576894680D01*
X425127907Y576894680D01*
X217810640Y696589360D01*
X457200000Y696589360D01*
X664517267Y576894680D01*
X784211947Y369577413D01*
X544822587Y369577413D01*
X337505320Y489272093D01*
X576894680Y489272093D01*
X784211947Y369577413D01*
X784211947Y130188053D01*
X576894680Y10493372D01*
%LPD*%
%LS0.217392304347826*%
X576894680Y10493372D02*
X337505320Y10493372D01*
X217810640Y217810640D01*
X337505320Y425127907D01*
X544822587Y544822587D01*
X425127907Y337505320D01*
X217810640Y217810640D01*
X217810640Y457200000D01*
X337505320Y664517267D01*
X544822587Y784211947D01*
X425127907Y576894680D01*
X217810640Y457200000D01*
X337505320Y249882733D01*
X457200000Y457200000D01*
X664517267Y576894680D01*
X544822587Y369577413D01*
X337505320Y249882733D01*
X337505320Y10493372D01*
X457200000Y217810640D01*
X337505320Y425127907D01*
X337505320Y664517267D01*
X457200000Y457200000D01*
X457200000Y217810640D01*
X664517267Y337505320D01*
X544822587Y544822587D01*
X544822587Y784211947D01*
X664517267Y576894680D01*
X664517267Y337505320D01*
X544822587Y130188053D01*
X425127907Y337505320D01*
X425127907Y576894680D01*
X544822587Y369577413D01*
X544822587Y130188053D01*
X337505320Y10493372D01*
X130188053Y130188053D01*
X10493372Y337505320D01*
X130188053Y544822587D01*
X337505320Y664517267D01*
X217810640Y457200000D01*
X10493372Y337505320D01*
X10493372Y576894680D01*
X130188053Y784211947D01*
X337505320Y903906628D01*
X217810640Y696589360D01*
X10493372Y576894680D01*
X130188053Y369577413D01*
X249882733Y576894680D01*
X457200000Y696589360D01*
X337505320Y489272093D01*
X130188053Y369577413D01*
X130188053Y130188053D01*
X249882733Y337505320D01*
X130188053Y544822587D01*
X130188053Y784211947D01*
X249882733Y576894680D01*
X249882733Y337505320D01*
X457200000Y457200000D01*
X337505320Y664517267D01*
X337505320Y903906628D01*
X457200000Y696589360D01*
X457200000Y457200000D01*
X337505320Y249882733D01*
X217810640Y457200000D01*
X217810640Y696589360D01*
X337505320Y489272093D01*
X337505320Y249882733D01*
X130188053Y130188053D01*
X369577413Y130188053D01*
X249882733Y337505320D01*
X369577413Y544822587D01*
X576894680Y664517267D01*
X457200000Y457200000D01*
X249882733Y337505320D01*
X249882733Y576894680D01*
X369577413Y784211947D01*
X576894680Y903906628D01*
X457200000Y696589360D01*
X249882733Y576894680D01*
X369577413Y369577413D01*
X489272093Y576894680D01*
X696589360Y696589360D01*
X576894680Y489272093D01*
X369577413Y369577413D01*
X369577413Y130188053D01*
X489272093Y337505320D01*
X369577413Y544822587D01*
X369577413Y784211947D01*
X489272093Y576894680D01*
X489272093Y337505320D01*
X696589360Y457200000D01*
X576894680Y664517267D01*
X576894680Y903906628D01*
X696589360Y696589360D01*
X696589360Y457200000D01*
X576894680Y249882733D01*
X457200000Y457200000D01*
X457200000Y696589360D01*
X576894680Y489272093D01*
X576894680Y249882733D01*
X369577413Y130188053D01*
X576894680Y10493372D01*
X457200000Y217810640D01*
X217810640Y217810640D01*
X10493372Y337505320D01*
X249882733Y337505320D01*
X457200000Y217810640D01*
X576894680Y425127907D01*
X784211947Y544822587D01*
X664517267Y337505320D01*
X457200000Y217810640D01*
X457200000Y457200000D01*
X576894680Y664517267D01*
X784211947Y784211947D01*
X664517267Y576894680D01*
X457200000Y457200000D01*
X217810640Y457200000D01*
X10493372Y576894680D01*
X249882733Y576894680D01*
X457200000Y457200000D01*
X576894680Y249882733D01*
X337505320Y249882733D01*
X130188053Y369577413D01*
X369577413Y369577413D01*
X576894680Y249882733D01*
X696589360Y457200000D01*
X903906628Y576894680D01*
X784211947Y369577413D01*
X576894680Y249882733D01*
X576894680Y10493372D01*
X696589360Y217810640D01*
X457200000Y217810640D01*
X249882733Y337505320D01*
X489272093Y337505320D01*
X696589360Y217810640D01*
X576894680Y425127907D01*
X337505320Y425127907D01*
X130188053Y544822587D01*
X369577413Y544822587D01*
X576894680Y425127907D01*
X576894680Y664517267D01*
X337505320Y664517267D01*
X130188053Y784211947D01*
X369577413Y784211947D01*
X576894680Y664517267D01*
X696589360Y457200000D01*
X457200000Y457200000D01*
X249882733Y576894680D01*
X489272093Y576894680D01*
X696589360Y457200000D01*
X696589360Y217810640D01*
X903906628Y337505320D01*
X664517267Y337505320D01*
X457200000Y457200000D01*
X696589360Y457200000D01*
X903906628Y337505320D01*
X784211947Y544822587D01*
X544822587Y544822587D01*
X337505320Y664517267D01*
X576894680Y664517267D01*
X784211947Y544822587D01*
X784211947Y784211947D01*
X544822587Y784211947D01*
X337505320Y903906628D01*
X576894680Y903906628D01*
X784211947Y784211947D01*
X903906628Y576894680D01*
X664517267Y576894680D01*
X457200000Y696589360D01*
X696589360Y696589360D01*
X903906628Y576894680D01*
X903906628Y337505320D01*
X784211947Y130188053D01*
X544822587Y130188053D01*
X337505320Y249882733D01*
X576894680Y249882733D01*
X784211947Y130188053D01*
X664517267Y337505320D01*
X425127907Y337505320D01*
X217810640Y457200000D01*
X457200000Y457200000D01*
X664517267Y337505320D01*
X664517267Y576894680D01*
X425127907Y576894680D01*
X217810640Y696589360D01*
X457200000Y696589360D01*
X664517267Y576894680D01*
X784211947Y369577413D01*
X544822587Y369577413D01*
X337505320Y489272093D01*
X576894680Y489272093D01*
X784211947Y369577413D01*
X784211947Y130188053D01*
X576894680Y10493372D01*
%LPC*%
%LS0.173914043478261*%
X576894680Y10493372D02*
X337505320Y10493372D01*
X217810640Y217810640D01*
X337505320Y425127907D01*
X544822587Y544822587D01*
X425127907Y337505320D01*
X217810640Y217810640D01*
X217810640Y457200000D01*
X337505320Y664517267D01*
X544822587Y784211947D01*
X425127907Y576894680D01*
X217810640Y457200000D01*
X337505320Y249882733D01*
X457200000Y457200000D01*
X664517267Y576894680D01*
X544822587Y369577413D01*
X337505320Y249882733D01*
X337505320Y10493372D01*
X457200000Y217810640D01*
X337505320Y425127907D01*
X337505320Y664517267D01*
X457200000Y457200000D01*
X457200000Y217810640D01*
X664517267Y337505320D01*
X544822587Y544822587D01*
X544822587Y784211947D01*
X664517267Y576894680D01*
X664517267Y337505320D01*
X544822587Y130188053D01*
X425127907Y337505320D01*
X425127907Y576894680D01*
X544822587Y369577413D01*
X544822587Y130188053D01*
X337505320Y10493372D01*
X130188053Y130188053D01*
X10493372Y337505320D01*
X130188053Y544822587D01*
X337505320Y664517267D01*
X217810640Y457200000D01*
X10493372Y337505320D01*
X10493372Y576894680D01*
X130188053Y784211947D01*
X337505320Y903906628D01*
X217810640Y696589360D01*
X10493372Y576894680D01*
X130188053Y369577413D01*
X249882733Y576894680D01*
X457200000Y696589360D01*
X337505320Y489272093D01*
X130188053Y369577413D01*
X130188053Y130188053D01*
X249882733Y337505320D01*
X130188053Y544822587D01*
X130188053Y784211947D01*
X249882733Y576894680D01*
X249882733Y337505320D01*
X457200000Y457200000D01*
X337505320Y664517267D01*
X337505320Y903906628D01*
X457200000Y696589360D01*
X457200000Y457200000D01*
X337505320Y249882733D01*
X217810640Y457200000D01*
X217810640Y696589360D01*
X337505320Y489272093D01*
X337505320Y249882733D01*
X130188053Y130188053D01*
X369577413Y130188053D01*
X249882733Y337505320D01*
X369577413Y544822587D01*
X576894680Y664517267D01*
X457200000Y457200000D01*
X249882733Y337505320D01*
X249882733Y576894680D01*
X369577413Y784211947D01*
X576894680Y903906628D01*
X457200000Y696589360D01*
X249882733Y576894680D01*
X369577413Y369577413D01*
X489272093Y576894680D01*
X696589360Y696589360D01*
X576894680Y489272093D01*
X369577413Y369577413D01*
X369577413Y130188053D01*
X489272093Y337505320D01*
X369577413Y544822587D01*
X369577413Y784211947D01*
X489272093Y576894680D01*
X489272093Y337505320D01*
X696589360Y457200000D01*
X576894680Y664517267D01*
X576894680Y903906628D01*
X696589360Y696589360D01*
X696589360Y457200000D01*
X576894680Y249882733D01*
X457200000Y457200000D01*
X457200000Y696589360D01*
X576894680Y489272093D01*
X576894680Y249882733D01*
X369577413Y130188053D01*
X576894680Y10493372D01*
X457200000Y217810640D01*
X217810640Y217810640D01*
X10493372Y337505320D01*
X249882733Y337505320D01*
X457200000Y217810640D01*
X576894680Y425127907D01*
X784211947Y544822587D01*
X664517267Y337505320D01*
X457200000Y217810640D01*
X457200000Y457200000D01*
X576894680Y664517267D01*
X784211947Y784211947D01*
X664517267Y576894680D01*
X457200000Y457200000D01*
X217810640Y457200000D01*
X10493372Y576894680D01*
X249882733Y576894680D01*
X457200000Y457200000D01*
X576894680Y249882733D01*
X337505320Y249882733D01*
X130188053Y369577413D01*
X369577413Y369577413D01*
X576894680Y249882733D01*
X696589360Y457200000D01*
X903906628Y576894680D01*
X784211947Y369577413D01*
X576894680Y249882733D01*
X576894680Y10493372D01*
X696589360Y217810640D01*
X457200000Y217810640D01*
X249882733Y337505320D01*
X489272093Y337505320D01*
X696589360Y217810640D01*
X576894680Y425127907D01*
X337505320Y425127907D01*
X130188053Y544822587D01*
X369577413Y544822587D01*
X576894680Y425127907D01*
X576894680Y664517267D01*
X337505320Y664517267D01*
X130188053Y784211947D01*
X369577413Y784211947D01*
X576894680Y664517267D01*
X696589360Y457200000D01*
X457200000Y457200000D01*
X249882733Y576894680D01*
X489272093Y576894680D01*
X696589360Y457200000D01*
X696589360Y217810640D01*
X903906628Y337505320D01*
X664517267Y337505320D01*
X457200000Y457200000D01*
X696589360Y457200000D01*
X903906628Y337505320D01*
X784211947Y544822587D01*
X544822587Y544822587D01*
X337505320Y664517267D01*
X576894680Y664517267D01*
X784211947Y544822587D01*
X784211947Y784211947D01*
X544822587Y784211947D01*
X337505320Y903906628D01*
X576894680Y903906628D01*
X784211947Y784211947D01*
X903906628Y576894680D01*
X664517267Y576894680D01*
X457200000Y696589360D01*
X696589360Y696589360D01*
X903906628Y576894680D01*
X903906628Y337505320D01*
X784211947Y130188053D01*
X544822587Y130188053D01*
X337505320Y249882733D01*
X576894680Y249882733D01*
X784211947Y130188053D01*
X664517267Y337505320D01*
X425127907Y337505320D01*
X217810640Y457200000D01*
X457200000Y457200000D01*
X664517267Y337505320D01*
X664517267Y576894680D01*
X425127907Y576894680D01*
X217810640Y696589360D01*
X457200000Y696589360D01*
X664517267Y576894680D01*
X784211947Y369577413D01*
X544822587Y369577413D01*
X337505320Y489272093D01*
X576894680Y489272093D01*
X784211947Y369577413D01*
X784211947Y130188053D01*
X576894680Y10493372D01*
%LPD*%
%LS0.130435782608696*%
X576894680Y10493372D02*
X337505320Y10493372D01*
X217810640Y217810640D01*
X337505320Y425127907D01*
X544822587Y544822587D01*
X425127907Y337505320D01*
X217810640Y217810640D01*
X217810640Y457200000D01*
X337505320Y664517267D01*
X544822587Y784211947D01*
X425127907Y576894680D01*
X217810640Y457200000D01*
X337505320Y249882733D01*
X457200000Y457200000D01*
X664517267Y576894680D01*
X544822587Y369577413D01*
X337505320Y249882733D01*
X337505320Y10493372D01*
X457200000Y217810640D01*
X337505320Y425127907D01*
X337505320Y664517267D01*
X457200000Y457200000D01*
X457200000Y217810640D01*
X664517267Y337505320D01*
X544822587Y544822587D01*
X544822587Y784211947D01*
X664517267Y576894680D01*
X664517267Y337505320D01*
X544822587Y130188053D01*
X425127907Y337505320D01*
X425127907Y576894680D01*
X544822587Y369577413D01*
X544822587Y130188053D01*
X337505320Y10493372D01*
X130188053Y130188053D01*
X10493372Y337505320D01*
X130188053Y544822587D01*
X337505320Y664517267D01*
X217810640Y457200000D01*
X10493372Y337505320D01*
X10493372Y576894680D01*
X130188053Y784211947D01*
X337505320Y903906628D01*
X217810640Y696589360D01*
X10493372Y576894680D01*
X130188053Y369577413D01*
X249882733Y576894680D01*
X457200000Y696589360D01*
X337505320Y489272093D01*
X130188053Y369577413D01*
X130188053Y130188053D01*
X249882733Y337505320D01*
X130188053Y544822587D01*
X130188053Y784211947D01*
X249882733Y576894680D01*
X249882733Y337505320D01*
X457200000Y457200000D01*
X337505320Y664517267D01*
X337505320Y903906628D01*
X457200000Y696589360D01*
X457200000Y457200000D01*
X337505320Y249882733D01*
X217810640Y457200000D01*
X217810640Y696589360D01*
X337505320Y489272093D01*
X337505320Y249882733D01*
X130188053Y130188053D01*
X369577413Y130188053D01*
X249882733Y337505320D01*
X369577413Y544822587D01*
X576894680Y664517267D01*
X457200000Y457200000D01*
X249882733Y337505320D01*
X249882733Y576894680D01*
X369577413Y784211947D01*
X576894680Y903906628D01*
X457200000Y696589360D01*
X249882733Y576894680D01*
X369577413Y369577413D01*
X489272093Y576894680D01*
X696589360Y696589360D01*
X576894680Y489272093D01*
X369577413Y369577413D01*
X369577413Y130188053D01*
X489272093Y337505320D01*
X369577413Y544822587D01*
X369577413Y784211947D01*
X489272093Y576894680D01*
X489272093Y337505320D01*
X696589360Y457200000D01*
X576894680Y664517267D01*
X576894680Y903906628D01*
X696589360Y696589360D01*
X696589360Y457200000D01*
X576894680Y249882733D01*
X457200000Y457200000D01*
X457200000Y696589360D01*
X576894680Y489272093D01*
X576894680Y249882733D01*
X369577413Y130188053D01*
X576894680Y10493372D01*
X457200000Y217810640D01*
X217810640Y217810640D01*
X10493372Y337505320D01*
X249882733Y337505320D01*
X457200000Y217810640D01*
X576894680Y425127907D01*
X784211947Y544822587D01*
X664517267Y337505320D01*
X457200000Y217810640D01*
X457200000Y457200000D01*
X576894680Y664517267D01*
X784211947Y784211947D01*
X664517267Y576894680D01*
X457200000Y457200000D01*
X217810640Y457200000D01*
X10493372Y576894680D01*
X249882733Y576894680D01*
X457200000Y457200000D01*
X576894680Y249882733D01*
X337505320Y249882733D01*
X130188053Y369577413D01*
X369577413Y369577413D01*
X576894680Y249882733D01*
X696589360Y457200000D01*
X903906628Y576894680D01*
X784211947Y369577413D01*
X576894680Y249882733D01*
X576894680Y10493372D01*
X696589360Y217810640D01*
X457200000Y217810640D01*
X249882733Y337505320D01*
X489272093Y337505320D01*
X696589360Y217810640D01*
X576894680Y425127907D01*
X337505320Y425127907D01*
X130188053Y544822587D01*
X369577413Y544822587D01*
X576894680Y425127907D01*
X576894680Y664517267D01*
X337505320Y664517267D01*
X130188053Y784211947D01*
X369577413Y784211947D01*
X576894680Y664517267D01*
X696589360Y457200000D01*
X457200000Y457200000D01*
X249882733Y576894680D01*
X489272093Y576894680D01*
X696589360Y457200000D01*
X696589360Y217810640D01*
X903906628Y337505320D01*
X664517267Y337505320D01*
X457200000Y457200000D01*
X696589360Y457200000D01*
X903906628Y337505320D01*
X784211947Y544822587D01*
X544822587Y544822587D01*
X337505320Y664517267D01*
X576894680Y664517267D01*
X784211947Y544822587D01*
X784211947Y784211947D01*
X544822587Y784211947D01*
X337505320Y903906628D01*
X576894680Y903906628D01*
X784211947Y784211947D01*
X903906628Y576894680D01*
X664517267Y576894680D01*
X457200000Y696589360D01*
X696589360Y696589360D01*
X903906628Y576894680D01*
X903906628Y337505320D01*
X784211947Y130188053D01*
X544822587Y130188053D01*
X337505320Y249882733D01*
X576894680Y249882733D01*
X784211947Y130188053D01*
X664517267Y337505320D01*
X425127907Y337505320D01*
X217810640Y457200000D01*
X457200000Y457200000D01*
X664517267Y337505320D01*
X664517267Y576894680D01*
X425127907Y576894680D01*
X217810640Y696589360D01*
X457200000Y696589360D01*
X664517267Y576894680D01*
X784211947Y369577413D01*
X544822587Y369577413D01*
X337505320Y489272093D01*
X576894680Y489272093D01*
X784211947Y369577413D01*
X784211947Y130188053D01*
X576894680Y10493372D01*
%LPC*%
%LS0.0869575217391304*%
X576894680Y10493372D02*
X337505320Y10493372D01*
X217810640Y217810640D01*
X337505320Y425127907D01*
X544822587Y544822587D01*
X425127907Y337505320D01*
X217810640Y217810640D01*
X217810640Y457200000D01*
X337505320Y664517267D01*
X544822587Y784211947D01*
X425127907Y576894680D01*
X217810640Y457200000D01*
X337505320Y249882733D01*
X457200000Y457200000D01*
X664517267Y576894680D01*
X544822587Y369577413D01*
X337505320Y249882733D01*
X337505320Y10493372D01*
X457200000Y217810640D01*
X337505320Y425127907D01*
X337505320Y664517267D01*
X457200000Y457200000D01*
X457200000Y217810640D01*
X664517267Y337505320D01*
X544822587Y544822587D01*
X544822587Y784211947D01*
X664517267Y576894680D01*
X664517267Y337505320D01*
X544822587Y130188053D01*
X425127907Y337505320D01*
X425127907Y576894680D01*
X544822587Y369577413D01*
X544822587Y130188053D01*
X337505320Y10493372D01*
X130188053Y130188053D01*
X10493372Y337505320D01*
X130188053Y544822587D01*
X337505320Y664517267D01*
X217810640Y457200000D01*
X10493372Y337505320D01*
X10493372Y576894680D01*
X130188053Y784211947D01*
X337505320Y903906628D01*
X217810640Y696589360D01*
X10493372Y576894680D01*
X130188053Y369577413D01*
X249882733Y576894680D01*
X457200000Y696589360D01*
X337505320Y489272093D01*
X130188053Y369577413D01*
X130188053Y130188053D01*
X249882733Y337505320D01*
X130188053Y544822587D01*
X130188053Y784211947D01*
X249882733Y576894680D01*
X249882733Y337505320D01*
X457200000Y457200000D01*
X337505320Y664517267D01*
X337505320Y903906628D01*
X457200000Y696589360D01*
X457200000Y457200000D01*
X337505320Y249882733D01*
X217810640Y457200000D01*
X217810640Y696589360D01*
X337505320Y489272093D01*
X337505320Y249882733D01*
X130188053Y130188053D01*
X369577413Y130188053D01*
X249882733Y337505320D01*
X369577413Y544822587D01*
X576894680Y664517267D01*
X457200000Y457200000D01*
X249882733Y337505320D01*
X249882733Y576894680D01*
X369577413Y784211947D01*
X576894680Y903906628D01*
X457200000Y696589360D01*
X249882733Y576894680D01*
X369577413Y369577413D01*
X489272093Y576894680D01*
X696589360Y696589360D01*
X576894680Y489272093D01*
X369577413Y369577413D01*
X369577413Y130188053D01*
X489272093Y337505320D01*
X369577413Y544822587D01*
X369577413Y784211947D01*
X489272093Y576894680D01*
X489272093Y337505320D01*
X696589360Y457200000D01*
X576894680Y664517267D01*
X576894680Y903906628D01*
X696589360Y696589360D01*
X696589360Y457200000D01*
X576894680Y249882733D01*
X457200000Y457200000D01*
X457200000Y696589360D01*
X576894680Y489272093D01*
X576894680Y249882733D01*
X369577413Y130188053D01*
X576894680Y10493372D01*
X457200000Y217810640D01*
X217810640Y217810640D01*
X10493372Y337505320D01*
X249882733Y337505320D01*
X457200000Y217810640D01*
X576894680Y425127907D01*
X784211947Y544822587D01*
X664517267Y337505320D01*
X457200000Y217810640D01*
X457200000Y457200000D01*
X576894680Y664517267D01*
X784211947Y784211947D01*
X664517267Y576894680D01*
X457200000Y457200000D01*
X217810640Y457200000D01*
X10493372Y576894680D01*
X249882733Y576894680D01*
X457200000Y457200000D01*
X576894680Y249882733D01*
X337505320Y249882733D01*
X130188053Y369577413D01*
X369577413Y369577413D01*
X576894680Y249882733D01*
X696589360Y457200000D01*
X903906628Y576894680D01*
X784211947Y369577413D01*
X576894680Y249882733D01*
X576894680Y10493372D01*
X696589360Y217810640D01*
X457200000Y217810640D01*
X249882733Y337505320D01*
X489272093Y337505320D01*
X696589360Y217810640D01*
X576894680Y425127907D01*
X337505320Y425127907D01*
X130188053Y544822587D01*
X369577413Y544822587D01*
X576894680Y425127907D01*
X576894680Y664517267D01*
X337505320Y664517267D01*
X130188053Y784211947D01*
X369577413Y784211947D01*
X576894680Y664517267D01*
X696589360Y457200000D01*
X457200000Y457200000D01*
X249882733Y576894680D01*
X489272093Y576894680D01*
X696589360Y457200000D01*
X696589360Y217810640D01*
X903906628Y337505320D01*
X664517267Y337505320D01*
X457200000Y457200000D01*
X696589360Y457200000D01*
X903906628Y337505320D01*
X784211947Y544822587D01*
X544822587Y544822587D01*
X337505320Y664517267D01*
X576894680Y664517267D01*
X784211947Y544822587D01*
X784211947Y784211947D01*
X544822587Y784211947D01*
X337505320Y903906628D01*
X576894680Y903906628D01*
X784211947Y784211947D01*
X903906628Y576894680D01*
X664517267Y576894680D01*
X457200000Y696589360D01*
X696589360Y696589360D01*
X903906628Y576894680D01*
X903906628Y337505320D01*
X784211947Y130188053D01*
X544822587Y130188053D01*
X337505320Y249882733D01*
X576894680Y249882733D01*
X784211947Y130188053D01*
X664517267Y337505320D01*
X425127907Y337505320D01*
X217810640Y457200000D01*
X457200000Y457200000D01*
X664517267Y337505320D01*
X664517267Y576894680D01*
X425127907Y576894680D01*
X217810640Y696589360D01*
X457200000Y696589360D01*
X664517267Y576894680D01*
X784211947Y369577413D01*
X544822587Y369577413D01*
X337505320Y489272093D01*
X576894680Y489272093D01*
X784211947Y369577413D01*
X784211947Y130188053D01*
X576894680Y10493372D01*
%LPD*%
%LS0.0434792608695652*%
X576894680Y10493372D02*
X337505320Y10493372D01*
X217810640Y217810640D01*
X337505320Y425127907D01*
X544822587Y544822587D01*
X425127907Y337505320D01*
X217810640Y217810640D01*
X217810640Y457200000D01*
X337505320Y664517267D01*
X544822587Y784211947D01*
X425127907Y576894680D01*
X217810640Y457200000D01*
X337505320Y249882733D01*
X457200000Y457200000D01*
X664517267Y576894680D01*
X544822587Y369577413D01*
X337505320Y249882733D01*
X337505320Y10493372D01*
X457200000Y217810640D01*
X337505320Y425127907D01*
X337505320Y664517267D01*
X457200000Y457200000D01*
X457200000Y217810640D01*
X664517267Y337505320D01*
X544822587Y544822587D01*
X544822587Y784211947D01*
X664517267Y576894680D01*
X664517267Y337505320D01*
X544822587Y130188053D01*
X425127907Y337505320D01*
X425127907Y576894680D01*
X544822587Y369577413D01*
X544822587Y130188053D01*
X337505320Y10493372D01*
X130188053Y130188053D01*
X10493372Y337505320D01*
X130188053Y544822587D01*
X337505320Y664517267D01*
X217810640Y457200000D01*
X10493372Y337505320D01*
X10493372Y576894680D01*
X130188053Y784211947D01*
X337505320Y903906628D01*
X217810640Y696589360D01*
X10493372Y576894680D01*
X130188053Y369577413D01*
X249882733Y576894680D01*
X457200000Y696589360D01*
X337505320Y489272093D01*
X130188053Y369577413D01*
X130188053Y130188053D01*
X249882733Y337505320D01*
X130188053Y544822587D01*
X130188053Y784211947D01*
X249882733Y576894680D01*
X249882733Y337505320D01*
X457200000Y457200000D01*
X337505320Y664517267D01*
X337505320Y903906628D01*
X457200000Y696589360D01*
X457200000Y457200000D01*
X337505320Y249882733D01*
X217810640Y457200000D01*
X217810640Y696589360D01*
X337505320Y489272093D01*
X337505320Y249882733D01*
X130188053Y130188053D01*
X369577413Y130188053D01*
X249882733Y337505320D01*
X369577413Y544822587D01*
X576894680Y664517267D01*
X457200000Y457200000D01*
X249882733Y337505320D01*
X249882733Y576894680D01*
X369577413Y784211947D01*
X576894680Y903906628D01*
X457200000Y696589360D01*
X249882733Y576894680D01*
X369577413Y369577413D01*
X489272093Y576894680D01*
X696589360Y696589360D01*
X576894680Y489272093D01*
X369577413Y369577413D01*
X369577413Y130188053D01*
X489272093Y337505320D01*
X369577413Y544822587D01*
X369577413Y784211947D01*
X489272093Y576894680D01*
X489272093Y337505320D01*
X696589360Y457200000D01*
X576894680Y664517267D01*
X576894680Y903906628D01*
X696589360Y696589360D01*
X696589360Y457200000D01*
X576894680Y249882733D01*
X457200000Y457200000D01*
X457200000Y696589360D01*
X576894680Y489272093D01*
X576894680Y249882733D01*
X369577413Y130188053D01*
X576894680Y10493372D01*
X457200000Y217810640D01*
X217810640Y217810640D01*
X10493372Y337505320D01*
X249882733Y337505320D01*
X457200000Y217810640D01*
X576894680Y425127907D01*
X784211947Y544822587D01*
X664517267Y337505320D01*
X457200000Y217810640D01*
X457200000Y457200000D01*
X576894680Y664517267D01*
X784211947Y784211947D01*
X664517267Y576894680D01*
X457200000Y457200000D01*
X217810640Y457200000D01*
X10493372Y576894680D01*
X249882733Y576894680D01*
X457200000Y457200000D01*
X576894680Y249882733D01*
X337505320Y249882733D01*
X130188053Y369577413D01*
X369577413Y369577413D01*
X576894680Y249882733D01*
X696589360Y457200000D01*
X903906628Y576894680D01*
X784211947Y369577413D01*
X576894680Y249882733D01*
X576894680Y10493372D01*
X696589360Y217810640D01*
X457200000Y217810640D01*
X249882733Y337505320D01*
X489272093Y337505320D01*
X696589360Y217810640D01*
X576894680Y425127907D01*
X337505320Y425127907D01*
X130188053Y544822587D01*
X369577413Y544822587D01*
X576894680Y425127907D01*
X576894680Y664517267D01*
X337505320Y664517267D01*
X130188053Y784211947D01*
X369577413Y784211947D01*
X576894680Y664517267D01*
X696589360Y457200000D01*
X457200000Y457200000D01*
X249882733Y576894680D01*
X489272093Y576894680D01*
X696589360Y457200000D01*
X696589360Y217810640D01*
X903906628Y337505320D01*
X664517267Y337505320D01*
X457200000Y457200000D01*
X696589360Y457200000D01*
X903906628Y337505320D01*
X784211947Y544822587D01*
X544822587Y544822587D01*
X337505320Y664517267D01*
X576894680Y664517267D01*
X784211947Y544822587D01*
X784211947Y784211947D01*
X544822587Y784211947D01*
X337505320Y903906628D01*
X576894680Y903906628D01*
X784211947Y784211947D01*
X903906628Y576894680D01*
X664517267Y576894680D01*
X457200000Y696589360D01*
X696589360Y696589360D01*
X903906628Y576894680D01*
X903906628Y337505320D01*
X784211947Y130188053D01*
X544822587Y130188053D01*
X337505320Y249882733D01*
X576894680Y249882733D01*
X784211947Y130188053D01*
X664517267Y337505320D01*
X425127907Y337505320D01*
X217810640Y457200000D01*
X457200000Y457200000D01*
X664517267Y337505320D01*
X664517267Y576894680D01*
X425127907Y576894680D01*
X217810640Y696589360D01*
X457200000Y696589360D01*
X664517267Y576894680D01*
X784211947Y369577413D01*
X544822587Y369577413D01*
X337505320Y489272093D01*
X576894680Y489272093D01*
X784211947Y369577413D01*
X784211947Y130188053D01*
X576894680Y10493372D01*
M02*
