<?xml version="1.0" standalone="no"?>
<svg width="12881.3703084488" height="12881.3703084488" version="1.1" xmlns="http://www.w3.org/2000/svg">
<polyline points="
7854.40184833982 246.787616111849
5306.972389476 1473.56498670326
4677.80927122761 4230.10871672431
6440.68515422441 6440.68515422441
8988.11461308823 7667.46252481582
7225.23873009143 5456.88608731572
4677.80927122761 4230.10871672431
5306.972389476 6986.65244674536
7069.8482724728 9197.22888424546
9617.27773133661 10424.0062548369
7854.40184833982 8213.42981733677
5306.972389476 6986.65244674536
5936.13550772439 4230.10871672431
7699.01139072118 6440.68515422441
10246.440849585 7667.46252481582
8483.5649665882 5456.88608731572
5936.13550772439 4230.10871672431
5306.972389476 1473.56498670326
7069.8482724728 3684.14142420336
6440.68515422441 6440.68515422441
7069.8482724728 9197.22888424546
7699.01139072118 6440.68515422441
7069.8482724728 3684.14142420336
9617.27773133661 4910.91879479478
8988.11461308823 7667.46252481582
9617.27773133661 10424.0062548369
10246.440849585 7667.46252481582
9617.27773133661 4910.91879479478
7854.40184833982 2700.34235729467
7225.23873009143 5456.88608731572
7854.40184833982 8213.42981733677
8483.5649665882 5456.88608731572
7854.40184833982 2700.34235729467
5306.972389476 1473.56498670326
3544.0965064792 3684.14142420336
2914.93338823081 6440.68515422441
4677.80927122761 8651.26159172451
7225.23873009143 9878.03896231592
5462.36284709463 7667.46252481582
2914.93338823081 6440.68515422441
3544.0965064792 9197.22888424546
5306.972389476 11407.8053217456
7854.40184833982 12634.582692337
6091.52596534302 10424.0062548369
3544.0965064792 9197.22888424546
4173.25962472759 6440.68515422441
5936.13550772439 8651.26159172451
8483.5649665882 9878.03896231592
6720.68908359141 7667.46252481582
4173.25962472759 6440.68515422441
3544.0965064792 3684.14142420336
5306.972389476 5894.71786170346
4677.80927122761 8651.26159172451
5306.972389476 11407.8053217456
5936.13550772439 8651.26159172451
5306.972389476 5894.71786170346
7854.40184833982 7121.49523229488
7225.23873009143 9878.03896231592
7854.40184833982 12634.582692337
8483.5649665882 9878.03896231592
7854.40184833982 7121.49523229488
6091.52596534302 4910.91879479477
5462.36284709463 7667.46252481582
6091.52596534302 10424.0062548369
6720.68908359141 7667.46252481582
6091.52596534302 4910.91879479477
3544.0965064792 3684.14142420336
6091.52596534302 2457.36405361195
5462.36284709463 5213.907783633
7225.23873009143 7424.4842211331
9772.66818895525 8651.26159172451
8009.79230595845 6440.68515422441
5462.36284709463 5213.907783633
6091.52596534302 7970.45151365404
7854.40184833982 10181.0279511541
10401.8313072036 11407.8053217456
8638.95542420684 9197.22888424546
6091.52596534302 7970.45151365404
6720.68908359141 5213.907783633
8483.5649665882 7424.4842211331
11030.994425452 8651.26159172451
9268.11854245522 6440.68515422441
6720.68908359141 5213.907783633
6091.52596534302 2457.36405361195
7854.40184833982 4667.94049111205
7225.23873009143 7424.4842211331
7854.40184833982 10181.0279511541
8483.5649665882 7424.4842211331
7854.40184833982 4667.94049111205
10401.8313072036 5894.71786170346
9772.66818895525 8651.26159172451
10401.8313072036 11407.8053217456
11030.994425452 8651.26159172451
10401.8313072036 5894.71786170346
8638.95542420684 3684.14142420336
8009.79230595845 6440.68515422441
8638.95542420684 9197.22888424546
9268.11854245522 6440.68515422441
8638.95542420684 3684.14142420336
6091.52596534302 2457.36405361195
7854.40184833982 246.787616111849
7225.23873009143 3003.3313461329
4677.80927122761 4230.10871672431
2914.93338823081 6440.68515422441
5462.36284709463 5213.907783633
7225.23873009143 3003.3313461329
8988.11461308823 5213.907783633
11535.544071952 6440.68515422441
9772.66818895525 4230.10871672431
7225.23873009143 3003.3313461329
7854.40184833982 5759.87507615394
9617.27773133662 7970.45151365404
12164.7071902004 9197.22888424546
10401.8313072036 6986.65244674535
7854.40184833982 5759.87507615394
5306.972389476 6986.65244674536
3544.0965064792 9197.22888424546
6091.52596534302 7970.45151365404
7854.40184833982 5759.87507615394
8483.5649665882 3003.3313461329
5936.13550772439 4230.10871672431
4173.25962472759 6440.68515422441
6720.68908359141 5213.907783633
8483.5649665882 3003.3313461329
10246.440849585 5213.907783633
12793.8703084488 6440.68515422441
11030.994425452 4230.10871672431
8483.5649665882 3003.3313461329
7854.40184833982 246.787616111849
9617.27773133662 2457.36405361195
7069.8482724728 3684.14142420336
5306.972389476 5894.71786170346
7854.40184833982 4667.94049111205
9617.27773133662 2457.36405361195
8988.11461308823 5213.907783633
6440.68515422441 6440.68515422441
4677.80927122761 8651.26159172451
7225.23873009143 7424.4842211331
8988.11461308823 5213.907783633
9617.27773133662 7970.45151365404
7069.8482724728 9197.22888424546
5306.972389476 11407.8053217456
7854.40184833982 10181.0279511541
9617.27773133662 7970.45151365404
10246.440849585 5213.907783633
7699.01139072119 6440.68515422441
5936.13550772439 8651.26159172451
8483.5649665882 7424.4842211331
10246.440849585 5213.907783633
9617.27773133662 2457.36405361195
12164.7071902004 3684.14142420336
9617.27773133662 4910.91879479477
7854.40184833982 7121.49523229488
10401.8313072036 5894.71786170346
12164.7071902004 3684.14142420336
11535.544071952 6440.68515422441
8988.11461308823 7667.46252481582
7225.23873009143 9878.03896231592
9772.66818895525 8651.26159172451
11535.544071952 6440.68515422441
12164.7071902004 9197.22888424546
9617.27773133662 10424.0062548369
7854.40184833982 12634.582692337
10401.8313072036 11407.8053217456
12164.7071902004 9197.22888424546
12793.8703084488 6440.68515422441
10246.440849585 7667.46252481582
8483.5649665882 9878.03896231592
11030.994425452 8651.26159172451
12793.8703084488 6440.68515422441
12164.7071902004 3684.14142420336
10401.8313072036 1473.56498670326
7854.40184833982 2700.34235729467
6091.52596534302 4910.91879479477
8638.95542420684 3684.14142420336
10401.8313072036 1473.56498670326
9772.66818895525 4230.10871672431
7225.23873009143 5456.88608731572
5462.36284709463 7667.46252481582
8009.79230595845 6440.68515422441
9772.66818895525 4230.10871672431
10401.8313072036 6986.65244674535
7854.40184833982 8213.42981733677
6091.52596534302 10424.0062548369
8638.95542420684 9197.22888424545
10401.8313072036 6986.65244674535
11030.994425452 4230.10871672431
8483.5649665882 5456.88608731572
6720.6890835914 7667.46252481582
9268.11854245522 6440.68515422441
11030.994425452 4230.10871672431
10401.8313072036 1473.56498670326
7854.40184833982 246.787616111849
5026.968460109 246.787616111849
2479.53900124519 1473.56498670326
1850.3758829968 4230.10871672431
3613.2517659936 6440.68515422441
6160.68122485741 7667.46252481582
4397.80534186062 5456.88608731572
1850.3758829968 4230.10871672431
2479.53900124519 6986.65244674536
4242.41488424198 9197.22888424546
6789.8443431058 10424.0062548369
5026.968460109 8213.42981733677
2479.53900124519 6986.65244674536
3108.70211949357 4230.10871672431
4871.57800249037 6440.68515422441
7419.00746135419 7667.46252481582
5656.13157835739 5456.88608731572
3108.70211949357 4230.10871672431
2479.53900124519 1473.56498670326
4242.41488424198 3684.14142420336
3613.2517659936 6440.68515422441
4242.41488424198 9197.22888424546
4871.57800249037 6440.68515422441
4242.41488424198 3684.14142420336
6789.8443431058 4910.91879479478
6160.68122485741 7667.46252481582
6789.8443431058 10424.0062548369
7419.00746135419 7667.46252481582
6789.8443431058 4910.91879479478
5026.968460109 2700.34235729467
4397.80534186062 5456.88608731572
5026.968460109 8213.42981733677
5656.13157835739 5456.88608731572
5026.968460109 2700.34235729467
2479.53900124519 1473.56498670326
716.663118248387 3684.14142420336
87.5 6440.68515422441
1850.3758829968 8651.26159172451
4397.80534186061 9878.03896231592
2634.92945886382 7667.46252481582
87.5 6440.68515422441
716.663118248387 9197.22888424546
2479.53900124518 11407.8053217456
5026.968460109 12634.582692337
3264.0925771122 10424.0062548369
716.663118248387 9197.22888424546
1345.82623649677 6440.68515422441
3108.70211949357 8651.26159172451
5656.13157835739 9878.03896231592
3893.25569536059 7667.46252481582
1345.82623649677 6440.68515422441
716.663118248387 3684.14142420336
2479.53900124518 5894.71786170346
1850.3758829968 8651.26159172451
2479.53900124518 11407.8053217456
3108.70211949357 8651.26159172451
2479.53900124518 5894.71786170346
5026.968460109 7121.49523229488
4397.80534186061 9878.03896231592
5026.968460109 12634.582692337
5656.13157835739 9878.03896231592
5026.968460109 7121.49523229488
3264.0925771122 4910.91879479477
2634.92945886382 7667.46252481582
3264.0925771122 10424.0062548369
3893.25569536059 7667.46252481582
3264.0925771122 4910.91879479477
716.663118248387 3684.14142420336
3264.0925771122 2457.36405361195
2634.92945886382 5213.907783633
4397.80534186062 7424.4842211331
6945.23480072443 8651.26159172451
5182.35891772763 6440.68515422441
2634.92945886382 5213.907783633
3264.0925771122 7970.45151365404
5026.968460109 10181.0279511541
7574.39791897282 11407.8053217456
5811.52203597602 9197.22888424546
3264.0925771122 7970.45151365404
3893.25569536059 5213.907783633
5656.13157835739 7424.4842211331
8203.56103722121 8651.26159172451
6440.68515422441 6440.68515422441
3893.25569536059 5213.907783633
3264.0925771122 2457.36405361195
5026.968460109 4667.94049111205
4397.80534186062 7424.4842211331
5026.968460109 10181.0279511541
5656.13157835739 7424.4842211331
5026.968460109 4667.94049111205
7574.39791897282 5894.71786170346
6945.23480072443 8651.26159172451
7574.39791897282 11407.8053217456
8203.56103722121 8651.26159172451
7574.39791897282 5894.71786170346
5811.52203597602 3684.14142420336
5182.35891772764 6440.68515422441
5811.52203597602 9197.22888424546
6440.68515422441 6440.68515422441
5811.52203597602 3684.14142420336
3264.0925771122 2457.36405361195
5026.968460109 246.787616111849
4397.80534186062 3003.3313461329
1850.3758829968 4230.10871672431
87.5000000000009 6440.68515422441
2634.92945886382 5213.907783633
4397.80534186062 3003.3313461329
6160.68122485741 5213.907783633
8708.11068372123 6440.68515422441
6945.23480072443 4230.10871672431
4397.80534186062 3003.3313461329
5026.968460109 5759.87507615394
6789.8443431058 7970.45151365404
9337.27380196962 9197.22888424546
7574.39791897282 6986.65244674535
5026.968460109 5759.87507615394
2479.53900124519 6986.65244674536
716.663118248388 9197.22888424546
3264.09257711221 7970.45151365404
5026.968460109 5759.87507615394
5656.13157835739 3003.3313461329
3108.70211949357 4230.10871672431
1345.82623649677 6440.68515422441
3893.25569536059 5213.907783633
5656.13157835739 3003.3313461329
7419.00746135419 5213.907783633
9966.43692021801 6440.68515422441
8203.56103722121 4230.10871672431
5656.13157835739 3003.3313461329
5026.968460109 246.787616111849
6789.8443431058 2457.36405361195
4242.41488424198 3684.14142420336
2479.53900124519 5894.71786170346
5026.968460109 4667.94049111205
6789.8443431058 2457.36405361195
6160.68122485742 5213.907783633
3613.2517659936 6440.68515422441
1850.3758829968 8651.26159172451
4397.80534186062 7424.4842211331
6160.68122485742 5213.907783633
6789.8443431058 7970.45151365404
4242.41488424199 9197.22888424546
2479.53900124519 11407.8053217456
5026.968460109 10181.0279511541
6789.8443431058 7970.45151365404
7419.00746135419 5213.907783633
4871.57800249037 6440.68515422441
3108.70211949357 8651.26159172451
5656.13157835739 7424.4842211331
7419.00746135419 5213.907783633
6789.8443431058 2457.36405361195
9337.27380196962 3684.14142420336
6789.8443431058 4910.91879479477
5026.968460109 7121.49523229488
7574.39791897282 5894.71786170346
9337.27380196962 3684.14142420336
8708.11068372123 6440.68515422441
6160.68122485742 7667.46252481582
4397.80534186062 9878.03896231592
6945.23480072443 8651.26159172451
8708.11068372123 6440.68515422441
9337.27380196962 9197.22888424546
6789.8443431058 10424.0062548369
5026.968460109 12634.582692337
7574.39791897282 11407.8053217456
9337.27380196962 9197.22888424546
9966.43692021801 6440.68515422441
7419.00746135419 7667.46252481582
5656.13157835739 9878.03896231592
8203.56103722121 8651.26159172451
9966.43692021801 6440.68515422441
9337.27380196962 3684.14142420336
7574.39791897282 1473.56498670326
5026.968460109 2700.34235729467
3264.09257711221 4910.91879479477
5811.52203597602 3684.14142420336
7574.39791897282 1473.56498670326
6945.23480072443 4230.10871672431
4397.80534186062 5456.88608731572
2634.92945886382 7667.46252481582
5182.35891772764 6440.68515422441
6945.23480072443 4230.10871672431
7574.39791897282 6986.65244674535
5026.968460109 8213.42981733677
3264.09257711221 10424.0062548369
5811.52203597602 9197.22888424545
7574.39791897282 6986.65244674535
8203.56103722121 4230.10871672431
5656.13157835739 5456.88608731572
3893.25569536059 7667.46252481582
6440.68515422441 6440.68515422441
8203.56103722121 4230.10871672431
7574.39791897282 1473.56498670326
5026.968460109 246.787616111849
2479.53900124519 1473.56498670326
1850.3758829968 4230.10871672431
3613.2517659936 6440.68515422441
6160.68122485741 7667.46252481582
4397.80534186062 5456.88608731572
1850.3758829968 4230.10871672431
2479.53900124519 6986.65244674536
4242.41488424198 9197.22888424546
6789.8443431058 10424.0062548369
5026.968460109 8213.42981733677
2479.53900124519 6986.65244674536
3108.70211949357 4230.10871672431
4871.57800249037 6440.68515422441
7419.00746135419 7667.46252481582
5656.13157835739 5456.88608731572
3108.70211949357 4230.10871672431
2479.53900124519 1473.56498670326
4242.41488424198 3684.14142420336
3613.2517659936 6440.68515422441
4242.41488424198 9197.22888424546
4871.57800249037 6440.68515422441
4242.41488424198 3684.14142420336
6789.8443431058 4910.91879479478
6160.68122485742 7667.46252481582
6789.8443431058 10424.0062548369
7419.00746135419 7667.46252481582
6789.8443431058 4910.91879479478
5026.968460109 2700.34235729467
4397.80534186062 5456.88608731572
5026.968460109 8213.42981733677
5656.13157835739 5456.88608731572
5026.968460109 2700.34235729467
2479.53900124519 1473.56498670326
716.663118248388 3684.14142420336
87.5000000000009 6440.68515422441
1850.3758829968 8651.26159172451
4397.80534186062 9878.03896231592
2634.92945886382 7667.46252481582
87.5000000000018 6440.68515422441
716.663118248389 9197.22888424546
2479.53900124519 11407.8053217456
5026.968460109 12634.582692337
3264.09257711221 10424.0062548369
716.663118248389 9197.22888424546
1345.82623649678 6440.68515422441
3108.70211949357 8651.26159172451
5656.13157835739 9878.03896231592
3893.25569536059 7667.46252481582
1345.82623649678 6440.68515422441
716.663118248389 3684.14142420336
2479.53900124519 5894.71786170346
1850.3758829968 8651.26159172451
2479.53900124519 11407.8053217456
3108.70211949357 8651.26159172451
2479.53900124519 5894.71786170346
5026.968460109 7121.49523229488
4397.80534186062 9878.03896231592
5026.968460109 12634.582692337
5656.13157835739 9878.03896231592
5026.968460109 7121.49523229488
3264.09257711221 4910.91879479477
2634.92945886382 7667.46252481582
3264.09257711221 10424.0062548369
3893.25569536059 7667.46252481582
3264.09257711221 4910.91879479477
716.663118248389 3684.14142420336
3264.09257711221 2457.36405361195
2634.92945886382 5213.907783633
4397.80534186062 7424.4842211331
6945.23480072443 8651.26159172451
5182.35891772764 6440.68515422441
2634.92945886382 5213.907783633
3264.09257711221 7970.45151365404
5026.968460109 10181.0279511541
7574.39791897282 11407.8053217456
5811.52203597602 9197.22888424546
3264.09257711221 7970.45151365404
3893.25569536059 5213.907783633
5656.13157835739 7424.4842211331
8203.56103722121 8651.26159172451
6440.68515422441 6440.68515422441
3893.25569536059 5213.907783633
3264.09257711221 2457.36405361195
5026.968460109 4667.94049111205
4397.80534186062 7424.4842211331
5026.968460109 10181.0279511541
5656.13157835739 7424.4842211331
5026.968460109 4667.94049111205
7574.39791897282 5894.71786170346
6945.23480072443 8651.26159172451
7574.39791897282 11407.8053217456
8203.56103722121 8651.26159172451
7574.39791897282 5894.71786170346
5811.52203597602 3684.14142420336
5182.35891772764 6440.68515422441
5811.52203597602 9197.22888424546
6440.68515422441 6440.68515422441
5811.52203597602 3684.14142420336
3264.09257711221 2457.36405361195
5026.968460109 246.787616111849
4397.80534186062 3003.3313461329
1850.3758829968 4230.10871672431
87.5000000000027 6440.68515422441
2634.92945886382 5213.907783633
4397.80534186062 3003.3313461329
6160.68122485742 5213.907783633
8708.11068372123 6440.68515422441
6945.23480072444 4230.10871672431
4397.80534186062 3003.3313461329
5026.96846010901 5759.87507615394
6789.8443431058 7970.45151365404
9337.27380196962 9197.22888424546
7574.39791897282 6986.65244674535
5026.96846010901 5759.87507615394
2479.53900124519 6986.65244674536
716.66311824839 9197.22888424546
3264.09257711221 7970.45151365404
5026.96846010901 5759.87507615394
5656.13157835739 3003.3313461329
3108.70211949358 4230.10871672431
1345.82623649678 6440.68515422441
3893.25569536059 5213.907783633
5656.13157835739 3003.3313461329
7419.00746135419 5213.907783633
9966.43692021801 6440.68515422441
8203.56103722121 4230.10871672431
5656.13157835739 3003.3313461329
5026.96846010901 246.787616111849
6789.8443431058 2457.36405361195
4242.41488424199 3684.14142420336
2479.53900124519 5894.71786170346
5026.968460109 4667.94049111205
6789.8443431058 2457.36405361195
6160.68122485742 5213.907783633
3613.2517659936 6440.68515422441
1850.3758829968 8651.26159172451
4397.80534186062 7424.4842211331
6160.68122485742 5213.907783633
6789.8443431058 7970.45151365404
4242.41488424199 9197.22888424546
2479.53900124519 11407.8053217456
5026.968460109 10181.0279511541
6789.8443431058 7970.45151365404
7419.00746135419 5213.907783633
4871.57800249037 6440.68515422441
3108.70211949358 8651.26159172451
5656.13157835739 7424.4842211331
7419.00746135419 5213.907783633
6789.8443431058 2457.36405361195
9337.27380196962 3684.14142420336
6789.8443431058 4910.91879479477
5026.968460109 7121.49523229488
7574.39791897282 5894.71786170346
9337.27380196962 3684.14142420336
8708.11068372123 6440.68515422441
6160.68122485742 7667.46252481582
4397.80534186062 9878.03896231592
6945.23480072444 8651.26159172451
8708.11068372123 6440.68515422441
9337.27380196962 9197.22888424546
6789.8443431058 10424.0062548369
5026.968460109 12634.582692337
7574.39791897282 11407.8053217456
9337.27380196962 9197.22888424546
9966.43692021801 6440.68515422441
7419.00746135419 7667.46252481582
5656.13157835739 9878.03896231592
8203.56103722121 8651.26159172451
9966.43692021801 6440.68515422441
9337.27380196962 3684.14142420336
7574.39791897282 1473.56498670326
5026.96846010901 2700.34235729467
3264.09257711221 4910.91879479477
5811.52203597602 3684.14142420336
7574.39791897282 1473.56498670326
6945.23480072444 4230.10871672431
4397.80534186062 5456.88608731572
2634.92945886382 7667.46252481582
5182.35891772764 6440.68515422441
6945.23480072444 4230.10871672431
7574.39791897282 6986.65244674535
5026.96846010901 8213.42981733677
3264.09257711221 10424.0062548369
5811.52203597602 9197.22888424545
7574.39791897282 6986.65244674535
8203.56103722121 4230.10871672431
5656.13157835739 5456.88608731572
3893.25569536059 7667.46252481582
6440.68515422441 6440.68515422441
8203.56103722121 4230.10871672431
7574.39791897282 1473.56498670326
5026.96846010901 246.787616111849
7854.40184833982 246.787616111849
5306.972389476 1473.56498670326
2479.53900124519 1473.56498670326
5306.972389476 1473.56498670326
4677.80927122762 4230.10871672431
6440.68515422441 6440.68515422441
8988.11461308823 7667.46252481582
7225.23873009143 5456.88608731572
4677.80927122762 4230.10871672431
5306.972389476 6986.65244674536
7069.8482724728 9197.22888424546
9617.27773133662 10424.0062548369
7854.40184833982 8213.42981733677
5306.972389476 6986.65244674536
5936.13550772439 4230.10871672431
7699.01139072119 6440.68515422441
10246.440849585 7667.46252481582
8483.56496658821 5456.88608731572
5936.13550772439 4230.10871672431
5306.972389476 1473.56498670326
7069.8482724728 3684.14142420336
6440.68515422441 6440.68515422441
7069.8482724728 9197.22888424546
7699.01139072119 6440.68515422441
7069.8482724728 3684.14142420336
9617.27773133662 4910.91879479478
8988.11461308823 7667.46252481582
9617.27773133662 10424.0062548369
10246.440849585 7667.46252481582
9617.27773133662 4910.91879479478
7854.40184833982 2700.34235729467
7225.23873009143 5456.88608731572
7854.40184833982 8213.42981733677
8483.56496658821 5456.88608731572
7854.40184833982 2700.34235729467
5306.972389476 1473.56498670326
3544.0965064792 3684.14142420336
2914.93338823082 6440.68515422441
4677.80927122762 8651.26159172451
7225.23873009143 9878.03896231592
5462.36284709464 7667.46252481582
2914.93338823082 6440.68515422441
3544.0965064792 9197.22888424546
5306.972389476 11407.8053217456
7854.40184833982 12634.582692337
6091.52596534302 10424.0062548369
3544.0965064792 9197.22888424546
4173.25962472759 6440.68515422441
5936.13550772439 8651.26159172451
8483.56496658821 9878.03896231592
6720.68908359141 7667.46252481582
4173.25962472759 6440.68515422441
3544.0965064792 3684.14142420336
5306.972389476 5894.71786170346
4677.80927122762 8651.26159172451
5306.972389476 11407.8053217456
5936.13550772439 8651.26159172451
5306.972389476 5894.71786170346
7854.40184833982 7121.49523229488
7225.23873009143 9878.03896231592
7854.40184833982 12634.582692337
8483.56496658821 9878.03896231592
7854.40184833982 7121.49523229488
6091.52596534302 4910.91879479477
5462.36284709464 7667.46252481582
6091.52596534302 10424.0062548369
6720.68908359141 7667.46252481582
6091.52596534302 4910.91879479477
3544.0965064792 3684.14142420336
716.663118248391 3684.14142420336
3544.0965064792 3684.14142420336
6091.52596534302 2457.36405361195
3264.09257711221 2457.36405361195
6091.52596534302 2457.36405361195
5462.36284709464 5213.907783633
7225.23873009143 7424.4842211331
9772.66818895525 8651.26159172451
8009.79230595845 6440.68515422441
5462.36284709464 5213.907783633
6091.52596534302 7970.45151365404
7854.40184833982 10181.0279511541
10401.8313072036 11407.8053217456
8638.95542420684 9197.22888424546
6091.52596534302 7970.45151365404
6720.68908359141 5213.907783633
8483.56496658821 7424.4842211331
11030.994425452 8651.26159172451
9268.11854245523 6440.68515422441
6720.68908359141 5213.907783633
6091.52596534302 2457.36405361195
7854.40184833982 4667.94049111205
7225.23873009143 7424.4842211331
7854.40184833982 10181.0279511541
8483.56496658821 7424.4842211331
7854.40184833982 4667.94049111205
10401.8313072036 5894.71786170346
9772.66818895525 8651.26159172451
10401.8313072036 11407.8053217456
11030.994425452 8651.26159172451
10401.8313072036 5894.71786170346
8638.95542420684 3684.14142420336
8009.79230595845 6440.68515422441
8638.95542420684 9197.22888424546
9268.11854245523 6440.68515422441
8638.95542420684 3684.14142420336
6091.52596534302 2457.36405361195
7854.40184833982 246.787616111849
7225.23873009143 3003.3313461329
4397.80534186062 3003.3313461329
7225.23873009143 3003.3313461329
4677.80927122762 4230.10871672431
1850.3758829968 4230.10871672431
4677.80927122762 4230.10871672431
2914.93338823082 6440.68515422441
87.5000000000045 6440.68515422441
2914.93338823082 6440.68515422441
5462.36284709464 5213.907783633
2634.92945886382 5213.907783633
5462.36284709464 5213.907783633
7225.23873009143 3003.3313461329
8988.11461308823 5213.907783633
11535.544071952 6440.68515422441
9772.66818895525 4230.10871672431
7225.23873009143 3003.3313461329
7854.40184833982 5759.87507615394
9617.27773133662 7970.45151365404
12164.7071902004 9197.22888424546
10401.8313072036 6986.65244674535
7854.40184833982 5759.87507615394
5026.96846010901 5759.87507615394
7854.40184833982 5759.87507615394
5306.972389476 6986.65244674536
2479.53900124519 6986.65244674536
5306.972389476 6986.65244674536
3544.0965064792 9197.22888424546
716.663118248391 9197.22888424546
3544.0965064792 9197.22888424546
6091.52596534302 7970.45151365404
3264.09257711221 7970.45151365404
6091.52596534302 7970.45151365404
7854.40184833982 5759.87507615394
8483.56496658821 3003.3313461329
5656.13157835739 3003.3313461329
8483.56496658821 3003.3313461329
5936.13550772439 4230.10871672431
3108.70211949358 4230.10871672431
5936.13550772439 4230.10871672431
4173.25962472759 6440.68515422441
1345.82623649678 6440.68515422441
4173.25962472759 6440.68515422441
6720.68908359141 5213.907783633
3893.25569536059 5213.907783633
6720.68908359141 5213.907783633
8483.56496658821 3003.3313461329
10246.440849585 5213.907783633
12793.8703084488 6440.68515422441
11030.994425452 4230.10871672431
8483.56496658821 3003.3313461329
7854.40184833982 246.787616111849
9617.27773133662 2457.36405361195
6789.8443431058 2457.36405361195
9617.27773133662 2457.36405361195
7069.8482724728 3684.14142420336
4242.41488424199 3684.14142420336
7069.8482724728 3684.14142420336
5306.972389476 5894.71786170346
2479.53900124519 5894.71786170346
5306.972389476 5894.71786170346
7854.40184833982 4667.94049111205
5026.96846010901 4667.94049111205
7854.40184833982 4667.94049111205
9617.27773133662 2457.36405361195
8988.11461308823 5213.907783633
6160.68122485742 5213.907783633
8988.11461308823 5213.907783633
6440.68515422441 6440.68515422441
3613.2517659936 6440.68515422441
6440.68515422441 6440.68515422441
4677.80927122762 8651.26159172451
1850.3758829968 8651.26159172451
4677.80927122762 8651.26159172451
7225.23873009143 7424.4842211331
4397.80534186062 7424.4842211331
7225.23873009143 7424.4842211331
8988.11461308823 5213.907783633
9617.27773133662 7970.45151365404
6789.8443431058 7970.45151365405
9617.27773133662 7970.45151365404
7069.8482724728 9197.22888424546
4242.41488424199 9197.22888424546
7069.8482724728 9197.22888424546
5306.972389476 11407.8053217456
2479.53900124519 11407.8053217456
5306.972389476 11407.8053217456
7854.40184833982 10181.0279511541
5026.96846010901 10181.0279511541
7854.40184833982 10181.0279511541
9617.27773133662 7970.45151365404
10246.440849585 5213.907783633
7419.00746135419 5213.907783633
10246.440849585 5213.907783633
7699.01139072119 6440.68515422441
4871.57800249037 6440.68515422441
7699.01139072119 6440.68515422441
5936.13550772439 8651.26159172451
3108.70211949358 8651.26159172451
5936.13550772439 8651.26159172451
8483.56496658821 7424.4842211331
5656.13157835739 7424.4842211331
8483.56496658821 7424.4842211331
10246.440849585 5213.907783633
9617.27773133662 2457.36405361195
12164.7071902004 3684.14142420336
9337.27380196962 3684.14142420336
12164.7071902004 3684.14142420336
9617.27773133662 4910.91879479477
6789.8443431058 4910.91879479478
9617.27773133662 4910.91879479477
7854.40184833982 7121.49523229488
5026.96846010901 7121.49523229488
7854.40184833982 7121.49523229488
10401.8313072036 5894.71786170346
7574.39791897282 5894.71786170346
10401.8313072036 5894.71786170346
12164.7071902004 3684.14142420336
11535.544071952 6440.68515422441
8708.11068372124 6440.68515422441
11535.544071952 6440.68515422441
8988.11461308823 7667.46252481582
6160.68122485742 7667.46252481582
8988.11461308823 7667.46252481582
7225.23873009143 9878.03896231592
4397.80534186062 9878.03896231592
7225.23873009143 9878.03896231592
9772.66818895525 8651.26159172451
6945.23480072444 8651.26159172451
9772.66818895525 8651.26159172451
11535.544071952 6440.68515422441
12164.7071902004 9197.22888424546
9337.27380196962 9197.22888424546
12164.7071902004 9197.22888424546
9617.27773133662 10424.0062548369
6789.8443431058 10424.0062548369
9617.27773133662 10424.0062548369
7854.40184833982 12634.582692337
5026.96846010901 12634.582692337
7854.40184833982 12634.582692337
10401.8313072036 11407.8053217456
7574.39791897282 11407.8053217456
10401.8313072036 11407.8053217456
12164.7071902004 9197.22888424546
12793.8703084488 6440.68515422441
9966.43692021801 6440.68515422441
12793.8703084488 6440.68515422441
10246.440849585 7667.46252481582
7419.00746135419 7667.46252481582
10246.440849585 7667.46252481582
8483.56496658821 9878.03896231592
5656.13157835739 9878.03896231592
8483.56496658821 9878.03896231592
11030.994425452 8651.26159172451
8203.56103722121 8651.26159172451
11030.994425452 8651.26159172451
12793.8703084488 6440.68515422441
12164.7071902004 3684.14142420336
10401.8313072036 1473.56498670326
7574.39791897282 1473.56498670326
10401.8313072036 1473.56498670326
7854.40184833982 2700.34235729467
5026.96846010901 2700.34235729467
7854.40184833982 2700.34235729467
6091.52596534302 4910.91879479477
3264.09257711221 4910.91879479477
6091.52596534302 4910.91879479477
8638.95542420684 3684.14142420336
5811.52203597603 3684.14142420336
8638.95542420684 3684.14142420336
10401.8313072036 1473.56498670326
9772.66818895525 4230.10871672431
6945.23480072444 4230.10871672431
9772.66818895525 4230.10871672431
7225.23873009143 5456.88608731572
4397.80534186062 5456.88608731572
7225.23873009143 5456.88608731572
5462.36284709464 7667.46252481582
2634.92945886382 7667.46252481582
5462.36284709464 7667.46252481582
8009.79230595845 6440.68515422441
5182.35891772764 6440.68515422441
8009.79230595845 6440.68515422441
9772.66818895525 4230.10871672431
10401.8313072036 6986.65244674535
7574.39791897282 6986.65244674535
10401.8313072036 6986.65244674535
7854.40184833982 8213.42981733677
5026.96846010901 8213.42981733677
7854.40184833982 8213.42981733677
6091.52596534302 10424.0062548369
3264.09257711221 10424.0062548369
6091.52596534302 10424.0062548369
8638.95542420684 9197.22888424545
5811.52203597603 9197.22888424546
8638.95542420684 9197.22888424545
10401.8313072036 6986.65244674535
11030.994425452 4230.10871672431
8203.56103722121 4230.10871672431
11030.994425452 4230.10871672431
8483.56496658821 5456.88608731572
5656.13157835739 5456.88608731572
8483.56496658821 5456.88608731572
6720.68908359141 7667.46252481582
3893.2556953606 7667.46252481582
6720.68908359141 7667.46252481582
9268.11854245523 6440.68515422441
6440.68515422441 6440.68515422441
9268.11854245523 6440.68515422441
11030.994425452 4230.10871672431
10401.8313072036 1473.56498670326
7854.40184833982 246.787616111849
"
stroke="green"
id="polyline2"
style="fill:#ff0000;fill-opacity:1;fill-rule:evenodd"
/>
</svg>
