%MOMM*%
%FSLAX26Y26*%
%LPD*%
%ADD10C,0.0625*%
D10*
X546731740Y5888079D02*
G01*
%LS7.8969264077822*
X367268260Y5888079D01*
%LS0.847759065022574*
X240368416Y132787923D01*
%LS0.566454497350521*
X240368416Y312251403D01*
%LS0.263696543789525*
X367268260Y439151247D01*
X533070896Y507828948D01*
X406171052Y380929104D01*
X240368416Y312251403D01*
%LS2.53389228511323*
X309046117Y478054040D01*
%LS0.825615246470455*
X435945960Y604953883D01*
%LS1.21121794234669*
X601748597Y673631584D01*
%LS0.394649767030375*
X474848753Y546731740D01*
%LS1.33165682534453*
X309046117Y478054040D01*
%LS1.94494729183345*
X309046117Y298590559D01*
%LS0.386100037849275*
X435945960Y425490403D01*
X601748597Y494168104D01*
%LS1.33165682534453*
X474848753Y367268260D01*
%LS1.17958042710327*
X309046117Y298590559D01*
%LS0.847759065022573*
X240368416Y132787923D01*
%LS1*
X367268260Y259687767D01*
%LS1.17958042710327*
X367268260Y439151247D01*
%LS0.847759065022573*
X435945960Y604953883D01*
%LS0.750944222991741*
X435945960Y425490403D01*
X367268260Y259687767D01*
%LS2.59000233610539*
X533070896Y328365467D01*
%LS0.51415275066777*
X533070896Y507828948D01*
%LS0.750944222991741*
X601748597Y673631584D01*
%LS2.53389228511323*
X601748597Y494168104D01*
%LS0.825615246470455*
X533070896Y328365467D01*
%LS1.21121794234669*
X406171052Y201465624D01*
%LS0.394649767030375*
X406171052Y380929104D01*
X474848753Y546731740D01*
X474848753Y367268260D01*
X406171052Y201465624D01*
%LS3.79223779587408*
X240368416Y132787923D01*
%LS1.49660576266549*
X171690715Y298590559D01*
%LS0.880008194821168*
X171690715Y478054040D01*
%LS0.759286836022116*
X298590559Y604953883D01*
%LS0.910819325038584*
X464393196Y673631584D01*
%LS0.749846479606538*
X337493352Y546731740D01*
%LS0.869423157834371*
X171690715Y478054040D01*
%LS2.11178472293396*
X240368416Y643856676D01*
%LS1.05028868925121*
X367268260Y770756520D01*
%LS1.13635305430675*
X533070896Y839434220D01*
%LS0.668178637919299*
X406171052Y712534376D01*
%LS1.17958042710327*
X240368416Y643856676D01*
%LS0.847759065022573*
X240368416Y464393196D01*
%LS0.73123889793531*
X367268260Y591293039D01*
%LS1*
X533070896Y659970740D01*
%LS0.566454497350522*
X406171052Y533070896D01*
X240368416Y464393196D01*
%LS2.26197262739567*
X171690715Y298590559D01*
%LS0.442091998766295*
X298590559Y425490403D01*
%LS1.76536686473018*
X298590559Y604953883D01*
%LS1.28130456767205*
X367268260Y770756520D01*
%LS0.442091998766296*
X367268260Y591293039D01*
%LS1.49660576266549*
X298590559Y425490403D01*
%LS0.425375732373065*
X464393196Y494168104D01*
X464393196Y673631584D01*
%LS1.33165682534453*
X533070896Y839434220D01*
%LS1*
X533070896Y659970740D01*
%LS0.750944222991741*
X464393196Y494168104D01*
X337493352Y367268260D01*
%LS2.09202010350334*
X337493352Y546731740D01*
%LS1.21121794234669*
X406171052Y712534376D01*
%LS0.394649767030375*
X406171052Y533070896D01*
%LS1.33165682534453*
X337493352Y367268260D01*
%LS0.750944222991741*
X171690715Y298590559D01*
%LS5.49245548824482*
X298590559Y171690715D01*
%LS0.504880156516252*
X298590559Y351154196D01*
%LS0.360616133159882*
X425490403Y478054040D01*
X591293039Y546731740D01*
X464393196Y419831896D01*
X298590559Y351154196D01*
%LS1.85288060205298*
X367268260Y516956832D01*
%LS1*
X494168104Y643856676D01*
%LS1.49660576266549*
X659970740Y712534376D01*
%LS0.360616133159882*
X533070896Y585634533D01*
%LS1.5707963267949*
X367268260Y516956832D01*
%LS1*
X367268260Y337493352D01*
%LS0.636619772367581*
X494168104Y464393196D01*
X659970740Y533070896D01*
%LS1.5707963267949*
X533070896Y406171052D01*
%LS0.847759065022574*
X367268260Y337493352D01*
%LS0.750944222991741*
X298590559Y171690715D01*
%LS1.5707963267949*
X425490403Y298590559D01*
%LS0.636619772367581*
X425490403Y478054040D01*
X494168104Y643856676D01*
X494168104Y464393196D01*
X425490403Y298590559D01*
%LS2.35086283465503*
X591293039Y367268260D01*
%LS0.999999999999999*
X591293039Y546731740D01*
%LS0.668178637919299*
X659970740Y712534376D01*
%LS2.26197262739567*
X659970740Y533070896D01*
%LS0.780454565784353*
X591293039Y367268260D01*
%LS1*
X464393196Y240368416D01*
%LS0.360616133159882*
X464393196Y419831896D01*
X533070896Y585634533D01*
%LS1.33165682534453*
X533070896Y406171052D01*
%LS1.17958042710328*
X464393196Y240368416D01*
%LS2.26197262739567*
X298590559Y171690715D01*
%LS1.25897149706067*
X367268260Y5888079D01*
%LS0.351153302357085*
X367268260Y185351559D01*
%LS2.84775906502257*
X240368416Y312251403D01*
X171690715Y478054040D01*
%LS0.731238897935309*
X298590559Y351154196D01*
X367268260Y185351559D01*
%LS0.688412827539495*
X494168104Y312251403D01*
%LS1.15018790446171*
X659970740Y380929104D01*
%LS1.3336063143548*
X533070896Y254029260D01*
%LS1.09791258541604*
X367268260Y185351559D01*
%LS0.263696543789525*
X435945960Y351154196D01*
%LS1.04957255008645*
X562845804Y478054040D01*
%LS0.952768819952114*
X728648441Y546731740D01*
%LS2.25180800985514*
X601748597Y419831896D01*
%LS0.697571160560862*
X435945960Y351154196D01*
%LS1*
X309046117Y478054040D01*
%LS1.43354550264948*
X240368416Y643856676D01*
%LS0.444087593446445*
X367268260Y516956832D01*
%LS1.04957255008645*
X435945960Y351154196D01*
%LS0.952768819952113*
X435945960Y171690715D01*
%LS3.79223779587408*
X309046117Y298590559D01*
%LS0.910819325038584*
X240368416Y464393196D01*
%LS0.749846479606538*
X367268260Y337493352D01*
%LS0.869423157834371*
X435945960Y171690715D01*
%LS1.45261674390085*
X562845804Y298590559D01*
%LS1*
X728648441Y367268260D01*
%LS1.36754212997086*
X601748597Y240368416D01*
X435945960Y171690715D01*
%LS0.351153302357084*
X367268260Y5888079D01*
%LS2.84775906502258*
X494168104Y132787923D01*
%LS0.79429915795132*
X367268260Y259687767D01*
%LS0.780454565784353*
X298590559Y425490403D01*
%LS0.847759065022574*
X425490403Y298590559D01*
%LS0.668178637919299*
X494168104Y132787923D01*
%LS0.636619772367581*
X494168104Y312251403D01*
%LS1.33165682534454*
X367268260Y439151247D01*
%LS1.17958042710327*
X298590559Y604953883D01*
%LS0.636619772367581*
X425490403Y478054040D01*
X494168104Y312251403D01*
%LS1.5707963267949*
X562845804Y478054040D01*
%LS0.999999999999999*
X435945960Y604953883D01*
%LS0.636619772367582*
X367268260Y770756520D01*
%LS2.77303178656359*
X494168104Y643856676D01*
%LS0.668178637919299*
X562845804Y478054040D01*
X562845804Y298590559D01*
%LS0.539700182997225*
X435945960Y425490403D01*
X367268260Y591293039D01*
X494168104Y464393196D01*
X562845804Y298590559D01*
%LS2.77303178656359*
X494168104Y132787923D01*
%LS1.98066805972362*
X659970740Y201465624D01*
%LS0.182067929752047*
X533070896Y328365467D01*
X464393196Y494168104D01*
X591293039Y367268260D01*
%LS1.5707963267949*
X659970740Y201465624D01*
%LS2.26197262739567*
X659970740Y380929104D01*
%LS0.442091998766295*
X533070896Y507828948D01*
%LS1*
X464393196Y673631584D01*
%LS1.76536686473018*
X591293039Y546731740D01*
%LS1*
X659970740Y380929104D01*
%LS1.36754212997086*
X728648441Y546731740D01*
%LS1.17958042710328*
X601748597Y673631584D01*
%LS0.847759065022573*
X533070896Y839434220D01*
%LS1.49660576266549*
X659970740Y712534376D01*
%LS0.880008194821168*
X728648441Y546731740D01*
%LS0.952119174693711*
X728648441Y367268260D01*
%LS0.473533115918499*
X601748597Y494168104D01*
%LS1.15018790446171*
X533070896Y659970740D01*
%LS1.3336063143548*
X659970740Y533070896D01*
%LS1.09791258541603*
X728648441Y367268260D01*
%LS1.31702533556221*
X659970740Y201465624D01*
%LS1.13635305430675*
X533070896Y74565780D01*
%LS0.668178637919299*
X406171052Y201465624D01*
%LS0.668178637919299*
X337493352Y367268260D01*
%LS1.02214381855212*
X464393196Y240368416D01*
%LS0.51415275066777*
X533070896Y74565780D01*
%LS0.999999999999999*
X533070896Y254029260D01*
%LS1.17958042710328*
X406171052Y380929104D01*
%LS0.847759065022574*
X337493352Y546731740D01*
%LS0.750944222991741*
X464393196Y419831896D01*
X533070896Y254029260D01*
%LS2.59000233610539*
X601748597Y419831896D01*
%LS0.51415275066777*
X474848753Y546731740D01*
%LS0.750944222991741*
X406171052Y712534376D01*
%LS2.53389228511323*
X533070896Y585634533D01*
%LS0.825615246470455*
X601748597Y419831896D01*
%LS1.21121794234669*
X601748597Y240368416D01*
%LS0.394649767030375*
X474848753Y367268260D01*
X406171052Y533070896D01*
X533070896Y406171052D01*
X601748597Y240368416D01*
%LS3.79223779587408*
X533070896Y74565780D01*
%LS1.76536686473018*
X367268260Y5888079D01*
%LS1.17958042710327*
X201465624Y74565780D01*
%LS1*
X74565780Y201465624D01*
%LS0.847759065022574*
X74565780Y380929104D01*
%LS0.566454497350522*
X201465624Y507828948D01*
%LS0.668178637919299*
X367268260Y576506648D01*
%LS1.02214381855212*
X240368416Y449606804D01*
%LS0.51415275066777*
X74565780Y380929104D01*
%LS4.26197262739566*
X143243480Y546731740D01*
%LS0.880008194821168*
X270143324Y673631584D01*
%LS0.952119174693712*
X435945960Y742309285D01*
%LS0.797470375771365*
X309046117Y615409441D01*
%LS0.93693973998399*
X143243480Y546731740D01*
%LS1.54582143051453*
X143243480Y367268260D01*
%LS0.504880156516252*
X270143324Y494168104D01*
%LS0.668178637919299*
X435945960Y562845804D01*
%LS0.847759065022574*
X309046117Y435945960D01*
%LS0.636619772367581*
X143243480Y367268260D01*
%LS4.47324947893433*
X74565780Y201465624D01*
%LS0.351153302357085*
X201465624Y328365467D01*
%LS2.84775906502257*
X201465624Y507828948D01*
X270143324Y673631584D01*
%LS0.731238897935309*
X270143324Y494168104D01*
X201465624Y328365467D01*
%LS0.305715595879677*
X367268260Y397043168D01*
%LS1.5707963267949*
X367268260Y576506648D01*
%LS1.43354550264948*
X435945960Y742309285D01*
%LS0.444087593446445*
X435945960Y562845804D01*
%LS1.04957255008645*
X367268260Y397043168D01*
%LS0.952768819952114*
X240368416Y270143324D01*
%LS3.79223779587408*
X240368416Y449606804D01*
%LS0.910819325038584*
X309046117Y615409441D01*
%LS0.749846479606538*
X309046117Y435945960D01*
%LS0.869423157834372*
X240368416Y270143324D01*
%LS0.69757116056086*
X74565780Y201465624D01*
%LS5.02733949212585*
X5888079Y367268260D01*
%LS1*
X5888079Y546731740D01*
%LS0.847759065022573*
X132787923Y673631584D01*
%LS0.847759065022573*
X298590559Y742309285D01*
%LS0.967750870201405*
X171690715Y615409441D01*
%LS0.814435271893994*
X5888079Y546731740D01*
%LS1.76536686473018*
X74565780Y712534376D01*
X201465624Y839434220D01*
X367268260Y908111921D01*
%LS0.847759065022574*
X240368416Y781212077D01*
%LS1*
X74565780Y712534376D01*
%LS1*
X74565780Y533070896D01*
%LS0.847759065022573*
X201465624Y659970740D01*
%LS0.880008194821168*
X367268260Y728648441D01*
%LS0.895639890328863*
X240368416Y601748597D01*
%LS0.847759065022573*
X74565780Y533070896D01*
%LS1.76536686473018*
X5888079Y367268260D01*
%LS0.668178637919299*
X132787923Y494168104D01*
%LS1.26876110206469*
X132787923Y673631584D01*
%LS1.17958042710327*
X201465624Y839434220D01*
%LS0.668178637919299*
X201465624Y659970740D01*
%LS1.2278446606008*
X132787923Y494168104D01*
%LS0.504880156516252*
X298590559Y562845804D01*
%LS1*
X298590559Y742309285D01*
%LS1.61312592975275*
X367268260Y908111921D01*
%LS0.351153302357085*
X367268260Y728648441D01*
%LS2.08239220029239*
X298590559Y562845804D01*
X171690715Y435945960D01*
%LS1.52688836745394*
X171690715Y615409441D01*
%LS1.13635305430675*
X240368416Y781212077D01*
%LS0.668178637919299*
X240368416Y601748597D01*
%LS1.17958042710327*
X171690715Y435945960D01*
%LS0.351153302357085*
X5888079Y367268260D01*
%LS4.26197262739567*
X132787923Y240368416D01*
%LS0.847759065022573*
X132787923Y419831896D01*
%LS0.626043119274964*
X259687767Y546731740D01*
%LS0.780454565784353*
X425490403Y615409441D01*
%LS0.847759065022574*
X298590559Y488509597D01*
%LS0.668178637919299*
X132787923Y419831896D01*
%LS3.17958042710327*
X201465624Y585634533D01*
%LS0.952119174693712*
X328365467Y712534376D01*
%LS1.05028868925121*
X494168104Y781212077D01*
%LS0.711406010715828*
X367268260Y654312233D01*
%LS1.06730449923822*
X201465624Y585634533D01*
%LS1.17958042710327*
X201465624Y406171052D01*
%LS0.566454497350522*
X328365467Y533070896D01*
%LS0.825615246470455*
X494168104Y601748597D01*
%LS0.636541122675884*
X367268260Y474848753D01*
%LS0.75094422299174*
X201465624Y406171052D01*
%LS3.79223779587408*
X132787923Y240368416D01*
%LS0.351153302357085*
X259687767Y367268260D01*
%LS2.59379398947637*
X259687767Y546731740D01*
%LS1.09791258541604*
X328365467Y712534376D01*
%LS0.59379398947637*
X328365467Y533070896D01*
%LS1.15018790446171*
X259687767Y367268260D01*
%LS0.386100037849275*
X425490403Y435945960D01*
X425490403Y615409441D01*
%LS1.5707963267949*
X494168104Y781212077D01*
%LS0.636619772367581*
X494168104Y601748597D01*
X425490403Y435945960D01*
X298590559Y309046117D01*
%LS2.77303178656359*
X298590559Y488509597D01*
%LS1*
X367268260Y654312233D01*
%LS0.566454497350522*
X367268260Y474848753D01*
%LS1*
X298590559Y309046117D01*
%LS0.847759065022571*
X132787923Y240368416D01*
%LS5.02733949212586*
X201465624Y74565780D01*
%LS0.668178637919299*
X201465624Y254029260D01*
%LS1.26876110206469*
X74565780Y380929104D01*
%LS1.17958042710327*
X5888079Y546731740D01*
%LS0.668178637919299*
X132787923Y419831896D01*
%LS1.2278446606008*
X201465624Y254029260D01*
%LS0.182067929752047*
X328365467Y380929104D01*
X494168104Y449606804D01*
X367268260Y322706961D01*
%LS1.57079632679489*
X201465624Y254029260D01*
%LS1.76536686473018*
X270143324Y419831896D01*
%LS0.668178637919299*
X397043168Y546731740D01*
%LS1*
X562845804Y615409441D01*
%LS0.539700182997224*
X435945960Y488509597D01*
X270143324Y419831896D01*
%LS2.77303178656359*
X143243480Y546731740D01*
%LS1.61312592975275*
X74565780Y712534376D01*
%LS0.351153302357084*
X201465624Y585634533D01*
%LS2.08239220029239*
X270143324Y419831896D01*
%LS1*
X270143324Y240368416D01*
%LS1.52688836745394*
X143243480Y367268260D01*
%LS1.13635305430675*
X74565780Y533070896D01*
%LS0.668178637919299*
X201465624Y406171052D01*
%LS1.17958042710328*
X270143324Y240368416D01*
%LS0.223551135412692*
X397043168Y367268260D01*
%LS1.04957255008645*
X562845804Y435945960D01*
%LS1.49660576266549*
X435945960Y309046117D01*
%LS1.43354550264948*
X270143324Y240368416D01*
%LS0.697571160560862*
X201465624Y74565780D01*
%LS0.999999999999999*
X328365467Y201465624D01*
%LS3.02733949212585*
X201465624Y328365467D01*
%LS1.05028868925121*
X132787923Y494168104D01*
%LS0.711406010715828*
X259687767Y367268260D01*
%LS1.06730449923822*
X328365467Y201465624D01*
%LS0.59379398947637*
X328365467Y380929104D01*
%LS1.12527012694845*
X201465624Y507828948D01*
%LS1.49660576266549*
X132787923Y673631584D01*
%LS0.351153302357085*
X259687767Y546731740D01*
%LS1.94494729183345*
X328365467Y380929104D01*
%LS0.606484521229011*
X397043168Y546731740D01*
%LS0.636619772367581*
X270143324Y673631584D01*
%LS1.5707963267949*
X201465624Y839434220D01*
%LS1*
X328365467Y712534376D01*
%LS0.636619772367581*
X397043168Y546731740D01*
%LS1.04957255008645*
X397043168Y367268260D01*
%LS1.76536686473018*
X270143324Y494168104D01*
%LS1.49660576266549*
X201465624Y659970740D01*
%LS0.360616133159882*
X328365467Y533070896D01*
%LS1.5707963267949*
X397043168Y367268260D01*
%LS0.636619772367581*
X328365467Y201465624D01*
%LS3.27101401916563*
X494168104Y270143324D01*
%LS0.566454497350522*
X367268260Y397043168D01*
%LS1*
X298590559Y562845804D01*
%LS0.539700182997224*
X425490403Y435945960D01*
X494168104Y270143324D01*
X494168104Y449606804D01*
X367268260Y576506648D01*
X298590559Y742309285D01*
%LS1.5707963267949*
X425490403Y615409441D01*
%LS0.636619772367581*
X494168104Y449606804D01*
X562845804Y615409441D01*
%LS3.27101401916564*
X435945960Y742309285D01*
%LS0.48021693505171*
X367268260Y908111921D01*
%LS2.84775906502257*
X494168104Y781212077D01*
%LS0.619914404421775*
X562845804Y615409441D01*
%LS0.668178637919299*
X562845804Y435945960D01*
%LS0.566454497350522*
X435945960Y562845804D01*
%LS0.952768819952114*
X367268260Y728648441D01*
%LS2.25180800985514*
X494168104Y601748597D01*
%LS0.697571160560861*
X562845804Y435945960D01*
%LS1.17958042710327*
X494168104Y270143324D01*
%LS1.49660576266549*
X367268260Y143243480D01*
%LS1.80108763262034*
X240368416Y270143324D01*
%LS0.952119174693711*
X171690715Y435945960D01*
%LS0.797470375771366*
X298590559Y309046117D01*
%LS0.936939739983989*
X367268260Y143243480D01*
%LS0.442091998766296*
X367268260Y322706961D01*
%LS1.76536686473018*
X240368416Y449606804D01*
%LS1.28130456767205*
X171690715Y615409441D01*
%LS0.442091998766295*
X298590559Y488509597D01*
%LS1.49660576266549*
X367268260Y322706961D01*
%LS0.425375732373064*
X435945960Y488509597D01*
X309046117Y615409441D01*
%LS1.33165682534453*
X240368416Y781212077D01*
%LS0.999999999999999*
X367268260Y654312233D01*
%LS0.750944222991742*
X435945960Y488509597D01*
X435945960Y309046117D01*
%LS2.09202010350334*
X309046117Y435945960D01*
%LS1.21121794234669*
X240368416Y601748597D01*
%LS0.394649767030375*
X367268260Y474848753D01*
%LS1.33165682534454*
X435945960Y309046117D01*
%LS0.750944222991741*
X367268260Y143243480D01*
%LS4.47324947893433*
X201465624Y74565780D01*
%LS1.49660576266549*
X380929104Y74565780D01*
%LS0.847759065022573*
X254029260Y201465624D01*
%LS0.626043119274964*
X254029260Y380929104D01*
%LS0.442091998766295*
X380929104Y507828948D01*
%LS0.847759065022573*
X546731740Y576506648D01*
%LS0.750944222991741*
X419831896Y449606804D01*
X254029260Y380929104D01*
%LS2.77303178656359*
X322706961Y546731740D01*
X449606804Y673631584D01*
%LS1.28130456767205*
X615409441Y742309285D01*
%LS0.442091998766296*
X488509597Y615409441D01*
%LS1.49660576266549*
X322706961Y546731740D01*
X322706961Y367268260D01*
%LS0.425375732373064*
X449606804Y494168104D01*
X615409441Y562845804D01*
X488509597Y435945960D01*
X322706961Y367268260D01*
%LS1.5707963267949*
X254029260Y201465624D01*
%LS0.636619772367581*
X380929104Y328365467D01*
%LS1.33165682534453*
X380929104Y507828948D01*
%LS1.17958042710327*
X449606804Y673631584D01*
%LS0.636619772367581*
X449606804Y494168104D01*
X380929104Y328365467D01*
%LS1.5707963267949*
X546731740Y397043168D01*
%LS1*
X546731740Y576506648D01*
%LS0.636619772367581*
X615409441Y742309285D01*
%LS2.77303178656359*
X615409441Y562845804D01*
%LS0.668178637919299*
X546731740Y397043168D01*
%LS1*
X419831896Y270143324D01*
%LS0.539700182997224*
X419831896Y449606804D01*
X488509597Y615409441D01*
X488509597Y435945960D01*
X419831896Y270143324D01*
%LS2.77303178656359*
X254029260Y201465624D01*
%LS1.80108763262034*
X185351559Y367268260D01*
%LS0.952119174693711*
X185351559Y546731740D01*
%LS0.940680446454596*
X312251403Y673631584D01*
X478054040Y742309285D01*
%LS0.731238897935309*
X351154196Y615409441D01*
X185351559Y546731740D01*
%LS1.52688836745394*
X254029260Y712534376D01*
%LS1.13635305430675*
X380929104Y839434220D01*
%LS1.17958042710327*
X546731740Y908111921D01*
%LS0.668178637919299*
X419831896Y781212077D01*
%LS1.2278446606008*
X254029260Y712534376D01*
%LS0.646905250671254*
X254029260Y533070896D01*
%LS0.9721215636068*
X380929104Y659970740D01*
%LS1.09791258541604*
X546731740Y728648441D01*
%LS0.59379398947637*
X419831896Y601748597D01*
%LS1.15018790446171*
X254029260Y533070896D01*
%LS1.46418315652043*
X185351559Y367268260D01*
%LS0.59379398947637*
X312251403Y494168104D01*
%LS1.12527012694845*
X312251403Y673631584D01*
%LS1.49660576266549*
X380929104Y839434220D01*
%LS0.351153302357085*
X380929104Y659970740D01*
%LS1.94494729183345*
X312251403Y494168104D01*
%LS0.606484521229011*
X478054040Y562845804D01*
%LS0.636619772367581*
X478054040Y742309285D01*
%LS1.5707963267949*
X546731740Y908111921D01*
%LS1*
X546731740Y728648441D01*
%LS0.636619772367581*
X478054040Y562845804D01*
%LS1.04957255008645*
X351154196Y435945960D01*
%LS1.76536686473018*
X351154196Y615409441D01*
%LS1.49660576266549*
X419831896Y781212077D01*
%LS0.360616133159882*
X419831896Y601748597D01*
%LS1.5707963267949*
X351154196Y435945960D01*
%LS0.636619772367581*
X185351559Y367268260D01*
%LS4.47324947893433*
X312251403Y240368416D01*
%LS0.566454497350522*
X312251403Y419831896D01*
%LS0.525538055886629*
X439151247Y546731740D01*
%LS1.17958042710327*
X604953883Y615409441D01*
%LS0.636619772367581*
X478054040Y488509597D01*
X312251403Y419831896D01*
%LS2.09202010350334*
X380929104Y585634533D01*
%LS1.21121794234669*
X507828948Y712534376D01*
%LS1.49660576266549*
X673631584Y781212077D01*
%LS0.351153302357085*
X546731740Y654312233D01*
%LS1.94494729183345*
X380929104Y585634533D01*
%LS0.51415275066777*
X380929104Y406171052D01*
%LS0.750944222991741*
X507828948Y533070896D01*
X673631584Y601748597D01*
X546731740Y474848753D01*
X380929104Y406171052D01*
X312251403Y240368416D01*
X439151247Y367268260D01*
X439151247Y546731740D01*
X507828948Y712534376D01*
X507828948Y533070896D01*
X439151247Y367268260D01*
%LS1.33165682534453*
X604953883Y435945960D01*
%LS1.94494729183345*
X604953883Y615409441D01*
%LS0.51415275066777*
X673631584Y781212077D01*
%LS2.84775906502257*
X673631584Y601748597D01*
%LS0.668178637919299*
X604953883Y435945960D01*
%LS0.825615246470455*
X478054040Y309046117D01*
%LS0.478006878770132*
X478054040Y488509597D01*
X546731740Y654312233D01*
%LS1.5707963267949*
X546731740Y474848753D01*
%LS0.847759065022573*
X478054040Y309046117D01*
%LS1.90281177318912*
X312251403Y240368416D01*
%LS1.49660576266549*
X380929104Y74565780D01*
%LS0.351153302357085*
X380929104Y254029260D01*
%LS2.59379398947637*
X254029260Y380929104D01*
%LS1.09791258541604*
X185351559Y546731740D01*
%LS0.59379398947637*
X312251403Y419831896D01*
%LS1.15018790446171*
X380929104Y254029260D01*
%LS0.606484521229011*
X507828948Y380929104D01*
X673631584Y449606804D01*
%LS1.76536686473018*
X546731740Y322706961D01*
%LS1*
X380929104Y254029260D01*
%LS0.360616133159882*
X449606804Y419831896D01*
X576506648Y546731740D01*
X742309285Y615409441D01*
%LS1.5707963267949*
X615409441Y488509597D01*
%LS0.636619772367582*
X449606804Y419831896D01*
X322706961Y546731740D01*
%LS1.5707963267949*
X254029260Y712534376D01*
%LS0.636619772367581*
X380929104Y585634533D01*
X449606804Y419831896D01*
X449606804Y240368416D01*
%LS2.77303178656359*
X322706961Y367268260D01*
X254029260Y533070896D01*
%LS0.566454497350521*
X380929104Y406171052D01*
%LS1*
X449606804Y240368416D01*
%LS1.64884669764292*
X576506648Y367268260D01*
%LS0.869423157834371*
X742309285Y435945960D01*
%LS1.68408575654637*
X615409441Y309046117D01*
%LS0.910819325038584*
X449606804Y240368416D01*
%LS0.385535630068245*
X380929104Y74565780D01*
%LS2.84775906502258*
X507828948Y201465624D01*
%LS0.668178637919299*
X380929104Y328365467D01*
%LS0.825615246470455*
X312251403Y494168104D01*
%LS0.636541122675884*
X439151247Y367268260D01*
%LS0.750944222991741*
X507828948Y201465624D01*
X507828948Y380929104D01*
X380929104Y507828948D01*
X312251403Y673631584D01*
X439151247Y546731740D01*
X507828948Y380929104D01*
%LS1.33165682534453*
X576506648Y546731740D01*
%LS1.94494729183345*
X449606804Y673631584D01*
%LS0.51415275066777*
X380929104Y839434220D01*
%LS2.84775906502257*
X507828948Y712534376D01*
%LS0.668178637919299*
X576506648Y546731740D01*
%LS0.825615246470455*
X576506648Y367268260D01*
%LS0.478006878770132*
X449606804Y494168104D01*
X380929104Y659970740D01*
%LS1.5707963267949*
X507828948Y533070896D01*
%LS0.847759065022573*
X576506648Y367268260D01*
%LS1.90281177318912*
X507828948Y201465624D01*
%LS1.76536686473018*
X673631584Y270143324D01*
%LS0.223551135412692*
X546731740Y397043168D01*
%LS1.04957255008645*
X478054040Y562845804D01*
%LS1.49660576266549*
X604953883Y435945960D01*
%LS1.43354550264948*
X673631584Y270143324D01*
%LS1.68408575654637*
X673631584Y449606804D01*
%LS0.682974664437786*
X546731740Y576506648D01*
%LS0.869423157834371*
X478054040Y742309285D01*
%LS1.68408575654637*
X604953883Y615409441D01*
%LS0.910819325038584*
X673631584Y449606804D01*
%LS1.02867793230485*
X742309285Y615409441D01*
%LS1.54582143051453*
X615409441Y742309285D01*
%LS0.814435271893994*
X546731740Y908111921D01*
%LS1.49660576266549*
X673631584Y781212077D01*
%LS0.847759065022573*
X742309285Y615409441D01*
%LS0.880008194821168*
X742309285Y435945960D01*
%LS0.654926726350979*
X615409441Y562845804D01*
%LS1*
X546731740Y728648441D01*
%LS1.36754212997086*
X673631584Y601748597D01*
X742309285Y435945960D01*
%LS1.06306026001601*
X673631584Y270143324D01*
%LS1.05028868925121*
X546731740Y143243480D01*
%LS0.5552200691896*
X419831896Y270143324D01*
%LS0.668178637919299*
X351154196Y435945960D01*
%LS0.847759065022573*
X478054040Y309046117D01*
%LS0.636619772367581*
X546731740Y143243480D01*
%LS1.5707963267949*
X546731740Y322706961D01*
%LS0.636619772367581*
X419831896Y449606804D01*
X351154196Y615409441D01*
X478054040Y488509597D01*
X546731740Y322706961D01*
%LS2.35086283465502*
X615409441Y488509597D01*
%LS1*
X488509597Y615409441D01*
%LS0.668178637919299*
X419831896Y781212077D01*
%LS2.26197262739567*
X546731740Y654312233D01*
%LS0.780454565784354*
X615409441Y488509597D01*
X615409441Y309046117D01*
%LS0.360616133159882*
X488509597Y435945960D01*
X419831896Y601748597D01*
%LS1.33165682534453*
X546731740Y474848753D01*
%LS1.17958042710327*
X615409441Y309046117D01*
%LS2.26197262739567*
X546731740Y143243480D01*
%LS1.59733406407872*
X380929104Y74565780D01*
%LS1.17958042710327*
X546731740Y5888079D01*
%LS0.668178637919299*
X419831896Y132787923D01*
%LS1.26876110206469*
X240368416Y132787923D01*
%LS1.17958042710327*
X74565780Y201465624D01*
%LS0.668178637919299*
X254029260Y201465624D01*
%LS1.2278446606008*
X419831896Y132787923D01*
%LS0.182067929752047*
X419831896Y312251403D01*
%LS1.33165682534454*
X546731740Y439151247D01*
%LS0.75094422299174*
X712534376Y507828948D01*
%LS2.53389228511323*
X585634533Y380929104D01*
%LS0.825615246470455*
X419831896Y312251403D01*
%LS0.478006878770131*
X488509597Y478054040D01*
X615409441Y604953883D01*
%LS1.33165682534453*
X781212077Y673631584D01*
%LS1*
X654312233Y546731740D01*
%LS0.75094422299174*
X488509597Y478054040D01*
X488509597Y298590559D01*
%LS2.35086283465503*
X615409441Y425490403D01*
%LS0.668178637919299*
X781212077Y494168104D01*
%LS2.26197262739567*
X654312233Y367268260D01*
%LS0.780454565784354*
X488509597Y298590559D01*
%LS0.566454497350522*
X419831896Y132787923D01*
%LS2.26197262739567*
X546731740Y259687767D01*
%LS0.442091998766296*
X546731740Y439151247D01*
%LS1*
X615409441Y604953883D01*
%LS1.76536686473018*
X615409441Y425490403D01*
%LS1*
X546731740Y259687767D01*
%LS1.36754212997086*
X712534376Y328365467D01*
%LS1.17958042710327*
X712534376Y507828948D01*
%LS0.847759065022573*
X781212077Y673631584D01*
%LS1.49660576266549*
X781212077Y494168104D01*
%LS0.880008194821168*
X712534376Y328365467D01*
%LS0.952119174693712*
X585634533Y201465624D01*
%LS0.473533115918499*
X585634533Y380929104D01*
%LS1.15018790446171*
X654312233Y546731740D01*
%LS1.3336063143548*
X654312233Y367268260D01*
%LS1.09791258541604*
X585634533Y201465624D01*
%LS1.31702533556221*
X419831896Y132787923D01*
%LS0.5552200691896*
X351154196Y298590559D01*
%LS0.668178637919299*
X351154196Y478054040D01*
%LS0.847759065022573*
X478054040Y604953883D01*
%LS1.43354550264948*
X643856676Y673631584D01*
%LS0.444087593446445*
X516956832Y546731740D01*
%LS1.04957255008645*
X351154196Y478054040D01*
%LS1.76536686473018*
X419831896Y643856676D01*
%LS1.49660576266549*
X546731740Y770756520D01*
%LS1.61312592975275*
X712534376Y839434220D01*
%LS0.351153302357084*
X585634533Y712534376D01*
%LS2.08239220029239*
X419831896Y643856676D01*
%LS0.305715595879677*
X419831896Y464393196D01*
X546731740Y591293039D01*
%LS1.57079632679489*
X712534376Y659970740D01*
%LS0.636619772367582*
X585634533Y533070896D01*
X419831896Y464393196D01*
X351154196Y298590559D01*
X478054040Y425490403D01*
X478054040Y604953883D01*
X546731740Y770756520D01*
%LS1.5707963267949*
X546731740Y591293039D01*
%LS0.636619772367581*
X478054040Y425490403D01*
X643856676Y494168104D01*
%LS3.27101401916564*
X643856676Y673631584D01*
%LS0.48021693505171*
X712534376Y839434220D01*
%LS2.84775906502257*
X712534376Y659970740D01*
%LS0.619914404421775*
X643856676Y494168104D01*
%LS0.668178637919299*
X516956832Y367268260D01*
%LS0.566454497350522*
X516956832Y546731740D01*
%LS0.952768819952113*
X585634533Y712534376D01*
%LS2.25180800985515*
X585634533Y533070896D01*
%LS0.697571160560862*
X516956832Y367268260D01*
%LS1.17958042710327*
X351154196Y298590559D01*
%LS1.49660576266549*
X171690715Y298590559D01*
%LS1.61312592975275*
X5888079Y367268260D01*
%LS0.351153302357085*
X185351559Y367268260D01*
%LS2.08239220029239*
X351154196Y298590559D01*
X478054040Y171690715D01*
%LS1.52688836745394*
X298590559Y171690715D01*
%LS1.13635305430675*
X132787923Y240368416D01*
%LS0.668178637919299*
X312251403Y240368416D01*
%LS1.17958042710327*
X478054040Y171690715D01*
%LS0.223551135412692*
X478054040Y351154196D01*
%LS1.5707963267949*
X604953883Y478054040D01*
%LS0.63661977236758*
X770756520Y546731740D01*
%LS2.77303178656359*
X643856676Y419831896D01*
%LS0.668178637919299*
X478054040Y351154196D01*
%LS0.566454497350522*
X546731740Y516956832D01*
%LS0.952768819952112*
X673631584Y643856676D01*
%LS1.57079632679489*
X839434220Y712534376D01*
%LS1*
X712534376Y585634533D01*
%LS0.636619772367581*
X546731740Y516956832D01*
%LS1.5707963267949*
X546731740Y337493352D01*
%LS1.64884669764292*
X673631584Y464393196D01*
%LS0.51415275066777*
X839434220Y533070896D01*
%LS2.84775906502257*
X712534376Y406171052D01*
%LS0.668178637919299*
X546731740Y337493352D01*
%LS0.888675506486466*
X478054040Y171690715D01*
%LS1.68408575654637*
X604953883Y298590559D01*
%LS0.682974664437786*
X604953883Y478054040D01*
%LS0.869423157834372*
X673631584Y643856676D01*
%LS1.68408575654637*
X673631584Y464393196D01*
%LS0.910819325038584*
X604953883Y298590559D01*
%LS1.02867793230485*
X770756520Y367268260D01*
%LS1.54582143051453*
X770756520Y546731740D01*
%LS0.814435271893994*
X839434220Y712534376D01*
%LS1.49660576266549*
X839434220Y533070896D01*
%LS0.847759065022574*
X770756520Y367268260D01*
%LS0.880008194821168*
X643856676Y240368416D01*
%LS0.654926726350978*
X643856676Y419831896D01*
%LS1*
X712534376Y585634533D01*
%LS1.36754212997086*
X712534376Y406171052D01*
X643856676Y240368416D01*
%LS1.06306026001601*
X478054040Y171690715D01*
%LS0.330323045235268*
X546731740Y5888079D01*
%LS1*
X546731740Y185351559D01*
%LS3.02733949212585*
X367268260Y185351559D01*
%LS1.05028868925121*
X201465624Y254029260D01*
%LS0.711406010715828*
X380929104Y254029260D01*
%LS1.06730449923822*
X546731740Y185351559D01*
%LS0.59379398947637*
X419831896Y312251403D01*
%LS1.12527012694845*
X240368416Y312251403D01*
%LS1.49660576266549*
X74565780Y380929104D01*
%LS0.351153302357085*
X254029260Y380929104D01*
%LS1.94494729183345*
X419831896Y312251403D01*
%LS0.606484521229011*
X351154196Y478054040D01*
%LS0.636619772367581*
X171690715Y478054040D01*
%LS1.5707963267949*
X5888079Y546731740D01*
%LS0.999999999999997*
X185351559Y546731740D01*
%LS0.636619772367583*
X351154196Y478054040D01*
%LS1.04957255008645*
X478054040Y351154196D01*
%LS1.76536686473018*
X298590559Y351154196D01*
%LS1.49660576266549*
X132787923Y419831896D01*
%LS0.360616133159881*
X312251403Y419831896D01*
%LS1.5707963267949*
X478054040Y351154196D01*
%LS0.63661977236758*
X546731740Y185351559D01*
%LS4.47324947893433*
X673631584Y312251403D01*
%LS0.847759065022574*
X839434220Y380929104D01*
%LS1.49660576266549*
X712534376Y254029260D01*
%LS0.880008194821168*
X546731740Y185351559D01*
%LS0.654926726350979*
X615409441Y351154196D01*
%LS1*
X742309285Y478054040D01*
%LS0.480216935051711*
X908111921Y546731740D01*
%LS2.84775906502257*
X781212077Y419831896D01*
%LS0.619914404421775*
X615409441Y351154196D01*
%LS0.668178637919299*
X435945960Y351154196D01*
%LS1*
X270143324Y419831896D01*
%LS0.539700182997224*
X449606804Y419831896D01*
X615409441Y351154196D01*
X488509597Y478054040D01*
X309046117Y478054040D01*
X143243480Y546731740D01*
%LS1.57079632679489*
X322706961Y546731740D01*
%LS0.636619772367582*
X488509597Y478054040D01*
X419831896Y643856676D01*
%LS3.27101401916563*
X240368416Y643856676D01*
%LS0.48021693505171*
X74565780Y712534376D01*
%LS2.84775906502258*
X254029260Y712534376D01*
%LS0.619914404421775*
X419831896Y643856676D01*
%LS0.668178637919299*
X546731740Y516956832D01*
%LS0.566454497350521*
X367268260Y516956832D01*
%LS0.952768819952117*
X201465624Y585634533D01*
%LS2.25180800985514*
X380929104Y585634533D01*
%LS0.697571160560861*
X546731740Y516956832D01*
%LS1.17958042710328*
X615409441Y351154196D01*
%LS1.49660576266549*
X615409441Y171690715D01*
%LS1.80108763262034*
X435945960Y171690715D01*
%LS0.952119174693711*
X270143324Y240368416D01*
%LS0.797470375771366*
X449606804Y240368416D01*
%LS0.936939739983989*
X615409441Y171690715D01*
%LS0.442091998766296*
X488509597Y298590559D01*
%LS1.76536686473018*
X309046117Y298590559D01*
%LS1.28130456767205*
X143243480Y367268260D01*
%LS0.442091998766296*
X322706961Y367268260D01*
%LS1.49660576266549*
X488509597Y298590559D01*
%LS0.425375732373064*
X419831896Y464393196D01*
X240368416Y464393196D01*
%LS1.33165682534454*
X74565780Y533070896D01*
%LS0.999999999999994*
X254029260Y533070896D01*
%LS0.750944222991744*
X419831896Y464393196D01*
X546731740Y337493352D01*
%LS2.09202010350335*
X367268260Y337493352D01*
%LS1.21121794234669*
X201465624Y406171052D01*
%LS0.394649767030375*
X380929104Y406171052D01*
%LS1.33165682534454*
X546731740Y337493352D01*
%LS0.750944222991739*
X615409441Y171690715D01*
%LS5.49245548824482*
X742309285Y298590559D01*
%LS0.814435271893994*
X908111921Y367268260D01*
%LS1.49660576266549*
X781212077Y240368416D01*
%LS0.847759065022574*
X615409441Y171690715D01*
%LS0.788170443098131*
X546731740Y5888079D01*
%LS1.49660576266549*
X673631584Y132787923D01*
%LS0.847759065022574*
X494168104Y132787923D01*
%LS0.880008194821168*
X328365467Y201465624D01*
%LS0.895639890328862*
X507828948Y201465624D01*
%LS0.847759065022574*
X673631584Y132787923D01*
%LS0.351153302357085*
X546731740Y259687767D01*
%LS2.59379398947637*
X367268260Y259687767D01*
%LS1.09791258541603*
X201465624Y328365467D01*
%LS0.593793989476371*
X380929104Y328365467D01*
%LS1.15018790446171*
X546731740Y259687767D01*
%LS0.386100037849274*
X478054040Y425490403D01*
X298590559Y425490403D01*
%LS1.5707963267949*
X132787923Y494168104D01*
%LS0.636619772367579*
X312251403Y494168104D01*
X478054040Y425490403D01*
X604953883Y298590559D01*
%LS2.7730317865636*
X425490403Y298590559D01*
%LS1*
X259687767Y367268260D01*
%LS0.566454497350523*
X439151247Y367268260D01*
%LS1*
X604953883Y298590559D01*
%LS0.847759065022569*
X673631584Y132787923D01*
%LS2.84775906502258*
X673631584Y312251403D01*
%LS0.6681786379193*
X494168104Y312251403D01*
%LS0.825615246470455*
X328365467Y380929104D01*
%LS0.636541122675884*
X507828948Y380929104D01*
%LS0.750944222991738*
X673631584Y312251403D01*
X546731740Y439151247D01*
X367268260Y439151247D01*
X201465624Y507828948D01*
X380929104Y507828948D01*
X546731740Y439151247D01*
%LS1.33165682534453*
X478054040Y604953883D01*
%LS1.94494729183345*
X298590559Y604953883D01*
%LS0.514152750667769*
X132787923Y673631584D01*
%LS2.84775906502258*
X312251403Y673631584D01*
%LS0.668178637919298*
X478054040Y604953883D01*
%LS0.825615246470455*
X604953883Y478054040D01*
%LS0.478006878770133*
X425490403Y478054040D01*
X259687767Y546731740D01*
%LS1.57079632679489*
X439151247Y546731740D01*
%LS0.847759065022573*
X604953883Y478054040D01*
%LS1.90281177318913*
X673631584Y312251403D01*
%LS1.76536686473018*
X742309285Y478054040D01*
%LS0.223551135412691*
X562845804Y478054040D01*
%LS1.04957255008645*
X397043168Y546731740D01*
%LS1.49660576266549*
X576506648Y546731740D01*
%LS1.43354550264948*
X742309285Y478054040D01*
%LS1.68408575654637*
X615409441Y604953883D01*
%LS0.682974664437784*
X435945960Y604953883D01*
%LS0.869423157834372*
X270143324Y673631584D01*
%LS1.68408575654637*
X449606804Y673631584D01*
%LS0.910819325038584*
X615409441Y604953883D01*
%LS1.02867793230485*
X546731740Y770756520D01*
%LS1.54582143051453*
X367268260Y770756520D01*
%LS0.814435271893994*
X201465624Y839434220D01*
%LS1.49660576266549*
X380929104Y839434220D01*
%LS0.847759065022573*
X546731740Y770756520D01*
%LS0.880008194821168*
X673631584Y643856676D01*
%LS0.654926726350978*
X494168104Y643856676D01*
X328365467Y712534376D01*
%LS1.36754212997086*
X507828948Y712534376D01*
%LS1*
X673631584Y643856676D01*
%LS1.06306026001601*
X742309285Y478054040D01*
%LS1.05028868925121*
X742309285Y298590559D01*
%LS0.555220069189602*
X562845804Y298590559D01*
%LS0.6681786379193*
X397043168Y367268260D01*
%LS0.847759065022575*
X576506648Y367268260D01*
%LS0.636619772367578*
X742309285Y298590559D01*
%LS1.57079632679489*
X615409441Y425490403D01*
%LS0.636619772367583*
X435945960Y425490403D01*
X270143324Y494168104D01*
X449606804Y494168104D01*
X615409441Y425490403D01*
%LS2.35086283465502*
X546731740Y591293039D01*
%LS0.999999999999998*
X367268260Y591293039D01*
%LS0.668178637919298*
X201465624Y659970740D01*
%LS2.26197262739567*
X380929104Y659970740D01*
%LS0.780454565784353*
X546731740Y591293039D01*
%LS1*
X673631584Y464393196D01*
%LS0.360616133159882*
X494168104Y464393196D01*
X328365467Y533070896D01*
%LS1.33165682534453*
X507828948Y533070896D01*
%LS1.17958042710328*
X673631584Y464393196D01*
%LS2.26197262739568*
X742309285Y298590559D01*
%LS1.59733406407873*
X673631584Y132787923D01*
%LS1.17958042710328*
X839434220Y201465624D01*
%LS0.668178637919299*
X659970740Y201465624D01*
%LS0.619914404421775*
X494168104Y270143324D01*
%LS1.17958042710327*
X673631584Y270143324D01*
%LS0.480216935051711*
X839434220Y201465624D01*
%LS0.999999999999993*
X712534376Y328365467D01*
%LS1.43354550264949*
X533070896Y328365467D01*
%LS0.697571160560862*
X367268260Y397043168D01*
%LS0.668178637919301*
X546731740Y397043168D01*
%LS0.952768819952108*
X712534376Y328365467D01*
%LS3.27101401916563*
X643856676Y494168104D01*
%LS0.305715595879677*
X464393196Y494168104D01*
X298590559Y562845804D01*
%LS1.85288060205297*
X478054040Y562845804D01*
%LS1*
X643856676Y494168104D01*
%LS1.49660576266549*
X770756520Y367268260D01*
%LS0.566454497350525*
X591293039Y367268260D01*
%LS0.636619772367578*
X425490403Y435945960D01*
X604953883Y435945960D01*
X770756520Y367268260D01*
%LS4.47324947893433*
X839434220Y201465624D01*
%LS1.49660576266549*
X839434220Y380929104D01*
%LS0.198912367379659*
X659970740Y380929104D01*
%LS0.750944222991737*
X494168104Y449606804D01*
X673631584Y449606804D01*
%LS1.33165682534453*
X839434220Y380929104D01*
%LS2.84775906502258*
X712534376Y507828948D01*
%LS0.263696543789525*
X533070896Y507828948D01*
%LS1.33165682534453*
X367268260Y576506648D01*
%LS1.57099041110842*
X546731740Y576506648D01*
%LS1.21121794234669*
X712534376Y507828948D01*
%LS1.76536686473018*
X643856676Y673631584D01*
%LS0.847759065022572*
X464393196Y673631584D01*
%LS0.936939739983989*
X298590559Y742309285D01*
%LS1.40566706625628*
X478054040Y742309285D01*
%LS0.952119174693711*
X643856676Y673631584D01*
%LS1.05028868925121*
X770756520Y546731740D01*
%LS0.314506905211716*
X591293039Y546731740D01*
%LS1.49660576266549*
X425490403Y615409441D01*
%LS1.17958042710327*
X604953883Y615409441D01*
%LS1.28130456767205*
X770756520Y546731740D01*
%LS1.59733406407873*
X839434220Y380929104D01*
%LS1.17958042710328*
X908111921Y546731740D01*
%LS0.234633135269819*
X728648441Y546731740D01*
%LS2.0823922002924*
X562845804Y615409441D01*
%LS0.847759065022573*
X742309285Y615409441D01*
%LS1.61312592975275*
X908111921Y546731740D01*
%LS1.49660576266549*
X781212077Y673631584D01*
%LS0.566454497350521*
X601748597Y673631584D01*
%LS1.17958042710328*
X435945960Y742309285D01*
%LS1.11652016708726*
X615409441Y742309285D01*
%LS1.13635305430675*
X781212077Y673631584D01*
%LS1.17958042710328*
X712534376Y839434220D01*
%LS0.999999999999999*
X533070896Y839434220D01*
%LS1*
X367268260Y908111921D01*
%LS1.17958042710327*
X546731740Y908111921D01*
X712534376Y839434220D01*
%LS1*
X839434220Y712534376D01*
%LS0.566454497350521*
X659970740Y712534376D01*
%LS1.2278446606008*
X494168104Y781212077D01*
%LS1.03332379312858*
X673631584Y781212077D01*
%LS1.17958042710327*
X839434220Y712534376D01*
%LS1.17958042710328*
X908111921Y546731740D01*
%LS1*
X908111921Y367268260D01*
%LS0.198912367379659*
X728648441Y367268260D01*
%LS0.636619772367579*
X562845804Y435945960D01*
X742309285Y435945960D01*
%LS1.57079632679489*
X908111921Y367268260D01*
%LS2.84775906502258*
X781212077Y494168104D01*
%LS0.223551135412692*
X601748597Y494168104D01*
%LS1.57079632679489*
X435945960Y562845804D01*
%LS1.17958042710327*
X615409441Y562845804D01*
%LS1.49660576266549*
X781212077Y494168104D01*
%LS1.98066805972362*
X712534376Y659970740D01*
%LS0.646905250671253*
X533070896Y659970740D01*
%LS1.06730449923822*
X367268260Y728648441D01*
%LS1.2539650755462*
X546731740Y728648441D01*
%LS1.05028868925121*
X712534376Y659970740D01*
%LS1.13635305430675*
X839434220Y533070896D01*
%LS0.23463313526982*
X659970740Y533070896D01*
%LS1.94494729183346*
X494168104Y601748597D01*
%LS0.978335907188202*
X673631584Y601748597D01*
%LS1.49660576266549*
X839434220Y533070896D01*
%LS1.76536686473018*
X908111921Y367268260D01*
%LS1.17958042710328*
X839434220Y201465624D01*
%LS1*
X712534376Y74565780D01*
%LS0.847759065022574*
X533070896Y74565780D01*
%LS0.847759065022573*
X367268260Y143243480D01*
%LS0.967750870201406*
X546731740Y143243480D01*
%LS0.814435271893994*
X712534376Y74565780D01*
%LS0.351153302357085*
X585634533Y201465624D01*
%LS2.84775906502257*
X406171052Y201465624D01*
%LS1*
X240368416Y270143324D01*
%LS0.73123889793531*
X419831896Y270143324D01*
%LS1*
X585634533Y201465624D01*
%LS0.305715595879677*
X516956832Y367268260D01*
%LS1.5707963267949*
X337493352Y367268260D01*
%LS1.43354550264948*
X171690715Y435945960D01*
%LS0.444087593446444*
X351154196Y435945960D01*
%LS1.04957255008646*
X516956832Y367268260D01*
%LS0.95276881995211*
X643856676Y240368416D01*
%LS3.79223779587408*
X464393196Y240368416D01*
%LS0.910819325038584*
X298590559Y309046117D01*
%LS0.749846479606539*
X478054040Y309046117D01*
%LS0.869423157834371*
X643856676Y240368416D01*
%LS0.697571160560859*
X712534376Y74565780D01*
%LS2.84775906502258*
X712534376Y254029260D01*
%LS0.794299157951321*
X533070896Y254029260D01*
%LS0.780454565784353*
X367268260Y322706961D01*
%LS0.847759065022574*
X546731740Y322706961D01*
%LS0.668178637919299*
X712534376Y254029260D01*
%LS0.636619772367579*
X585634533Y380929104D01*
%LS1.33165682534454*
X406171052Y380929104D01*
%LS1.17958042710327*
X240368416Y449606804D01*
%LS0.636619772367579*
X419831896Y449606804D01*
X585634533Y380929104D01*
%LS1.5707963267949*
X516956832Y546731740D01*
%LS0.999999999999997*
X337493352Y546731740D01*
%LS0.636619772367584*
X171690715Y615409441D01*
%LS2.77303178656358*
X351154196Y615409441D01*
%LS0.668178637919298*
X516956832Y546731740D01*
%LS1*
X643856676Y419831896D01*
%LS0.539700182997226*
X464393196Y419831896D01*
X298590559Y488509597D01*
X478054040Y488509597D01*
X643856676Y419831896D01*
%LS2.77303178656359*
X712534376Y254029260D01*
%LS1.98066805972362*
X781212077Y419831896D01*
%LS0.182067929752046*
X601748597Y419831896D01*
X435945960Y488509597D01*
X615409441Y488509597D01*
%LS1.57079632679489*
X781212077Y419831896D01*
%LS2.26197262739567*
X654312233Y546731740D01*
%LS0.442091998766294*
X474848753Y546731740D01*
%LS1*
X309046117Y615409441D01*
%LS1.76536686473018*
X488509597Y615409441D01*
%LS1*
X654312233Y546731740D01*
%LS1.36754212997087*
X585634533Y712534376D01*
%LS1.17958042710327*
X406171052Y712534376D01*
%LS0.847759065022573*
X240368416Y781212077D01*
%LS1.49660576266549*
X419831896Y781212077D01*
%LS0.880008194821168*
X585634533Y712534376D01*
%LS0.952119174693712*
X712534376Y585634533D01*
%LS0.473533115918498*
X533070896Y585634533D01*
%LS1.15018790446171*
X367268260Y654312233D01*
%LS1.3336063143548*
X546731740Y654312233D01*
%LS1.09791258541604*
X712534376Y585634533D01*
%LS1.31702533556222*
X781212077Y419831896D01*
%LS1.13635305430675*
X781212077Y240368416D01*
%LS0.6681786379193*
X601748597Y240368416D01*
%LS0.668178637919299*
X435945960Y309046117D01*
%LS1.02214381855212*
X615409441Y309046117D01*
%LS0.51415275066777*
X781212077Y240368416D01*
%LS0.999999999999994*
X654312233Y367268260D01*
%LS1.17958042710328*
X474848753Y367268260D01*
%LS0.847759065022573*
X309046117Y435945960D01*
%LS0.750944222991738*
X488509597Y435945960D01*
X654312233Y367268260D01*
%LS2.59000233610539*
X585634533Y533070896D01*
%LS0.514152750667768*
X406171052Y533070896D01*
%LS0.750944222991745*
X240368416Y601748597D01*
%LS2.53389228511322*
X419831896Y601748597D01*
%LS0.825615246470455*
X585634533Y533070896D01*
%LS1.21121794234669*
X712534376Y406171052D01*
%LS0.394649767030376*
X533070896Y406171052D01*
X367268260Y474848753D01*
X546731740Y474848753D01*
X712534376Y406171052D01*
%LS3.79223779587408*
X781212077Y240368416D01*
%LS1.76536686473018*
X712534376Y74565780D01*
%LS1.17958042710327*
X546731740Y5888079D01*
M02*
