<?xml version="1.0" standalone="no"?>
<svg width="12984.6733046345" height="12984.6733046345" version="1.1" xmlns="http://www.w3.org/2000/svg">
<polyline points="
8471.5400240788 400.975018324892
5269.12169792018 2727.66812474287
6492.33665231723 6492.33665231723
9694.75497847584 8819.0297587352
8471.5400240788 5054.36123116084
5269.12169792018 2727.66812474287
4045.90674352314 6492.33665231723
5269.12169792018 10257.0051798916
8471.5400240788 12583.6982863096
7248.32506968175 8819.0297587352
4045.90674352314 6492.33665231723
7248.32506968175 4165.64354589925
8471.5400240788 7930.31207347361
11673.9583502374 10257.0051798916
10450.7433958404 6492.33665231723
7248.32506968175 4165.64354589925
8471.5400240788 400.975018324892
9694.75497847584 4165.64354589925
6492.33665231723 6492.33665231723
5269.12169792018 10257.0051798916
8471.5400240788 7930.31207347361
9694.75497847584 4165.64354589925
12897.1733046345 6492.33665231723
9694.75497847584 8819.0297587352
8471.5400240788 12583.6982863096
11673.9583502374 10257.0051798916
12897.1733046345 6492.33665231723
11673.9583502374 2727.66812474287
8471.5400240788 5054.36123116084
7248.32506968175 8819.0297587352
10450.7433958404 6492.33665231723
11673.9583502374 2727.66812474287
8471.5400240788 400.975018324892
4513.13328055566 400.975018324893
1310.71495439704 2727.66812474287
2533.92990879409 6492.33665231723
5736.3482349527 8819.02975873521
4513.13328055566 5054.36123116084
1310.71495439704 2727.66812474287
87.5 6492.33665231723
1310.71495439704 10257.0051798916
4513.13328055566 12583.6982863096
3289.91832615861 8819.02975873521
87.4999999999991 6492.33665231723
3289.91832615861 4165.64354589925
4513.13328055566 7930.31207347361
7715.55160671427 10257.0051798916
6492.33665231723 6492.33665231723
3289.91832615861 4165.64354589925
4513.13328055566 400.975018324893
5736.3482349527 4165.64354589925
2533.92990879409 6492.33665231723
1310.71495439704 10257.0051798916
4513.13328055566 7930.31207347361
5736.3482349527 4165.64354589925
8938.76656111132 6492.33665231723
5736.3482349527 8819.02975873521
4513.13328055566 12583.6982863096
7715.55160671427 10257.0051798916
8938.76656111132 6492.33665231723
7715.55160671427 2727.66812474287
4513.13328055566 5054.36123116084
3289.91832615861 8819.02975873521
6492.33665231723 6492.33665231723
7715.55160671427 2727.66812474287
4513.13328055566 400.975018324893
1310.71495439704 2727.66812474287
2533.92990879409 6492.33665231723
5736.3482349527 8819.02975873521
4513.13328055566 5054.36123116084
1310.71495439704 2727.66812474287
87.5 6492.33665231723
1310.71495439704 10257.0051798916
4513.13328055566 12583.6982863096
3289.91832615861 8819.02975873521
87.4999999999991 6492.33665231723
3289.91832615861 4165.64354589925
4513.13328055566 7930.31207347361
7715.55160671427 10257.0051798916
6492.33665231723 6492.33665231723
3289.91832615861 4165.64354589925
4513.13328055566 400.975018324893
5736.3482349527 4165.64354589925
2533.92990879409 6492.33665231723
1310.71495439704 10257.0051798916
4513.13328055566 7930.31207347361
5736.3482349527 4165.64354589925
8938.76656111132 6492.33665231723
5736.3482349527 8819.02975873521
4513.13328055566 12583.6982863096
7715.55160671427 10257.0051798916
8938.76656111132 6492.33665231723
7715.55160671427 2727.66812474287
4513.13328055566 5054.36123116084
3289.91832615861 8819.02975873521
6492.33665231723 6492.33665231723
7715.55160671427 2727.66812474287
4513.13328055566 400.975018324893
8471.5400240788 400.975018324892
5269.12169792018 2727.66812474287
1310.71495439704 2727.66812474287
5269.12169792018 2727.66812474287
6492.33665231723 6492.33665231723
9694.75497847584 8819.0297587352
8471.5400240788 5054.36123116084
5269.12169792018 2727.66812474287
4045.90674352314 6492.33665231723
5269.12169792018 10257.0051798916
8471.5400240788 12583.6982863096
7248.32506968175 8819.0297587352
4045.90674352314 6492.33665231723
87.5 6492.33665231723
4045.90674352314 6492.33665231723
7248.32506968175 4165.64354589925
3289.91832615861 4165.64354589925
7248.32506968175 4165.64354589925
8471.5400240788 7930.31207347361
11673.9583502374 10257.0051798916
10450.7433958404 6492.33665231723
7248.32506968175 4165.64354589925
8471.5400240788 400.975018324892
9694.75497847584 4165.64354589925
5736.3482349527 4165.64354589925
9694.75497847584 4165.64354589925
6492.33665231723 6492.33665231723
2533.92990879409 6492.33665231723
6492.33665231723 6492.33665231723
5269.12169792018 10257.0051798916
1310.71495439704 10257.0051798916
5269.12169792018 10257.0051798916
8471.5400240788 7930.31207347361
4513.13328055566 7930.31207347361
8471.5400240788 7930.31207347361
9694.75497847584 4165.64354589925
12897.1733046345 6492.33665231723
8938.76656111132 6492.33665231723
12897.1733046345 6492.33665231723
9694.75497847584 8819.0297587352
5736.3482349527 8819.0297587352
9694.75497847584 8819.0297587352
8471.5400240788 12583.6982863096
4513.13328055566 12583.6982863096
8471.5400240788 12583.6982863096
11673.9583502374 10257.0051798916
7715.55160671427 10257.0051798916
11673.9583502374 10257.0051798916
12897.1733046345 6492.33665231723
11673.9583502374 2727.66812474287
7715.55160671427 2727.66812474287
11673.9583502374 2727.66812474287
8471.5400240788 5054.36123116084
4513.13328055566 5054.36123116084
8471.5400240788 5054.36123116084
7248.32506968175 8819.0297587352
3289.91832615861 8819.02975873521
7248.32506968175 8819.0297587352
10450.7433958404 6492.33665231723
6492.33665231723 6492.33665231723
10450.7433958404 6492.33665231723
11673.9583502374 2727.66812474287
8471.5400240788 400.975018324892
"
stroke="green"
id="polyline2"
style="fill:#ff0000;fill-opacity:1;fill-rule:evenodd"
/>
</svg>
