%MOMM*%
%FSLAX36Y36*%
%ADD10C,3.14159265358979*%
D10*
G01*
%LPD*%
%LS1.25663706143592*%
X600833616Y15141184D02*
X368429543Y183992627D01*
X457200000Y457200000D01*
X689604073Y626051443D01*
X600833616Y352844069D01*
X368429543Y183992627D01*
X279659087Y457200000D01*
X368429543Y730407373D01*
X600833616Y899258816D01*
X512063159Y626051443D01*
X279659087Y457200000D01*
X512063159Y288348557D01*
X600833616Y561555931D01*
X833237689Y730407373D01*
X744467232Y457200000D01*
X512063159Y288348557D01*
X600833616Y15141184D01*
X689604073Y288348557D01*
X457200000Y457200000D01*
X368429543Y730407373D01*
X600833616Y561555931D01*
X689604073Y288348557D01*
X922008146Y457200000D01*
X689604073Y626051443D01*
X600833616Y899258816D01*
X833237689Y730407373D01*
X922008146Y457200000D01*
X833237689Y183992627D01*
X600833616Y352844069D01*
X512063159Y626051443D01*
X744467232Y457200000D01*
X833237689Y183992627D01*
X600833616Y15141184D01*
X313566384Y15141184D01*
X81162311Y183992627D01*
X169932768Y457200000D01*
X402336841Y626051443D01*
X313566384Y352844069D01*
X81162311Y183992627D01*
X-7608145Y457200000D01*
X81162311Y730407373D01*
X313566384Y899258816D01*
X224795927Y626051443D01*
X-7608145Y457200000D01*
X224795927Y288348557D01*
X313566384Y561555931D01*
X545970457Y730407373D01*
X457200000Y457200000D01*
X224795927Y288348557D01*
X313566384Y15141184D01*
X402336841Y288348557D01*
X169932768Y457200000D01*
X81162311Y730407373D01*
X313566384Y561555931D01*
X402336841Y288348557D01*
X634740913Y457200000D01*
X402336841Y626051443D01*
X313566384Y899258816D01*
X545970457Y730407373D01*
X634740913Y457200000D01*
X545970457Y183992627D01*
X313566384Y352844069D01*
X224795927Y626051443D01*
X457200000Y457200000D01*
X545970457Y183992627D01*
X313566384Y15141184D01*
X81162311Y183992627D01*
X169932768Y457200000D01*
X402336841Y626051443D01*
X313566384Y352844069D01*
X81162311Y183992627D01*
X-7608145Y457200000D01*
X81162311Y730407373D01*
X313566384Y899258816D01*
X224795927Y626051443D01*
X-7608145Y457200000D01*
X224795927Y288348557D01*
X313566384Y561555931D01*
X545970457Y730407373D01*
X457200000Y457200000D01*
X224795927Y288348557D01*
X313566384Y15141184D01*
X402336841Y288348557D01*
X169932768Y457200000D01*
X81162311Y730407373D01*
X313566384Y561555931D01*
X402336841Y288348557D01*
X634740913Y457200000D01*
X402336841Y626051443D01*
X313566384Y899258816D01*
X545970457Y730407373D01*
X634740913Y457200000D01*
X545970457Y183992627D01*
X313566384Y352844069D01*
X224795927Y626051443D01*
X457200000Y457200000D01*
X545970457Y183992627D01*
X313566384Y15141184D01*
X600833616Y15141184D01*
X368429543Y183992627D01*
X81162311Y183992627D01*
X368429543Y183992627D01*
X457200000Y457200000D01*
X689604073Y626051443D01*
X600833616Y352844069D01*
X368429543Y183992627D01*
X279659087Y457200000D01*
X368429543Y730407373D01*
X600833616Y899258816D01*
X512063159Y626051443D01*
X279659087Y457200000D01*
X-7608145Y457200000D01*
X279659087Y457200000D01*
X512063159Y288348557D01*
X224795927Y288348557D01*
X512063159Y288348557D01*
X600833616Y561555931D01*
X833237689Y730407373D01*
X744467232Y457200000D01*
X512063159Y288348557D01*
X600833616Y15141184D01*
X689604073Y288348557D01*
X402336841Y288348557D01*
X689604073Y288348557D01*
X457200000Y457200000D01*
X169932768Y457200000D01*
X457200000Y457200000D01*
X368429543Y730407373D01*
X81162311Y730407373D01*
X368429543Y730407373D01*
X600833616Y561555931D01*
X313566384Y561555931D01*
X600833616Y561555931D01*
X689604073Y288348557D01*
X922008146Y457200000D01*
X634740913Y457200000D01*
X922008146Y457200000D01*
X689604073Y626051443D01*
X402336841Y626051443D01*
X689604073Y626051443D01*
X600833616Y899258816D01*
X313566384Y899258816D01*
X600833616Y899258816D01*
X833237689Y730407373D01*
X545970457Y730407373D01*
X833237689Y730407373D01*
X922008146Y457200000D01*
X833237689Y183992627D01*
X545970457Y183992627D01*
X833237689Y183992627D01*
X600833616Y352844069D01*
X313566384Y352844069D01*
X600833616Y352844069D01*
X512063159Y626051443D01*
X224795927Y626051443D01*
X512063159Y626051443D01*
X744467232Y457200000D01*
X457200000Y457200000D01*
X744467232Y457200000D01*
X833237689Y183992627D01*
X600833616Y15141184D01*
%LPC*%
%LS1.15191730631626*%
X600833616Y15141184D02*
X368429543Y183992627D01*
X457200000Y457200000D01*
X689604073Y626051443D01*
X600833616Y352844069D01*
X368429543Y183992627D01*
X279659087Y457200000D01*
X368429543Y730407373D01*
X600833616Y899258816D01*
X512063159Y626051443D01*
X279659087Y457200000D01*
X512063159Y288348557D01*
X600833616Y561555931D01*
X833237689Y730407373D01*
X744467232Y457200000D01*
X512063159Y288348557D01*
X600833616Y15141184D01*
X689604073Y288348557D01*
X457200000Y457200000D01*
X368429543Y730407373D01*
X600833616Y561555931D01*
X689604073Y288348557D01*
X922008146Y457200000D01*
X689604073Y626051443D01*
X600833616Y899258816D01*
X833237689Y730407373D01*
X922008146Y457200000D01*
X833237689Y183992627D01*
X600833616Y352844069D01*
X512063159Y626051443D01*
X744467232Y457200000D01*
X833237689Y183992627D01*
X600833616Y15141184D01*
X313566384Y15141184D01*
X81162311Y183992627D01*
X169932768Y457200000D01*
X402336841Y626051443D01*
X313566384Y352844069D01*
X81162311Y183992627D01*
X-7608145Y457200000D01*
X81162311Y730407373D01*
X313566384Y899258816D01*
X224795927Y626051443D01*
X-7608145Y457200000D01*
X224795927Y288348557D01*
X313566384Y561555931D01*
X545970457Y730407373D01*
X457200000Y457200000D01*
X224795927Y288348557D01*
X313566384Y15141184D01*
X402336841Y288348557D01*
X169932768Y457200000D01*
X81162311Y730407373D01*
X313566384Y561555931D01*
X402336841Y288348557D01*
X634740913Y457200000D01*
X402336841Y626051443D01*
X313566384Y899258816D01*
X545970457Y730407373D01*
X634740913Y457200000D01*
X545970457Y183992627D01*
X313566384Y352844069D01*
X224795927Y626051443D01*
X457200000Y457200000D01*
X545970457Y183992627D01*
X313566384Y15141184D01*
X81162311Y183992627D01*
X169932768Y457200000D01*
X402336841Y626051443D01*
X313566384Y352844069D01*
X81162311Y183992627D01*
X-7608145Y457200000D01*
X81162311Y730407373D01*
X313566384Y899258816D01*
X224795927Y626051443D01*
X-7608145Y457200000D01*
X224795927Y288348557D01*
X313566384Y561555931D01*
X545970457Y730407373D01*
X457200000Y457200000D01*
X224795927Y288348557D01*
X313566384Y15141184D01*
X402336841Y288348557D01*
X169932768Y457200000D01*
X81162311Y730407373D01*
X313566384Y561555931D01*
X402336841Y288348557D01*
X634740913Y457200000D01*
X402336841Y626051443D01*
X313566384Y899258816D01*
X545970457Y730407373D01*
X634740913Y457200000D01*
X545970457Y183992627D01*
X313566384Y352844069D01*
X224795927Y626051443D01*
X457200000Y457200000D01*
X545970457Y183992627D01*
X313566384Y15141184D01*
X600833616Y15141184D01*
X368429543Y183992627D01*
X81162311Y183992627D01*
X368429543Y183992627D01*
X457200000Y457200000D01*
X689604073Y626051443D01*
X600833616Y352844069D01*
X368429543Y183992627D01*
X279659087Y457200000D01*
X368429543Y730407373D01*
X600833616Y899258816D01*
X512063159Y626051443D01*
X279659087Y457200000D01*
X-7608145Y457200000D01*
X279659087Y457200000D01*
X512063159Y288348557D01*
X224795927Y288348557D01*
X512063159Y288348557D01*
X600833616Y561555931D01*
X833237689Y730407373D01*
X744467232Y457200000D01*
X512063159Y288348557D01*
X600833616Y15141184D01*
X689604073Y288348557D01*
X402336841Y288348557D01*
X689604073Y288348557D01*
X457200000Y457200000D01*
X169932768Y457200000D01*
X457200000Y457200000D01*
X368429543Y730407373D01*
X81162311Y730407373D01*
X368429543Y730407373D01*
X600833616Y561555931D01*
X313566384Y561555931D01*
X600833616Y561555931D01*
X689604073Y288348557D01*
X922008146Y457200000D01*
X634740913Y457200000D01*
X922008146Y457200000D01*
X689604073Y626051443D01*
X402336841Y626051443D01*
X689604073Y626051443D01*
X600833616Y899258816D01*
X313566384Y899258816D01*
X600833616Y899258816D01*
X833237689Y730407373D01*
X545970457Y730407373D01*
X833237689Y730407373D01*
X922008146Y457200000D01*
X833237689Y183992627D01*
X545970457Y183992627D01*
X833237689Y183992627D01*
X600833616Y352844069D01*
X313566384Y352844069D01*
X600833616Y352844069D01*
X512063159Y626051443D01*
X224795927Y626051443D01*
X512063159Y626051443D01*
X744467232Y457200000D01*
X457200000Y457200000D01*
X744467232Y457200000D01*
X833237689Y183992627D01*
X600833616Y15141184D01*
%LPD*%
%LS1.0471975511966*%
X600833616Y15141184D02*
X368429543Y183992627D01*
X457200000Y457200000D01*
X689604073Y626051443D01*
X600833616Y352844069D01*
X368429543Y183992627D01*
X279659087Y457200000D01*
X368429543Y730407373D01*
X600833616Y899258816D01*
X512063159Y626051443D01*
X279659087Y457200000D01*
X512063159Y288348557D01*
X600833616Y561555931D01*
X833237689Y730407373D01*
X744467232Y457200000D01*
X512063159Y288348557D01*
X600833616Y15141184D01*
X689604073Y288348557D01*
X457200000Y457200000D01*
X368429543Y730407373D01*
X600833616Y561555931D01*
X689604073Y288348557D01*
X922008146Y457200000D01*
X689604073Y626051443D01*
X600833616Y899258816D01*
X833237689Y730407373D01*
X922008146Y457200000D01*
X833237689Y183992627D01*
X600833616Y352844069D01*
X512063159Y626051443D01*
X744467232Y457200000D01*
X833237689Y183992627D01*
X600833616Y15141184D01*
X313566384Y15141184D01*
X81162311Y183992627D01*
X169932768Y457200000D01*
X402336841Y626051443D01*
X313566384Y352844069D01*
X81162311Y183992627D01*
X-7608145Y457200000D01*
X81162311Y730407373D01*
X313566384Y899258816D01*
X224795927Y626051443D01*
X-7608145Y457200000D01*
X224795927Y288348557D01*
X313566384Y561555931D01*
X545970457Y730407373D01*
X457200000Y457200000D01*
X224795927Y288348557D01*
X313566384Y15141184D01*
X402336841Y288348557D01*
X169932768Y457200000D01*
X81162311Y730407373D01*
X313566384Y561555931D01*
X402336841Y288348557D01*
X634740913Y457200000D01*
X402336841Y626051443D01*
X313566384Y899258816D01*
X545970457Y730407373D01*
X634740913Y457200000D01*
X545970457Y183992627D01*
X313566384Y352844069D01*
X224795927Y626051443D01*
X457200000Y457200000D01*
X545970457Y183992627D01*
X313566384Y15141184D01*
X81162311Y183992627D01*
X169932768Y457200000D01*
X402336841Y626051443D01*
X313566384Y352844069D01*
X81162311Y183992627D01*
X-7608145Y457200000D01*
X81162311Y730407373D01*
X313566384Y899258816D01*
X224795927Y626051443D01*
X-7608145Y457200000D01*
X224795927Y288348557D01*
X313566384Y561555931D01*
X545970457Y730407373D01*
X457200000Y457200000D01*
X224795927Y288348557D01*
X313566384Y15141184D01*
X402336841Y288348557D01*
X169932768Y457200000D01*
X81162311Y730407373D01*
X313566384Y561555931D01*
X402336841Y288348557D01*
X634740913Y457200000D01*
X402336841Y626051443D01*
X313566384Y899258816D01*
X545970457Y730407373D01*
X634740913Y457200000D01*
X545970457Y183992627D01*
X313566384Y352844069D01*
X224795927Y626051443D01*
X457200000Y457200000D01*
X545970457Y183992627D01*
X313566384Y15141184D01*
X600833616Y15141184D01*
X368429543Y183992627D01*
X81162311Y183992627D01*
X368429543Y183992627D01*
X457200000Y457200000D01*
X689604073Y626051443D01*
X600833616Y352844069D01*
X368429543Y183992627D01*
X279659087Y457200000D01*
X368429543Y730407373D01*
X600833616Y899258816D01*
X512063159Y626051443D01*
X279659087Y457200000D01*
X-7608145Y457200000D01*
X279659087Y457200000D01*
X512063159Y288348557D01*
X224795927Y288348557D01*
X512063159Y288348557D01*
X600833616Y561555931D01*
X833237689Y730407373D01*
X744467232Y457200000D01*
X512063159Y288348557D01*
X600833616Y15141184D01*
X689604073Y288348557D01*
X402336841Y288348557D01*
X689604073Y288348557D01*
X457200000Y457200000D01*
X169932768Y457200000D01*
X457200000Y457200000D01*
X368429543Y730407373D01*
X81162311Y730407373D01*
X368429543Y730407373D01*
X600833616Y561555931D01*
X313566384Y561555931D01*
X600833616Y561555931D01*
X689604073Y288348557D01*
X922008146Y457200000D01*
X634740913Y457200000D01*
X922008146Y457200000D01*
X689604073Y626051443D01*
X402336841Y626051443D01*
X689604073Y626051443D01*
X600833616Y899258816D01*
X313566384Y899258816D01*
X600833616Y899258816D01*
X833237689Y730407373D01*
X545970457Y730407373D01*
X833237689Y730407373D01*
X922008146Y457200000D01*
X833237689Y183992627D01*
X545970457Y183992627D01*
X833237689Y183992627D01*
X600833616Y352844069D01*
X313566384Y352844069D01*
X600833616Y352844069D01*
X512063159Y626051443D01*
X224795927Y626051443D01*
X512063159Y626051443D01*
X744467232Y457200000D01*
X457200000Y457200000D01*
X744467232Y457200000D01*
X833237689Y183992627D01*
X600833616Y15141184D01*
%LPC*%
%LS0.942477796076938*%
X600833616Y15141184D02*
X368429543Y183992627D01*
X457200000Y457200000D01*
X689604073Y626051443D01*
X600833616Y352844069D01*
X368429543Y183992627D01*
X279659087Y457200000D01*
X368429543Y730407373D01*
X600833616Y899258816D01*
X512063159Y626051443D01*
X279659087Y457200000D01*
X512063159Y288348557D01*
X600833616Y561555931D01*
X833237689Y730407373D01*
X744467232Y457200000D01*
X512063159Y288348557D01*
X600833616Y15141184D01*
X689604073Y288348557D01*
X457200000Y457200000D01*
X368429543Y730407373D01*
X600833616Y561555931D01*
X689604073Y288348557D01*
X922008146Y457200000D01*
X689604073Y626051443D01*
X600833616Y899258816D01*
X833237689Y730407373D01*
X922008146Y457200000D01*
X833237689Y183992627D01*
X600833616Y352844069D01*
X512063159Y626051443D01*
X744467232Y457200000D01*
X833237689Y183992627D01*
X600833616Y15141184D01*
X313566384Y15141184D01*
X81162311Y183992627D01*
X169932768Y457200000D01*
X402336841Y626051443D01*
X313566384Y352844069D01*
X81162311Y183992627D01*
X-7608145Y457200000D01*
X81162311Y730407373D01*
X313566384Y899258816D01*
X224795927Y626051443D01*
X-7608145Y457200000D01*
X224795927Y288348557D01*
X313566384Y561555931D01*
X545970457Y730407373D01*
X457200000Y457200000D01*
X224795927Y288348557D01*
X313566384Y15141184D01*
X402336841Y288348557D01*
X169932768Y457200000D01*
X81162311Y730407373D01*
X313566384Y561555931D01*
X402336841Y288348557D01*
X634740913Y457200000D01*
X402336841Y626051443D01*
X313566384Y899258816D01*
X545970457Y730407373D01*
X634740913Y457200000D01*
X545970457Y183992627D01*
X313566384Y352844069D01*
X224795927Y626051443D01*
X457200000Y457200000D01*
X545970457Y183992627D01*
X313566384Y15141184D01*
X81162311Y183992627D01*
X169932768Y457200000D01*
X402336841Y626051443D01*
X313566384Y352844069D01*
X81162311Y183992627D01*
X-7608145Y457200000D01*
X81162311Y730407373D01*
X313566384Y899258816D01*
X224795927Y626051443D01*
X-7608145Y457200000D01*
X224795927Y288348557D01*
X313566384Y561555931D01*
X545970457Y730407373D01*
X457200000Y457200000D01*
X224795927Y288348557D01*
X313566384Y15141184D01*
X402336841Y288348557D01*
X169932768Y457200000D01*
X81162311Y730407373D01*
X313566384Y561555931D01*
X402336841Y288348557D01*
X634740913Y457200000D01*
X402336841Y626051443D01*
X313566384Y899258816D01*
X545970457Y730407373D01*
X634740913Y457200000D01*
X545970457Y183992627D01*
X313566384Y352844069D01*
X224795927Y626051443D01*
X457200000Y457200000D01*
X545970457Y183992627D01*
X313566384Y15141184D01*
X600833616Y15141184D01*
X368429543Y183992627D01*
X81162311Y183992627D01*
X368429543Y183992627D01*
X457200000Y457200000D01*
X689604073Y626051443D01*
X600833616Y352844069D01*
X368429543Y183992627D01*
X279659087Y457200000D01*
X368429543Y730407373D01*
X600833616Y899258816D01*
X512063159Y626051443D01*
X279659087Y457200000D01*
X-7608145Y457200000D01*
X279659087Y457200000D01*
X512063159Y288348557D01*
X224795927Y288348557D01*
X512063159Y288348557D01*
X600833616Y561555931D01*
X833237689Y730407373D01*
X744467232Y457200000D01*
X512063159Y288348557D01*
X600833616Y15141184D01*
X689604073Y288348557D01*
X402336841Y288348557D01*
X689604073Y288348557D01*
X457200000Y457200000D01*
X169932768Y457200000D01*
X457200000Y457200000D01*
X368429543Y730407373D01*
X81162311Y730407373D01*
X368429543Y730407373D01*
X600833616Y561555931D01*
X313566384Y561555931D01*
X600833616Y561555931D01*
X689604073Y288348557D01*
X922008146Y457200000D01*
X634740913Y457200000D01*
X922008146Y457200000D01*
X689604073Y626051443D01*
X402336841Y626051443D01*
X689604073Y626051443D01*
X600833616Y899258816D01*
X313566384Y899258816D01*
X600833616Y899258816D01*
X833237689Y730407373D01*
X545970457Y730407373D01*
X833237689Y730407373D01*
X922008146Y457200000D01*
X833237689Y183992627D01*
X545970457Y183992627D01*
X833237689Y183992627D01*
X600833616Y352844069D01*
X313566384Y352844069D01*
X600833616Y352844069D01*
X512063159Y626051443D01*
X224795927Y626051443D01*
X512063159Y626051443D01*
X744467232Y457200000D01*
X457200000Y457200000D01*
X744467232Y457200000D01*
X833237689Y183992627D01*
X600833616Y15141184D01*
%LPD*%
%LS0.837758040957278*%
X600833616Y15141184D02*
X368429543Y183992627D01*
X457200000Y457200000D01*
X689604073Y626051443D01*
X600833616Y352844069D01*
X368429543Y183992627D01*
X279659087Y457200000D01*
X368429543Y730407373D01*
X600833616Y899258816D01*
X512063159Y626051443D01*
X279659087Y457200000D01*
X512063159Y288348557D01*
X600833616Y561555931D01*
X833237689Y730407373D01*
X744467232Y457200000D01*
X512063159Y288348557D01*
X600833616Y15141184D01*
X689604073Y288348557D01*
X457200000Y457200000D01*
X368429543Y730407373D01*
X600833616Y561555931D01*
X689604073Y288348557D01*
X922008146Y457200000D01*
X689604073Y626051443D01*
X600833616Y899258816D01*
X833237689Y730407373D01*
X922008146Y457200000D01*
X833237689Y183992627D01*
X600833616Y352844069D01*
X512063159Y626051443D01*
X744467232Y457200000D01*
X833237689Y183992627D01*
X600833616Y15141184D01*
X313566384Y15141184D01*
X81162311Y183992627D01*
X169932768Y457200000D01*
X402336841Y626051443D01*
X313566384Y352844069D01*
X81162311Y183992627D01*
X-7608145Y457200000D01*
X81162311Y730407373D01*
X313566384Y899258816D01*
X224795927Y626051443D01*
X-7608145Y457200000D01*
X224795927Y288348557D01*
X313566384Y561555931D01*
X545970457Y730407373D01*
X457200000Y457200000D01*
X224795927Y288348557D01*
X313566384Y15141184D01*
X402336841Y288348557D01*
X169932768Y457200000D01*
X81162311Y730407373D01*
X313566384Y561555931D01*
X402336841Y288348557D01*
X634740913Y457200000D01*
X402336841Y626051443D01*
X313566384Y899258816D01*
X545970457Y730407373D01*
X634740913Y457200000D01*
X545970457Y183992627D01*
X313566384Y352844069D01*
X224795927Y626051443D01*
X457200000Y457200000D01*
X545970457Y183992627D01*
X313566384Y15141184D01*
X81162311Y183992627D01*
X169932768Y457200000D01*
X402336841Y626051443D01*
X313566384Y352844069D01*
X81162311Y183992627D01*
X-7608145Y457200000D01*
X81162311Y730407373D01*
X313566384Y899258816D01*
X224795927Y626051443D01*
X-7608145Y457200000D01*
X224795927Y288348557D01*
X313566384Y561555931D01*
X545970457Y730407373D01*
X457200000Y457200000D01*
X224795927Y288348557D01*
X313566384Y15141184D01*
X402336841Y288348557D01*
X169932768Y457200000D01*
X81162311Y730407373D01*
X313566384Y561555931D01*
X402336841Y288348557D01*
X634740913Y457200000D01*
X402336841Y626051443D01*
X313566384Y899258816D01*
X545970457Y730407373D01*
X634740913Y457200000D01*
X545970457Y183992627D01*
X313566384Y352844069D01*
X224795927Y626051443D01*
X457200000Y457200000D01*
X545970457Y183992627D01*
X313566384Y15141184D01*
X600833616Y15141184D01*
X368429543Y183992627D01*
X81162311Y183992627D01*
X368429543Y183992627D01*
X457200000Y457200000D01*
X689604073Y626051443D01*
X600833616Y352844069D01*
X368429543Y183992627D01*
X279659087Y457200000D01*
X368429543Y730407373D01*
X600833616Y899258816D01*
X512063159Y626051443D01*
X279659087Y457200000D01*
X-7608145Y457200000D01*
X279659087Y457200000D01*
X512063159Y288348557D01*
X224795927Y288348557D01*
X512063159Y288348557D01*
X600833616Y561555931D01*
X833237689Y730407373D01*
X744467232Y457200000D01*
X512063159Y288348557D01*
X600833616Y15141184D01*
X689604073Y288348557D01*
X402336841Y288348557D01*
X689604073Y288348557D01*
X457200000Y457200000D01*
X169932768Y457200000D01*
X457200000Y457200000D01*
X368429543Y730407373D01*
X81162311Y730407373D01*
X368429543Y730407373D01*
X600833616Y561555931D01*
X313566384Y561555931D01*
X600833616Y561555931D01*
X689604073Y288348557D01*
X922008146Y457200000D01*
X634740913Y457200000D01*
X922008146Y457200000D01*
X689604073Y626051443D01*
X402336841Y626051443D01*
X689604073Y626051443D01*
X600833616Y899258816D01*
X313566384Y899258816D01*
X600833616Y899258816D01*
X833237689Y730407373D01*
X545970457Y730407373D01*
X833237689Y730407373D01*
X922008146Y457200000D01*
X833237689Y183992627D01*
X545970457Y183992627D01*
X833237689Y183992627D01*
X600833616Y352844069D01*
X313566384Y352844069D01*
X600833616Y352844069D01*
X512063159Y626051443D01*
X224795927Y626051443D01*
X512063159Y626051443D01*
X744467232Y457200000D01*
X457200000Y457200000D01*
X744467232Y457200000D01*
X833237689Y183992627D01*
X600833616Y15141184D01*
%LPC*%
%LS0.733038285837618*%
X600833616Y15141184D02*
X368429543Y183992627D01*
X457200000Y457200000D01*
X689604073Y626051443D01*
X600833616Y352844069D01*
X368429543Y183992627D01*
X279659087Y457200000D01*
X368429543Y730407373D01*
X600833616Y899258816D01*
X512063159Y626051443D01*
X279659087Y457200000D01*
X512063159Y288348557D01*
X600833616Y561555931D01*
X833237689Y730407373D01*
X744467232Y457200000D01*
X512063159Y288348557D01*
X600833616Y15141184D01*
X689604073Y288348557D01*
X457200000Y457200000D01*
X368429543Y730407373D01*
X600833616Y561555931D01*
X689604073Y288348557D01*
X922008146Y457200000D01*
X689604073Y626051443D01*
X600833616Y899258816D01*
X833237689Y730407373D01*
X922008146Y457200000D01*
X833237689Y183992627D01*
X600833616Y352844069D01*
X512063159Y626051443D01*
X744467232Y457200000D01*
X833237689Y183992627D01*
X600833616Y15141184D01*
X313566384Y15141184D01*
X81162311Y183992627D01*
X169932768Y457200000D01*
X402336841Y626051443D01*
X313566384Y352844069D01*
X81162311Y183992627D01*
X-7608145Y457200000D01*
X81162311Y730407373D01*
X313566384Y899258816D01*
X224795927Y626051443D01*
X-7608145Y457200000D01*
X224795927Y288348557D01*
X313566384Y561555931D01*
X545970457Y730407373D01*
X457200000Y457200000D01*
X224795927Y288348557D01*
X313566384Y15141184D01*
X402336841Y288348557D01*
X169932768Y457200000D01*
X81162311Y730407373D01*
X313566384Y561555931D01*
X402336841Y288348557D01*
X634740913Y457200000D01*
X402336841Y626051443D01*
X313566384Y899258816D01*
X545970457Y730407373D01*
X634740913Y457200000D01*
X545970457Y183992627D01*
X313566384Y352844069D01*
X224795927Y626051443D01*
X457200000Y457200000D01*
X545970457Y183992627D01*
X313566384Y15141184D01*
X81162311Y183992627D01*
X169932768Y457200000D01*
X402336841Y626051443D01*
X313566384Y352844069D01*
X81162311Y183992627D01*
X-7608145Y457200000D01*
X81162311Y730407373D01*
X313566384Y899258816D01*
X224795927Y626051443D01*
X-7608145Y457200000D01*
X224795927Y288348557D01*
X313566384Y561555931D01*
X545970457Y730407373D01*
X457200000Y457200000D01*
X224795927Y288348557D01*
X313566384Y15141184D01*
X402336841Y288348557D01*
X169932768Y457200000D01*
X81162311Y730407373D01*
X313566384Y561555931D01*
X402336841Y288348557D01*
X634740913Y457200000D01*
X402336841Y626051443D01*
X313566384Y899258816D01*
X545970457Y730407373D01*
X634740913Y457200000D01*
X545970457Y183992627D01*
X313566384Y352844069D01*
X224795927Y626051443D01*
X457200000Y457200000D01*
X545970457Y183992627D01*
X313566384Y15141184D01*
X600833616Y15141184D01*
X368429543Y183992627D01*
X81162311Y183992627D01*
X368429543Y183992627D01*
X457200000Y457200000D01*
X689604073Y626051443D01*
X600833616Y352844069D01*
X368429543Y183992627D01*
X279659087Y457200000D01*
X368429543Y730407373D01*
X600833616Y899258816D01*
X512063159Y626051443D01*
X279659087Y457200000D01*
X-7608145Y457200000D01*
X279659087Y457200000D01*
X512063159Y288348557D01*
X224795927Y288348557D01*
X512063159Y288348557D01*
X600833616Y561555931D01*
X833237689Y730407373D01*
X744467232Y457200000D01*
X512063159Y288348557D01*
X600833616Y15141184D01*
X689604073Y288348557D01*
X402336841Y288348557D01*
X689604073Y288348557D01*
X457200000Y457200000D01*
X169932768Y457200000D01*
X457200000Y457200000D01*
X368429543Y730407373D01*
X81162311Y730407373D01*
X368429543Y730407373D01*
X600833616Y561555931D01*
X313566384Y561555931D01*
X600833616Y561555931D01*
X689604073Y288348557D01*
X922008146Y457200000D01*
X634740913Y457200000D01*
X922008146Y457200000D01*
X689604073Y626051443D01*
X402336841Y626051443D01*
X689604073Y626051443D01*
X600833616Y899258816D01*
X313566384Y899258816D01*
X600833616Y899258816D01*
X833237689Y730407373D01*
X545970457Y730407373D01*
X833237689Y730407373D01*
X922008146Y457200000D01*
X833237689Y183992627D01*
X545970457Y183992627D01*
X833237689Y183992627D01*
X600833616Y352844069D01*
X313566384Y352844069D01*
X600833616Y352844069D01*
X512063159Y626051443D01*
X224795927Y626051443D01*
X512063159Y626051443D01*
X744467232Y457200000D01*
X457200000Y457200000D01*
X744467232Y457200000D01*
X833237689Y183992627D01*
X600833616Y15141184D01*
%LPD*%
%LS0.628318530717959*%
X600833616Y15141184D02*
X368429543Y183992627D01*
X457200000Y457200000D01*
X689604073Y626051443D01*
X600833616Y352844069D01*
X368429543Y183992627D01*
X279659087Y457200000D01*
X368429543Y730407373D01*
X600833616Y899258816D01*
X512063159Y626051443D01*
X279659087Y457200000D01*
X512063159Y288348557D01*
X600833616Y561555931D01*
X833237689Y730407373D01*
X744467232Y457200000D01*
X512063159Y288348557D01*
X600833616Y15141184D01*
X689604073Y288348557D01*
X457200000Y457200000D01*
X368429543Y730407373D01*
X600833616Y561555931D01*
X689604073Y288348557D01*
X922008146Y457200000D01*
X689604073Y626051443D01*
X600833616Y899258816D01*
X833237689Y730407373D01*
X922008146Y457200000D01*
X833237689Y183992627D01*
X600833616Y352844069D01*
X512063159Y626051443D01*
X744467232Y457200000D01*
X833237689Y183992627D01*
X600833616Y15141184D01*
X313566384Y15141184D01*
X81162311Y183992627D01*
X169932768Y457200000D01*
X402336841Y626051443D01*
X313566384Y352844069D01*
X81162311Y183992627D01*
X-7608145Y457200000D01*
X81162311Y730407373D01*
X313566384Y899258816D01*
X224795927Y626051443D01*
X-7608145Y457200000D01*
X224795927Y288348557D01*
X313566384Y561555931D01*
X545970457Y730407373D01*
X457200000Y457200000D01*
X224795927Y288348557D01*
X313566384Y15141184D01*
X402336841Y288348557D01*
X169932768Y457200000D01*
X81162311Y730407373D01*
X313566384Y561555931D01*
X402336841Y288348557D01*
X634740913Y457200000D01*
X402336841Y626051443D01*
X313566384Y899258816D01*
X545970457Y730407373D01*
X634740913Y457200000D01*
X545970457Y183992627D01*
X313566384Y352844069D01*
X224795927Y626051443D01*
X457200000Y457200000D01*
X545970457Y183992627D01*
X313566384Y15141184D01*
X81162311Y183992627D01*
X169932768Y457200000D01*
X402336841Y626051443D01*
X313566384Y352844069D01*
X81162311Y183992627D01*
X-7608145Y457200000D01*
X81162311Y730407373D01*
X313566384Y899258816D01*
X224795927Y626051443D01*
X-7608145Y457200000D01*
X224795927Y288348557D01*
X313566384Y561555931D01*
X545970457Y730407373D01*
X457200000Y457200000D01*
X224795927Y288348557D01*
X313566384Y15141184D01*
X402336841Y288348557D01*
X169932768Y457200000D01*
X81162311Y730407373D01*
X313566384Y561555931D01*
X402336841Y288348557D01*
X634740913Y457200000D01*
X402336841Y626051443D01*
X313566384Y899258816D01*
X545970457Y730407373D01*
X634740913Y457200000D01*
X545970457Y183992627D01*
X313566384Y352844069D01*
X224795927Y626051443D01*
X457200000Y457200000D01*
X545970457Y183992627D01*
X313566384Y15141184D01*
X600833616Y15141184D01*
X368429543Y183992627D01*
X81162311Y183992627D01*
X368429543Y183992627D01*
X457200000Y457200000D01*
X689604073Y626051443D01*
X600833616Y352844069D01*
X368429543Y183992627D01*
X279659087Y457200000D01*
X368429543Y730407373D01*
X600833616Y899258816D01*
X512063159Y626051443D01*
X279659087Y457200000D01*
X-7608145Y457200000D01*
X279659087Y457200000D01*
X512063159Y288348557D01*
X224795927Y288348557D01*
X512063159Y288348557D01*
X600833616Y561555931D01*
X833237689Y730407373D01*
X744467232Y457200000D01*
X512063159Y288348557D01*
X600833616Y15141184D01*
X689604073Y288348557D01*
X402336841Y288348557D01*
X689604073Y288348557D01*
X457200000Y457200000D01*
X169932768Y457200000D01*
X457200000Y457200000D01*
X368429543Y730407373D01*
X81162311Y730407373D01*
X368429543Y730407373D01*
X600833616Y561555931D01*
X313566384Y561555931D01*
X600833616Y561555931D01*
X689604073Y288348557D01*
X922008146Y457200000D01*
X634740913Y457200000D01*
X922008146Y457200000D01*
X689604073Y626051443D01*
X402336841Y626051443D01*
X689604073Y626051443D01*
X600833616Y899258816D01*
X313566384Y899258816D01*
X600833616Y899258816D01*
X833237689Y730407373D01*
X545970457Y730407373D01*
X833237689Y730407373D01*
X922008146Y457200000D01*
X833237689Y183992627D01*
X545970457Y183992627D01*
X833237689Y183992627D01*
X600833616Y352844069D01*
X313566384Y352844069D01*
X600833616Y352844069D01*
X512063159Y626051443D01*
X224795927Y626051443D01*
X512063159Y626051443D01*
X744467232Y457200000D01*
X457200000Y457200000D01*
X744467232Y457200000D01*
X833237689Y183992627D01*
X600833616Y15141184D01*
%LPC*%
%LS0.523598775598299*%
X600833616Y15141184D02*
X368429543Y183992627D01*
X457200000Y457200000D01*
X689604073Y626051443D01*
X600833616Y352844069D01*
X368429543Y183992627D01*
X279659087Y457200000D01*
X368429543Y730407373D01*
X600833616Y899258816D01*
X512063159Y626051443D01*
X279659087Y457200000D01*
X512063159Y288348557D01*
X600833616Y561555931D01*
X833237689Y730407373D01*
X744467232Y457200000D01*
X512063159Y288348557D01*
X600833616Y15141184D01*
X689604073Y288348557D01*
X457200000Y457200000D01*
X368429543Y730407373D01*
X600833616Y561555931D01*
X689604073Y288348557D01*
X922008146Y457200000D01*
X689604073Y626051443D01*
X600833616Y899258816D01*
X833237689Y730407373D01*
X922008146Y457200000D01*
X833237689Y183992627D01*
X600833616Y352844069D01*
X512063159Y626051443D01*
X744467232Y457200000D01*
X833237689Y183992627D01*
X600833616Y15141184D01*
X313566384Y15141184D01*
X81162311Y183992627D01*
X169932768Y457200000D01*
X402336841Y626051443D01*
X313566384Y352844069D01*
X81162311Y183992627D01*
X-7608145Y457200000D01*
X81162311Y730407373D01*
X313566384Y899258816D01*
X224795927Y626051443D01*
X-7608145Y457200000D01*
X224795927Y288348557D01*
X313566384Y561555931D01*
X545970457Y730407373D01*
X457200000Y457200000D01*
X224795927Y288348557D01*
X313566384Y15141184D01*
X402336841Y288348557D01*
X169932768Y457200000D01*
X81162311Y730407373D01*
X313566384Y561555931D01*
X402336841Y288348557D01*
X634740913Y457200000D01*
X402336841Y626051443D01*
X313566384Y899258816D01*
X545970457Y730407373D01*
X634740913Y457200000D01*
X545970457Y183992627D01*
X313566384Y352844069D01*
X224795927Y626051443D01*
X457200000Y457200000D01*
X545970457Y183992627D01*
X313566384Y15141184D01*
X81162311Y183992627D01*
X169932768Y457200000D01*
X402336841Y626051443D01*
X313566384Y352844069D01*
X81162311Y183992627D01*
X-7608145Y457200000D01*
X81162311Y730407373D01*
X313566384Y899258816D01*
X224795927Y626051443D01*
X-7608145Y457200000D01*
X224795927Y288348557D01*
X313566384Y561555931D01*
X545970457Y730407373D01*
X457200000Y457200000D01*
X224795927Y288348557D01*
X313566384Y15141184D01*
X402336841Y288348557D01*
X169932768Y457200000D01*
X81162311Y730407373D01*
X313566384Y561555931D01*
X402336841Y288348557D01*
X634740913Y457200000D01*
X402336841Y626051443D01*
X313566384Y899258816D01*
X545970457Y730407373D01*
X634740913Y457200000D01*
X545970457Y183992627D01*
X313566384Y352844069D01*
X224795927Y626051443D01*
X457200000Y457200000D01*
X545970457Y183992627D01*
X313566384Y15141184D01*
X600833616Y15141184D01*
X368429543Y183992627D01*
X81162311Y183992627D01*
X368429543Y183992627D01*
X457200000Y457200000D01*
X689604073Y626051443D01*
X600833616Y352844069D01*
X368429543Y183992627D01*
X279659087Y457200000D01*
X368429543Y730407373D01*
X600833616Y899258816D01*
X512063159Y626051443D01*
X279659087Y457200000D01*
X-7608145Y457200000D01*
X279659087Y457200000D01*
X512063159Y288348557D01*
X224795927Y288348557D01*
X512063159Y288348557D01*
X600833616Y561555931D01*
X833237689Y730407373D01*
X744467232Y457200000D01*
X512063159Y288348557D01*
X600833616Y15141184D01*
X689604073Y288348557D01*
X402336841Y288348557D01*
X689604073Y288348557D01*
X457200000Y457200000D01*
X169932768Y457200000D01*
X457200000Y457200000D01*
X368429543Y730407373D01*
X81162311Y730407373D01*
X368429543Y730407373D01*
X600833616Y561555931D01*
X313566384Y561555931D01*
X600833616Y561555931D01*
X689604073Y288348557D01*
X922008146Y457200000D01*
X634740913Y457200000D01*
X922008146Y457200000D01*
X689604073Y626051443D01*
X402336841Y626051443D01*
X689604073Y626051443D01*
X600833616Y899258816D01*
X313566384Y899258816D01*
X600833616Y899258816D01*
X833237689Y730407373D01*
X545970457Y730407373D01*
X833237689Y730407373D01*
X922008146Y457200000D01*
X833237689Y183992627D01*
X545970457Y183992627D01*
X833237689Y183992627D01*
X600833616Y352844069D01*
X313566384Y352844069D01*
X600833616Y352844069D01*
X512063159Y626051443D01*
X224795927Y626051443D01*
X512063159Y626051443D01*
X744467232Y457200000D01*
X457200000Y457200000D01*
X744467232Y457200000D01*
X833237689Y183992627D01*
X600833616Y15141184D01*
%LPD*%
%LS0.418879020478639*%
X600833616Y15141184D02*
X368429543Y183992627D01*
X457200000Y457200000D01*
X689604073Y626051443D01*
X600833616Y352844069D01*
X368429543Y183992627D01*
X279659087Y457200000D01*
X368429543Y730407373D01*
X600833616Y899258816D01*
X512063159Y626051443D01*
X279659087Y457200000D01*
X512063159Y288348557D01*
X600833616Y561555931D01*
X833237689Y730407373D01*
X744467232Y457200000D01*
X512063159Y288348557D01*
X600833616Y15141184D01*
X689604073Y288348557D01*
X457200000Y457200000D01*
X368429543Y730407373D01*
X600833616Y561555931D01*
X689604073Y288348557D01*
X922008146Y457200000D01*
X689604073Y626051443D01*
X600833616Y899258816D01*
X833237689Y730407373D01*
X922008146Y457200000D01*
X833237689Y183992627D01*
X600833616Y352844069D01*
X512063159Y626051443D01*
X744467232Y457200000D01*
X833237689Y183992627D01*
X600833616Y15141184D01*
X313566384Y15141184D01*
X81162311Y183992627D01*
X169932768Y457200000D01*
X402336841Y626051443D01*
X313566384Y352844069D01*
X81162311Y183992627D01*
X-7608145Y457200000D01*
X81162311Y730407373D01*
X313566384Y899258816D01*
X224795927Y626051443D01*
X-7608145Y457200000D01*
X224795927Y288348557D01*
X313566384Y561555931D01*
X545970457Y730407373D01*
X457200000Y457200000D01*
X224795927Y288348557D01*
X313566384Y15141184D01*
X402336841Y288348557D01*
X169932768Y457200000D01*
X81162311Y730407373D01*
X313566384Y561555931D01*
X402336841Y288348557D01*
X634740913Y457200000D01*
X402336841Y626051443D01*
X313566384Y899258816D01*
X545970457Y730407373D01*
X634740913Y457200000D01*
X545970457Y183992627D01*
X313566384Y352844069D01*
X224795927Y626051443D01*
X457200000Y457200000D01*
X545970457Y183992627D01*
X313566384Y15141184D01*
X81162311Y183992627D01*
X169932768Y457200000D01*
X402336841Y626051443D01*
X313566384Y352844069D01*
X81162311Y183992627D01*
X-7608145Y457200000D01*
X81162311Y730407373D01*
X313566384Y899258816D01*
X224795927Y626051443D01*
X-7608145Y457200000D01*
X224795927Y288348557D01*
X313566384Y561555931D01*
X545970457Y730407373D01*
X457200000Y457200000D01*
X224795927Y288348557D01*
X313566384Y15141184D01*
X402336841Y288348557D01*
X169932768Y457200000D01*
X81162311Y730407373D01*
X313566384Y561555931D01*
X402336841Y288348557D01*
X634740913Y457200000D01*
X402336841Y626051443D01*
X313566384Y899258816D01*
X545970457Y730407373D01*
X634740913Y457200000D01*
X545970457Y183992627D01*
X313566384Y352844069D01*
X224795927Y626051443D01*
X457200000Y457200000D01*
X545970457Y183992627D01*
X313566384Y15141184D01*
X600833616Y15141184D01*
X368429543Y183992627D01*
X81162311Y183992627D01*
X368429543Y183992627D01*
X457200000Y457200000D01*
X689604073Y626051443D01*
X600833616Y352844069D01*
X368429543Y183992627D01*
X279659087Y457200000D01*
X368429543Y730407373D01*
X600833616Y899258816D01*
X512063159Y626051443D01*
X279659087Y457200000D01*
X-7608145Y457200000D01*
X279659087Y457200000D01*
X512063159Y288348557D01*
X224795927Y288348557D01*
X512063159Y288348557D01*
X600833616Y561555931D01*
X833237689Y730407373D01*
X744467232Y457200000D01*
X512063159Y288348557D01*
X600833616Y15141184D01*
X689604073Y288348557D01*
X402336841Y288348557D01*
X689604073Y288348557D01*
X457200000Y457200000D01*
X169932768Y457200000D01*
X457200000Y457200000D01*
X368429543Y730407373D01*
X81162311Y730407373D01*
X368429543Y730407373D01*
X600833616Y561555931D01*
X313566384Y561555931D01*
X600833616Y561555931D01*
X689604073Y288348557D01*
X922008146Y457200000D01*
X634740913Y457200000D01*
X922008146Y457200000D01*
X689604073Y626051443D01*
X402336841Y626051443D01*
X689604073Y626051443D01*
X600833616Y899258816D01*
X313566384Y899258816D01*
X600833616Y899258816D01*
X833237689Y730407373D01*
X545970457Y730407373D01*
X833237689Y730407373D01*
X922008146Y457200000D01*
X833237689Y183992627D01*
X545970457Y183992627D01*
X833237689Y183992627D01*
X600833616Y352844069D01*
X313566384Y352844069D01*
X600833616Y352844069D01*
X512063159Y626051443D01*
X224795927Y626051443D01*
X512063159Y626051443D01*
X744467232Y457200000D01*
X457200000Y457200000D01*
X744467232Y457200000D01*
X833237689Y183992627D01*
X600833616Y15141184D01*
%LPC*%
%LS0.314159265358979*%
X600833616Y15141184D02*
X368429543Y183992627D01*
X457200000Y457200000D01*
X689604073Y626051443D01*
X600833616Y352844069D01*
X368429543Y183992627D01*
X279659087Y457200000D01*
X368429543Y730407373D01*
X600833616Y899258816D01*
X512063159Y626051443D01*
X279659087Y457200000D01*
X512063159Y288348557D01*
X600833616Y561555931D01*
X833237689Y730407373D01*
X744467232Y457200000D01*
X512063159Y288348557D01*
X600833616Y15141184D01*
X689604073Y288348557D01*
X457200000Y457200000D01*
X368429543Y730407373D01*
X600833616Y561555931D01*
X689604073Y288348557D01*
X922008146Y457200000D01*
X689604073Y626051443D01*
X600833616Y899258816D01*
X833237689Y730407373D01*
X922008146Y457200000D01*
X833237689Y183992627D01*
X600833616Y352844069D01*
X512063159Y626051443D01*
X744467232Y457200000D01*
X833237689Y183992627D01*
X600833616Y15141184D01*
X313566384Y15141184D01*
X81162311Y183992627D01*
X169932768Y457200000D01*
X402336841Y626051443D01*
X313566384Y352844069D01*
X81162311Y183992627D01*
X-7608145Y457200000D01*
X81162311Y730407373D01*
X313566384Y899258816D01*
X224795927Y626051443D01*
X-7608145Y457200000D01*
X224795927Y288348557D01*
X313566384Y561555931D01*
X545970457Y730407373D01*
X457200000Y457200000D01*
X224795927Y288348557D01*
X313566384Y15141184D01*
X402336841Y288348557D01*
X169932768Y457200000D01*
X81162311Y730407373D01*
X313566384Y561555931D01*
X402336841Y288348557D01*
X634740913Y457200000D01*
X402336841Y626051443D01*
X313566384Y899258816D01*
X545970457Y730407373D01*
X634740913Y457200000D01*
X545970457Y183992627D01*
X313566384Y352844069D01*
X224795927Y626051443D01*
X457200000Y457200000D01*
X545970457Y183992627D01*
X313566384Y15141184D01*
X81162311Y183992627D01*
X169932768Y457200000D01*
X402336841Y626051443D01*
X313566384Y352844069D01*
X81162311Y183992627D01*
X-7608145Y457200000D01*
X81162311Y730407373D01*
X313566384Y899258816D01*
X224795927Y626051443D01*
X-7608145Y457200000D01*
X224795927Y288348557D01*
X313566384Y561555931D01*
X545970457Y730407373D01*
X457200000Y457200000D01*
X224795927Y288348557D01*
X313566384Y15141184D01*
X402336841Y288348557D01*
X169932768Y457200000D01*
X81162311Y730407373D01*
X313566384Y561555931D01*
X402336841Y288348557D01*
X634740913Y457200000D01*
X402336841Y626051443D01*
X313566384Y899258816D01*
X545970457Y730407373D01*
X634740913Y457200000D01*
X545970457Y183992627D01*
X313566384Y352844069D01*
X224795927Y626051443D01*
X457200000Y457200000D01*
X545970457Y183992627D01*
X313566384Y15141184D01*
X600833616Y15141184D01*
X368429543Y183992627D01*
X81162311Y183992627D01*
X368429543Y183992627D01*
X457200000Y457200000D01*
X689604073Y626051443D01*
X600833616Y352844069D01*
X368429543Y183992627D01*
X279659087Y457200000D01*
X368429543Y730407373D01*
X600833616Y899258816D01*
X512063159Y626051443D01*
X279659087Y457200000D01*
X-7608145Y457200000D01*
X279659087Y457200000D01*
X512063159Y288348557D01*
X224795927Y288348557D01*
X512063159Y288348557D01*
X600833616Y561555931D01*
X833237689Y730407373D01*
X744467232Y457200000D01*
X512063159Y288348557D01*
X600833616Y15141184D01*
X689604073Y288348557D01*
X402336841Y288348557D01*
X689604073Y288348557D01*
X457200000Y457200000D01*
X169932768Y457200000D01*
X457200000Y457200000D01*
X368429543Y730407373D01*
X81162311Y730407373D01*
X368429543Y730407373D01*
X600833616Y561555931D01*
X313566384Y561555931D01*
X600833616Y561555931D01*
X689604073Y288348557D01*
X922008146Y457200000D01*
X634740913Y457200000D01*
X922008146Y457200000D01*
X689604073Y626051443D01*
X402336841Y626051443D01*
X689604073Y626051443D01*
X600833616Y899258816D01*
X313566384Y899258816D01*
X600833616Y899258816D01*
X833237689Y730407373D01*
X545970457Y730407373D01*
X833237689Y730407373D01*
X922008146Y457200000D01*
X833237689Y183992627D01*
X545970457Y183992627D01*
X833237689Y183992627D01*
X600833616Y352844069D01*
X313566384Y352844069D01*
X600833616Y352844069D01*
X512063159Y626051443D01*
X224795927Y626051443D01*
X512063159Y626051443D01*
X744467232Y457200000D01*
X457200000Y457200000D01*
X744467232Y457200000D01*
X833237689Y183992627D01*
X600833616Y15141184D01*
%LPD*%
%LS0.20943951023932*%
X600833616Y15141184D02*
X368429543Y183992627D01*
X457200000Y457200000D01*
X689604073Y626051443D01*
X600833616Y352844069D01*
X368429543Y183992627D01*
X279659087Y457200000D01*
X368429543Y730407373D01*
X600833616Y899258816D01*
X512063159Y626051443D01*
X279659087Y457200000D01*
X512063159Y288348557D01*
X600833616Y561555931D01*
X833237689Y730407373D01*
X744467232Y457200000D01*
X512063159Y288348557D01*
X600833616Y15141184D01*
X689604073Y288348557D01*
X457200000Y457200000D01*
X368429543Y730407373D01*
X600833616Y561555931D01*
X689604073Y288348557D01*
X922008146Y457200000D01*
X689604073Y626051443D01*
X600833616Y899258816D01*
X833237689Y730407373D01*
X922008146Y457200000D01*
X833237689Y183992627D01*
X600833616Y352844069D01*
X512063159Y626051443D01*
X744467232Y457200000D01*
X833237689Y183992627D01*
X600833616Y15141184D01*
X313566384Y15141184D01*
X81162311Y183992627D01*
X169932768Y457200000D01*
X402336841Y626051443D01*
X313566384Y352844069D01*
X81162311Y183992627D01*
X-7608145Y457200000D01*
X81162311Y730407373D01*
X313566384Y899258816D01*
X224795927Y626051443D01*
X-7608145Y457200000D01*
X224795927Y288348557D01*
X313566384Y561555931D01*
X545970457Y730407373D01*
X457200000Y457200000D01*
X224795927Y288348557D01*
X313566384Y15141184D01*
X402336841Y288348557D01*
X169932768Y457200000D01*
X81162311Y730407373D01*
X313566384Y561555931D01*
X402336841Y288348557D01*
X634740913Y457200000D01*
X402336841Y626051443D01*
X313566384Y899258816D01*
X545970457Y730407373D01*
X634740913Y457200000D01*
X545970457Y183992627D01*
X313566384Y352844069D01*
X224795927Y626051443D01*
X457200000Y457200000D01*
X545970457Y183992627D01*
X313566384Y15141184D01*
X81162311Y183992627D01*
X169932768Y457200000D01*
X402336841Y626051443D01*
X313566384Y352844069D01*
X81162311Y183992627D01*
X-7608145Y457200000D01*
X81162311Y730407373D01*
X313566384Y899258816D01*
X224795927Y626051443D01*
X-7608145Y457200000D01*
X224795927Y288348557D01*
X313566384Y561555931D01*
X545970457Y730407373D01*
X457200000Y457200000D01*
X224795927Y288348557D01*
X313566384Y15141184D01*
X402336841Y288348557D01*
X169932768Y457200000D01*
X81162311Y730407373D01*
X313566384Y561555931D01*
X402336841Y288348557D01*
X634740913Y457200000D01*
X402336841Y626051443D01*
X313566384Y899258816D01*
X545970457Y730407373D01*
X634740913Y457200000D01*
X545970457Y183992627D01*
X313566384Y352844069D01*
X224795927Y626051443D01*
X457200000Y457200000D01*
X545970457Y183992627D01*
X313566384Y15141184D01*
X600833616Y15141184D01*
X368429543Y183992627D01*
X81162311Y183992627D01*
X368429543Y183992627D01*
X457200000Y457200000D01*
X689604073Y626051443D01*
X600833616Y352844069D01*
X368429543Y183992627D01*
X279659087Y457200000D01*
X368429543Y730407373D01*
X600833616Y899258816D01*
X512063159Y626051443D01*
X279659087Y457200000D01*
X-7608145Y457200000D01*
X279659087Y457200000D01*
X512063159Y288348557D01*
X224795927Y288348557D01*
X512063159Y288348557D01*
X600833616Y561555931D01*
X833237689Y730407373D01*
X744467232Y457200000D01*
X512063159Y288348557D01*
X600833616Y15141184D01*
X689604073Y288348557D01*
X402336841Y288348557D01*
X689604073Y288348557D01*
X457200000Y457200000D01*
X169932768Y457200000D01*
X457200000Y457200000D01*
X368429543Y730407373D01*
X81162311Y730407373D01*
X368429543Y730407373D01*
X600833616Y561555931D01*
X313566384Y561555931D01*
X600833616Y561555931D01*
X689604073Y288348557D01*
X922008146Y457200000D01*
X634740913Y457200000D01*
X922008146Y457200000D01*
X689604073Y626051443D01*
X402336841Y626051443D01*
X689604073Y626051443D01*
X600833616Y899258816D01*
X313566384Y899258816D01*
X600833616Y899258816D01*
X833237689Y730407373D01*
X545970457Y730407373D01*
X833237689Y730407373D01*
X922008146Y457200000D01*
X833237689Y183992627D01*
X545970457Y183992627D01*
X833237689Y183992627D01*
X600833616Y352844069D01*
X313566384Y352844069D01*
X600833616Y352844069D01*
X512063159Y626051443D01*
X224795927Y626051443D01*
X512063159Y626051443D01*
X744467232Y457200000D01*
X457200000Y457200000D01*
X744467232Y457200000D01*
X833237689Y183992627D01*
X600833616Y15141184D01*
%LPC*%
%LS0.10471975511966*%
X600833616Y15141184D02*
X368429543Y183992627D01*
X457200000Y457200000D01*
X689604073Y626051443D01*
X600833616Y352844069D01*
X368429543Y183992627D01*
X279659087Y457200000D01*
X368429543Y730407373D01*
X600833616Y899258816D01*
X512063159Y626051443D01*
X279659087Y457200000D01*
X512063159Y288348557D01*
X600833616Y561555931D01*
X833237689Y730407373D01*
X744467232Y457200000D01*
X512063159Y288348557D01*
X600833616Y15141184D01*
X689604073Y288348557D01*
X457200000Y457200000D01*
X368429543Y730407373D01*
X600833616Y561555931D01*
X689604073Y288348557D01*
X922008146Y457200000D01*
X689604073Y626051443D01*
X600833616Y899258816D01*
X833237689Y730407373D01*
X922008146Y457200000D01*
X833237689Y183992627D01*
X600833616Y352844069D01*
X512063159Y626051443D01*
X744467232Y457200000D01*
X833237689Y183992627D01*
X600833616Y15141184D01*
X313566384Y15141184D01*
X81162311Y183992627D01*
X169932768Y457200000D01*
X402336841Y626051443D01*
X313566384Y352844069D01*
X81162311Y183992627D01*
X-7608145Y457200000D01*
X81162311Y730407373D01*
X313566384Y899258816D01*
X224795927Y626051443D01*
X-7608145Y457200000D01*
X224795927Y288348557D01*
X313566384Y561555931D01*
X545970457Y730407373D01*
X457200000Y457200000D01*
X224795927Y288348557D01*
X313566384Y15141184D01*
X402336841Y288348557D01*
X169932768Y457200000D01*
X81162311Y730407373D01*
X313566384Y561555931D01*
X402336841Y288348557D01*
X634740913Y457200000D01*
X402336841Y626051443D01*
X313566384Y899258816D01*
X545970457Y730407373D01*
X634740913Y457200000D01*
X545970457Y183992627D01*
X313566384Y352844069D01*
X224795927Y626051443D01*
X457200000Y457200000D01*
X545970457Y183992627D01*
X313566384Y15141184D01*
X81162311Y183992627D01*
X169932768Y457200000D01*
X402336841Y626051443D01*
X313566384Y352844069D01*
X81162311Y183992627D01*
X-7608145Y457200000D01*
X81162311Y730407373D01*
X313566384Y899258816D01*
X224795927Y626051443D01*
X-7608145Y457200000D01*
X224795927Y288348557D01*
X313566384Y561555931D01*
X545970457Y730407373D01*
X457200000Y457200000D01*
X224795927Y288348557D01*
X313566384Y15141184D01*
X402336841Y288348557D01*
X169932768Y457200000D01*
X81162311Y730407373D01*
X313566384Y561555931D01*
X402336841Y288348557D01*
X634740913Y457200000D01*
X402336841Y626051443D01*
X313566384Y899258816D01*
X545970457Y730407373D01*
X634740913Y457200000D01*
X545970457Y183992627D01*
X313566384Y352844069D01*
X224795927Y626051443D01*
X457200000Y457200000D01*
X545970457Y183992627D01*
X313566384Y15141184D01*
X600833616Y15141184D01*
X368429543Y183992627D01*
X81162311Y183992627D01*
X368429543Y183992627D01*
X457200000Y457200000D01*
X689604073Y626051443D01*
X600833616Y352844069D01*
X368429543Y183992627D01*
X279659087Y457200000D01*
X368429543Y730407373D01*
X600833616Y899258816D01*
X512063159Y626051443D01*
X279659087Y457200000D01*
X-7608145Y457200000D01*
X279659087Y457200000D01*
X512063159Y288348557D01*
X224795927Y288348557D01*
X512063159Y288348557D01*
X600833616Y561555931D01*
X833237689Y730407373D01*
X744467232Y457200000D01*
X512063159Y288348557D01*
X600833616Y15141184D01*
X689604073Y288348557D01*
X402336841Y288348557D01*
X689604073Y288348557D01*
X457200000Y457200000D01*
X169932768Y457200000D01*
X457200000Y457200000D01*
X368429543Y730407373D01*
X81162311Y730407373D01*
X368429543Y730407373D01*
X600833616Y561555931D01*
X313566384Y561555931D01*
X600833616Y561555931D01*
X689604073Y288348557D01*
X922008146Y457200000D01*
X634740913Y457200000D01*
X922008146Y457200000D01*
X689604073Y626051443D01*
X402336841Y626051443D01*
X689604073Y626051443D01*
X600833616Y899258816D01*
X313566384Y899258816D01*
X600833616Y899258816D01*
X833237689Y730407373D01*
X545970457Y730407373D01*
X833237689Y730407373D01*
X922008146Y457200000D01*
X833237689Y183992627D01*
X545970457Y183992627D01*
X833237689Y183992627D01*
X600833616Y352844069D01*
X313566384Y352844069D01*
X600833616Y352844069D01*
X512063159Y626051443D01*
X224795927Y626051443D01*
X512063159Y626051443D01*
X744467232Y457200000D01*
X457200000Y457200000D01*
X744467232Y457200000D01*
X833237689Y183992627D01*
X600833616Y15141184D01*
M02*
