<?xml version="1.0" standalone="no"?>
<svg width="12612.659092257" height="12612.659092257" version="1.1" xmlns="http://www.w3.org/2000/svg">
<polyline points="
7543.33165347947 87.5000000000009
5069.3274387775 87.5000000000009
3319.94228187765 1836.88515689986
3319.94228187765 4310.88937160182
5069.3274387775 6060.27452850168
7355.00929608731 7007.03495306952
5605.62413918745 5257.64979616967
3319.94228187765 4310.88937160182
4266.70270644549 6596.57122891162
6016.08786334535 8345.95638581148
8301.76972065515 9292.71681037932
6552.38456375529 7543.33165347947
4266.70270644549 6596.57122891162
4266.70270644549 4122.56701420966
6016.08786334535 5871.95217110952
8301.76972065515 6818.71259567736
6552.38456375529 5069.32743877751
4266.70270644549 4122.56701420966
3319.94228187765 1836.88515689986
5069.3274387775 3586.27031379971
5069.3274387775 6060.27452850168
6016.08786334535 8345.95638581148
6016.08786334535 5871.95217110952
5069.3274387775 3586.27031379971
7355.00929608731 4533.03073836756
7355.00929608731 7007.03495306952
8301.76972065515 9292.71681037932
8301.76972065515 6818.71259567736
7355.00929608731 4533.03073836756
5605.62413918745 2783.6455814677
5605.62413918745 5257.64979616967
6552.38456375529 7543.33165347947
6552.38456375529 5069.32743877751
5605.62413918745 2783.6455814677
3319.94228187765 1836.88515689986
2373.1818573098 4122.56701420966
2373.1818573098 6596.57122891162
4122.56701420966 8345.95638581148
6408.24887151946 9292.71681037932
4658.8637146196 7543.33165347947
2373.1818573098 6596.57122891162
3319.94228187765 8882.25308622142
5069.3274387775 10631.6382431213
7355.00929608731 11578.3986676891
5605.62413918745 9829.01351078927
3319.94228187765 8882.25308622142
3319.94228187765 6408.24887151946
5069.3274387775 8157.63402841932
7355.00929608731 9104.39445298716
5605.62413918745 7355.00929608731
3319.94228187765 6408.24887151946
2373.1818573098 4122.56701420966
4122.56701420966 5871.95217110952
4122.56701420966 8345.95638581148
5069.3274387775 10631.6382431213
5069.3274387775 8157.63402841932
4122.56701420966 5871.95217110952
6408.24887151946 6818.71259567736
6408.24887151946 9292.71681037932
7355.00929608731 11578.3986676891
7355.00929608731 9104.39445298716
6408.24887151946 6818.71259567736
4658.8637146196 5069.32743877751
4658.8637146196 7543.33165347947
5605.62413918745 9829.01351078927
5605.62413918745 7355.00929608731
4658.8637146196 5069.32743877751
2373.1818573098 4122.56701420966
4122.56701420966 2373.1818573098
4122.56701420966 4847.18607201176
5871.95217110951 6596.57122891162
8157.63402841932 7543.33165347947
6408.24887151946 5793.94649657961
4122.56701420966 4847.18607201176
5069.3274387775 7132.86792932157
6818.71259567736 8882.25308622142
9104.39445298716 9829.01351078927
7355.00929608731 8079.62835388941
5069.3274387775 7132.86792932157
5069.3274387775 4658.8637146196
6818.71259567736 6408.24887151946
9104.39445298716 7355.00929608731
7355.0092960873 5605.62413918745
5069.3274387775 4658.8637146196
4122.56701420966 2373.1818573098
5871.95217110951 4122.56701420966
5871.95217110951 6596.57122891162
6818.71259567736 8882.25308622142
6818.71259567736 6408.24887151946
5871.95217110951 4122.56701420966
8157.63402841932 5069.3274387775
8157.63402841932 7543.33165347947
9104.39445298716 9829.01351078927
9104.39445298716 7355.00929608731
8157.63402841932 5069.3274387775
6408.24887151946 3319.94228187765
6408.24887151946 5793.94649657961
7355.00929608731 8079.62835388941
7355.00929608731 5605.62413918745
6408.24887151946 3319.94228187765
4122.56701420966 2373.1818573098
5069.3274387775 87.5000000000009
5069.3274387775 2561.50421470196
3319.94228187765 4310.88937160182
2373.1818573098 6596.57122891162
4122.56701420966 4847.18607201176
5069.3274387775 2561.50421470196
6818.71259567736 4310.88937160182
9104.39445298716 5257.64979616967
7355.0092960873 3508.26463926981
5069.3274387775 2561.50421470196
6016.08786334535 4847.18607201176
7765.47302024521 6596.57122891162
10051.154877555 7543.33165347947
8301.76972065515 5793.94649657961
6016.08786334535 4847.18607201176
4266.70270644549 6596.57122891162
3319.94228187765 8882.25308622142
5069.3274387775 7132.86792932157
6016.08786334535 4847.18607201176
6016.08786334535 2373.1818573098
4266.70270644549 4122.56701420966
3319.94228187765 6408.24887151946
5069.3274387775 4658.8637146196
6016.08786334535 2373.1818573098
7765.47302024521 4122.56701420966
10051.154877555 5069.3274387775
8301.76972065515 3319.94228187765
6016.08786334535 2373.1818573098
5069.3274387775 87.5000000000009
6818.71259567736 1836.88515689986
5069.3274387775 3586.27031379972
4122.56701420966 5871.95217110952
5871.95217110951 4122.56701420966
6818.71259567736 1836.88515689986
6818.71259567736 4310.88937160182
5069.3274387775 6060.27452850168
4122.56701420966 8345.95638581148
5871.95217110951 6596.57122891162
6818.71259567736 4310.88937160182
7765.47302024521 6596.57122891162
6016.08786334535 8345.95638581148
5069.3274387775 10631.6382431213
6818.71259567736 8882.25308622142
7765.47302024521 6596.57122891162
7765.47302024521 4122.56701420966
6016.08786334535 5871.95217110952
5069.3274387775 8157.63402841932
6818.71259567736 6408.24887151946
7765.47302024521 4122.56701420966
6818.71259567736 1836.88515689986
9104.39445298716 2783.6455814677
7355.0092960873 4533.03073836756
6408.24887151946 6818.71259567736
8157.63402841932 5069.32743877751
9104.39445298716 2783.6455814677
9104.39445298716 5257.64979616967
7355.0092960873 7007.03495306952
6408.24887151946 9292.71681037932
8157.63402841932 7543.33165347947
9104.39445298716 5257.64979616967
10051.154877555 7543.33165347947
8301.76972065515 9292.71681037932
7355.00929608731 11578.3986676891
9104.39445298716 9829.01351078927
10051.154877555 7543.33165347947
10051.154877555 5069.3274387775
8301.76972065515 6818.71259567736
7355.00929608731 9104.39445298716
9104.39445298716 7355.00929608731
10051.154877555 5069.3274387775
9104.39445298716 2783.6455814677
7355.0092960873 1034.26042456785
5605.62413918745 2783.6455814677
4658.8637146196 5069.32743877751
6408.24887151946 3319.94228187765
7355.0092960873 1034.26042456785
7355.00929608731 3508.26463926981
5605.62413918745 5257.64979616967
4658.8637146196 7543.33165347947
6408.24887151946 5793.94649657961
7355.00929608731 3508.26463926981
8301.76972065515 5793.94649657961
6552.38456375529 7543.33165347947
5605.62413918745 9829.01351078927
7355.00929608731 8079.62835388941
8301.76972065515 5793.94649657961
8301.76972065515 3319.94228187765
6552.38456375529 5069.32743877751
5605.62413918745 7355.00929608731
7355.00929608731 5605.62413918745
8301.76972065515 3319.94228187765
7355.00929608731 1034.26042456785
5069.3274387775 87.5000000000018
2783.6455814677 1034.26042456785
1034.26042456784 2783.6455814677
1034.26042456784 5257.64979616967
2783.6455814677 7007.03495306952
5069.3274387775 7953.79537763737
3319.94228187765 6204.41022073751
1034.26042456784 5257.64979616967
1981.02084913569 7543.33165347947
3730.40600603555 9292.71681037932
6016.08786334535 10239.4772349472
4266.70270644549 8490.09207804731
1981.02084913569 7543.33165347947
1981.02084913569 5069.32743877751
3730.40600603555 6818.71259567736
6016.08786334535 7765.47302024521
4266.70270644549 6016.08786334535
1981.02084913569 5069.32743877751
1034.26042456784 2783.6455814677
2783.6455814677 4533.03073836756
2783.6455814677 7007.03495306952
3730.40600603555 9292.71681037932
3730.40600603555 6818.71259567736
2783.6455814677 4533.03073836756
5069.3274387775 5479.79116293541
5069.3274387775 7953.79537763737
6016.08786334535 10239.4772349472
6016.08786334535 7765.47302024521
5069.3274387775 5479.79116293541
3319.94228187765 3730.40600603555
3319.94228187765 6204.41022073751
4266.70270644549 8490.09207804731
4266.70270644549 6016.08786334535
3319.94228187765 3730.40600603555
1034.26042456784 2783.6455814677
87.5 5069.32743877751
87.5 7543.33165347947
1836.88515689986 9292.71681037932
4122.56701420966 10239.4772349472
2373.1818573098 8490.09207804731
87.5 7543.33165347947
1034.26042456785 9829.01351078927
2783.6455814677 11578.3986676891
5069.3274387775 12525.159092257
3319.94228187765 10775.7739353571
1034.26042456785 9829.01351078927
1034.26042456785 7355.00929608731
2783.6455814677 9104.39445298717
5069.3274387775 10051.154877555
3319.94228187765 8301.76972065515
1034.26042456785 7355.00929608731
87.5 5069.32743877751
1836.88515689986 6818.71259567736
1836.88515689986 9292.71681037933
2783.6455814677 11578.3986676891
2783.6455814677 9104.39445298717
1836.88515689986 6818.71259567736
4122.56701420966 7765.47302024521
4122.56701420966 10239.4772349472
5069.3274387775 12525.159092257
5069.3274387775 10051.154877555
4122.56701420966 7765.47302024521
2373.1818573098 6016.08786334535
2373.1818573098 8490.09207804731
3319.94228187765 10775.7739353571
3319.94228187765 8301.76972065515
2373.1818573098 6016.08786334535
87.5 5069.32743877751
1836.88515689986 3319.94228187765
1836.88515689986 5793.94649657961
3586.27031379971 7543.33165347947
5871.95217110951 8490.09207804731
4122.56701420966 6740.70692114746
1836.88515689986 5793.94649657961
2783.6455814677 8079.62835388941
4533.03073836756 9829.01351078927
6818.71259567736 10775.7739353571
5069.3274387775 9026.38877845726
2783.6455814677 8079.62835388941
2783.6455814677 5605.62413918745
4533.03073836756 7355.00929608731
6818.71259567736 8301.76972065515
5069.3274387775 6552.3845637553
2783.6455814677 5605.62413918745
1836.88515689986 3319.94228187765
3586.27031379971 5069.32743877751
3586.27031379971 7543.33165347947
4533.03073836756 9829.01351078927
4533.03073836756 7355.00929608731
3586.27031379971 5069.32743877751
5871.95217110951 6016.08786334535
5871.95217110951 8490.09207804731
6818.71259567736 10775.7739353571
6818.71259567736 8301.76972065515
5871.95217110951 6016.08786334535
4122.56701420966 4266.7027064455
4122.56701420966 6740.70692114746
5069.3274387775 9026.38877845726
5069.3274387775 6552.3845637553
4122.56701420966 4266.7027064455
1836.88515689986 3319.94228187765
2783.6455814677 1034.26042456785
2783.6455814677 3508.26463926981
1034.26042456784 5257.64979616967
87.5 7543.33165347947
1836.88515689986 5793.94649657961
2783.6455814677 3508.26463926981
4533.03073836756 5257.64979616967
6818.71259567736 6204.41022073751
5069.3274387775 4455.02506383766
2783.6455814677 3508.26463926981
3730.40600603555 5793.94649657961
5479.7911629354 7543.33165347947
7765.47302024521 8490.09207804731
6016.08786334535 6740.70692114746
3730.40600603555 5793.94649657961
1981.02084913569 7543.33165347947
1034.26042456784 9829.01351078927
2783.6455814677 8079.62835388941
3730.40600603555 5793.94649657961
3730.40600603555 3319.94228187765
1981.02084913569 5069.32743877751
1034.26042456784 7355.00929608731
2783.6455814677 5605.62413918745
3730.40600603555 3319.94228187765
5479.7911629354 5069.32743877751
7765.47302024521 6016.08786334535
6016.08786334535 4266.7027064455
3730.40600603555 3319.94228187765
2783.6455814677 1034.26042456785
4533.03073836756 2783.64558146771
2783.6455814677 4533.03073836756
1836.88515689986 6818.71259567736
3586.27031379971 5069.32743877751
4533.03073836756 2783.64558146771
4533.03073836756 5257.64979616967
2783.6455814677 7007.03495306952
1836.88515689986 9292.71681037933
3586.27031379971 7543.33165347947
4533.03073836756 5257.64979616967
5479.7911629354 7543.33165347947
3730.40600603555 9292.71681037933
2783.6455814677 11578.3986676891
4533.03073836756 9829.01351078927
5479.7911629354 7543.33165347947
5479.7911629354 5069.32743877751
3730.40600603555 6818.71259567736
2783.6455814677 9104.39445298717
4533.03073836756 7355.00929608731
5479.7911629354 5069.32743877751
4533.03073836756 2783.6455814677
6818.71259567736 3730.40600603555
5069.3274387775 5479.79116293541
4122.56701420966 7765.47302024521
5871.95217110951 6016.08786334535
6818.71259567736 3730.40600603555
6818.71259567736 6204.41022073751
5069.3274387775 7953.79537763737
4122.56701420966 10239.4772349472
5871.95217110951 8490.09207804731
6818.71259567736 6204.41022073751
7765.47302024521 8490.09207804731
6016.08786334535 10239.4772349472
5069.3274387775 12525.159092257
6818.71259567736 10775.7739353571
7765.47302024521 8490.09207804731
7765.47302024521 6016.08786334535
6016.08786334535 7765.47302024521
5069.3274387775 10051.154877555
6818.71259567736 8301.76972065515
7765.47302024521 6016.08786334535
6818.71259567736 3730.40600603555
5069.3274387775 1981.02084913569
3319.94228187765 3730.40600603555
2373.1818573098 6016.08786334535
4122.56701420966 4266.7027064455
5069.3274387775 1981.02084913569
5069.3274387775 4455.02506383766
3319.94228187765 6204.41022073751
2373.1818573098 8490.09207804731
4122.56701420966 6740.70692114746
5069.3274387775 4455.02506383766
6016.08786334535 6740.70692114746
4266.70270644549 8490.09207804731
3319.94228187765 10775.7739353571
5069.3274387775 9026.38877845726
6016.08786334535 6740.70692114746
6016.08786334535 4266.7027064455
4266.70270644549 6016.08786334535
3319.94228187765 8301.76972065515
5069.3274387775 6552.3845637553
6016.08786334535 4266.7027064455
5069.3274387775 1981.02084913569
2783.6455814677 1034.26042456785
5257.64979616966 1034.26042456785
3508.26463926981 2783.64558146771
3508.26463926981 5257.64979616967
5257.64979616966 7007.03495306952
7543.33165347947 7953.79537763737
5793.94649657961 6204.41022073751
3508.26463926981 5257.64979616967
4455.02506383765 7543.33165347947
6204.41022073751 9292.71681037933
8490.09207804731 10239.4772349472
6740.70692114745 8490.09207804732
4455.02506383765 7543.33165347947
4455.02506383765 5069.32743877751
6204.41022073751 6818.71259567736
8490.09207804731 7765.47302024521
6740.70692114745 6016.08786334535
4455.02506383765 5069.32743877751
3508.26463926981 2783.64558146771
5257.64979616966 4533.03073836756
5257.64979616966 7007.03495306952
6204.41022073751 9292.71681037933
6204.41022073751 6818.71259567736
5257.64979616966 4533.03073836756
7543.33165347946 5479.79116293541
7543.33165347946 7953.79537763737
8490.09207804731 10239.4772349472
8490.09207804731 7765.47302024521
7543.33165347946 5479.79116293541
5793.94649657961 3730.40600603555
5793.94649657961 6204.41022073751
6740.70692114745 8490.09207804732
6740.70692114745 6016.08786334535
5793.94649657961 3730.40600603555
3508.26463926981 2783.64558146771
2561.50421470196 5069.32743877751
2561.50421470196 7543.33165347947
4310.88937160182 9292.71681037933
6596.57122891162 10239.4772349472
4847.18607201176 8490.09207804732
2561.50421470196 7543.33165347947
3508.26463926981 9829.01351078927
5257.64979616966 11578.3986676891
7543.33165347947 12525.159092257
5793.94649657961 10775.7739353571
3508.26463926981 9829.01351078927
3508.26463926981 7355.00929608731
5257.64979616966 9104.39445298717
7543.33165347947 10051.154877555
5793.94649657961 8301.76972065515
3508.26463926981 7355.00929608731
2561.50421470196 5069.32743877751
4310.88937160182 6818.71259567736
4310.88937160182 9292.71681037933
5257.64979616966 11578.3986676891
5257.64979616966 9104.39445298717
4310.88937160182 6818.71259567736
6596.57122891162 7765.47302024521
6596.57122891162 10239.4772349472
7543.33165347947 12525.159092257
7543.33165347946 10051.154877555
6596.57122891162 7765.47302024521
4847.18607201176 6016.08786334535
4847.18607201176 8490.09207804731
5793.94649657961 10775.7739353571
5793.94649657961 8301.76972065515
4847.18607201176 6016.08786334535
2561.50421470196 5069.32743877751
4310.88937160182 3319.94228187765
4310.88937160182 5793.94649657961
6060.27452850168 7543.33165347947
8345.95638581148 8490.09207804731
6596.57122891162 6740.70692114746
4310.88937160182 5793.94649657961
5257.64979616966 8079.62835388941
7007.03495306952 9829.01351078927
9292.71681037932 10775.7739353571
7543.33165347946 9026.38877845726
5257.64979616966 8079.62835388941
5257.64979616966 5605.62413918745
7007.03495306952 7355.00929608731
9292.71681037932 8301.76972065515
7543.33165347946 6552.3845637553
5257.64979616966 5605.62413918745
4310.88937160182 3319.94228187765
6060.27452850167 5069.32743877751
6060.27452850167 7543.33165347947
7007.03495306952 9829.01351078927
7007.03495306952 7355.00929608731
6060.27452850167 5069.32743877751
8345.95638581148 6016.08786334535
8345.95638581148 8490.09207804731
9292.71681037932 10775.7739353571
9292.71681037932 8301.76972065515
8345.95638581148 6016.08786334535
6596.57122891162 4266.7027064455
6596.57122891162 6740.70692114746
7543.33165347946 9026.38877845726
7543.33165347946 6552.3845637553
6596.57122891162 4266.7027064455
4310.88937160182 3319.94228187765
5257.64979616966 1034.26042456785
5257.64979616966 3508.26463926981
3508.26463926981 5257.64979616967
2561.50421470196 7543.33165347947
4310.88937160182 5793.94649657961
5257.64979616966 3508.26463926981
7007.03495306952 5257.64979616967
9292.71681037932 6204.41022073751
7543.33165347946 4455.02506383766
5257.64979616966 3508.26463926981
6204.41022073751 5793.94649657961
7953.79537763737 7543.33165347947
10239.4772349472 8490.09207804731
8490.09207804731 6740.70692114746
6204.41022073751 5793.94649657961
4455.02506383765 7543.33165347947
3508.26463926981 9829.01351078927
5257.64979616966 8079.62835388941
6204.41022073751 5793.94649657961
6204.41022073751 3319.94228187765
4455.02506383765 5069.32743877751
3508.26463926981 7355.00929608731
5257.64979616966 5605.62413918745
6204.41022073751 3319.94228187765
7953.79537763737 5069.32743877751
10239.4772349472 6016.08786334535
8490.09207804731 4266.7027064455
6204.41022073751 3319.94228187765
5257.64979616966 1034.26042456785
7007.03495306952 2783.64558146771
5257.64979616966 4533.03073836756
4310.88937160182 6818.71259567736
6060.27452850168 5069.32743877751
7007.03495306952 2783.64558146771
7007.03495306952 5257.64979616967
5257.64979616966 7007.03495306952
4310.88937160182 9292.71681037933
6060.27452850168 7543.33165347947
7007.03495306952 5257.64979616967
7953.79537763737 7543.33165347947
6204.41022073751 9292.71681037933
5257.64979616966 11578.3986676891
7007.03495306952 9829.01351078927
7953.79537763737 7543.33165347947
7953.79537763737 5069.32743877751
6204.41022073751 6818.71259567736
5257.64979616966 9104.39445298717
7007.03495306952 7355.00929608731
7953.79537763737 5069.32743877751
7007.03495306952 2783.6455814677
9292.71681037932 3730.40600603555
7543.33165347946 5479.79116293541
6596.57122891162 7765.47302024521
8345.95638581148 6016.08786334535
9292.71681037932 3730.40600603555
9292.71681037932 6204.41022073751
7543.33165347946 7953.79537763737
6596.57122891162 10239.4772349472
8345.95638581148 8490.09207804731
9292.71681037932 6204.41022073751
10239.4772349472 8490.09207804731
8490.09207804731 10239.4772349472
7543.33165347947 12525.159092257
9292.71681037932 10775.7739353571
10239.4772349472 8490.09207804731
10239.4772349472 6016.08786334535
8490.09207804731 7765.47302024521
7543.33165347947 10051.154877555
9292.71681037932 8301.76972065515
10239.4772349472 6016.08786334535
9292.71681037932 3730.40600603555
7543.33165347946 1981.02084913569
5793.94649657961 3730.40600603555
4847.18607201176 6016.08786334535
6596.57122891162 4266.7027064455
7543.33165347946 1981.02084913569
7543.33165347947 4455.02506383766
5793.94649657961 6204.41022073751
4847.18607201176 8490.09207804731
6596.57122891162 6740.70692114746
7543.33165347947 4455.02506383766
8490.09207804731 6740.70692114746
6740.70692114746 8490.09207804731
5793.94649657961 10775.7739353571
7543.33165347947 9026.38877845726
8490.09207804731 6740.70692114746
8490.09207804731 4266.7027064455
6740.70692114746 6016.08786334535
5793.94649657961 8301.76972065515
7543.33165347947 6552.3845637553
8490.09207804731 4266.7027064455
7543.33165347947 1981.02084913569
5257.64979616966 1034.26042456785
7543.33165347947 87.5000000000027
5793.94649657961 1836.88515689986
3319.94228187765 1836.88515689986
1034.26042456785 2783.64558146771
3508.26463926981 2783.64558146771
5793.94649657961 1836.88515689986
5793.94649657961 4310.88937160182
7543.33165347947 6060.27452850168
9829.01351078927 7007.03495306952
8079.62835388941 5257.64979616967
5793.94649657961 4310.88937160182
6740.70692114746 6596.57122891162
8490.09207804731 8345.95638581148
10775.7739353571 9292.71681037933
9026.38877845726 7543.33165347947
6740.70692114746 6596.57122891162
6740.70692114746 4122.56701420966
8490.09207804731 5871.95217110952
10775.7739353571 6818.71259567736
9026.38877845726 5069.32743877751
6740.70692114746 4122.56701420966
5793.94649657961 1836.88515689986
7543.33165347947 3586.27031379972
7543.33165347947 6060.27452850168
8490.09207804731 8345.95638581148
8490.09207804731 5871.95217110952
7543.33165347947 3586.27031379972
9829.01351078927 4533.03073836756
9829.01351078927 7007.03495306952
10775.7739353571 9292.71681037933
10775.7739353571 6818.71259567736
9829.01351078927 4533.03073836756
8079.62835388941 2783.64558146771
8079.62835388941 5257.64979616967
9026.38877845726 7543.33165347947
9026.38877845726 5069.32743877751
8079.62835388941 2783.64558146771
5793.94649657961 1836.88515689986
4847.18607201176 4122.56701420966
4847.18607201176 6596.57122891162
6596.57122891162 8345.95638581148
8882.25308622142 9292.71681037933
7132.86792932157 7543.33165347947
4847.18607201176 6596.57122891162
5793.94649657961 8882.25308622143
7543.33165347947 10631.6382431213
9829.01351078927 11578.3986676891
8079.62835388941 9829.01351078927
5793.94649657961 8882.25308622143
5793.94649657961 6408.24887151946
7543.33165347947 8157.63402841932
9829.01351078927 9104.39445298717
8079.62835388941 7355.00929608731
5793.94649657961 6408.24887151946
4847.18607201177 4122.56701420966
6596.57122891162 5871.95217110952
6596.57122891162 8345.95638581148
7543.33165347947 10631.6382431213
7543.33165347947 8157.63402841932
6596.57122891162 5871.95217110952
8882.25308622142 6818.71259567736
8882.25308622142 9292.71681037933
9829.01351078927 11578.3986676891
9829.01351078927 9104.39445298717
8882.25308622142 6818.71259567736
7132.86792932157 5069.32743877751
7132.86792932157 7543.33165347947
8079.62835388941 9829.01351078927
8079.62835388941 7355.00929608731
7132.86792932157 5069.32743877751
4847.18607201176 4122.56701420966
2373.1818573098 4122.56701420966
87.5000000000009 5069.32743877751
2561.50421470196 5069.32743877751
4847.18607201176 4122.56701420966
6596.57122891162 2373.18185730981
4122.56701420966 2373.18185730981
1836.88515689986 3319.94228187765
4310.88937160182 3319.94228187765
6596.57122891162 2373.18185730981
6596.57122891162 4847.18607201177
8345.95638581148 6596.57122891162
10631.6382431213 7543.33165347947
8882.25308622142 5793.94649657961
6596.57122891162 4847.18607201177
7543.33165347947 7132.86792932157
9292.71681037932 8882.25308622143
11578.3986676891 9829.01351078927
9829.01351078927 8079.62835388941
7543.33165347947 7132.86792932157
7543.33165347947 4658.86371461961
9292.71681037932 6408.24887151946
11578.3986676891 7355.00929608731
9829.01351078927 5605.62413918745
7543.33165347947 4658.86371461961
6596.57122891162 2373.18185730981
8345.95638581148 4122.56701420966
8345.95638581148 6596.57122891162
9292.71681037932 8882.25308622143
9292.71681037932 6408.24887151946
8345.95638581148 4122.56701420966
10631.6382431213 5069.32743877751
10631.6382431213 7543.33165347947
11578.3986676891 9829.01351078927
11578.3986676891 7355.00929608731
10631.6382431213 5069.32743877751
8882.25308622142 3319.94228187765
8882.25308622142 5793.94649657961
9829.01351078927 8079.62835388941
9829.01351078927 5605.62413918745
8882.25308622142 3319.94228187765
6596.57122891162 2373.18185730981
7543.33165347947 87.5000000000036
7543.33165347947 2561.50421470197
5069.3274387775 2561.50421470197
2783.6455814677 3508.26463926981
5257.64979616967 3508.26463926981
7543.33165347947 2561.50421470197
5793.94649657961 4310.88937160182
3319.94228187765 4310.88937160182
1034.26042456785 5257.64979616967
3508.26463926981 5257.64979616967
5793.94649657961 4310.88937160182
4847.18607201177 6596.57122891162
2373.1818573098 6596.57122891162
87.5000000000018 7543.33165347947
2561.50421470196 7543.33165347947
4847.18607201177 6596.57122891162
6596.57122891162 4847.18607201177
4122.56701420966 4847.18607201177
1836.88515689986 5793.94649657961
4310.88937160182 5793.94649657961
6596.57122891162 4847.18607201177
7543.33165347947 2561.50421470197
9292.71681037932 4310.88937160182
11578.3986676891 5257.64979616967
9829.01351078927 3508.26463926981
7543.33165347947 2561.50421470197
8490.09207804731 4847.18607201177
10239.4772349472 6596.57122891162
12525.159092257 7543.33165347947
10775.7739353571 5793.94649657961
8490.09207804731 4847.18607201177
6016.08786334535 4847.18607201177
3730.40600603555 5793.94649657961
6204.41022073751 5793.94649657961
8490.09207804731 4847.18607201177
6740.70692114746 6596.57122891162
4266.70270644549 6596.57122891163
1981.02084913569 7543.33165347947
4455.02506383765 7543.33165347947
6740.70692114746 6596.57122891162
5793.94649657961 8882.25308622143
3319.94228187765 8882.25308622143
1034.26042456785 9829.01351078927
3508.26463926981 9829.01351078927
5793.94649657961 8882.25308622143
7543.33165347947 7132.86792932157
5069.32743877751 7132.86792932157
2783.6455814677 8079.62835388942
5257.64979616967 8079.62835388942
7543.33165347947 7132.86792932157
8490.09207804731 4847.18607201177
8490.09207804731 2373.18185730981
6016.08786334535 2373.18185730981
3730.40600603555 3319.94228187765
6204.41022073751 3319.94228187765
8490.09207804731 2373.18185730981
6740.70692114746 4122.56701420966
4266.70270644549 4122.56701420966
1981.02084913569 5069.32743877751
4455.02506383765 5069.32743877751
6740.70692114746 4122.56701420966
5793.94649657961 6408.24887151946
3319.94228187765 6408.24887151947
1034.26042456785 7355.00929608731
3508.26463926981 7355.00929608731
5793.94649657961 6408.24887151947
7543.33165347947 4658.86371461961
5069.32743877751 4658.86371461961
2783.6455814677 5605.62413918745
5257.64979616967 5605.62413918745
7543.33165347947 4658.86371461961
8490.09207804731 2373.18185730981
10239.4772349472 4122.56701420966
12525.159092257 5069.32743877751
10775.7739353571 3319.94228187765
8490.09207804731 2373.18185730981
7543.33165347947 87.5000000000055
9292.71681037932 1836.88515689986
6818.71259567736 1836.88515689986
4533.03073836756 2783.64558146771
7007.03495306952 2783.64558146771
9292.71681037932 1836.88515689986
7543.33165347947 3586.27031379972
5069.32743877751 3586.27031379972
2783.6455814677 4533.03073836756
5257.64979616967 4533.03073836756
7543.33165347947 3586.27031379972
6596.57122891162 5871.95217110952
4122.56701420966 5871.95217110952
1836.88515689986 6818.71259567737
4310.88937160182 6818.71259567737
6596.57122891162 5871.95217110952
8345.95638581148 4122.56701420966
5871.95217110952 4122.56701420966
3586.27031379971 5069.32743877751
6060.27452850168 5069.32743877751
8345.95638581148 4122.56701420966
9292.71681037932 1836.88515689986
9292.71681037932 4310.88937160183
6818.71259567736 4310.88937160183
4533.03073836756 5257.64979616967
7007.03495306952 5257.64979616967
9292.71681037932 4310.88937160183
7543.33165347947 6060.27452850168
5069.32743877751 6060.27452850168
2783.6455814677 7007.03495306953
5257.64979616967 7007.03495306953
7543.33165347947 6060.27452850168
6596.57122891162 8345.95638581148
4122.56701420966 8345.95638581149
1836.88515689986 9292.71681037933
4310.88937160182 9292.71681037933
6596.57122891162 8345.95638581148
8345.95638581148 6596.57122891163
5871.95217110952 6596.57122891163
3586.27031379971 7543.33165347947
6060.27452850168 7543.33165347947
8345.95638581148 6596.57122891163
9292.71681037932 4310.88937160183
10239.4772349472 6596.57122891163
7765.47302024521 6596.57122891163
5479.79116293541 7543.33165347947
7953.79537763737 7543.33165347947
10239.4772349472 6596.57122891163
8490.09207804731 8345.95638581149
6016.08786334535 8345.95638581149
3730.40600603555 9292.71681037933
6204.41022073751 9292.71681037933
8490.09207804731 8345.95638581148
7543.33165347947 10631.6382431213
5069.32743877751 10631.6382431213
2783.6455814677 11578.3986676891
5257.64979616967 11578.3986676891
7543.33165347947 10631.6382431213
9292.71681037932 8882.25308622143
6818.71259567736 8882.25308622143
4533.03073836756 9829.01351078927
7007.03495306952 9829.01351078927
9292.71681037932 8882.25308622143
10239.4772349472 6596.57122891163
10239.4772349472 4122.56701420967
7765.47302024521 4122.56701420967
5479.79116293541 5069.32743877751
7953.79537763737 5069.32743877751
10239.4772349472 4122.56701420967
8490.09207804731 5871.95217110952
6016.08786334535 5871.95217110952
3730.40600603555 6818.71259567737
6204.41022073751 6818.71259567737
8490.09207804731 5871.95217110952
7543.33165347947 8157.63402841932
5069.32743877751 8157.63402841932
2783.6455814677 9104.39445298717
5257.64979616967 9104.39445298717
7543.33165347947 8157.63402841932
9292.71681037932 6408.24887151947
6818.71259567736 6408.24887151947
4533.03073836756 7355.00929608731
7007.03495306952 7355.00929608731
9292.71681037932 6408.24887151947
10239.4772349472 4122.56701420967
9292.71681037932 1836.88515689986
11578.3986676891 2783.64558146771
9104.39445298716 2783.64558146771
6818.71259567736 3730.40600603556
9292.71681037932 3730.40600603555
11578.3986676891 2783.64558146771
9829.01351078927 4533.03073836757
7355.00929608731 4533.03073836757
5069.32743877751 5479.79116293541
7543.33165347947 5479.79116293541
9829.01351078927 4533.03073836757
8882.25308622142 6818.71259567737
6408.24887151946 6818.71259567737
4122.56701420966 7765.47302024521
6596.57122891162 7765.47302024521
8882.25308622142 6818.71259567737
10631.6382431213 5069.32743877751
8157.63402841932 5069.32743877751
5871.95217110952 6016.08786334536
8345.95638581148 6016.08786334536
10631.6382431213 5069.32743877751
11578.3986676891 2783.64558146771
11578.3986676891 5257.64979616967
9104.39445298716 5257.64979616967
6818.71259567736 6204.41022073752
9292.71681037932 6204.41022073752
11578.3986676891 5257.64979616967
9829.01351078927 7007.03495306953
7355.00929608731 7007.03495306953
5069.32743877751 7953.79537763737
7543.33165347947 7953.79537763737
9829.01351078927 7007.03495306953
8882.25308622142 9292.71681037933
6408.24887151946 9292.71681037933
4122.56701420966 10239.4772349472
6596.57122891162 10239.4772349472
8882.25308622142 9292.71681037933
10631.6382431213 7543.33165347947
8157.63402841932 7543.33165347947
5871.95217110952 8490.09207804732
8345.95638581148 8490.09207804732
10631.6382431213 7543.33165347947
11578.3986676891 5257.64979616967
12525.159092257 7543.33165347947
10051.154877555 7543.33165347947
7765.47302024521 8490.09207804732
10239.4772349472 8490.09207804732
12525.159092257 7543.33165347947
10775.7739353571 9292.71681037933
8301.76972065515 9292.71681037933
6016.08786334535 10239.4772349472
8490.09207804731 10239.4772349472
10775.7739353571 9292.71681037933
9829.01351078927 11578.3986676891
7355.00929608731 11578.3986676891
5069.32743877751 12525.159092257
7543.33165347947 12525.159092257
9829.01351078927 11578.3986676891
11578.3986676891 9829.01351078927
9104.39445298716 9829.01351078927
6818.71259567736 10775.7739353571
9292.71681037932 10775.7739353571
11578.3986676891 9829.01351078927
12525.159092257 7543.33165347947
12525.159092257 5069.32743877751
10051.154877555 5069.32743877751
7765.47302024521 6016.08786334536
10239.4772349472 6016.08786334536
12525.159092257 5069.32743877751
10775.7739353571 6818.71259567737
8301.76972065515 6818.71259567737
6016.08786334535 7765.47302024521
8490.09207804731 7765.47302024521
10775.7739353571 6818.71259567737
9829.01351078927 9104.39445298717
7355.00929608731 9104.39445298717
5069.32743877751 10051.154877555
7543.33165347947 10051.154877555
9829.01351078927 9104.39445298717
11578.3986676891 7355.00929608731
9104.39445298716 7355.00929608731
6818.71259567736 8301.76972065516
9292.71681037932 8301.76972065516
11578.3986676891 7355.00929608731
12525.159092257 5069.32743877751
11578.3986676891 2783.64558146771
9829.01351078927 1034.26042456785
7355.00929608731 1034.26042456785
5069.3274387775 1981.0208491357
7543.33165347947 1981.0208491357
9829.01351078927 1034.26042456785
8079.62835388941 2783.64558146771
5605.62413918745 2783.64558146771
3319.94228187765 3730.40600603556
5793.94649657961 3730.40600603556
8079.62835388941 2783.64558146771
7132.86792932157 5069.32743877751
4658.8637146196 5069.32743877751
2373.1818573098 6016.08786334536
4847.18607201176 6016.08786334536
7132.86792932157 5069.32743877751
8882.25308622142 3319.94228187765
6408.24887151946 3319.94228187765
4122.56701420966 4266.7027064455
6596.57122891162 4266.7027064455
8882.25308622142 3319.94228187765
9829.01351078927 1034.26042456785
9829.01351078927 3508.26463926981
7355.00929608731 3508.26463926981
5069.3274387775 4455.02506383766
7543.33165347947 4455.02506383766
9829.01351078927 3508.26463926981
8079.62835388941 5257.64979616967
5605.62413918745 5257.64979616967
3319.94228187765 6204.41022073752
5793.94649657961 6204.41022073752
8079.62835388941 5257.64979616967
7132.86792932157 7543.33165347947
4658.8637146196 7543.33165347947
2373.1818573098 8490.09207804732
4847.18607201176 8490.09207804732
7132.86792932157 7543.33165347947
8882.25308622142 5793.94649657962
6408.24887151946 5793.94649657962
4122.56701420966 6740.70692114746
6596.57122891162 6740.70692114746
8882.25308622142 5793.94649657962
9829.01351078927 3508.26463926981
10775.7739353571 5793.94649657962
8301.76972065515 5793.94649657962
6016.08786334535 6740.70692114746
8490.09207804731 6740.70692114746
10775.7739353571 5793.94649657962
9026.38877845726 7543.33165347947
6552.38456375529 7543.33165347947
4266.70270644549 8490.09207804732
6740.70692114746 8490.09207804732
9026.38877845726 7543.33165347947
8079.62835388941 9829.01351078927
5605.62413918745 9829.01351078927
3319.94228187765 10775.7739353571
5793.94649657961 10775.7739353571
8079.62835388941 9829.01351078927
9829.01351078927 8079.62835388942
7355.00929608731 8079.62835388942
5069.3274387775 9026.38877845726
7543.33165347947 9026.38877845726
9829.01351078927 8079.62835388942
10775.7739353571 5793.94649657962
10775.7739353571 3319.94228187765
8301.76972065515 3319.94228187765
6016.08786334535 4266.7027064455
8490.09207804731 4266.7027064455
10775.7739353571 3319.94228187765
9026.38877845726 5069.32743877751
6552.38456375529 5069.32743877751
4266.70270644549 6016.08786334536
6740.70692114746 6016.08786334536
9026.38877845726 5069.32743877751
8079.62835388941 7355.00929608731
5605.62413918745 7355.00929608731
3319.94228187765 8301.76972065516
5793.94649657961 8301.76972065516
8079.62835388941 7355.00929608731
9829.01351078927 5605.62413918746
7355.00929608731 5605.62413918746
5069.3274387775 6552.3845637553
7543.33165347947 6552.3845637553
9829.01351078927 5605.62413918746
10775.7739353571 3319.94228187765
9829.01351078927 1034.26042456785
7543.33165347947 87.5000000000073
"
stroke="green"
id="polyline2"
style="fill:#ff0000;fill-opacity:1;fill-rule:evenodd"
/>
</svg>
