<?xml version="1.0" standalone="no"?>
<svg width="12120.5490570034" height="12120.5490570034" version="1.1" xmlns="http://www.w3.org/2000/svg">
<polyline points="
8534.27874320364 87.4999999999991
3586.27031379971 87.5
3586.27031379971 5035.50842940392
7085.04062759943 8534.27874320364
7085.04062759943 3586.27031379971
3586.27031379971 87.5
87.5 3586.27031379971
87.5 8534.27874320364
3586.27031379971 12033.0490570034
3586.27031379971 7085.04062759943
87.5 3586.27031379971
5035.50842940392 3586.27031379971
5035.50842940392 8534.27874320364
8534.27874320364 12033.0490570034
8534.27874320364 7085.04062759943
5035.50842940392 3586.27031379971
8534.27874320364 87.5
8534.27874320364 5035.50842940392
3586.27031379971 5035.50842940393
87.5 8534.27874320364
5035.50842940392 8534.27874320364
8534.27874320364 5035.50842940392
12033.0490570034 8534.27874320364
7085.04062759943 8534.27874320364
3586.27031379971 12033.0490570034
8534.27874320364 12033.0490570034
12033.0490570034 8534.27874320364
12033.0490570034 3586.27031379971
7085.04062759943 3586.27031379971
3586.27031379971 7085.04062759943
8534.27874320364 7085.04062759943
12033.0490570034 3586.27031379971
8534.27874320364 87.4999999999991
"
stroke="green"
id="polyline2"
style="fill:#ff0000;fill-opacity:1;fill-rule:evenodd"
/>
</svg>
