%MOMM*%
%FSLAX36Y36*%
%ADD10C,3.14159265358979*%
D10*
G01*
%LPD*%
%LS1.25663706143592*%
X576894680Y10493372D02*
X337505320Y10493372D01*
X217810640Y217810640D01*
X337505320Y425127907D01*
X544822587Y544822587D01*
X425127907Y337505320D01*
X217810640Y217810640D01*
X217810640Y457200000D01*
X337505320Y664517267D01*
X544822587Y784211947D01*
X425127907Y576894680D01*
X217810640Y457200000D01*
X337505320Y249882733D01*
X457200000Y457200000D01*
X664517267Y576894680D01*
X544822587Y369577413D01*
X337505320Y249882733D01*
X337505320Y10493372D01*
X457200000Y217810640D01*
X337505320Y425127907D01*
X337505320Y664517267D01*
X457200000Y457200000D01*
X457200000Y217810640D01*
X664517267Y337505320D01*
X544822587Y544822587D01*
X544822587Y784211947D01*
X664517267Y576894680D01*
X664517267Y337505320D01*
X544822587Y130188053D01*
X425127907Y337505320D01*
X425127907Y576894680D01*
X544822587Y369577413D01*
X544822587Y130188053D01*
X337505320Y10493372D01*
X130188053Y130188053D01*
X10493372Y337505320D01*
X130188053Y544822587D01*
X337505320Y664517267D01*
X217810640Y457200000D01*
X10493372Y337505320D01*
X10493372Y576894680D01*
X130188053Y784211947D01*
X337505320Y903906628D01*
X217810640Y696589360D01*
X10493372Y576894680D01*
X130188053Y369577413D01*
X249882733Y576894680D01*
X457200000Y696589360D01*
X337505320Y489272093D01*
X130188053Y369577413D01*
X130188053Y130188053D01*
X249882733Y337505320D01*
X130188053Y544822587D01*
X130188053Y784211947D01*
X249882733Y576894680D01*
X249882733Y337505320D01*
X457200000Y457200000D01*
X337505320Y664517267D01*
X337505320Y903906628D01*
X457200000Y696589360D01*
X457200000Y457200000D01*
X337505320Y249882733D01*
X217810640Y457200000D01*
X217810640Y696589360D01*
X337505320Y489272093D01*
X337505320Y249882733D01*
X130188053Y130188053D01*
X369577413Y130188053D01*
X249882733Y337505320D01*
X369577413Y544822587D01*
X576894680Y664517267D01*
X457200000Y457200000D01*
X249882733Y337505320D01*
X249882733Y576894680D01*
X369577413Y784211947D01*
X576894680Y903906628D01*
X457200000Y696589360D01*
X249882733Y576894680D01*
X369577413Y369577413D01*
X489272093Y576894680D01*
X696589360Y696589360D01*
X576894680Y489272093D01*
X369577413Y369577413D01*
X369577413Y130188053D01*
X489272093Y337505320D01*
X369577413Y544822587D01*
X369577413Y784211947D01*
X489272093Y576894680D01*
X489272093Y337505320D01*
X696589360Y457200000D01*
X576894680Y664517267D01*
X576894680Y903906628D01*
X696589360Y696589360D01*
X696589360Y457200000D01*
X576894680Y249882733D01*
X457200000Y457200000D01*
X457200000Y696589360D01*
X576894680Y489272093D01*
X576894680Y249882733D01*
X369577413Y130188053D01*
X576894680Y10493372D01*
X457200000Y217810640D01*
X217810640Y217810640D01*
X10493372Y337505320D01*
X249882733Y337505320D01*
X457200000Y217810640D01*
X576894680Y425127907D01*
X784211947Y544822587D01*
X664517267Y337505320D01*
X457200000Y217810640D01*
X457200000Y457200000D01*
X576894680Y664517267D01*
X784211947Y784211947D01*
X664517267Y576894680D01*
X457200000Y457200000D01*
X217810640Y457200000D01*
X10493372Y576894680D01*
X249882733Y576894680D01*
X457200000Y457200000D01*
X576894680Y249882733D01*
X337505320Y249882733D01*
X130188053Y369577413D01*
X369577413Y369577413D01*
X576894680Y249882733D01*
X696589360Y457200000D01*
X903906628Y576894680D01*
X784211947Y369577413D01*
X576894680Y249882733D01*
X576894680Y10493372D01*
X696589360Y217810640D01*
X457200000Y217810640D01*
X249882733Y337505320D01*
X489272093Y337505320D01*
X696589360Y217810640D01*
X576894680Y425127907D01*
X337505320Y425127907D01*
X130188053Y544822587D01*
X369577413Y544822587D01*
X576894680Y425127907D01*
X576894680Y664517267D01*
X337505320Y664517267D01*
X130188053Y784211947D01*
X369577413Y784211947D01*
X576894680Y664517267D01*
X696589360Y457200000D01*
X457200000Y457200000D01*
X249882733Y576894680D01*
X489272093Y576894680D01*
X696589360Y457200000D01*
X696589360Y217810640D01*
X903906628Y337505320D01*
X664517267Y337505320D01*
X457200000Y457200000D01*
X696589360Y457200000D01*
X903906628Y337505320D01*
X784211947Y544822587D01*
X544822587Y544822587D01*
X337505320Y664517267D01*
X576894680Y664517267D01*
X784211947Y544822587D01*
X784211947Y784211947D01*
X544822587Y784211947D01*
X337505320Y903906628D01*
X576894680Y903906628D01*
X784211947Y784211947D01*
X903906628Y576894680D01*
X664517267Y576894680D01*
X457200000Y696589360D01*
X696589360Y696589360D01*
X903906628Y576894680D01*
X903906628Y337505320D01*
X784211947Y130188053D01*
X544822587Y130188053D01*
X337505320Y249882733D01*
X576894680Y249882733D01*
X784211947Y130188053D01*
X664517267Y337505320D01*
X425127907Y337505320D01*
X217810640Y457200000D01*
X457200000Y457200000D01*
X664517267Y337505320D01*
X664517267Y576894680D01*
X425127907Y576894680D01*
X217810640Y696589360D01*
X457200000Y696589360D01*
X664517267Y576894680D01*
X784211947Y369577413D01*
X544822587Y369577413D01*
X337505320Y489272093D01*
X576894680Y489272093D01*
X784211947Y369577413D01*
X784211947Y130188053D01*
X576894680Y10493372D01*
%LPC*%
%LS1.15191730631626*%
X576894680Y10493372D02*
X337505320Y10493372D01*
X217810640Y217810640D01*
X337505320Y425127907D01*
X544822587Y544822587D01*
X425127907Y337505320D01*
X217810640Y217810640D01*
X217810640Y457200000D01*
X337505320Y664517267D01*
X544822587Y784211947D01*
X425127907Y576894680D01*
X217810640Y457200000D01*
X337505320Y249882733D01*
X457200000Y457200000D01*
X664517267Y576894680D01*
X544822587Y369577413D01*
X337505320Y249882733D01*
X337505320Y10493372D01*
X457200000Y217810640D01*
X337505320Y425127907D01*
X337505320Y664517267D01*
X457200000Y457200000D01*
X457200000Y217810640D01*
X664517267Y337505320D01*
X544822587Y544822587D01*
X544822587Y784211947D01*
X664517267Y576894680D01*
X664517267Y337505320D01*
X544822587Y130188053D01*
X425127907Y337505320D01*
X425127907Y576894680D01*
X544822587Y369577413D01*
X544822587Y130188053D01*
X337505320Y10493372D01*
X130188053Y130188053D01*
X10493372Y337505320D01*
X130188053Y544822587D01*
X337505320Y664517267D01*
X217810640Y457200000D01*
X10493372Y337505320D01*
X10493372Y576894680D01*
X130188053Y784211947D01*
X337505320Y903906628D01*
X217810640Y696589360D01*
X10493372Y576894680D01*
X130188053Y369577413D01*
X249882733Y576894680D01*
X457200000Y696589360D01*
X337505320Y489272093D01*
X130188053Y369577413D01*
X130188053Y130188053D01*
X249882733Y337505320D01*
X130188053Y544822587D01*
X130188053Y784211947D01*
X249882733Y576894680D01*
X249882733Y337505320D01*
X457200000Y457200000D01*
X337505320Y664517267D01*
X337505320Y903906628D01*
X457200000Y696589360D01*
X457200000Y457200000D01*
X337505320Y249882733D01*
X217810640Y457200000D01*
X217810640Y696589360D01*
X337505320Y489272093D01*
X337505320Y249882733D01*
X130188053Y130188053D01*
X369577413Y130188053D01*
X249882733Y337505320D01*
X369577413Y544822587D01*
X576894680Y664517267D01*
X457200000Y457200000D01*
X249882733Y337505320D01*
X249882733Y576894680D01*
X369577413Y784211947D01*
X576894680Y903906628D01*
X457200000Y696589360D01*
X249882733Y576894680D01*
X369577413Y369577413D01*
X489272093Y576894680D01*
X696589360Y696589360D01*
X576894680Y489272093D01*
X369577413Y369577413D01*
X369577413Y130188053D01*
X489272093Y337505320D01*
X369577413Y544822587D01*
X369577413Y784211947D01*
X489272093Y576894680D01*
X489272093Y337505320D01*
X696589360Y457200000D01*
X576894680Y664517267D01*
X576894680Y903906628D01*
X696589360Y696589360D01*
X696589360Y457200000D01*
X576894680Y249882733D01*
X457200000Y457200000D01*
X457200000Y696589360D01*
X576894680Y489272093D01*
X576894680Y249882733D01*
X369577413Y130188053D01*
X576894680Y10493372D01*
X457200000Y217810640D01*
X217810640Y217810640D01*
X10493372Y337505320D01*
X249882733Y337505320D01*
X457200000Y217810640D01*
X576894680Y425127907D01*
X784211947Y544822587D01*
X664517267Y337505320D01*
X457200000Y217810640D01*
X457200000Y457200000D01*
X576894680Y664517267D01*
X784211947Y784211947D01*
X664517267Y576894680D01*
X457200000Y457200000D01*
X217810640Y457200000D01*
X10493372Y576894680D01*
X249882733Y576894680D01*
X457200000Y457200000D01*
X576894680Y249882733D01*
X337505320Y249882733D01*
X130188053Y369577413D01*
X369577413Y369577413D01*
X576894680Y249882733D01*
X696589360Y457200000D01*
X903906628Y576894680D01*
X784211947Y369577413D01*
X576894680Y249882733D01*
X576894680Y10493372D01*
X696589360Y217810640D01*
X457200000Y217810640D01*
X249882733Y337505320D01*
X489272093Y337505320D01*
X696589360Y217810640D01*
X576894680Y425127907D01*
X337505320Y425127907D01*
X130188053Y544822587D01*
X369577413Y544822587D01*
X576894680Y425127907D01*
X576894680Y664517267D01*
X337505320Y664517267D01*
X130188053Y784211947D01*
X369577413Y784211947D01*
X576894680Y664517267D01*
X696589360Y457200000D01*
X457200000Y457200000D01*
X249882733Y576894680D01*
X489272093Y576894680D01*
X696589360Y457200000D01*
X696589360Y217810640D01*
X903906628Y337505320D01*
X664517267Y337505320D01*
X457200000Y457200000D01*
X696589360Y457200000D01*
X903906628Y337505320D01*
X784211947Y544822587D01*
X544822587Y544822587D01*
X337505320Y664517267D01*
X576894680Y664517267D01*
X784211947Y544822587D01*
X784211947Y784211947D01*
X544822587Y784211947D01*
X337505320Y903906628D01*
X576894680Y903906628D01*
X784211947Y784211947D01*
X903906628Y576894680D01*
X664517267Y576894680D01*
X457200000Y696589360D01*
X696589360Y696589360D01*
X903906628Y576894680D01*
X903906628Y337505320D01*
X784211947Y130188053D01*
X544822587Y130188053D01*
X337505320Y249882733D01*
X576894680Y249882733D01*
X784211947Y130188053D01*
X664517267Y337505320D01*
X425127907Y337505320D01*
X217810640Y457200000D01*
X457200000Y457200000D01*
X664517267Y337505320D01*
X664517267Y576894680D01*
X425127907Y576894680D01*
X217810640Y696589360D01*
X457200000Y696589360D01*
X664517267Y576894680D01*
X784211947Y369577413D01*
X544822587Y369577413D01*
X337505320Y489272093D01*
X576894680Y489272093D01*
X784211947Y369577413D01*
X784211947Y130188053D01*
X576894680Y10493372D01*
%LPD*%
%LS1.0471975511966*%
X576894680Y10493372D02*
X337505320Y10493372D01*
X217810640Y217810640D01*
X337505320Y425127907D01*
X544822587Y544822587D01*
X425127907Y337505320D01*
X217810640Y217810640D01*
X217810640Y457200000D01*
X337505320Y664517267D01*
X544822587Y784211947D01*
X425127907Y576894680D01*
X217810640Y457200000D01*
X337505320Y249882733D01*
X457200000Y457200000D01*
X664517267Y576894680D01*
X544822587Y369577413D01*
X337505320Y249882733D01*
X337505320Y10493372D01*
X457200000Y217810640D01*
X337505320Y425127907D01*
X337505320Y664517267D01*
X457200000Y457200000D01*
X457200000Y217810640D01*
X664517267Y337505320D01*
X544822587Y544822587D01*
X544822587Y784211947D01*
X664517267Y576894680D01*
X664517267Y337505320D01*
X544822587Y130188053D01*
X425127907Y337505320D01*
X425127907Y576894680D01*
X544822587Y369577413D01*
X544822587Y130188053D01*
X337505320Y10493372D01*
X130188053Y130188053D01*
X10493372Y337505320D01*
X130188053Y544822587D01*
X337505320Y664517267D01*
X217810640Y457200000D01*
X10493372Y337505320D01*
X10493372Y576894680D01*
X130188053Y784211947D01*
X337505320Y903906628D01*
X217810640Y696589360D01*
X10493372Y576894680D01*
X130188053Y369577413D01*
X249882733Y576894680D01*
X457200000Y696589360D01*
X337505320Y489272093D01*
X130188053Y369577413D01*
X130188053Y130188053D01*
X249882733Y337505320D01*
X130188053Y544822587D01*
X130188053Y784211947D01*
X249882733Y576894680D01*
X249882733Y337505320D01*
X457200000Y457200000D01*
X337505320Y664517267D01*
X337505320Y903906628D01*
X457200000Y696589360D01*
X457200000Y457200000D01*
X337505320Y249882733D01*
X217810640Y457200000D01*
X217810640Y696589360D01*
X337505320Y489272093D01*
X337505320Y249882733D01*
X130188053Y130188053D01*
X369577413Y130188053D01*
X249882733Y337505320D01*
X369577413Y544822587D01*
X576894680Y664517267D01*
X457200000Y457200000D01*
X249882733Y337505320D01*
X249882733Y576894680D01*
X369577413Y784211947D01*
X576894680Y903906628D01*
X457200000Y696589360D01*
X249882733Y576894680D01*
X369577413Y369577413D01*
X489272093Y576894680D01*
X696589360Y696589360D01*
X576894680Y489272093D01*
X369577413Y369577413D01*
X369577413Y130188053D01*
X489272093Y337505320D01*
X369577413Y544822587D01*
X369577413Y784211947D01*
X489272093Y576894680D01*
X489272093Y337505320D01*
X696589360Y457200000D01*
X576894680Y664517267D01*
X576894680Y903906628D01*
X696589360Y696589360D01*
X696589360Y457200000D01*
X576894680Y249882733D01*
X457200000Y457200000D01*
X457200000Y696589360D01*
X576894680Y489272093D01*
X576894680Y249882733D01*
X369577413Y130188053D01*
X576894680Y10493372D01*
X457200000Y217810640D01*
X217810640Y217810640D01*
X10493372Y337505320D01*
X249882733Y337505320D01*
X457200000Y217810640D01*
X576894680Y425127907D01*
X784211947Y544822587D01*
X664517267Y337505320D01*
X457200000Y217810640D01*
X457200000Y457200000D01*
X576894680Y664517267D01*
X784211947Y784211947D01*
X664517267Y576894680D01*
X457200000Y457200000D01*
X217810640Y457200000D01*
X10493372Y576894680D01*
X249882733Y576894680D01*
X457200000Y457200000D01*
X576894680Y249882733D01*
X337505320Y249882733D01*
X130188053Y369577413D01*
X369577413Y369577413D01*
X576894680Y249882733D01*
X696589360Y457200000D01*
X903906628Y576894680D01*
X784211947Y369577413D01*
X576894680Y249882733D01*
X576894680Y10493372D01*
X696589360Y217810640D01*
X457200000Y217810640D01*
X249882733Y337505320D01*
X489272093Y337505320D01*
X696589360Y217810640D01*
X576894680Y425127907D01*
X337505320Y425127907D01*
X130188053Y544822587D01*
X369577413Y544822587D01*
X576894680Y425127907D01*
X576894680Y664517267D01*
X337505320Y664517267D01*
X130188053Y784211947D01*
X369577413Y784211947D01*
X576894680Y664517267D01*
X696589360Y457200000D01*
X457200000Y457200000D01*
X249882733Y576894680D01*
X489272093Y576894680D01*
X696589360Y457200000D01*
X696589360Y217810640D01*
X903906628Y337505320D01*
X664517267Y337505320D01*
X457200000Y457200000D01*
X696589360Y457200000D01*
X903906628Y337505320D01*
X784211947Y544822587D01*
X544822587Y544822587D01*
X337505320Y664517267D01*
X576894680Y664517267D01*
X784211947Y544822587D01*
X784211947Y784211947D01*
X544822587Y784211947D01*
X337505320Y903906628D01*
X576894680Y903906628D01*
X784211947Y784211947D01*
X903906628Y576894680D01*
X664517267Y576894680D01*
X457200000Y696589360D01*
X696589360Y696589360D01*
X903906628Y576894680D01*
X903906628Y337505320D01*
X784211947Y130188053D01*
X544822587Y130188053D01*
X337505320Y249882733D01*
X576894680Y249882733D01*
X784211947Y130188053D01*
X664517267Y337505320D01*
X425127907Y337505320D01*
X217810640Y457200000D01*
X457200000Y457200000D01*
X664517267Y337505320D01*
X664517267Y576894680D01*
X425127907Y576894680D01*
X217810640Y696589360D01*
X457200000Y696589360D01*
X664517267Y576894680D01*
X784211947Y369577413D01*
X544822587Y369577413D01*
X337505320Y489272093D01*
X576894680Y489272093D01*
X784211947Y369577413D01*
X784211947Y130188053D01*
X576894680Y10493372D01*
%LPC*%
%LS0.942477796076938*%
X576894680Y10493372D02*
X337505320Y10493372D01*
X217810640Y217810640D01*
X337505320Y425127907D01*
X544822587Y544822587D01*
X425127907Y337505320D01*
X217810640Y217810640D01*
X217810640Y457200000D01*
X337505320Y664517267D01*
X544822587Y784211947D01*
X425127907Y576894680D01*
X217810640Y457200000D01*
X337505320Y249882733D01*
X457200000Y457200000D01*
X664517267Y576894680D01*
X544822587Y369577413D01*
X337505320Y249882733D01*
X337505320Y10493372D01*
X457200000Y217810640D01*
X337505320Y425127907D01*
X337505320Y664517267D01*
X457200000Y457200000D01*
X457200000Y217810640D01*
X664517267Y337505320D01*
X544822587Y544822587D01*
X544822587Y784211947D01*
X664517267Y576894680D01*
X664517267Y337505320D01*
X544822587Y130188053D01*
X425127907Y337505320D01*
X425127907Y576894680D01*
X544822587Y369577413D01*
X544822587Y130188053D01*
X337505320Y10493372D01*
X130188053Y130188053D01*
X10493372Y337505320D01*
X130188053Y544822587D01*
X337505320Y664517267D01*
X217810640Y457200000D01*
X10493372Y337505320D01*
X10493372Y576894680D01*
X130188053Y784211947D01*
X337505320Y903906628D01*
X217810640Y696589360D01*
X10493372Y576894680D01*
X130188053Y369577413D01*
X249882733Y576894680D01*
X457200000Y696589360D01*
X337505320Y489272093D01*
X130188053Y369577413D01*
X130188053Y130188053D01*
X249882733Y337505320D01*
X130188053Y544822587D01*
X130188053Y784211947D01*
X249882733Y576894680D01*
X249882733Y337505320D01*
X457200000Y457200000D01*
X337505320Y664517267D01*
X337505320Y903906628D01*
X457200000Y696589360D01*
X457200000Y457200000D01*
X337505320Y249882733D01*
X217810640Y457200000D01*
X217810640Y696589360D01*
X337505320Y489272093D01*
X337505320Y249882733D01*
X130188053Y130188053D01*
X369577413Y130188053D01*
X249882733Y337505320D01*
X369577413Y544822587D01*
X576894680Y664517267D01*
X457200000Y457200000D01*
X249882733Y337505320D01*
X249882733Y576894680D01*
X369577413Y784211947D01*
X576894680Y903906628D01*
X457200000Y696589360D01*
X249882733Y576894680D01*
X369577413Y369577413D01*
X489272093Y576894680D01*
X696589360Y696589360D01*
X576894680Y489272093D01*
X369577413Y369577413D01*
X369577413Y130188053D01*
X489272093Y337505320D01*
X369577413Y544822587D01*
X369577413Y784211947D01*
X489272093Y576894680D01*
X489272093Y337505320D01*
X696589360Y457200000D01*
X576894680Y664517267D01*
X576894680Y903906628D01*
X696589360Y696589360D01*
X696589360Y457200000D01*
X576894680Y249882733D01*
X457200000Y457200000D01*
X457200000Y696589360D01*
X576894680Y489272093D01*
X576894680Y249882733D01*
X369577413Y130188053D01*
X576894680Y10493372D01*
X457200000Y217810640D01*
X217810640Y217810640D01*
X10493372Y337505320D01*
X249882733Y337505320D01*
X457200000Y217810640D01*
X576894680Y425127907D01*
X784211947Y544822587D01*
X664517267Y337505320D01*
X457200000Y217810640D01*
X457200000Y457200000D01*
X576894680Y664517267D01*
X784211947Y784211947D01*
X664517267Y576894680D01*
X457200000Y457200000D01*
X217810640Y457200000D01*
X10493372Y576894680D01*
X249882733Y576894680D01*
X457200000Y457200000D01*
X576894680Y249882733D01*
X337505320Y249882733D01*
X130188053Y369577413D01*
X369577413Y369577413D01*
X576894680Y249882733D01*
X696589360Y457200000D01*
X903906628Y576894680D01*
X784211947Y369577413D01*
X576894680Y249882733D01*
X576894680Y10493372D01*
X696589360Y217810640D01*
X457200000Y217810640D01*
X249882733Y337505320D01*
X489272093Y337505320D01*
X696589360Y217810640D01*
X576894680Y425127907D01*
X337505320Y425127907D01*
X130188053Y544822587D01*
X369577413Y544822587D01*
X576894680Y425127907D01*
X576894680Y664517267D01*
X337505320Y664517267D01*
X130188053Y784211947D01*
X369577413Y784211947D01*
X576894680Y664517267D01*
X696589360Y457200000D01*
X457200000Y457200000D01*
X249882733Y576894680D01*
X489272093Y576894680D01*
X696589360Y457200000D01*
X696589360Y217810640D01*
X903906628Y337505320D01*
X664517267Y337505320D01*
X457200000Y457200000D01*
X696589360Y457200000D01*
X903906628Y337505320D01*
X784211947Y544822587D01*
X544822587Y544822587D01*
X337505320Y664517267D01*
X576894680Y664517267D01*
X784211947Y544822587D01*
X784211947Y784211947D01*
X544822587Y784211947D01*
X337505320Y903906628D01*
X576894680Y903906628D01*
X784211947Y784211947D01*
X903906628Y576894680D01*
X664517267Y576894680D01*
X457200000Y696589360D01*
X696589360Y696589360D01*
X903906628Y576894680D01*
X903906628Y337505320D01*
X784211947Y130188053D01*
X544822587Y130188053D01*
X337505320Y249882733D01*
X576894680Y249882733D01*
X784211947Y130188053D01*
X664517267Y337505320D01*
X425127907Y337505320D01*
X217810640Y457200000D01*
X457200000Y457200000D01*
X664517267Y337505320D01*
X664517267Y576894680D01*
X425127907Y576894680D01*
X217810640Y696589360D01*
X457200000Y696589360D01*
X664517267Y576894680D01*
X784211947Y369577413D01*
X544822587Y369577413D01*
X337505320Y489272093D01*
X576894680Y489272093D01*
X784211947Y369577413D01*
X784211947Y130188053D01*
X576894680Y10493372D01*
%LPD*%
%LS0.837758040957278*%
X576894680Y10493372D02*
X337505320Y10493372D01*
X217810640Y217810640D01*
X337505320Y425127907D01*
X544822587Y544822587D01*
X425127907Y337505320D01*
X217810640Y217810640D01*
X217810640Y457200000D01*
X337505320Y664517267D01*
X544822587Y784211947D01*
X425127907Y576894680D01*
X217810640Y457200000D01*
X337505320Y249882733D01*
X457200000Y457200000D01*
X664517267Y576894680D01*
X544822587Y369577413D01*
X337505320Y249882733D01*
X337505320Y10493372D01*
X457200000Y217810640D01*
X337505320Y425127907D01*
X337505320Y664517267D01*
X457200000Y457200000D01*
X457200000Y217810640D01*
X664517267Y337505320D01*
X544822587Y544822587D01*
X544822587Y784211947D01*
X664517267Y576894680D01*
X664517267Y337505320D01*
X544822587Y130188053D01*
X425127907Y337505320D01*
X425127907Y576894680D01*
X544822587Y369577413D01*
X544822587Y130188053D01*
X337505320Y10493372D01*
X130188053Y130188053D01*
X10493372Y337505320D01*
X130188053Y544822587D01*
X337505320Y664517267D01*
X217810640Y457200000D01*
X10493372Y337505320D01*
X10493372Y576894680D01*
X130188053Y784211947D01*
X337505320Y903906628D01*
X217810640Y696589360D01*
X10493372Y576894680D01*
X130188053Y369577413D01*
X249882733Y576894680D01*
X457200000Y696589360D01*
X337505320Y489272093D01*
X130188053Y369577413D01*
X130188053Y130188053D01*
X249882733Y337505320D01*
X130188053Y544822587D01*
X130188053Y784211947D01*
X249882733Y576894680D01*
X249882733Y337505320D01*
X457200000Y457200000D01*
X337505320Y664517267D01*
X337505320Y903906628D01*
X457200000Y696589360D01*
X457200000Y457200000D01*
X337505320Y249882733D01*
X217810640Y457200000D01*
X217810640Y696589360D01*
X337505320Y489272093D01*
X337505320Y249882733D01*
X130188053Y130188053D01*
X369577413Y130188053D01*
X249882733Y337505320D01*
X369577413Y544822587D01*
X576894680Y664517267D01*
X457200000Y457200000D01*
X249882733Y337505320D01*
X249882733Y576894680D01*
X369577413Y784211947D01*
X576894680Y903906628D01*
X457200000Y696589360D01*
X249882733Y576894680D01*
X369577413Y369577413D01*
X489272093Y576894680D01*
X696589360Y696589360D01*
X576894680Y489272093D01*
X369577413Y369577413D01*
X369577413Y130188053D01*
X489272093Y337505320D01*
X369577413Y544822587D01*
X369577413Y784211947D01*
X489272093Y576894680D01*
X489272093Y337505320D01*
X696589360Y457200000D01*
X576894680Y664517267D01*
X576894680Y903906628D01*
X696589360Y696589360D01*
X696589360Y457200000D01*
X576894680Y249882733D01*
X457200000Y457200000D01*
X457200000Y696589360D01*
X576894680Y489272093D01*
X576894680Y249882733D01*
X369577413Y130188053D01*
X576894680Y10493372D01*
X457200000Y217810640D01*
X217810640Y217810640D01*
X10493372Y337505320D01*
X249882733Y337505320D01*
X457200000Y217810640D01*
X576894680Y425127907D01*
X784211947Y544822587D01*
X664517267Y337505320D01*
X457200000Y217810640D01*
X457200000Y457200000D01*
X576894680Y664517267D01*
X784211947Y784211947D01*
X664517267Y576894680D01*
X457200000Y457200000D01*
X217810640Y457200000D01*
X10493372Y576894680D01*
X249882733Y576894680D01*
X457200000Y457200000D01*
X576894680Y249882733D01*
X337505320Y249882733D01*
X130188053Y369577413D01*
X369577413Y369577413D01*
X576894680Y249882733D01*
X696589360Y457200000D01*
X903906628Y576894680D01*
X784211947Y369577413D01*
X576894680Y249882733D01*
X576894680Y10493372D01*
X696589360Y217810640D01*
X457200000Y217810640D01*
X249882733Y337505320D01*
X489272093Y337505320D01*
X696589360Y217810640D01*
X576894680Y425127907D01*
X337505320Y425127907D01*
X130188053Y544822587D01*
X369577413Y544822587D01*
X576894680Y425127907D01*
X576894680Y664517267D01*
X337505320Y664517267D01*
X130188053Y784211947D01*
X369577413Y784211947D01*
X576894680Y664517267D01*
X696589360Y457200000D01*
X457200000Y457200000D01*
X249882733Y576894680D01*
X489272093Y576894680D01*
X696589360Y457200000D01*
X696589360Y217810640D01*
X903906628Y337505320D01*
X664517267Y337505320D01*
X457200000Y457200000D01*
X696589360Y457200000D01*
X903906628Y337505320D01*
X784211947Y544822587D01*
X544822587Y544822587D01*
X337505320Y664517267D01*
X576894680Y664517267D01*
X784211947Y544822587D01*
X784211947Y784211947D01*
X544822587Y784211947D01*
X337505320Y903906628D01*
X576894680Y903906628D01*
X784211947Y784211947D01*
X903906628Y576894680D01*
X664517267Y576894680D01*
X457200000Y696589360D01*
X696589360Y696589360D01*
X903906628Y576894680D01*
X903906628Y337505320D01*
X784211947Y130188053D01*
X544822587Y130188053D01*
X337505320Y249882733D01*
X576894680Y249882733D01*
X784211947Y130188053D01*
X664517267Y337505320D01*
X425127907Y337505320D01*
X217810640Y457200000D01*
X457200000Y457200000D01*
X664517267Y337505320D01*
X664517267Y576894680D01*
X425127907Y576894680D01*
X217810640Y696589360D01*
X457200000Y696589360D01*
X664517267Y576894680D01*
X784211947Y369577413D01*
X544822587Y369577413D01*
X337505320Y489272093D01*
X576894680Y489272093D01*
X784211947Y369577413D01*
X784211947Y130188053D01*
X576894680Y10493372D01*
%LPC*%
%LS0.733038285837618*%
X576894680Y10493372D02*
X337505320Y10493372D01*
X217810640Y217810640D01*
X337505320Y425127907D01*
X544822587Y544822587D01*
X425127907Y337505320D01*
X217810640Y217810640D01*
X217810640Y457200000D01*
X337505320Y664517267D01*
X544822587Y784211947D01*
X425127907Y576894680D01*
X217810640Y457200000D01*
X337505320Y249882733D01*
X457200000Y457200000D01*
X664517267Y576894680D01*
X544822587Y369577413D01*
X337505320Y249882733D01*
X337505320Y10493372D01*
X457200000Y217810640D01*
X337505320Y425127907D01*
X337505320Y664517267D01*
X457200000Y457200000D01*
X457200000Y217810640D01*
X664517267Y337505320D01*
X544822587Y544822587D01*
X544822587Y784211947D01*
X664517267Y576894680D01*
X664517267Y337505320D01*
X544822587Y130188053D01*
X425127907Y337505320D01*
X425127907Y576894680D01*
X544822587Y369577413D01*
X544822587Y130188053D01*
X337505320Y10493372D01*
X130188053Y130188053D01*
X10493372Y337505320D01*
X130188053Y544822587D01*
X337505320Y664517267D01*
X217810640Y457200000D01*
X10493372Y337505320D01*
X10493372Y576894680D01*
X130188053Y784211947D01*
X337505320Y903906628D01*
X217810640Y696589360D01*
X10493372Y576894680D01*
X130188053Y369577413D01*
X249882733Y576894680D01*
X457200000Y696589360D01*
X337505320Y489272093D01*
X130188053Y369577413D01*
X130188053Y130188053D01*
X249882733Y337505320D01*
X130188053Y544822587D01*
X130188053Y784211947D01*
X249882733Y576894680D01*
X249882733Y337505320D01*
X457200000Y457200000D01*
X337505320Y664517267D01*
X337505320Y903906628D01*
X457200000Y696589360D01*
X457200000Y457200000D01*
X337505320Y249882733D01*
X217810640Y457200000D01*
X217810640Y696589360D01*
X337505320Y489272093D01*
X337505320Y249882733D01*
X130188053Y130188053D01*
X369577413Y130188053D01*
X249882733Y337505320D01*
X369577413Y544822587D01*
X576894680Y664517267D01*
X457200000Y457200000D01*
X249882733Y337505320D01*
X249882733Y576894680D01*
X369577413Y784211947D01*
X576894680Y903906628D01*
X457200000Y696589360D01*
X249882733Y576894680D01*
X369577413Y369577413D01*
X489272093Y576894680D01*
X696589360Y696589360D01*
X576894680Y489272093D01*
X369577413Y369577413D01*
X369577413Y130188053D01*
X489272093Y337505320D01*
X369577413Y544822587D01*
X369577413Y784211947D01*
X489272093Y576894680D01*
X489272093Y337505320D01*
X696589360Y457200000D01*
X576894680Y664517267D01*
X576894680Y903906628D01*
X696589360Y696589360D01*
X696589360Y457200000D01*
X576894680Y249882733D01*
X457200000Y457200000D01*
X457200000Y696589360D01*
X576894680Y489272093D01*
X576894680Y249882733D01*
X369577413Y130188053D01*
X576894680Y10493372D01*
X457200000Y217810640D01*
X217810640Y217810640D01*
X10493372Y337505320D01*
X249882733Y337505320D01*
X457200000Y217810640D01*
X576894680Y425127907D01*
X784211947Y544822587D01*
X664517267Y337505320D01*
X457200000Y217810640D01*
X457200000Y457200000D01*
X576894680Y664517267D01*
X784211947Y784211947D01*
X664517267Y576894680D01*
X457200000Y457200000D01*
X217810640Y457200000D01*
X10493372Y576894680D01*
X249882733Y576894680D01*
X457200000Y457200000D01*
X576894680Y249882733D01*
X337505320Y249882733D01*
X130188053Y369577413D01*
X369577413Y369577413D01*
X576894680Y249882733D01*
X696589360Y457200000D01*
X903906628Y576894680D01*
X784211947Y369577413D01*
X576894680Y249882733D01*
X576894680Y10493372D01*
X696589360Y217810640D01*
X457200000Y217810640D01*
X249882733Y337505320D01*
X489272093Y337505320D01*
X696589360Y217810640D01*
X576894680Y425127907D01*
X337505320Y425127907D01*
X130188053Y544822587D01*
X369577413Y544822587D01*
X576894680Y425127907D01*
X576894680Y664517267D01*
X337505320Y664517267D01*
X130188053Y784211947D01*
X369577413Y784211947D01*
X576894680Y664517267D01*
X696589360Y457200000D01*
X457200000Y457200000D01*
X249882733Y576894680D01*
X489272093Y576894680D01*
X696589360Y457200000D01*
X696589360Y217810640D01*
X903906628Y337505320D01*
X664517267Y337505320D01*
X457200000Y457200000D01*
X696589360Y457200000D01*
X903906628Y337505320D01*
X784211947Y544822587D01*
X544822587Y544822587D01*
X337505320Y664517267D01*
X576894680Y664517267D01*
X784211947Y544822587D01*
X784211947Y784211947D01*
X544822587Y784211947D01*
X337505320Y903906628D01*
X576894680Y903906628D01*
X784211947Y784211947D01*
X903906628Y576894680D01*
X664517267Y576894680D01*
X457200000Y696589360D01*
X696589360Y696589360D01*
X903906628Y576894680D01*
X903906628Y337505320D01*
X784211947Y130188053D01*
X544822587Y130188053D01*
X337505320Y249882733D01*
X576894680Y249882733D01*
X784211947Y130188053D01*
X664517267Y337505320D01*
X425127907Y337505320D01*
X217810640Y457200000D01*
X457200000Y457200000D01*
X664517267Y337505320D01*
X664517267Y576894680D01*
X425127907Y576894680D01*
X217810640Y696589360D01*
X457200000Y696589360D01*
X664517267Y576894680D01*
X784211947Y369577413D01*
X544822587Y369577413D01*
X337505320Y489272093D01*
X576894680Y489272093D01*
X784211947Y369577413D01*
X784211947Y130188053D01*
X576894680Y10493372D01*
%LPD*%
%LS0.628318530717959*%
X576894680Y10493372D02*
X337505320Y10493372D01*
X217810640Y217810640D01*
X337505320Y425127907D01*
X544822587Y544822587D01*
X425127907Y337505320D01*
X217810640Y217810640D01*
X217810640Y457200000D01*
X337505320Y664517267D01*
X544822587Y784211947D01*
X425127907Y576894680D01*
X217810640Y457200000D01*
X337505320Y249882733D01*
X457200000Y457200000D01*
X664517267Y576894680D01*
X544822587Y369577413D01*
X337505320Y249882733D01*
X337505320Y10493372D01*
X457200000Y217810640D01*
X337505320Y425127907D01*
X337505320Y664517267D01*
X457200000Y457200000D01*
X457200000Y217810640D01*
X664517267Y337505320D01*
X544822587Y544822587D01*
X544822587Y784211947D01*
X664517267Y576894680D01*
X664517267Y337505320D01*
X544822587Y130188053D01*
X425127907Y337505320D01*
X425127907Y576894680D01*
X544822587Y369577413D01*
X544822587Y130188053D01*
X337505320Y10493372D01*
X130188053Y130188053D01*
X10493372Y337505320D01*
X130188053Y544822587D01*
X337505320Y664517267D01*
X217810640Y457200000D01*
X10493372Y337505320D01*
X10493372Y576894680D01*
X130188053Y784211947D01*
X337505320Y903906628D01*
X217810640Y696589360D01*
X10493372Y576894680D01*
X130188053Y369577413D01*
X249882733Y576894680D01*
X457200000Y696589360D01*
X337505320Y489272093D01*
X130188053Y369577413D01*
X130188053Y130188053D01*
X249882733Y337505320D01*
X130188053Y544822587D01*
X130188053Y784211947D01*
X249882733Y576894680D01*
X249882733Y337505320D01*
X457200000Y457200000D01*
X337505320Y664517267D01*
X337505320Y903906628D01*
X457200000Y696589360D01*
X457200000Y457200000D01*
X337505320Y249882733D01*
X217810640Y457200000D01*
X217810640Y696589360D01*
X337505320Y489272093D01*
X337505320Y249882733D01*
X130188053Y130188053D01*
X369577413Y130188053D01*
X249882733Y337505320D01*
X369577413Y544822587D01*
X576894680Y664517267D01*
X457200000Y457200000D01*
X249882733Y337505320D01*
X249882733Y576894680D01*
X369577413Y784211947D01*
X576894680Y903906628D01*
X457200000Y696589360D01*
X249882733Y576894680D01*
X369577413Y369577413D01*
X489272093Y576894680D01*
X696589360Y696589360D01*
X576894680Y489272093D01*
X369577413Y369577413D01*
X369577413Y130188053D01*
X489272093Y337505320D01*
X369577413Y544822587D01*
X369577413Y784211947D01*
X489272093Y576894680D01*
X489272093Y337505320D01*
X696589360Y457200000D01*
X576894680Y664517267D01*
X576894680Y903906628D01*
X696589360Y696589360D01*
X696589360Y457200000D01*
X576894680Y249882733D01*
X457200000Y457200000D01*
X457200000Y696589360D01*
X576894680Y489272093D01*
X576894680Y249882733D01*
X369577413Y130188053D01*
X576894680Y10493372D01*
X457200000Y217810640D01*
X217810640Y217810640D01*
X10493372Y337505320D01*
X249882733Y337505320D01*
X457200000Y217810640D01*
X576894680Y425127907D01*
X784211947Y544822587D01*
X664517267Y337505320D01*
X457200000Y217810640D01*
X457200000Y457200000D01*
X576894680Y664517267D01*
X784211947Y784211947D01*
X664517267Y576894680D01*
X457200000Y457200000D01*
X217810640Y457200000D01*
X10493372Y576894680D01*
X249882733Y576894680D01*
X457200000Y457200000D01*
X576894680Y249882733D01*
X337505320Y249882733D01*
X130188053Y369577413D01*
X369577413Y369577413D01*
X576894680Y249882733D01*
X696589360Y457200000D01*
X903906628Y576894680D01*
X784211947Y369577413D01*
X576894680Y249882733D01*
X576894680Y10493372D01*
X696589360Y217810640D01*
X457200000Y217810640D01*
X249882733Y337505320D01*
X489272093Y337505320D01*
X696589360Y217810640D01*
X576894680Y425127907D01*
X337505320Y425127907D01*
X130188053Y544822587D01*
X369577413Y544822587D01*
X576894680Y425127907D01*
X576894680Y664517267D01*
X337505320Y664517267D01*
X130188053Y784211947D01*
X369577413Y784211947D01*
X576894680Y664517267D01*
X696589360Y457200000D01*
X457200000Y457200000D01*
X249882733Y576894680D01*
X489272093Y576894680D01*
X696589360Y457200000D01*
X696589360Y217810640D01*
X903906628Y337505320D01*
X664517267Y337505320D01*
X457200000Y457200000D01*
X696589360Y457200000D01*
X903906628Y337505320D01*
X784211947Y544822587D01*
X544822587Y544822587D01*
X337505320Y664517267D01*
X576894680Y664517267D01*
X784211947Y544822587D01*
X784211947Y784211947D01*
X544822587Y784211947D01*
X337505320Y903906628D01*
X576894680Y903906628D01*
X784211947Y784211947D01*
X903906628Y576894680D01*
X664517267Y576894680D01*
X457200000Y696589360D01*
X696589360Y696589360D01*
X903906628Y576894680D01*
X903906628Y337505320D01*
X784211947Y130188053D01*
X544822587Y130188053D01*
X337505320Y249882733D01*
X576894680Y249882733D01*
X784211947Y130188053D01*
X664517267Y337505320D01*
X425127907Y337505320D01*
X217810640Y457200000D01*
X457200000Y457200000D01*
X664517267Y337505320D01*
X664517267Y576894680D01*
X425127907Y576894680D01*
X217810640Y696589360D01*
X457200000Y696589360D01*
X664517267Y576894680D01*
X784211947Y369577413D01*
X544822587Y369577413D01*
X337505320Y489272093D01*
X576894680Y489272093D01*
X784211947Y369577413D01*
X784211947Y130188053D01*
X576894680Y10493372D01*
%LPC*%
%LS0.523598775598299*%
X576894680Y10493372D02*
X337505320Y10493372D01*
X217810640Y217810640D01*
X337505320Y425127907D01*
X544822587Y544822587D01*
X425127907Y337505320D01*
X217810640Y217810640D01*
X217810640Y457200000D01*
X337505320Y664517267D01*
X544822587Y784211947D01*
X425127907Y576894680D01*
X217810640Y457200000D01*
X337505320Y249882733D01*
X457200000Y457200000D01*
X664517267Y576894680D01*
X544822587Y369577413D01*
X337505320Y249882733D01*
X337505320Y10493372D01*
X457200000Y217810640D01*
X337505320Y425127907D01*
X337505320Y664517267D01*
X457200000Y457200000D01*
X457200000Y217810640D01*
X664517267Y337505320D01*
X544822587Y544822587D01*
X544822587Y784211947D01*
X664517267Y576894680D01*
X664517267Y337505320D01*
X544822587Y130188053D01*
X425127907Y337505320D01*
X425127907Y576894680D01*
X544822587Y369577413D01*
X544822587Y130188053D01*
X337505320Y10493372D01*
X130188053Y130188053D01*
X10493372Y337505320D01*
X130188053Y544822587D01*
X337505320Y664517267D01*
X217810640Y457200000D01*
X10493372Y337505320D01*
X10493372Y576894680D01*
X130188053Y784211947D01*
X337505320Y903906628D01*
X217810640Y696589360D01*
X10493372Y576894680D01*
X130188053Y369577413D01*
X249882733Y576894680D01*
X457200000Y696589360D01*
X337505320Y489272093D01*
X130188053Y369577413D01*
X130188053Y130188053D01*
X249882733Y337505320D01*
X130188053Y544822587D01*
X130188053Y784211947D01*
X249882733Y576894680D01*
X249882733Y337505320D01*
X457200000Y457200000D01*
X337505320Y664517267D01*
X337505320Y903906628D01*
X457200000Y696589360D01*
X457200000Y457200000D01*
X337505320Y249882733D01*
X217810640Y457200000D01*
X217810640Y696589360D01*
X337505320Y489272093D01*
X337505320Y249882733D01*
X130188053Y130188053D01*
X369577413Y130188053D01*
X249882733Y337505320D01*
X369577413Y544822587D01*
X576894680Y664517267D01*
X457200000Y457200000D01*
X249882733Y337505320D01*
X249882733Y576894680D01*
X369577413Y784211947D01*
X576894680Y903906628D01*
X457200000Y696589360D01*
X249882733Y576894680D01*
X369577413Y369577413D01*
X489272093Y576894680D01*
X696589360Y696589360D01*
X576894680Y489272093D01*
X369577413Y369577413D01*
X369577413Y130188053D01*
X489272093Y337505320D01*
X369577413Y544822587D01*
X369577413Y784211947D01*
X489272093Y576894680D01*
X489272093Y337505320D01*
X696589360Y457200000D01*
X576894680Y664517267D01*
X576894680Y903906628D01*
X696589360Y696589360D01*
X696589360Y457200000D01*
X576894680Y249882733D01*
X457200000Y457200000D01*
X457200000Y696589360D01*
X576894680Y489272093D01*
X576894680Y249882733D01*
X369577413Y130188053D01*
X576894680Y10493372D01*
X457200000Y217810640D01*
X217810640Y217810640D01*
X10493372Y337505320D01*
X249882733Y337505320D01*
X457200000Y217810640D01*
X576894680Y425127907D01*
X784211947Y544822587D01*
X664517267Y337505320D01*
X457200000Y217810640D01*
X457200000Y457200000D01*
X576894680Y664517267D01*
X784211947Y784211947D01*
X664517267Y576894680D01*
X457200000Y457200000D01*
X217810640Y457200000D01*
X10493372Y576894680D01*
X249882733Y576894680D01*
X457200000Y457200000D01*
X576894680Y249882733D01*
X337505320Y249882733D01*
X130188053Y369577413D01*
X369577413Y369577413D01*
X576894680Y249882733D01*
X696589360Y457200000D01*
X903906628Y576894680D01*
X784211947Y369577413D01*
X576894680Y249882733D01*
X576894680Y10493372D01*
X696589360Y217810640D01*
X457200000Y217810640D01*
X249882733Y337505320D01*
X489272093Y337505320D01*
X696589360Y217810640D01*
X576894680Y425127907D01*
X337505320Y425127907D01*
X130188053Y544822587D01*
X369577413Y544822587D01*
X576894680Y425127907D01*
X576894680Y664517267D01*
X337505320Y664517267D01*
X130188053Y784211947D01*
X369577413Y784211947D01*
X576894680Y664517267D01*
X696589360Y457200000D01*
X457200000Y457200000D01*
X249882733Y576894680D01*
X489272093Y576894680D01*
X696589360Y457200000D01*
X696589360Y217810640D01*
X903906628Y337505320D01*
X664517267Y337505320D01*
X457200000Y457200000D01*
X696589360Y457200000D01*
X903906628Y337505320D01*
X784211947Y544822587D01*
X544822587Y544822587D01*
X337505320Y664517267D01*
X576894680Y664517267D01*
X784211947Y544822587D01*
X784211947Y784211947D01*
X544822587Y784211947D01*
X337505320Y903906628D01*
X576894680Y903906628D01*
X784211947Y784211947D01*
X903906628Y576894680D01*
X664517267Y576894680D01*
X457200000Y696589360D01*
X696589360Y696589360D01*
X903906628Y576894680D01*
X903906628Y337505320D01*
X784211947Y130188053D01*
X544822587Y130188053D01*
X337505320Y249882733D01*
X576894680Y249882733D01*
X784211947Y130188053D01*
X664517267Y337505320D01*
X425127907Y337505320D01*
X217810640Y457200000D01*
X457200000Y457200000D01*
X664517267Y337505320D01*
X664517267Y576894680D01*
X425127907Y576894680D01*
X217810640Y696589360D01*
X457200000Y696589360D01*
X664517267Y576894680D01*
X784211947Y369577413D01*
X544822587Y369577413D01*
X337505320Y489272093D01*
X576894680Y489272093D01*
X784211947Y369577413D01*
X784211947Y130188053D01*
X576894680Y10493372D01*
%LPD*%
%LS0.418879020478639*%
X576894680Y10493372D02*
X337505320Y10493372D01*
X217810640Y217810640D01*
X337505320Y425127907D01*
X544822587Y544822587D01*
X425127907Y337505320D01*
X217810640Y217810640D01*
X217810640Y457200000D01*
X337505320Y664517267D01*
X544822587Y784211947D01*
X425127907Y576894680D01*
X217810640Y457200000D01*
X337505320Y249882733D01*
X457200000Y457200000D01*
X664517267Y576894680D01*
X544822587Y369577413D01*
X337505320Y249882733D01*
X337505320Y10493372D01*
X457200000Y217810640D01*
X337505320Y425127907D01*
X337505320Y664517267D01*
X457200000Y457200000D01*
X457200000Y217810640D01*
X664517267Y337505320D01*
X544822587Y544822587D01*
X544822587Y784211947D01*
X664517267Y576894680D01*
X664517267Y337505320D01*
X544822587Y130188053D01*
X425127907Y337505320D01*
X425127907Y576894680D01*
X544822587Y369577413D01*
X544822587Y130188053D01*
X337505320Y10493372D01*
X130188053Y130188053D01*
X10493372Y337505320D01*
X130188053Y544822587D01*
X337505320Y664517267D01*
X217810640Y457200000D01*
X10493372Y337505320D01*
X10493372Y576894680D01*
X130188053Y784211947D01*
X337505320Y903906628D01*
X217810640Y696589360D01*
X10493372Y576894680D01*
X130188053Y369577413D01*
X249882733Y576894680D01*
X457200000Y696589360D01*
X337505320Y489272093D01*
X130188053Y369577413D01*
X130188053Y130188053D01*
X249882733Y337505320D01*
X130188053Y544822587D01*
X130188053Y784211947D01*
X249882733Y576894680D01*
X249882733Y337505320D01*
X457200000Y457200000D01*
X337505320Y664517267D01*
X337505320Y903906628D01*
X457200000Y696589360D01*
X457200000Y457200000D01*
X337505320Y249882733D01*
X217810640Y457200000D01*
X217810640Y696589360D01*
X337505320Y489272093D01*
X337505320Y249882733D01*
X130188053Y130188053D01*
X369577413Y130188053D01*
X249882733Y337505320D01*
X369577413Y544822587D01*
X576894680Y664517267D01*
X457200000Y457200000D01*
X249882733Y337505320D01*
X249882733Y576894680D01*
X369577413Y784211947D01*
X576894680Y903906628D01*
X457200000Y696589360D01*
X249882733Y576894680D01*
X369577413Y369577413D01*
X489272093Y576894680D01*
X696589360Y696589360D01*
X576894680Y489272093D01*
X369577413Y369577413D01*
X369577413Y130188053D01*
X489272093Y337505320D01*
X369577413Y544822587D01*
X369577413Y784211947D01*
X489272093Y576894680D01*
X489272093Y337505320D01*
X696589360Y457200000D01*
X576894680Y664517267D01*
X576894680Y903906628D01*
X696589360Y696589360D01*
X696589360Y457200000D01*
X576894680Y249882733D01*
X457200000Y457200000D01*
X457200000Y696589360D01*
X576894680Y489272093D01*
X576894680Y249882733D01*
X369577413Y130188053D01*
X576894680Y10493372D01*
X457200000Y217810640D01*
X217810640Y217810640D01*
X10493372Y337505320D01*
X249882733Y337505320D01*
X457200000Y217810640D01*
X576894680Y425127907D01*
X784211947Y544822587D01*
X664517267Y337505320D01*
X457200000Y217810640D01*
X457200000Y457200000D01*
X576894680Y664517267D01*
X784211947Y784211947D01*
X664517267Y576894680D01*
X457200000Y457200000D01*
X217810640Y457200000D01*
X10493372Y576894680D01*
X249882733Y576894680D01*
X457200000Y457200000D01*
X576894680Y249882733D01*
X337505320Y249882733D01*
X130188053Y369577413D01*
X369577413Y369577413D01*
X576894680Y249882733D01*
X696589360Y457200000D01*
X903906628Y576894680D01*
X784211947Y369577413D01*
X576894680Y249882733D01*
X576894680Y10493372D01*
X696589360Y217810640D01*
X457200000Y217810640D01*
X249882733Y337505320D01*
X489272093Y337505320D01*
X696589360Y217810640D01*
X576894680Y425127907D01*
X337505320Y425127907D01*
X130188053Y544822587D01*
X369577413Y544822587D01*
X576894680Y425127907D01*
X576894680Y664517267D01*
X337505320Y664517267D01*
X130188053Y784211947D01*
X369577413Y784211947D01*
X576894680Y664517267D01*
X696589360Y457200000D01*
X457200000Y457200000D01*
X249882733Y576894680D01*
X489272093Y576894680D01*
X696589360Y457200000D01*
X696589360Y217810640D01*
X903906628Y337505320D01*
X664517267Y337505320D01*
X457200000Y457200000D01*
X696589360Y457200000D01*
X903906628Y337505320D01*
X784211947Y544822587D01*
X544822587Y544822587D01*
X337505320Y664517267D01*
X576894680Y664517267D01*
X784211947Y544822587D01*
X784211947Y784211947D01*
X544822587Y784211947D01*
X337505320Y903906628D01*
X576894680Y903906628D01*
X784211947Y784211947D01*
X903906628Y576894680D01*
X664517267Y576894680D01*
X457200000Y696589360D01*
X696589360Y696589360D01*
X903906628Y576894680D01*
X903906628Y337505320D01*
X784211947Y130188053D01*
X544822587Y130188053D01*
X337505320Y249882733D01*
X576894680Y249882733D01*
X784211947Y130188053D01*
X664517267Y337505320D01*
X425127907Y337505320D01*
X217810640Y457200000D01*
X457200000Y457200000D01*
X664517267Y337505320D01*
X664517267Y576894680D01*
X425127907Y576894680D01*
X217810640Y696589360D01*
X457200000Y696589360D01*
X664517267Y576894680D01*
X784211947Y369577413D01*
X544822587Y369577413D01*
X337505320Y489272093D01*
X576894680Y489272093D01*
X784211947Y369577413D01*
X784211947Y130188053D01*
X576894680Y10493372D01*
%LPC*%
%LS0.314159265358979*%
X576894680Y10493372D02*
X337505320Y10493372D01*
X217810640Y217810640D01*
X337505320Y425127907D01*
X544822587Y544822587D01*
X425127907Y337505320D01*
X217810640Y217810640D01*
X217810640Y457200000D01*
X337505320Y664517267D01*
X544822587Y784211947D01*
X425127907Y576894680D01*
X217810640Y457200000D01*
X337505320Y249882733D01*
X457200000Y457200000D01*
X664517267Y576894680D01*
X544822587Y369577413D01*
X337505320Y249882733D01*
X337505320Y10493372D01*
X457200000Y217810640D01*
X337505320Y425127907D01*
X337505320Y664517267D01*
X457200000Y457200000D01*
X457200000Y217810640D01*
X664517267Y337505320D01*
X544822587Y544822587D01*
X544822587Y784211947D01*
X664517267Y576894680D01*
X664517267Y337505320D01*
X544822587Y130188053D01*
X425127907Y337505320D01*
X425127907Y576894680D01*
X544822587Y369577413D01*
X544822587Y130188053D01*
X337505320Y10493372D01*
X130188053Y130188053D01*
X10493372Y337505320D01*
X130188053Y544822587D01*
X337505320Y664517267D01*
X217810640Y457200000D01*
X10493372Y337505320D01*
X10493372Y576894680D01*
X130188053Y784211947D01*
X337505320Y903906628D01*
X217810640Y696589360D01*
X10493372Y576894680D01*
X130188053Y369577413D01*
X249882733Y576894680D01*
X457200000Y696589360D01*
X337505320Y489272093D01*
X130188053Y369577413D01*
X130188053Y130188053D01*
X249882733Y337505320D01*
X130188053Y544822587D01*
X130188053Y784211947D01*
X249882733Y576894680D01*
X249882733Y337505320D01*
X457200000Y457200000D01*
X337505320Y664517267D01*
X337505320Y903906628D01*
X457200000Y696589360D01*
X457200000Y457200000D01*
X337505320Y249882733D01*
X217810640Y457200000D01*
X217810640Y696589360D01*
X337505320Y489272093D01*
X337505320Y249882733D01*
X130188053Y130188053D01*
X369577413Y130188053D01*
X249882733Y337505320D01*
X369577413Y544822587D01*
X576894680Y664517267D01*
X457200000Y457200000D01*
X249882733Y337505320D01*
X249882733Y576894680D01*
X369577413Y784211947D01*
X576894680Y903906628D01*
X457200000Y696589360D01*
X249882733Y576894680D01*
X369577413Y369577413D01*
X489272093Y576894680D01*
X696589360Y696589360D01*
X576894680Y489272093D01*
X369577413Y369577413D01*
X369577413Y130188053D01*
X489272093Y337505320D01*
X369577413Y544822587D01*
X369577413Y784211947D01*
X489272093Y576894680D01*
X489272093Y337505320D01*
X696589360Y457200000D01*
X576894680Y664517267D01*
X576894680Y903906628D01*
X696589360Y696589360D01*
X696589360Y457200000D01*
X576894680Y249882733D01*
X457200000Y457200000D01*
X457200000Y696589360D01*
X576894680Y489272093D01*
X576894680Y249882733D01*
X369577413Y130188053D01*
X576894680Y10493372D01*
X457200000Y217810640D01*
X217810640Y217810640D01*
X10493372Y337505320D01*
X249882733Y337505320D01*
X457200000Y217810640D01*
X576894680Y425127907D01*
X784211947Y544822587D01*
X664517267Y337505320D01*
X457200000Y217810640D01*
X457200000Y457200000D01*
X576894680Y664517267D01*
X784211947Y784211947D01*
X664517267Y576894680D01*
X457200000Y457200000D01*
X217810640Y457200000D01*
X10493372Y576894680D01*
X249882733Y576894680D01*
X457200000Y457200000D01*
X576894680Y249882733D01*
X337505320Y249882733D01*
X130188053Y369577413D01*
X369577413Y369577413D01*
X576894680Y249882733D01*
X696589360Y457200000D01*
X903906628Y576894680D01*
X784211947Y369577413D01*
X576894680Y249882733D01*
X576894680Y10493372D01*
X696589360Y217810640D01*
X457200000Y217810640D01*
X249882733Y337505320D01*
X489272093Y337505320D01*
X696589360Y217810640D01*
X576894680Y425127907D01*
X337505320Y425127907D01*
X130188053Y544822587D01*
X369577413Y544822587D01*
X576894680Y425127907D01*
X576894680Y664517267D01*
X337505320Y664517267D01*
X130188053Y784211947D01*
X369577413Y784211947D01*
X576894680Y664517267D01*
X696589360Y457200000D01*
X457200000Y457200000D01*
X249882733Y576894680D01*
X489272093Y576894680D01*
X696589360Y457200000D01*
X696589360Y217810640D01*
X903906628Y337505320D01*
X664517267Y337505320D01*
X457200000Y457200000D01*
X696589360Y457200000D01*
X903906628Y337505320D01*
X784211947Y544822587D01*
X544822587Y544822587D01*
X337505320Y664517267D01*
X576894680Y664517267D01*
X784211947Y544822587D01*
X784211947Y784211947D01*
X544822587Y784211947D01*
X337505320Y903906628D01*
X576894680Y903906628D01*
X784211947Y784211947D01*
X903906628Y576894680D01*
X664517267Y576894680D01*
X457200000Y696589360D01*
X696589360Y696589360D01*
X903906628Y576894680D01*
X903906628Y337505320D01*
X784211947Y130188053D01*
X544822587Y130188053D01*
X337505320Y249882733D01*
X576894680Y249882733D01*
X784211947Y130188053D01*
X664517267Y337505320D01*
X425127907Y337505320D01*
X217810640Y457200000D01*
X457200000Y457200000D01*
X664517267Y337505320D01*
X664517267Y576894680D01*
X425127907Y576894680D01*
X217810640Y696589360D01*
X457200000Y696589360D01*
X664517267Y576894680D01*
X784211947Y369577413D01*
X544822587Y369577413D01*
X337505320Y489272093D01*
X576894680Y489272093D01*
X784211947Y369577413D01*
X784211947Y130188053D01*
X576894680Y10493372D01*
%LPD*%
%LS0.20943951023932*%
X576894680Y10493372D02*
X337505320Y10493372D01*
X217810640Y217810640D01*
X337505320Y425127907D01*
X544822587Y544822587D01*
X425127907Y337505320D01*
X217810640Y217810640D01*
X217810640Y457200000D01*
X337505320Y664517267D01*
X544822587Y784211947D01*
X425127907Y576894680D01*
X217810640Y457200000D01*
X337505320Y249882733D01*
X457200000Y457200000D01*
X664517267Y576894680D01*
X544822587Y369577413D01*
X337505320Y249882733D01*
X337505320Y10493372D01*
X457200000Y217810640D01*
X337505320Y425127907D01*
X337505320Y664517267D01*
X457200000Y457200000D01*
X457200000Y217810640D01*
X664517267Y337505320D01*
X544822587Y544822587D01*
X544822587Y784211947D01*
X664517267Y576894680D01*
X664517267Y337505320D01*
X544822587Y130188053D01*
X425127907Y337505320D01*
X425127907Y576894680D01*
X544822587Y369577413D01*
X544822587Y130188053D01*
X337505320Y10493372D01*
X130188053Y130188053D01*
X10493372Y337505320D01*
X130188053Y544822587D01*
X337505320Y664517267D01*
X217810640Y457200000D01*
X10493372Y337505320D01*
X10493372Y576894680D01*
X130188053Y784211947D01*
X337505320Y903906628D01*
X217810640Y696589360D01*
X10493372Y576894680D01*
X130188053Y369577413D01*
X249882733Y576894680D01*
X457200000Y696589360D01*
X337505320Y489272093D01*
X130188053Y369577413D01*
X130188053Y130188053D01*
X249882733Y337505320D01*
X130188053Y544822587D01*
X130188053Y784211947D01*
X249882733Y576894680D01*
X249882733Y337505320D01*
X457200000Y457200000D01*
X337505320Y664517267D01*
X337505320Y903906628D01*
X457200000Y696589360D01*
X457200000Y457200000D01*
X337505320Y249882733D01*
X217810640Y457200000D01*
X217810640Y696589360D01*
X337505320Y489272093D01*
X337505320Y249882733D01*
X130188053Y130188053D01*
X369577413Y130188053D01*
X249882733Y337505320D01*
X369577413Y544822587D01*
X576894680Y664517267D01*
X457200000Y457200000D01*
X249882733Y337505320D01*
X249882733Y576894680D01*
X369577413Y784211947D01*
X576894680Y903906628D01*
X457200000Y696589360D01*
X249882733Y576894680D01*
X369577413Y369577413D01*
X489272093Y576894680D01*
X696589360Y696589360D01*
X576894680Y489272093D01*
X369577413Y369577413D01*
X369577413Y130188053D01*
X489272093Y337505320D01*
X369577413Y544822587D01*
X369577413Y784211947D01*
X489272093Y576894680D01*
X489272093Y337505320D01*
X696589360Y457200000D01*
X576894680Y664517267D01*
X576894680Y903906628D01*
X696589360Y696589360D01*
X696589360Y457200000D01*
X576894680Y249882733D01*
X457200000Y457200000D01*
X457200000Y696589360D01*
X576894680Y489272093D01*
X576894680Y249882733D01*
X369577413Y130188053D01*
X576894680Y10493372D01*
X457200000Y217810640D01*
X217810640Y217810640D01*
X10493372Y337505320D01*
X249882733Y337505320D01*
X457200000Y217810640D01*
X576894680Y425127907D01*
X784211947Y544822587D01*
X664517267Y337505320D01*
X457200000Y217810640D01*
X457200000Y457200000D01*
X576894680Y664517267D01*
X784211947Y784211947D01*
X664517267Y576894680D01*
X457200000Y457200000D01*
X217810640Y457200000D01*
X10493372Y576894680D01*
X249882733Y576894680D01*
X457200000Y457200000D01*
X576894680Y249882733D01*
X337505320Y249882733D01*
X130188053Y369577413D01*
X369577413Y369577413D01*
X576894680Y249882733D01*
X696589360Y457200000D01*
X903906628Y576894680D01*
X784211947Y369577413D01*
X576894680Y249882733D01*
X576894680Y10493372D01*
X696589360Y217810640D01*
X457200000Y217810640D01*
X249882733Y337505320D01*
X489272093Y337505320D01*
X696589360Y217810640D01*
X576894680Y425127907D01*
X337505320Y425127907D01*
X130188053Y544822587D01*
X369577413Y544822587D01*
X576894680Y425127907D01*
X576894680Y664517267D01*
X337505320Y664517267D01*
X130188053Y784211947D01*
X369577413Y784211947D01*
X576894680Y664517267D01*
X696589360Y457200000D01*
X457200000Y457200000D01*
X249882733Y576894680D01*
X489272093Y576894680D01*
X696589360Y457200000D01*
X696589360Y217810640D01*
X903906628Y337505320D01*
X664517267Y337505320D01*
X457200000Y457200000D01*
X696589360Y457200000D01*
X903906628Y337505320D01*
X784211947Y544822587D01*
X544822587Y544822587D01*
X337505320Y664517267D01*
X576894680Y664517267D01*
X784211947Y544822587D01*
X784211947Y784211947D01*
X544822587Y784211947D01*
X337505320Y903906628D01*
X576894680Y903906628D01*
X784211947Y784211947D01*
X903906628Y576894680D01*
X664517267Y576894680D01*
X457200000Y696589360D01*
X696589360Y696589360D01*
X903906628Y576894680D01*
X903906628Y337505320D01*
X784211947Y130188053D01*
X544822587Y130188053D01*
X337505320Y249882733D01*
X576894680Y249882733D01*
X784211947Y130188053D01*
X664517267Y337505320D01*
X425127907Y337505320D01*
X217810640Y457200000D01*
X457200000Y457200000D01*
X664517267Y337505320D01*
X664517267Y576894680D01*
X425127907Y576894680D01*
X217810640Y696589360D01*
X457200000Y696589360D01*
X664517267Y576894680D01*
X784211947Y369577413D01*
X544822587Y369577413D01*
X337505320Y489272093D01*
X576894680Y489272093D01*
X784211947Y369577413D01*
X784211947Y130188053D01*
X576894680Y10493372D01*
%LPC*%
%LS0.10471975511966*%
X576894680Y10493372D02*
X337505320Y10493372D01*
X217810640Y217810640D01*
X337505320Y425127907D01*
X544822587Y544822587D01*
X425127907Y337505320D01*
X217810640Y217810640D01*
X217810640Y457200000D01*
X337505320Y664517267D01*
X544822587Y784211947D01*
X425127907Y576894680D01*
X217810640Y457200000D01*
X337505320Y249882733D01*
X457200000Y457200000D01*
X664517267Y576894680D01*
X544822587Y369577413D01*
X337505320Y249882733D01*
X337505320Y10493372D01*
X457200000Y217810640D01*
X337505320Y425127907D01*
X337505320Y664517267D01*
X457200000Y457200000D01*
X457200000Y217810640D01*
X664517267Y337505320D01*
X544822587Y544822587D01*
X544822587Y784211947D01*
X664517267Y576894680D01*
X664517267Y337505320D01*
X544822587Y130188053D01*
X425127907Y337505320D01*
X425127907Y576894680D01*
X544822587Y369577413D01*
X544822587Y130188053D01*
X337505320Y10493372D01*
X130188053Y130188053D01*
X10493372Y337505320D01*
X130188053Y544822587D01*
X337505320Y664517267D01*
X217810640Y457200000D01*
X10493372Y337505320D01*
X10493372Y576894680D01*
X130188053Y784211947D01*
X337505320Y903906628D01*
X217810640Y696589360D01*
X10493372Y576894680D01*
X130188053Y369577413D01*
X249882733Y576894680D01*
X457200000Y696589360D01*
X337505320Y489272093D01*
X130188053Y369577413D01*
X130188053Y130188053D01*
X249882733Y337505320D01*
X130188053Y544822587D01*
X130188053Y784211947D01*
X249882733Y576894680D01*
X249882733Y337505320D01*
X457200000Y457200000D01*
X337505320Y664517267D01*
X337505320Y903906628D01*
X457200000Y696589360D01*
X457200000Y457200000D01*
X337505320Y249882733D01*
X217810640Y457200000D01*
X217810640Y696589360D01*
X337505320Y489272093D01*
X337505320Y249882733D01*
X130188053Y130188053D01*
X369577413Y130188053D01*
X249882733Y337505320D01*
X369577413Y544822587D01*
X576894680Y664517267D01*
X457200000Y457200000D01*
X249882733Y337505320D01*
X249882733Y576894680D01*
X369577413Y784211947D01*
X576894680Y903906628D01*
X457200000Y696589360D01*
X249882733Y576894680D01*
X369577413Y369577413D01*
X489272093Y576894680D01*
X696589360Y696589360D01*
X576894680Y489272093D01*
X369577413Y369577413D01*
X369577413Y130188053D01*
X489272093Y337505320D01*
X369577413Y544822587D01*
X369577413Y784211947D01*
X489272093Y576894680D01*
X489272093Y337505320D01*
X696589360Y457200000D01*
X576894680Y664517267D01*
X576894680Y903906628D01*
X696589360Y696589360D01*
X696589360Y457200000D01*
X576894680Y249882733D01*
X457200000Y457200000D01*
X457200000Y696589360D01*
X576894680Y489272093D01*
X576894680Y249882733D01*
X369577413Y130188053D01*
X576894680Y10493372D01*
X457200000Y217810640D01*
X217810640Y217810640D01*
X10493372Y337505320D01*
X249882733Y337505320D01*
X457200000Y217810640D01*
X576894680Y425127907D01*
X784211947Y544822587D01*
X664517267Y337505320D01*
X457200000Y217810640D01*
X457200000Y457200000D01*
X576894680Y664517267D01*
X784211947Y784211947D01*
X664517267Y576894680D01*
X457200000Y457200000D01*
X217810640Y457200000D01*
X10493372Y576894680D01*
X249882733Y576894680D01*
X457200000Y457200000D01*
X576894680Y249882733D01*
X337505320Y249882733D01*
X130188053Y369577413D01*
X369577413Y369577413D01*
X576894680Y249882733D01*
X696589360Y457200000D01*
X903906628Y576894680D01*
X784211947Y369577413D01*
X576894680Y249882733D01*
X576894680Y10493372D01*
X696589360Y217810640D01*
X457200000Y217810640D01*
X249882733Y337505320D01*
X489272093Y337505320D01*
X696589360Y217810640D01*
X576894680Y425127907D01*
X337505320Y425127907D01*
X130188053Y544822587D01*
X369577413Y544822587D01*
X576894680Y425127907D01*
X576894680Y664517267D01*
X337505320Y664517267D01*
X130188053Y784211947D01*
X369577413Y784211947D01*
X576894680Y664517267D01*
X696589360Y457200000D01*
X457200000Y457200000D01*
X249882733Y576894680D01*
X489272093Y576894680D01*
X696589360Y457200000D01*
X696589360Y217810640D01*
X903906628Y337505320D01*
X664517267Y337505320D01*
X457200000Y457200000D01*
X696589360Y457200000D01*
X903906628Y337505320D01*
X784211947Y544822587D01*
X544822587Y544822587D01*
X337505320Y664517267D01*
X576894680Y664517267D01*
X784211947Y544822587D01*
X784211947Y784211947D01*
X544822587Y784211947D01*
X337505320Y903906628D01*
X576894680Y903906628D01*
X784211947Y784211947D01*
X903906628Y576894680D01*
X664517267Y576894680D01*
X457200000Y696589360D01*
X696589360Y696589360D01*
X903906628Y576894680D01*
X903906628Y337505320D01*
X784211947Y130188053D01*
X544822587Y130188053D01*
X337505320Y249882733D01*
X576894680Y249882733D01*
X784211947Y130188053D01*
X664517267Y337505320D01*
X425127907Y337505320D01*
X217810640Y457200000D01*
X457200000Y457200000D01*
X664517267Y337505320D01*
X664517267Y576894680D01*
X425127907Y576894680D01*
X217810640Y696589360D01*
X457200000Y696589360D01*
X664517267Y576894680D01*
X784211947Y369577413D01*
X544822587Y369577413D01*
X337505320Y489272093D01*
X576894680Y489272093D01*
X784211947Y369577413D01*
X784211947Y130188053D01*
X576894680Y10493372D01*
M02*
