%MOMM*%
%FSLAX36Y36*%
%ADD10C,3.14159265358979*%
D10*
G01*
%LPD*%
%LS1.25663706143592*%
X636742020Y23747220D02*
X277657980Y23747220D01*
X277657980Y382831260D01*
X531568740Y636742020D01*
X531568740Y277657980D01*
X277657980Y23747220D01*
X23747220Y277657980D01*
X23747220Y636742020D01*
X277657980Y890652780D01*
X277657980Y531568740D01*
X23747220Y277657980D01*
X382831260Y277657980D01*
X382831260Y636742020D01*
X636742020Y890652780D01*
X636742020Y531568740D01*
X382831260Y277657980D01*
X636742020Y23747220D01*
X636742020Y382831260D01*
X277657980Y382831260D01*
X23747220Y636742020D01*
X382831260Y636742020D01*
X636742020Y382831260D01*
X890652780Y636742020D01*
X531568740Y636742020D01*
X277657980Y890652780D01*
X636742020Y890652780D01*
X890652780Y636742020D01*
X890652780Y277657980D01*
X531568740Y277657980D01*
X277657980Y531568740D01*
X636742020Y531568740D01*
X890652780Y277657980D01*
X636742020Y23747220D01*
%LPC*%
%LS1.15191730631626*%
X636742020Y23747220D02*
X277657980Y23747220D01*
X277657980Y382831260D01*
X531568740Y636742020D01*
X531568740Y277657980D01*
X277657980Y23747220D01*
X23747220Y277657980D01*
X23747220Y636742020D01*
X277657980Y890652780D01*
X277657980Y531568740D01*
X23747220Y277657980D01*
X382831260Y277657980D01*
X382831260Y636742020D01*
X636742020Y890652780D01*
X636742020Y531568740D01*
X382831260Y277657980D01*
X636742020Y23747220D01*
X636742020Y382831260D01*
X277657980Y382831260D01*
X23747220Y636742020D01*
X382831260Y636742020D01*
X636742020Y382831260D01*
X890652780Y636742020D01*
X531568740Y636742020D01*
X277657980Y890652780D01*
X636742020Y890652780D01*
X890652780Y636742020D01*
X890652780Y277657980D01*
X531568740Y277657980D01*
X277657980Y531568740D01*
X636742020Y531568740D01*
X890652780Y277657980D01*
X636742020Y23747220D01*
%LPD*%
%LS1.0471975511966*%
X636742020Y23747220D02*
X277657980Y23747220D01*
X277657980Y382831260D01*
X531568740Y636742020D01*
X531568740Y277657980D01*
X277657980Y23747220D01*
X23747220Y277657980D01*
X23747220Y636742020D01*
X277657980Y890652780D01*
X277657980Y531568740D01*
X23747220Y277657980D01*
X382831260Y277657980D01*
X382831260Y636742020D01*
X636742020Y890652780D01*
X636742020Y531568740D01*
X382831260Y277657980D01*
X636742020Y23747220D01*
X636742020Y382831260D01*
X277657980Y382831260D01*
X23747220Y636742020D01*
X382831260Y636742020D01*
X636742020Y382831260D01*
X890652780Y636742020D01*
X531568740Y636742020D01*
X277657980Y890652780D01*
X636742020Y890652780D01*
X890652780Y636742020D01*
X890652780Y277657980D01*
X531568740Y277657980D01*
X277657980Y531568740D01*
X636742020Y531568740D01*
X890652780Y277657980D01*
X636742020Y23747220D01*
%LPC*%
%LS0.942477796076938*%
X636742020Y23747220D02*
X277657980Y23747220D01*
X277657980Y382831260D01*
X531568740Y636742020D01*
X531568740Y277657980D01*
X277657980Y23747220D01*
X23747220Y277657980D01*
X23747220Y636742020D01*
X277657980Y890652780D01*
X277657980Y531568740D01*
X23747220Y277657980D01*
X382831260Y277657980D01*
X382831260Y636742020D01*
X636742020Y890652780D01*
X636742020Y531568740D01*
X382831260Y277657980D01*
X636742020Y23747220D01*
X636742020Y382831260D01*
X277657980Y382831260D01*
X23747220Y636742020D01*
X382831260Y636742020D01*
X636742020Y382831260D01*
X890652780Y636742020D01*
X531568740Y636742020D01*
X277657980Y890652780D01*
X636742020Y890652780D01*
X890652780Y636742020D01*
X890652780Y277657980D01*
X531568740Y277657980D01*
X277657980Y531568740D01*
X636742020Y531568740D01*
X890652780Y277657980D01*
X636742020Y23747220D01*
%LPD*%
%LS0.837758040957278*%
X636742020Y23747220D02*
X277657980Y23747220D01*
X277657980Y382831260D01*
X531568740Y636742020D01*
X531568740Y277657980D01*
X277657980Y23747220D01*
X23747220Y277657980D01*
X23747220Y636742020D01*
X277657980Y890652780D01*
X277657980Y531568740D01*
X23747220Y277657980D01*
X382831260Y277657980D01*
X382831260Y636742020D01*
X636742020Y890652780D01*
X636742020Y531568740D01*
X382831260Y277657980D01*
X636742020Y23747220D01*
X636742020Y382831260D01*
X277657980Y382831260D01*
X23747220Y636742020D01*
X382831260Y636742020D01*
X636742020Y382831260D01*
X890652780Y636742020D01*
X531568740Y636742020D01*
X277657980Y890652780D01*
X636742020Y890652780D01*
X890652780Y636742020D01*
X890652780Y277657980D01*
X531568740Y277657980D01*
X277657980Y531568740D01*
X636742020Y531568740D01*
X890652780Y277657980D01*
X636742020Y23747220D01*
%LPC*%
%LS0.733038285837618*%
X636742020Y23747220D02*
X277657980Y23747220D01*
X277657980Y382831260D01*
X531568740Y636742020D01*
X531568740Y277657980D01*
X277657980Y23747220D01*
X23747220Y277657980D01*
X23747220Y636742020D01*
X277657980Y890652780D01*
X277657980Y531568740D01*
X23747220Y277657980D01*
X382831260Y277657980D01*
X382831260Y636742020D01*
X636742020Y890652780D01*
X636742020Y531568740D01*
X382831260Y277657980D01*
X636742020Y23747220D01*
X636742020Y382831260D01*
X277657980Y382831260D01*
X23747220Y636742020D01*
X382831260Y636742020D01*
X636742020Y382831260D01*
X890652780Y636742020D01*
X531568740Y636742020D01*
X277657980Y890652780D01*
X636742020Y890652780D01*
X890652780Y636742020D01*
X890652780Y277657980D01*
X531568740Y277657980D01*
X277657980Y531568740D01*
X636742020Y531568740D01*
X890652780Y277657980D01*
X636742020Y23747220D01*
%LPD*%
%LS0.628318530717959*%
X636742020Y23747220D02*
X277657980Y23747220D01*
X277657980Y382831260D01*
X531568740Y636742020D01*
X531568740Y277657980D01*
X277657980Y23747220D01*
X23747220Y277657980D01*
X23747220Y636742020D01*
X277657980Y890652780D01*
X277657980Y531568740D01*
X23747220Y277657980D01*
X382831260Y277657980D01*
X382831260Y636742020D01*
X636742020Y890652780D01*
X636742020Y531568740D01*
X382831260Y277657980D01*
X636742020Y23747220D01*
X636742020Y382831260D01*
X277657980Y382831260D01*
X23747220Y636742020D01*
X382831260Y636742020D01*
X636742020Y382831260D01*
X890652780Y636742020D01*
X531568740Y636742020D01*
X277657980Y890652780D01*
X636742020Y890652780D01*
X890652780Y636742020D01*
X890652780Y277657980D01*
X531568740Y277657980D01*
X277657980Y531568740D01*
X636742020Y531568740D01*
X890652780Y277657980D01*
X636742020Y23747220D01*
%LPC*%
%LS0.523598775598299*%
X636742020Y23747220D02*
X277657980Y23747220D01*
X277657980Y382831260D01*
X531568740Y636742020D01*
X531568740Y277657980D01*
X277657980Y23747220D01*
X23747220Y277657980D01*
X23747220Y636742020D01*
X277657980Y890652780D01*
X277657980Y531568740D01*
X23747220Y277657980D01*
X382831260Y277657980D01*
X382831260Y636742020D01*
X636742020Y890652780D01*
X636742020Y531568740D01*
X382831260Y277657980D01*
X636742020Y23747220D01*
X636742020Y382831260D01*
X277657980Y382831260D01*
X23747220Y636742020D01*
X382831260Y636742020D01*
X636742020Y382831260D01*
X890652780Y636742020D01*
X531568740Y636742020D01*
X277657980Y890652780D01*
X636742020Y890652780D01*
X890652780Y636742020D01*
X890652780Y277657980D01*
X531568740Y277657980D01*
X277657980Y531568740D01*
X636742020Y531568740D01*
X890652780Y277657980D01*
X636742020Y23747220D01*
%LPD*%
%LS0.418879020478639*%
X636742020Y23747220D02*
X277657980Y23747220D01*
X277657980Y382831260D01*
X531568740Y636742020D01*
X531568740Y277657980D01*
X277657980Y23747220D01*
X23747220Y277657980D01*
X23747220Y636742020D01*
X277657980Y890652780D01*
X277657980Y531568740D01*
X23747220Y277657980D01*
X382831260Y277657980D01*
X382831260Y636742020D01*
X636742020Y890652780D01*
X636742020Y531568740D01*
X382831260Y277657980D01*
X636742020Y23747220D01*
X636742020Y382831260D01*
X277657980Y382831260D01*
X23747220Y636742020D01*
X382831260Y636742020D01*
X636742020Y382831260D01*
X890652780Y636742020D01*
X531568740Y636742020D01*
X277657980Y890652780D01*
X636742020Y890652780D01*
X890652780Y636742020D01*
X890652780Y277657980D01*
X531568740Y277657980D01*
X277657980Y531568740D01*
X636742020Y531568740D01*
X890652780Y277657980D01*
X636742020Y23747220D01*
%LPC*%
%LS0.314159265358979*%
X636742020Y23747220D02*
X277657980Y23747220D01*
X277657980Y382831260D01*
X531568740Y636742020D01*
X531568740Y277657980D01*
X277657980Y23747220D01*
X23747220Y277657980D01*
X23747220Y636742020D01*
X277657980Y890652780D01*
X277657980Y531568740D01*
X23747220Y277657980D01*
X382831260Y277657980D01*
X382831260Y636742020D01*
X636742020Y890652780D01*
X636742020Y531568740D01*
X382831260Y277657980D01*
X636742020Y23747220D01*
X636742020Y382831260D01*
X277657980Y382831260D01*
X23747220Y636742020D01*
X382831260Y636742020D01*
X636742020Y382831260D01*
X890652780Y636742020D01*
X531568740Y636742020D01*
X277657980Y890652780D01*
X636742020Y890652780D01*
X890652780Y636742020D01*
X890652780Y277657980D01*
X531568740Y277657980D01*
X277657980Y531568740D01*
X636742020Y531568740D01*
X890652780Y277657980D01*
X636742020Y23747220D01*
%LPD*%
%LS0.20943951023932*%
X636742020Y23747220D02*
X277657980Y23747220D01*
X277657980Y382831260D01*
X531568740Y636742020D01*
X531568740Y277657980D01*
X277657980Y23747220D01*
X23747220Y277657980D01*
X23747220Y636742020D01*
X277657980Y890652780D01*
X277657980Y531568740D01*
X23747220Y277657980D01*
X382831260Y277657980D01*
X382831260Y636742020D01*
X636742020Y890652780D01*
X636742020Y531568740D01*
X382831260Y277657980D01*
X636742020Y23747220D01*
X636742020Y382831260D01*
X277657980Y382831260D01*
X23747220Y636742020D01*
X382831260Y636742020D01*
X636742020Y382831260D01*
X890652780Y636742020D01*
X531568740Y636742020D01*
X277657980Y890652780D01*
X636742020Y890652780D01*
X890652780Y636742020D01*
X890652780Y277657980D01*
X531568740Y277657980D01*
X277657980Y531568740D01*
X636742020Y531568740D01*
X890652780Y277657980D01*
X636742020Y23747220D01*
%LPC*%
%LS0.10471975511966*%
X636742020Y23747220D02*
X277657980Y23747220D01*
X277657980Y382831260D01*
X531568740Y636742020D01*
X531568740Y277657980D01*
X277657980Y23747220D01*
X23747220Y277657980D01*
X23747220Y636742020D01*
X277657980Y890652780D01*
X277657980Y531568740D01*
X23747220Y277657980D01*
X382831260Y277657980D01*
X382831260Y636742020D01*
X636742020Y890652780D01*
X636742020Y531568740D01*
X382831260Y277657980D01*
X636742020Y23747220D01*
X636742020Y382831260D01*
X277657980Y382831260D01*
X23747220Y636742020D01*
X382831260Y636742020D01*
X636742020Y382831260D01*
X890652780Y636742020D01*
X531568740Y636742020D01*
X277657980Y890652780D01*
X636742020Y890652780D01*
X890652780Y636742020D01*
X890652780Y277657980D01*
X531568740Y277657980D01*
X277657980Y531568740D01*
X636742020Y531568740D01*
X890652780Y277657980D01*
X636742020Y23747220D01*
M02*
