<?xml version="1.0" standalone="no"?>
<svg width="5119.3093757401" height="5119.3093757401" version="1.1" xmlns="http://www.w3.org/2000/svg">
<polyline points="
3583.65468787005 87.5
1535.65468787005 87.5000000000005
1535.65468787005 2135.5
2983.8093757401 3583.65468787005
2983.8093757401 1535.65468787005
1535.65468787005 87.5000000000005
87.5 1535.65468787005
87.5 3583.65468787005
1535.65468787005 5031.8093757401
1535.65468787005 2983.8093757401
87.5 1535.65468787005
2135.5 1535.65468787005
2135.5 3583.65468787005
3583.65468787005 5031.8093757401
3583.65468787005 2983.8093757401
2135.5 1535.65468787005
3583.65468787005 87.5000000000009
3583.65468787005 2135.5
1535.65468787005 2135.5
87.5 3583.65468787005
2135.5 3583.65468787005
3583.65468787005 2135.5
5031.8093757401 3583.65468787005
2983.8093757401 3583.65468787005
1535.65468787005 5031.8093757401
3583.65468787005 5031.8093757401
5031.8093757401 3583.65468787005
5031.8093757401 1535.65468787005
2983.8093757401 1535.65468787005
1535.65468787005 2983.8093757401
3583.65468787005 2983.8093757401
5031.8093757401 1535.65468787005
3583.65468787005 87.5000000000009
"
stroke="green" fill="transparent" stroke-width=".002"/>
</svg>
