%MOMM*%
%FSLAX26Y26*%
%LPD*%
%ADD10C,0.0833333333333333*%
D10*
X576642320Y10488782D02*
G01*
X337357680Y10488782D01*
X217715360Y217715360D01*
X337357680Y424941937D01*
X544584257Y544584257D01*
X424941937Y337357680D01*
X217715360Y217715360D01*
X217715360Y457000000D01*
X337357680Y664226577D01*
X544584257Y783868898D01*
X424941937Y576642320D01*
X217715360Y457000000D01*
X337357680Y249773423D01*
X457000000Y457000000D01*
X664226577Y576642320D01*
X544584257Y369415743D01*
X337357680Y249773423D01*
X337357680Y10488782D01*
X457000000Y217715360D01*
X337357680Y424941937D01*
X337357680Y664226577D01*
X457000000Y457000000D01*
X457000000Y217715360D01*
X664226577Y337357680D01*
X544584257Y544584257D01*
X544584257Y783868898D01*
X664226577Y576642320D01*
X664226577Y337357680D01*
X544584257Y130131102D01*
X424941937Y337357680D01*
X424941937Y576642320D01*
X544584257Y369415743D01*
X544584257Y130131102D01*
X337357680Y10488782D01*
X130131102Y130131102D01*
X10488782Y337357680D01*
X130131102Y544584257D01*
X337357680Y664226577D01*
X217715360Y457000000D01*
X10488782Y337357680D01*
X10488782Y576642320D01*
X130131102Y783868898D01*
X337357680Y903511218D01*
X217715360Y696284640D01*
X10488782Y576642320D01*
X130131102Y369415743D01*
X249773423Y576642320D01*
X457000000Y696284640D01*
X337357680Y489058063D01*
X130131102Y369415743D01*
X130131102Y130131102D01*
X249773423Y337357680D01*
X130131102Y544584257D01*
X130131102Y783868898D01*
X249773423Y576642320D01*
X249773423Y337357680D01*
X457000000Y457000000D01*
X337357680Y664226577D01*
X337357680Y903511218D01*
X457000000Y696284640D01*
X457000000Y457000000D01*
X337357680Y249773423D01*
X217715360Y457000000D01*
X217715360Y696284640D01*
X337357680Y489058063D01*
X337357680Y249773423D01*
X130131102Y130131102D01*
X369415743Y130131102D01*
X249773423Y337357680D01*
X369415743Y544584257D01*
X576642320Y664226577D01*
X457000000Y457000000D01*
X249773423Y337357680D01*
X249773423Y576642320D01*
X369415743Y783868898D01*
X576642320Y903511218D01*
X457000000Y696284640D01*
X249773423Y576642320D01*
X369415743Y369415743D01*
X489058063Y576642320D01*
X696284640Y696284640D01*
X576642320Y489058063D01*
X369415743Y369415743D01*
X369415743Y130131102D01*
X489058063Y337357680D01*
X369415743Y544584257D01*
X369415743Y783868898D01*
X489058063Y576642320D01*
X489058063Y337357680D01*
X696284640Y457000000D01*
X576642320Y664226577D01*
X576642320Y903511218D01*
X696284640Y696284640D01*
X696284640Y457000000D01*
X576642320Y249773423D01*
X457000000Y457000000D01*
X457000000Y696284640D01*
X576642320Y489058063D01*
X576642320Y249773423D01*
X369415743Y130131102D01*
X576642320Y10488782D01*
X457000000Y217715360D01*
X217715360Y217715360D01*
X10488782Y337357680D01*
X249773423Y337357680D01*
X457000000Y217715360D01*
X576642320Y424941937D01*
X783868898Y544584257D01*
X664226577Y337357680D01*
X457000000Y217715360D01*
X457000000Y457000000D01*
X576642320Y664226577D01*
X783868898Y783868898D01*
X664226577Y576642320D01*
X457000000Y457000000D01*
X217715360Y457000000D01*
X10488782Y576642320D01*
X249773423Y576642320D01*
X457000000Y457000000D01*
X576642320Y249773423D01*
X337357680Y249773423D01*
X130131102Y369415743D01*
X369415743Y369415743D01*
X576642320Y249773423D01*
X696284640Y457000000D01*
X903511218Y576642320D01*
X783868898Y369415743D01*
X576642320Y249773423D01*
X576642320Y10488782D01*
X696284640Y217715360D01*
X457000000Y217715360D01*
X249773423Y337357680D01*
X489058063Y337357680D01*
X696284640Y217715360D01*
X576642320Y424941937D01*
X337357680Y424941937D01*
X130131102Y544584257D01*
X369415743Y544584257D01*
X576642320Y424941937D01*
X576642320Y664226577D01*
X337357680Y664226577D01*
X130131102Y783868898D01*
X369415743Y783868898D01*
X576642320Y664226577D01*
X696284640Y457000000D01*
X457000000Y457000000D01*
X249773423Y576642320D01*
X489058063Y576642320D01*
X696284640Y457000000D01*
X696284640Y217715360D01*
X903511218Y337357680D01*
X664226577Y337357680D01*
X457000000Y457000000D01*
X696284640Y457000000D01*
X903511218Y337357680D01*
X783868898Y544584257D01*
X544584257Y544584257D01*
X337357680Y664226577D01*
X576642320Y664226577D01*
X783868898Y544584257D01*
X783868898Y783868898D01*
X544584257Y783868898D01*
X337357680Y903511218D01*
X576642320Y903511218D01*
X783868898Y783868898D01*
X903511218Y576642320D01*
X664226577Y576642320D01*
X457000000Y696284640D01*
X696284640Y696284640D01*
X903511218Y576642320D01*
X903511218Y337357680D01*
X783868898Y130131102D01*
X544584257Y130131102D01*
X337357680Y249773423D01*
X576642320Y249773423D01*
X783868898Y130131102D01*
X664226577Y337357680D01*
X424941937Y337357680D01*
X217715360Y457000000D01*
X457000000Y457000000D01*
X664226577Y337357680D01*
X664226577Y576642320D01*
X424941937Y576642320D01*
X217715360Y696284640D01*
X457000000Y696284640D01*
X664226577Y576642320D01*
X783868898Y369415743D01*
X544584257Y369415743D01*
X337357680Y489058063D01*
X576642320Y489058063D01*
X783868898Y369415743D01*
X783868898Y130131102D01*
X576642320Y10488782D01*
M02*
