%MOMM*%
%FSLAX36Y36*%
%ADD10C,100*%
D10*
G01*
%LPC*%
%LS1.04347926086957*%
X816284040Y98115960D02*
X98115960Y98115960D01*
X98115960Y816284040D01*
X816284040Y816284040D01*
X816284040Y98115960D01*
%LPD*%
%LS1.000001*%
X816284040Y98115960D02*
X98115960Y98115960D01*
X98115960Y816284040D01*
X816284040Y816284040D01*
X816284040Y98115960D01*
%LPC*%
%LS0.956522739130435*%
X816284040Y98115960D02*
X98115960Y98115960D01*
X98115960Y816284040D01*
X816284040Y816284040D01*
X816284040Y98115960D01*
%LPD*%
%LS0.91304447826087*%
X816284040Y98115960D02*
X98115960Y98115960D01*
X98115960Y816284040D01*
X816284040Y816284040D01*
X816284040Y98115960D01*
%LPC*%
%LS0.869566217391304*%
X816284040Y98115960D02*
X98115960Y98115960D01*
X98115960Y816284040D01*
X816284040Y816284040D01*
X816284040Y98115960D01*
%LPD*%
%LS0.826087956521739*%
X816284040Y98115960D02*
X98115960Y98115960D01*
X98115960Y816284040D01*
X816284040Y816284040D01*
X816284040Y98115960D01*
%LPC*%
%LS0.782609695652174*%
X816284040Y98115960D02*
X98115960Y98115960D01*
X98115960Y816284040D01*
X816284040Y816284040D01*
X816284040Y98115960D01*
%LPD*%
%LS0.739131434782609*%
X816284040Y98115960D02*
X98115960Y98115960D01*
X98115960Y816284040D01*
X816284040Y816284040D01*
X816284040Y98115960D01*
%LPC*%
%LS0.695653173913043*%
X816284040Y98115960D02*
X98115960Y98115960D01*
X98115960Y816284040D01*
X816284040Y816284040D01*
X816284040Y98115960D01*
%LPD*%
%LS0.652174913043478*%
X816284040Y98115960D02*
X98115960Y98115960D01*
X98115960Y816284040D01*
X816284040Y816284040D01*
X816284040Y98115960D01*
%LPC*%
%LS0.608696652173913*%
X816284040Y98115960D02*
X98115960Y98115960D01*
X98115960Y816284040D01*
X816284040Y816284040D01*
X816284040Y98115960D01*
%LPD*%
%LS0.565218391304348*%
X816284040Y98115960D02*
X98115960Y98115960D01*
X98115960Y816284040D01*
X816284040Y816284040D01*
X816284040Y98115960D01*
%LPC*%
%LS0.521740130434783*%
X816284040Y98115960D02*
X98115960Y98115960D01*
X98115960Y816284040D01*
X816284040Y816284040D01*
X816284040Y98115960D01*
%LPD*%
%LS0.478261869565217*%
X816284040Y98115960D02*
X98115960Y98115960D01*
X98115960Y816284040D01*
X816284040Y816284040D01*
X816284040Y98115960D01*
%LPC*%
%LS0.434783608695652*%
X816284040Y98115960D02*
X98115960Y98115960D01*
X98115960Y816284040D01*
X816284040Y816284040D01*
X816284040Y98115960D01*
%LPD*%
%LS0.391305347826087*%
X816284040Y98115960D02*
X98115960Y98115960D01*
X98115960Y816284040D01*
X816284040Y816284040D01*
X816284040Y98115960D01*
%LPC*%
%LS0.347827086956522*%
X816284040Y98115960D02*
X98115960Y98115960D01*
X98115960Y816284040D01*
X816284040Y816284040D01*
X816284040Y98115960D01*
%LPD*%
%LS0.304348826086957*%
X816284040Y98115960D02*
X98115960Y98115960D01*
X98115960Y816284040D01*
X816284040Y816284040D01*
X816284040Y98115960D01*
%LPC*%
%LS0.260870565217391*%
X816284040Y98115960D02*
X98115960Y98115960D01*
X98115960Y816284040D01*
X816284040Y816284040D01*
X816284040Y98115960D01*
%LPD*%
%LS0.217392304347826*%
X816284040Y98115960D02*
X98115960Y98115960D01*
X98115960Y816284040D01*
X816284040Y816284040D01*
X816284040Y98115960D01*
%LPC*%
%LS0.173914043478261*%
X816284040Y98115960D02*
X98115960Y98115960D01*
X98115960Y816284040D01*
X816284040Y816284040D01*
X816284040Y98115960D01*
%LPD*%
%LS0.130435782608696*%
X816284040Y98115960D02*
X98115960Y98115960D01*
X98115960Y816284040D01*
X816284040Y816284040D01*
X816284040Y98115960D01*
%LPC*%
%LS0.0869575217391304*%
X816284040Y98115960D02*
X98115960Y98115960D01*
X98115960Y816284040D01*
X816284040Y816284040D01*
X816284040Y98115960D01*
%LPD*%
%LS0.0434792608695652*%
X816284040Y98115960D02*
X98115960Y98115960D01*
X98115960Y816284040D01*
X816284040Y816284040D01*
X816284040Y98115960D01*
M02*
