%MOMM*%
%FSLAX26Y26*%
%LPD*%
%ADD10C,0.0833333333333333*%
D10*
X576642320Y10488782D02*
G01*
%LS5.86229169994112*%
X337357680Y10488782D01*
%LS0.732050807568877*%
X217715360Y217715360D01*
%LS0.267949192431123*%
X337357680Y424941937D01*
%LS0.869638781605583*%
X544584257Y544584257D01*
X424941937Y337357680D01*
%LS1.14990271955643*%
X217715360Y217715360D01*
%LS2.73205080756888*%
X217715360Y457000000D01*
%LS0.866025403784439*%
X337357680Y664226577D01*
%LS1.15470053837925*%
X544584257Y783868898D01*
%LS0.366025403784439*%
X424941937Y576642320D01*
%LS1.36602540378444*%
X217715360Y457000000D01*
%LS1.73205080756888*%
X337357680Y249773423D01*
%LS0.367552596947861*%
X457000000Y457000000D01*
X664226577Y576642320D01*
%LS1.5707963267949*%
X544584257Y369415743D01*
%LS1*%
X337357680Y249773423D01*
%LS1*%
X337357680Y10488782D01*
%LS1*%
X457000000Y217715360D01*
%LS1*%
X337357680Y424941937D01*
%LS1*%
X337357680Y664226577D01*
%LS0.636619772367581*%
X457000000Y457000000D01*
X457000000Y217715360D01*
%LS2.72069904635133*%
X664226577Y337357680D01*
%LS0.577350269189626*%
X544584257Y544584257D01*
%LS0.732050807568877*%
X544584257Y783868898D01*
%LS2.73205080756888*%
X664226577Y576642320D01*
%LS0.866025403784439*%
X664226577Y337357680D01*
%LS1.15470053837925*%
X544584257Y130131102D01*
%LS0.366025403784439*%
X424941937Y337357680D01*
%LS0.869638781605583*%
X424941937Y576642320D01*
X544584257Y369415743D01*
%LS1.14990271955643*%
X544584257Y130131102D01*
%LS3.73205080756888*%
X337357680Y10488782D01*
%LS1.36602540378444*%
X130131102Y130131102D01*
%LS1*%
X10488782Y337357680D01*
%LS0.732050807568877*%
X130131102Y544584257D01*
%LS0.732050807568877*%
X337357680Y664226577D01*
%LS0.866025403784439*%
X217715360Y457000000D01*
%LS0.577350269189626*%
X10488782Y337357680D01*
%LS3.73205080756888*%
X10488782Y576642320D01*
X130131102Y783868898D01*
%LS1*%
X337357680Y903511218D01*
%LS0.732050807568877*%
X217715360Y696284640D01*
X10488782Y576642320D01*
%LS1*%
X130131102Y369415743D01*
%LS0.732050807568877*%
X249773423Y576642320D01*
%LS0.866025403784439*%
X457000000Y696284640D01*
%LS0.577350269189626*%
X337357680Y489058063D01*
%LS0.732050807568877*%
X130131102Y369415743D01*
%LS3.73205080756888*%
X130131102Y130131102D01*
%LS0.366025403784439*%
X249773423Y337357680D01*
%LS2*%
X130131102Y544584257D01*
%LS1.36602540378444*%
X130131102Y783868898D01*
%LS0.366025403784439*%
X249773423Y576642320D01*
%LS1.73205080756888*%
X249773423Y337357680D01*
%LS0.367552596947861*%
X457000000Y457000000D01*
X337357680Y664226577D01*
%LS1.5707963267949*%
X337357680Y903511218D01*
%LS0.999999999999999*%
X457000000Y696284640D01*
%LS0.636619772367582*%
X457000000Y457000000D01*
X337357680Y249773423D01*
%LS2.72069904635133*%
X217715360Y457000000D01*
%LS1.15470053837925*%
X217715360Y696284640D01*
%LS0.366025403784439*%
X337357680Y489058063D01*
%LS1.36602540378444*%
X337357680Y249773423D01*
%LS0.999999999999999*%
X130131102Y130131102D01*
%LS2.73205080756888*%
X369415743Y130131102D01*
%LS0.732050807568877*%
X249773423Y337357680D01*
%LS0.5*%
X369415743Y544584257D01*
%LS1*%
X576642320Y664226577D01*
%LS0.636619772367582*%
X457000000Y457000000D01*
X249773423Y337357680D01*
%LS2.72069904635133*%
X249773423Y576642320D01*
%LS1.15470053837925*%
X369415743Y783868898D01*
%LS1.36602540378444*%
X576642320Y903511218D01*
%LS0.366025403784439*%
X457000000Y696284640D01*
%LS1.73205080756888*%
X249773423Y576642320D01*
%LS0.577350269189626*%
X369415743Y369415743D01*
%LS0.636619772367581*%
X489058063Y576642320D01*
%LS1.14990271955643*%
X696284640Y696284640D01*
%LS1*%
X576642320Y489058063D01*
%LS0.869638781605583*%
X369415743Y369415743D01*
%LS1.14990271955643*%
X369415743Y130131102D01*
%LS0.999999999999999*%
X489058063Y337357680D01*
%LS0.869638781605583*%
X369415743Y544584257D01*
%LS1.14990271955643*%
X369415743Y783868898D01*
%LS1*%
X489058063Y576642320D01*
%LS0.869638781605583*%
X489058063Y337357680D01*
%LS1.5707963267949*%
X696284640Y457000000D01*
%LS1.73205080756888*%
X576642320Y664226577D01*
%LS0.577350269189626*%
X576642320Y903511218D01*
%LS2.73205080756888*%
X696284640Y696284640D01*
%LS0.732050807568877*%
X696284640Y457000000D01*
%LS0.866025403784438*%
X576642320Y249773423D01*
%LS0.367552596947862*%
X457000000Y457000000D01*
X457000000Y696284640D01*
%LS1.5707963267949*%
X576642320Y489058063D01*
%LS1*%
X576642320Y249773423D01*
%LS2*%
X369415743Y130131102D01*
%LS1.36602540378444*%
X576642320Y10488782D01*
%LS0.366025403784439*%
X457000000Y217715360D01*
%LS2*%
X217715360Y217715360D01*
%LS1.36602540378444*%
X10488782Y337357680D01*
%LS0.366025403784439*%
X249773423Y337357680D01*
%LS1.73205080756888*%
X457000000Y217715360D01*
%LS0.577350269189626*%
X576642320Y424941937D01*
%LS0.732050807568877*%
X783868898Y544584257D01*
%LS2.73205080756888*%
X664226577Y337357680D01*
%LS0.866025403784439*%
X457000000Y217715360D01*
%LS0.367552596947861*%
X457000000Y457000000D01*
X576642320Y664226577D01*
%LS1.5707963267949*%
X783868898Y783868898D01*
%LS0.999999999999999*%
X664226577Y576642320D01*
%LS0.636619772367582*%
X457000000Y457000000D01*
X217715360Y457000000D01*
%LS1.5707963267949*%
X10488782Y576642320D01*
%LS1*%
X249773423Y576642320D01*
%LS0.636619772367581*%
X457000000Y457000000D01*
X576642320Y249773423D01*
%LS2.72069904635133*%
X337357680Y249773423D01*
%LS1.15470053837925*%
X130131102Y369415743D01*
%LS0.366025403784439*%
X369415743Y369415743D01*
%LS1.36602540378444*%
X576642320Y249773423D01*
%LS1.73205080756888*%
X696284640Y457000000D01*
%LS0.577350269189626*%
X903511218Y576642320D01*
%LS2.73205080756888*%
X783868898Y369415743D01*
%LS0.732050807568877*%
X576642320Y249773423D01*
%LS0.5*%
X576642320Y10488782D01*
%LS2.73205080756888*%
X696284640Y217715360D01*
%LS0.732050807568877*%
X457000000Y217715360D01*
%LS0.866025403784439*%
X249773423Y337357680D01*
%LS0.577350269189626*%
X489058063Y337357680D01*
%LS0.732050807568878*%
X696284640Y217715360D01*
%LS0.999999999999999*%
X576642320Y424941937D01*
%LS0.869638781605583*%
X337357680Y424941937D01*
%LS1.14990271955643*%
X130131102Y544584257D01*
X369415743Y544584257D01*
%LS0.869638781605583*%
X576642320Y424941937D01*
%LS1.5707963267949*%
X576642320Y664226577D01*
%LS1.73205080756888*%
X337357680Y664226577D01*
%LS0.577350269189626*%
X130131102Y783868898D01*
%LS2.73205080756888*%
X369415743Y783868898D01*
%LS0.732050807568877*%
X576642320Y664226577D01*
%LS0.866025403784438*%
X696284640Y457000000D01*
%LS0.367552596947862*%
X457000000Y457000000D01*
X249773423Y576642320D01*
%LS1.5707963267949*%
X489058063Y576642320D01*
%LS0.999999999999999*%
X696284640Y457000000D01*
%LS2*%
X696284640Y217715360D01*
%LS1.36602540378444*%
X903511218Y337357680D01*
%LS0.366025403784439*%
X664226577Y337357680D01*
%LS0.636619772367581*%
X457000000Y457000000D01*
X696284640Y457000000D01*
%LS1.57079632679489*%
X903511218Y337357680D01*
%LS2.73205080756888*%
X783868898Y544584257D01*
%LS0.267949192431123*%
X544584257Y544584257D01*
%LS1.36602540378444*%
X337357680Y664226577D01*
%LS1.73205080756888*%
X576642320Y664226577D01*
%LS1.15470053837925*%
X783868898Y544584257D01*
%LS1.36602540378444*%
X783868898Y783868898D01*
%LS1*%
X544584257Y783868898D01*
X337357680Y903511218D01*
%LS1.36602540378444*%
X576642320Y903511218D01*
%LS1*%
X783868898Y783868898D01*
%LS1*%
X903511218Y576642320D01*
%LS0.267949192431123*%
X664226577Y576642320D01*
%LS1.73205080756888*%
X457000000Y696284640D01*
%LS1.15470053837925*%
X696284640Y696284640D01*
%LS1.36602540378444*%
X903511218Y576642320D01*
%LS1.36602540378444*%
X903511218Y337357680D01*
%LS1*%
X783868898Y130131102D01*
%LS0.732050807568877*%
X544584257Y130131102D01*
%LS0.732050807568877*%
X337357680Y249773423D01*
%LS0.866025403784438*%
X576642320Y249773423D01*
%LS0.577350269189626*%
X783868898Y130131102D01*
%LS1*%
X664226577Y337357680D01*
%LS0.999999999999999*%
X424941937Y337357680D01*
%LS1*%
X217715360Y457000000D01*
%LS0.636619772367582*%
X457000000Y457000000D01*
X664226577Y337357680D01*
%LS2.72069904635133*%
X664226577Y576642320D01*
%LS0.577350269189627*%
X424941937Y576642320D01*
%LS0.732050807568877*%
X217715360Y696284640D01*
%LS2.73205080756888*%
X457000000Y696284640D01*
%LS0.866025403784439*%
X664226577Y576642320D01*
%LS1.15470053837925*%
X783868898Y369415743D01*
%LS0.366025403784438*%
X544584257Y369415743D01*
%LS0.869638781605584*%
X337357680Y489058063D01*
X576642320Y489058063D01*
%LS1.14990271955643*%
X783868898Y369415743D01*
%LS3.73205080756888*%
X783868898Y130131102D01*
%LS1.36602540378444*%
X576642320Y10488782D01*
M02*
